<svg xmlns="http://www.w3.org/2000/svg" width="23" height="23" viewBox="0 0 23 23">
  <g id="audio" transform="translate(-226 -66)">
    <rect id="Rectangle_1461" data-name="Rectangle 1461" width="23" height="23" rx="2" transform="translate(226 66)" fill="#7a8b93"/>
    <g id="speaker" transform="translate(230 62.435)">
      <path id="Path_24346" data-name="Path 24346" d="M7.391,20.038a.671.671,0,0,1-1.1.516L2.624,17.515H.671A.671.671,0,0,1,0,16.844V14.171A.671.671,0,0,1,.671,13.5H2.624l3.668-3.039a.671.671,0,0,1,1.1.517v9.06Zm2.578-1.048-.048,0a.67.67,0,0,1-.474-.2l-.09-.09a.67.67,0,0,1-.065-.874,3.9,3.9,0,0,0-.1-4.78.67.67,0,0,1,.046-.9l.09-.09a.656.656,0,0,1,.508-.2.672.672,0,0,1,.486.245,5.373,5.373,0,0,1,.14,6.609A.671.671,0,0,1,9.969,18.989Zm2.774,2.073a.672.672,0,0,1-.485.237H12.23a.67.67,0,0,1-.474-.2l-.088-.088a.671.671,0,0,1-.039-.906,7.149,7.149,0,0,0-.118-9.341.671.671,0,0,1,.027-.918l.088-.088a.653.653,0,0,1,.495-.2.671.671,0,0,1,.482.225,8.614,8.614,0,0,1,.141,11.273Z" fill="#fcfeff"/>
    </g>
  </g>
</svg>
