<svg id="document" xmlns="http://www.w3.org/2000/svg" width="21.839" height="24.642" viewBox="0 0 21.839 24.642">
  <path id="Path_274" data-name="Path 274" d="M20.975,24.642H.864A.864.864,0,0,1,0,23.778V.864A.864.864,0,0,1,.864,0H14.651a.864.864,0,0,1,.611.253l6.325,6.325a.864.864,0,0,1,.253.611V23.778A.864.864,0,0,1,20.975,24.642Zm0,0" fill="#7a8b93"/>
  <path id="Path_276" data-name="Path 276" d="M261.35,6.578,255.026.254A.864.864,0,0,0,254.415,0V6.325a.864.864,0,0,0,.864.864H261.6a.863.863,0,0,0-.253-.611Zm0,0" transform="translate(-239.764 0)" fill="#b4c6ce"/>
  <path id="Path_278" data-name="Path 278" d="M87.338,324.056H75.864a.864.864,0,0,1,0-1.728H87.338a.864.864,0,0,1,0,1.728Zm0,0" transform="translate(-70.681 -305.328)" fill="#fcfeff"/>
  <path id="Path_279" data-name="Path 279" d="M87.338,264.056H75.864a.864.864,0,1,1,0-1.728H87.338a.864.864,0,0,1,0,1.728Zm0,0" transform="translate(-70.681 -249.328)" fill="#fcfeff"/>
  <path id="Path_283" data-name="Path 283" d="M80.032,204.056H75.864a.864.864,0,1,1,0-1.728h4.168a.864.864,0,1,1,0,1.728Zm0,0" transform="translate(-70.681 -193.328)" fill="#fcfeff"/>
</svg>
