<svg xmlns="http://www.w3.org/2000/svg" width="40.662" height="40.662" viewBox="0 0 40.662 40.662">
  <g id="add_members" transform="translate(1570 334)">
    <path id="Path_50225" data-name="Path 50225" d="M20.331,0A20.331,20.331,0,1,1,0,20.331,20.331,20.331,0,0,1,20.331,0Z" transform="translate(-1570 -334)" fill="#eff5ff"/>
    <g id="Icon_feather-user-plus" data-name="Icon feather-user-plus" transform="translate(-1557.24 -320.389)">
      <path id="Path_112" data-name="Path 112" d="M12.842,27.037V25.525A3.025,3.025,0,0,0,9.818,22.5H4.525A3.025,3.025,0,0,0,1.5,25.525v1.512" transform="translate(-1.5 -13.426)" fill="none" stroke="#1d76f2" stroke-linejoin="round" stroke-width="1.5"/>
      <g id="Path_113" data-name="Path 113" transform="translate(-4.103 -4.5)" fill="none" stroke-linejoin="round">
        <path d="M12.8,7.525A3.025,3.025,0,1,1,9.775,4.5,3.025,3.025,0,0,1,12.8,7.525Z" stroke="none"/>
        <path d="M 9.774605751037598 4.499996185302734 C 8.104166030883789 4.499996185302734 6.749996185302734 5.854166030883789 6.749996185302734 7.524606227874756 C 6.749996185302734 9.195046424865723 8.104166030883789 10.54921627044678 9.774605751037598 10.54921627044678 C 11.44504547119141 10.54921627044678 12.79921531677246 9.195046424865723 12.79921531677246 7.524606227874756 C 12.79921531677246 5.854166030883789 11.44504547119141 4.499996185302734 9.774605751037598 4.499996185302734 M 9.774605751037598 2.999996185302734 C 12.26948547363281 2.999996185302734 14.29921531677246 5.029726028442383 14.29921531677246 7.524606227874756 C 14.29921531677246 10.01948642730713 12.26948547363281 12.04921627044678 9.774605751037598 12.04921627044678 C 7.279726028442383 12.04921627044678 5.249996185302734 10.01948642730713 5.249996185302734 7.524606227874756 C 5.249996185302734 5.029726028442383 7.279726028442383 2.999996185302734 9.774605751037598 2.999996185302734 Z" stroke="none" fill="#1d76f2"/>
      </g>
      <path id="Path_114" data-name="Path 114" d="M30,12v5.293" transform="translate(-15.255 -8.975)" fill="none" stroke="#1d76f2" stroke-linejoin="round" stroke-width="1.5"/>
      <path id="Path_115" data-name="Path 115" d="M30.793,16.5H25.5" transform="translate(-13.402 -10.829)" fill="none" stroke="#1d76f2" stroke-linejoin="round" stroke-width="1.5"/>
    </g>
  </g>
</svg>
