<svg xmlns="http://www.w3.org/2000/svg" width="36" height="36" viewBox="0 0 36 36">
  <g id="call" transform="translate(1681 433)">
    <circle id="Ellipse_67" data-name="Ellipse 67" cx="18" cy="18" r="18" transform="translate(-1681 -433)" fill="#1d76f2"/>
    <path id="Path_2728" data-name="Path 2728" d="M8.009,13.952,8,13.946l0,0-.008-.009-.851-.952,0,0A14.948,14.948,0,0,1,4.8,9.587a4.107,4.107,0,0,1-.178-.475A1.332,1.332,0,0,1,4.891,7.88l.745-.895A3.757,3.757,0,0,0,6.488,3.9,6.382,6.382,0,0,0,5.1,1.127,1.736,1.736,0,0,0,4.558.678c-1.238-.613-2.707.5-3.435,1.167a1.779,1.779,0,0,0-.559,1.1c-.449,3.7,1.527,7.8,2.674,9.815h0a24.726,24.726,0,0,0,2.341,2.93c1.733,1.687,4.7,4.112,7.945,4.706a1.784,1.784,0,0,0,1.213-.207c.858-.5,2.352-1.568,2.136-2.933a1.748,1.748,0,0,0-.266-.655,6.374,6.374,0,0,0-2.232-2.144,3.755,3.755,0,0,0-3.2-.105l-1.076.446a1.333,1.333,0,0,1-1.255-.113A6.336,6.336,0,0,1,8,13.946L8,13.94a12.717,12.717,0,0,1-.856-.958l0,0" transform="translate(-1671.41 -425.523)" fill="#fff"/>
  </g>
</svg>
