<svg xmlns="http://www.w3.org/2000/svg" viewBox="0 0 82.51 101.59"><defs><style>.cls-1{fill:#019ddf;}</style></defs><title>delete-blue-</title><g id="Layer_2" data-name="Layer 2"><g id="Layer_1-2" data-name="Layer 1"><path class="cls-1" d="M55.63,36.47a2.43,2.43,0,0,0-2.43,2.44V85a2.44,2.44,0,1,0,4.87,0v-46A2.44,2.44,0,0,0,55.63,36.47Z"/><path class="cls-1" d="M26.88,36.47a2.44,2.44,0,0,0-2.44,2.44V85a2.44,2.44,0,0,0,4.88,0v-46A2.44,2.44,0,0,0,26.88,36.47Z"/><path class="cls-1" d="M6.76,30.25V88.86a13.14,13.14,0,0,0,3.49,9.06,11.69,11.69,0,0,0,8.5,3.67h45a11.71,11.71,0,0,0,8.51-3.67,13.19,13.19,0,0,0,3.49-9.06V30.25a9.09,9.09,0,0,0-2.34-17.88H61.24v-3A9.34,9.34,0,0,0,51.82,0H30.69a9.36,9.36,0,0,0-9.42,9.4v3H9.09A9.09,9.09,0,0,0,6.76,30.25Zm57,66.59h-45c-4.07,0-7.23-3.5-7.23-8V30.45H71V88.86C71,93.34,67.83,96.84,63.76,96.84ZM26,9.4a4.58,4.58,0,0,1,4.66-4.64H51.82A4.58,4.58,0,0,1,56.48,9.4v3H26ZM9.09,17.13H73.42a4.29,4.29,0,1,1,0,8.57H9.09a4.29,4.29,0,0,1,0-8.57Z"/><path class="cls-1" d="M41.26,36.47a2.44,2.44,0,0,0-2.44,2.44V85a2.44,2.44,0,1,0,4.87,0v-46A2.43,2.43,0,0,0,41.26,36.47Z"/></g></g></svg>