<svg xmlns="http://www.w3.org/2000/svg" width="20.226" height="17.636" viewBox="0 0 20.226 17.636"><defs><style>.a{fill:#28b446;}.b{fill:#219b38;}.c{fill:#ffd837;}.d{fill:#518ef8;}.e{fill:#3a5bbc;}.f{fill:#fbbb00;}</style></defs><g transform="translate(0 -32.79)"><path class="a" d="M6.553,44.7l-.169,3.355L3.268,50.426,0,44.665,6.819,32.79l3.192,2.191.105,3.552-.03.017Z"/><path class="b" d="M172.6,32.79l1.94,8.072,1.357-2.329-.105-4.676Z" transform="translate(-165.783)"/><path class="c" d="M179.191,32.79l6.819,11.875-3.677,1.86-2.912-1.842v-.018L175.9,38.533l-3.3-5.743Z" transform="translate(-165.783)"/><path class="d" d="M99.672,333.4l-3.265,5.723-13.693.037L86,333.436l7.084-.019Z" transform="translate(-79.445 -288.733)"/><path class="e" d="M82.713,339.9l5.73-5.73L86,334.18Z" transform="translate(-79.445 -289.477)"/><path class="f" d="M330.236,295.854l-7.476-1.544.887,1.562Z" transform="translate(-310.009 -251.189)"/></g></svg>