<svg xmlns="http://www.w3.org/2000/svg" width="17.665" height="20.843" viewBox="0 0 17.665 20.843"><defs><style>.a{fill:#4caf50;}</style></defs><path class="a" d="M5.857,5.737c-3.381,0-3.362-.043-3.856.156-.035.016-.035,0-.017-.017C6.868.883,7.078.614,7,.76c-.195.482-.148.43-.155,3.973C6.828,5.448,6.632,5.737,5.857,5.737Zm5.637,14.514A2.58,2.58,0,0,1,12.9,15.5a.786.786,0,0,1,.771.782.763.763,0,0,1-.391.667l0,0c-.254.154-.643.1-.856.293a.849.849,0,0,0-.035,1.279c1.117,1.126,3.273.173,3.273-1.632v-.01h0a2.7,2.7,0,0,0-1.628-2.4,4.514,4.514,0,0,0-1.079-.26c-.72-.087-2.519-.656-2.64-2.263,0,0-.531,2.418-1.593,3.075-1.106.563-3.972.118-5.6-1.572a5,5,0,0,1-1.3-2.7A23.153,23.153,0,0,1,1.3,7.879a1.407,1.407,0,0,1,1.165-1.5h3.5c1.118,0,1.526-.514,1.526-1.5V1.227A1.415,1.415,0,0,1,8.975.052a4.494,4.494,0,0,1,1.44.139,1.819,1.819,0,0,1,1.268,1.33s1.971.346,2.965.518c.942.173,3.274.328,3.718,2.7a38.6,38.6,0,0,1,.36,11.093c-.692,5-5.127,5.906-7.244,4.415ZM14.219,9.538a.465.465,0,0,0-.051.241c.089.267,1.931.387,2.193.346.155,0,.121-.223.121-.312a1.244,1.244,0,0,0-2.263-.276Z" transform="translate(-1.298 -0.05)"/></svg>