<svg xmlns="http://www.w3.org/2000/svg" width="54.788" height="54.789" viewBox="0 0 54.788 54.789"><defs><style>.a{fill:#fff;}.b{fill:#4179f9;}.c{fill:#97b7ff;}</style></defs><g transform="translate(-0.006 45)"><g transform="translate(0.006 -45)"><g transform="translate(0 0)"><path class="a" d="M55.624-1.854A4.232,4.232,0,0,1,60.5-1.6L59.025-3.745a3.176,3.176,0,0,1,.934-4.711,3.75,3.75,0,0,1,5.22.92L78.631,11.634l.107-.047L66.452-6.459a3.524,3.524,0,0,1,.737-5.075,3.783,3.783,0,0,1,5.266.931L88.332,11.825a3.805,3.805,0,0,1-1.1,5.252,3.7,3.7,0,0,1-.925.456V31.442H71.072V26.7a21.429,21.429,0,0,1-1.65-1.415L54.693,3.445a3.8,3.8,0,0,1,.931-5.3" transform="translate(-48.217 15.729)"/><path class="b" d="M33.529.542A2.984,2.984,0,0,1,34.32-3.7a2.984,2.984,0,0,1,4.236.791l8,11.668A15.361,15.361,0,0,1,47.469,7.4l-11.1-16.2a2.983,2.983,0,0,1,.791-4.236,2.982,2.982,0,0,1,4.236.789L51.837,2.992c.388-.318.785-.635,1.2-.948L40.925-15.615a2.984,2.984,0,0,1,.789-4.236,2.982,2.982,0,0,1,4.236.789L58.06-1.4c.445-.273.885-.51,1.326-.759l-11.316-16.5A2.983,2.983,0,0,1,48.86-22.9a2.982,2.982,0,0,1,4.236.789L65.062-4.661l.958,1.4.861,1.257a15.269,15.269,0,0,0-3.949,21.182,1.494,1.494,0,0,0,2.119.4C59.88,12.03,61.46,3.558,69-1.612L66.774-12.738a2.985,2.985,0,0,1,2.1-3.763,2.984,2.984,0,0,1,3.762,2.1L75.2-6.776a67.6,67.6,0,0,0,3.535,8.883A18.285,18.285,0,0,1,47.315,20.648c-.3-.442-.555-.873-.8-1.3l-.067.047Z" transform="translate(-29.423 25.809)"/><path class="c" d="M43.154,295.3c-6.095,0-12.253-6.159-12.253-12.253a1.469,1.469,0,0,0-1.46-1.524,1.578,1.578,0,0,0-1.588,1.524c0,9.142,6.159,15.3,15.3,15.3a1.578,1.578,0,0,0,1.524-1.588,1.469,1.469,0,0,0-1.524-1.46" transform="translate(-24.87 -246.546)"/><path class="c" d="M10.672,361.781a7.2,7.2,0,0,1-7.618-7.618,1.524,1.524,0,0,0-3.047,0,10.415,10.415,0,0,0,10.666,10.666,1.524,1.524,0,0,0,0-3.047" transform="translate(-0.006 -310.039)"/><path class="c" d="M328.641-17.139a1.524,1.524,0,0,0-1.524,1.524,1.524,1.524,0,0,0,1.524,1.524c6.095,0,12.189,5.468,12.189,12.189a1.524,1.524,0,0,0,1.524,1.524A1.524,1.524,0,0,0,343.878-1.9c0-8.4-6.095-15.237-15.237-15.237" transform="translate(-292.073 20.124)"/><path class="c" d="M399.752-45a1.471,1.471,0,0,0-1.524,1.46,1.579,1.579,0,0,0,1.524,1.588,7.316,7.316,0,0,1,7.554,7.554,1.579,1.579,0,0,0,1.588,1.524,1.47,1.47,0,0,0,1.46-1.524,10.458,10.458,0,0,0-10.6-10.6" transform="translate(-355.566 45)"/></g></g></g></svg>