<svg xmlns="http://www.w3.org/2000/svg" width="40.662" height="40.662" viewBox="0 0 40.662 40.662">
  <g id="invite_via_link" transform="translate(1521 336)">
    <path id="Path_50226" data-name="Path 50226" d="M20.331,0A20.331,20.331,0,1,1,0,20.331,20.331,20.331,0,0,1,20.331,0Z" transform="translate(-1521 -336)" fill="#fff0e6"/>
    <path id="Icon_ionic-md-link" data-name="Icon ionic-md-link" d="M4.1,15a3.02,3.02,0,0,1,3.018-3.018h3.827V10.125H7.121a4.871,4.871,0,0,0,0,9.742h3.827V18.014H7.121A3.02,3.02,0,0,1,4.1,15Zm3.714.957h8.35V14.039H7.817Zm9.046-5.828H13.036v1.853h3.827a3.018,3.018,0,1,1,0,6.037H13.036v1.853h3.827a4.871,4.871,0,1,0,0-9.742Z" transform="translate(-1512.75 -330.877)" fill="#ff761a" stroke="#fff0e6" stroke-width="0.5"/>
  </g>
</svg>
