<svg xmlns="http://www.w3.org/2000/svg" viewBox="0 0 107.19 102.9"><defs><style>.cls-1{fill:#019ddf;}</style></defs><title>like-blue-</title><g id="Layer_2" data-name="Layer 2"><g id="Layer_1-2" data-name="Layer 1"><path class="cls-1" d="M103.5,57.14a14.66,14.66,0,0,0,3.69-10A13,13,0,0,0,94.33,34.3H75.77a16.71,16.71,0,0,1,.54-1.61A10,10,0,0,1,77,31.22c.32-.54.54-.94.67-1.21.81-1.52,1.42-2.77,1.85-3.75a28.18,28.18,0,0,0,1.27-4,21.11,21.11,0,0,0,.63-5.09q0-1.61,0-2.61a28.17,28.17,0,0,0-.33-3,17.15,17.15,0,0,0-.81-3.35,15,15,0,0,0-1.61-3A9.39,9.39,0,0,0,76,2.44,14.79,14.79,0,0,0,72,.7,19.93,19.93,0,0,0,66.46,0a4.11,4.11,0,0,0-3,1.27,11.9,11.9,0,0,0-2.28,3.35,19.64,19.64,0,0,0-1.3,3.49q-.37,1.47-.84,4.08c-.4,1.88-.7,3.23-.91,4.06a21.52,21.52,0,0,1-1.17,3.24,10.12,10.12,0,0,1-2.08,3.22,99.15,99.15,0,0,0-6.76,8q-3.29,4.29-6.77,8.1t-5.09,4a4.38,4.38,0,0,0-2.88,1.37,4.07,4.07,0,0,0-1.21,2.91V90a4,4,0,0,0,1.28,3,4.43,4.43,0,0,0,3,1.3q2.34.08,10.59,3c3.43,1.16,6.13,2,8.07,2.65s4.66,1.25,8.14,1.94a49.9,49.9,0,0,0,9.64,1h8.64q8.92-.14,13.2-5.23Q98.61,93.05,98,85.55a13,13,0,0,0,3.62-6.3,13.76,13.76,0,0,0,0-7.84,13.82,13.82,0,0,0,2.88-9.17A15.94,15.94,0,0,0,103.5,57.14Z"/><path class="cls-1" d="M23.58,42.87H4.29a4.14,4.14,0,0,0-3,1.28,4.11,4.11,0,0,0-1.27,3V90a4.11,4.11,0,0,0,1.27,3,4.13,4.13,0,0,0,3,1.27H23.58A4.34,4.34,0,0,0,27.87,90V47.16a4.35,4.35,0,0,0-4.29-4.29Zm-7.7,41.64a4.18,4.18,0,0,1-3,1.24,4.29,4.29,0,1,1,3-7.3,4.25,4.25,0,0,1,0,6.06Z"/></g></g></svg>