<svg xmlns="http://www.w3.org/2000/svg" xmlns:xlink="http://www.w3.org/1999/xlink" width="248.56" height="66.957" viewBox="0 0 248.56 66.957"><defs><style>.a{fill:#ff7c09;}.b{fill:#1d76f2;}.c{clip-path:url(#a);}</style><clipPath id="a"><path class="a" d="M-228.291,549.113l.031-10.919,5.453,3.147a9.722,9.722,0,0,1,4.861,8.447l-.015,5.288Z" transform="translate(228.291 -538.194)"/></clipPath></defs><g transform="translate(-42 -103)"><path class="b" d="M20.25-8.1V-21.42H15.54V-8.1a5.36,5.36,0,0,1-.96,3.525Q13.62-3.45,11.1-3.45a5.426,5.426,0,0,1-2.3-.4A3.477,3.477,0,0,1,7.47-4.9,3.471,3.471,0,0,1,6.84-6.39,9.709,9.709,0,0,1,6.69-8.1V-21.42H1.98V-8.1q0,4.38,2.385,6.48A9.862,9.862,0,0,0,11.1.48a9.9,9.9,0,0,0,6.72-2.115Q20.25-3.75,20.25-8.1Zm4.68-7.41V0h4.26V-8.13a5.754,5.754,0,0,1,.78-3.4,2.951,2.951,0,0,1,2.52-1.035,2.324,2.324,0,0,1,2.13.945,5.435,5.435,0,0,1,.6,2.865V0h4.26V-9.54a12.5,12.5,0,0,0-.255-2.625,4.992,4.992,0,0,0-.885-2.01,4.159,4.159,0,0,0-1.725-1.29,7.235,7.235,0,0,0-2.805-.465,6.073,6.073,0,0,0-2.64.615,4.888,4.888,0,0,0-2.1,1.965h-.09v-2.16Zm23.25-2.4v-3.51H43.92v3.51Zm-4.26,2.4V0h4.26V-15.51Zm9.63,2.85V0h4.26V-12.66h2.94v-2.85H57.81v-.93a1.99,1.99,0,0,1,.375-1.365,1.634,1.634,0,0,1,1.245-.4,13.092,13.092,0,0,1,1.56.09V-21.3q-.54-.03-1.11-.075t-1.14-.045a5.227,5.227,0,0,0-3.9,1.32,4.647,4.647,0,0,0-1.29,3.39v1.2H51v2.85Zm14.52-5.25v-3.51H63.81v3.51Zm-4.26,2.4V0h4.26V-15.51ZM82.95-9.42H76.02a4.89,4.89,0,0,1,.195-1.02,3.132,3.132,0,0,1,.57-1.08,3.227,3.227,0,0,1,1.08-.855,3.706,3.706,0,0,1,1.695-.345,2.992,2.992,0,0,1,2.325.84A4.924,4.924,0,0,1,82.95-9.42Zm-6.93,2.7H87.21a10.949,10.949,0,0,0-.3-3.45,8.445,8.445,0,0,0-1.365-2.94,6.885,6.885,0,0,0-2.415-2.055,7.375,7.375,0,0,0-3.45-.765,8.033,8.033,0,0,0-3.225.63,7.625,7.625,0,0,0-2.505,1.725,7.6,7.6,0,0,0-1.62,2.6,9.046,9.046,0,0,0-.57,3.24,9.444,9.444,0,0,0,.555,3.3A7.494,7.494,0,0,0,73.89-1.86,6.861,6.861,0,0,0,76.38-.2a8.859,8.859,0,0,0,3.3.585,8.124,8.124,0,0,0,4.5-1.2A7.119,7.119,0,0,0,86.94-4.8H83.19a2.676,2.676,0,0,1-1.14,1.365,3.8,3.8,0,0,1-2.22.645,3.808,3.808,0,0,1-2.76-.93A4.307,4.307,0,0,1,76.02-6.72Zm25.8-1.08a9.462,9.462,0,0,1-.18,1.86,5.041,5.041,0,0,1-.6,1.605A3.19,3.19,0,0,1,99.915-3.21a3.378,3.378,0,0,1-1.755.42,3.165,3.165,0,0,1-1.695-.435,3.742,3.742,0,0,1-1.17-1.14A4.916,4.916,0,0,1,94.62-5.97a7.9,7.9,0,0,1-.21-1.8,8.552,8.552,0,0,1,.195-1.845,4.906,4.906,0,0,1,.63-1.575A3.321,3.321,0,0,1,96.39-12.3a3.461,3.461,0,0,1,1.77-.42,3.3,3.3,0,0,1,1.74.42,3.463,3.463,0,0,1,1.125,1.1,4.509,4.509,0,0,1,.615,1.56A9.237,9.237,0,0,1,101.82-7.8Zm.06,5.82V0h4.05V-21.42h-4.26v7.8h-.06a4.573,4.573,0,0,0-1.965-1.725,6.1,6.1,0,0,0-2.625-.585,6.38,6.38,0,0,0-3,.675,6.432,6.432,0,0,0-2.145,1.785,7.836,7.836,0,0,0-1.29,2.565A10.469,10.469,0,0,0,90.15-7.89a11.145,11.145,0,0,0,.435,3.12,8.3,8.3,0,0,0,1.29,2.655A6.143,6.143,0,0,0,94.05-.285,6.632,6.632,0,0,0,97.11.39a6.535,6.535,0,0,0,2.745-.555A4.394,4.394,0,0,0,101.82-1.98Zm13.5-9.75v-6.03h5.16a3.615,3.615,0,0,1,2.43.7,2.855,2.855,0,0,1,.81,2.265,2.988,2.988,0,0,1-.81,2.34,3.563,3.563,0,0,1-2.43.72Zm-4.71-9.69V0h4.71V-8.37h4.71a3.505,3.505,0,0,1,2.55.78,4.254,4.254,0,0,1,1.02,2.46q.18,1.29.27,2.7A8.3,8.3,0,0,0,124.41,0h4.71a3.152,3.152,0,0,1-.495-1.1,9.459,9.459,0,0,1-.24-1.365q-.075-.72-.1-1.41t-.06-1.2a12.872,12.872,0,0,0-.225-1.62,5.447,5.447,0,0,0-.525-1.485,4.075,4.075,0,0,0-.93-1.17,3.633,3.633,0,0,0-1.44-.735v-.06a5,5,0,0,0,2.6-2.1,6.44,6.44,0,0,0,.795-3.27,6.011,6.011,0,0,0-.435-2.3,5.535,5.535,0,0,0-1.26-1.875,5.972,5.972,0,0,0-1.98-1.275,6.9,6.9,0,0,0-2.6-.465Zm26.67,3.51v-3.51h-4.26v3.51Zm-4.26,2.4V0h4.26V-15.51Zm8.7,0V0h4.26V-8.13a5.754,5.754,0,0,1,.78-3.4,2.951,2.951,0,0,1,2.52-1.035,2.324,2.324,0,0,1,2.13.945,5.435,5.435,0,0,1,.6,2.865V0h4.26V-9.54a12.5,12.5,0,0,0-.255-2.625,4.992,4.992,0,0,0-.885-2.01,4.159,4.159,0,0,0-1.725-1.29,7.235,7.235,0,0,0-2.8-.465,6.073,6.073,0,0,0-2.64.615,4.888,4.888,0,0,0-2.1,1.965h-.09v-2.16Zm26.1,11.85a3.017,3.017,0,0,1-1.65-.42,3.33,3.33,0,0,1-1.065-1.08,4.5,4.5,0,0,1-.57-1.485,8.469,8.469,0,0,1-.165-1.665,6.966,6.966,0,0,1,.2-1.665,4.111,4.111,0,0,1,.63-1.41,3.249,3.249,0,0,1,1.08-.975,3.123,3.123,0,0,1,1.545-.36,3.5,3.5,0,0,1,1.74.39,3.106,3.106,0,0,1,1.11,1.05,4.535,4.535,0,0,1,.6,1.515,8.8,8.8,0,0,1,.18,1.815,5.659,5.659,0,0,1-.225,1.6,4.252,4.252,0,0,1-.675,1.365,3.326,3.326,0,0,1-1.14.96A3.388,3.388,0,0,1,167.88-3.66Zm7.68,2.67V-15.51h-4.05v2.07h-.06a4.633,4.633,0,0,0-1.935-1.92,6,6,0,0,0-2.685-.57,6.261,6.261,0,0,0-2.865.63,6.162,6.162,0,0,0-2.085,1.695,7.567,7.567,0,0,0-1.275,2.46,9.668,9.668,0,0,0-.435,2.895,11.8,11.8,0,0,0,.375,3.015,7.009,7.009,0,0,0,1.185,2.49,5.692,5.692,0,0,0,2.07,1.68,6.776,6.776,0,0,0,3,.615,6.365,6.365,0,0,0,2.685-.585A4.218,4.218,0,0,0,171.45-2.85h.06V-.81a4.235,4.235,0,0,1-.795,2.73A3.093,3.093,0,0,1,168.09,3a4.2,4.2,0,0,1-2.01-.465A2.431,2.431,0,0,1,164.91.87h-4.23a4.479,4.479,0,0,0,.735,2.265,5.308,5.308,0,0,0,1.62,1.545,7.386,7.386,0,0,0,2.16.885,9.922,9.922,0,0,0,2.325.285,10.476,10.476,0,0,0,4.26-.72,6.524,6.524,0,0,0,2.43-1.755,5.252,5.252,0,0,0,1.1-2.235A10.385,10.385,0,0,0,175.56-.99Z" transform="translate(115 147)"/><g transform="translate(42 103)"><g transform="translate(19.854 25.533)"><g transform="translate(0 0)"><g class="c"><g transform="translate(0.014 0.295)"><path class="a" d="M-217.915,544.481l-9.724-5.614a.405.405,0,0,0-.608.35l-.015,5.173a8.713,8.713,0,0,0,4.356,7.57l5.353,3.091a.405.405,0,0,0,.608-.35l.029-10.22" transform="translate(228.261 -538.813)"/></g></g></g></g><path class="b" d="M-269.978,508.756V539.77a9.377,9.377,0,0,0,4.553,8.041l26.863,16.118a.4.4,0,0,0,.613-.347v-9.592a8.5,8.5,0,0,0-3.759-7.057l-6.547-4.4a.405.405,0,0,0-.631.331l-.077,6.413a.405.405,0,0,1-.615.342l-9.674-5.868a9.294,9.294,0,0,1-4.372-8.126L-263.4,527a.405.405,0,0,1,.6-.345l5.7,3.12a.4.4,0,0,0,.6-.355v-8.3a9.216,9.216,0,0,0-4.631-7.994l-8.234-4.721A.4.4,0,0,0-269.978,508.756Z" transform="translate(269.978 -497.03)"/><path class="a" d="M-227.689,512.005l15.616,8.666a10.065,10.065,0,0,1,5.18,8.975l-.323,18.7a.4.4,0,0,1-.611.341l-1.583-.939a9.857,9.857,0,0,1-4.829-8.626l.1-6.6a7.586,7.586,0,0,0-3.873-6.729l-6.4-3.591a7.587,7.587,0,0,1-3.874-6.616v-3.222A.4.4,0,0,1-227.689,512.005Z" transform="translate(248.145 -498.917)"/><path class="a" d="M-227.725,484.986a.4.4,0,0,1,.607-.351l26.4,15.174a9.371,9.371,0,0,1,4.823,8.356l-.305,30.687a.405.405,0,0,1-.611.345l-1.427-.846a9.178,9.178,0,0,1-4.5-8.031l.092-19.48a7.063,7.063,0,0,0-3.606-6.265l-17.867-10.488a7.062,7.062,0,0,1-3.607-6.159Z" transform="translate(247.848 -484.581)"/></g></g></svg>