<svg xmlns="http://www.w3.org/2000/svg" width="20.878" height="20.878" viewBox="0 0 20.878 20.878"><defs><style>.a{fill:none;}.b{opacity:0.5;}</style></defs><g transform="translate(0 0)"><path class="a" d="M1,0H21.878V20.878H1Z" transform="translate(-1)"/><path class="b" d="M17.122,4.5a4.7,4.7,0,0,0-4.755,4.755,5.248,5.248,0,0,0,1.044,3.016H9.467a4.543,4.543,0,0,0,1.044-3.016A4.7,4.7,0,0,0,5.755,4.5,4.7,4.7,0,0,0,1,9.255a4.7,4.7,0,0,0,4.755,4.755H17.122a4.7,4.7,0,0,0,4.755-4.755A4.7,4.7,0,0,0,17.122,4.5ZM5.755,12.271A3.071,3.071,0,0,1,2.74,9.255,3.071,3.071,0,0,1,5.755,6.24,3.071,3.071,0,0,1,8.771,9.255,3,3,0,0,1,5.755,12.271Zm11.367,0a3.071,3.071,0,0,1-3.016-3.016,3.016,3.016,0,1,1,6.031,0A3.071,3.071,0,0,1,17.122,12.271Z" transform="translate(-1 0.719)"/></g></svg>