<svg xmlns="http://www.w3.org/2000/svg" width="20.535" height="22.932" viewBox="0 0 20.535 22.932">
  <g id="on_holiday" transform="translate(0 0)">
    <path id="Path_2482" data-name="Path 2482" d="M20.535,117.88A10.268,10.268,0,0,1,0,117.88c0-5.671,4.6-7.731,10.268-7.731S20.535,112.209,20.535,117.88Zm0,0" transform="translate(0 -105.216)" fill="#d68a5a"/>
    <path id="Path_2483" data-name="Path 2483" d="M227.879,117.875a10.268,10.268,0,0,1-10.267,10.268q-.275,0-.546-.014a10.268,10.268,0,0,0,9.722-10.253c0-5.488-4.3-7.594-9.722-7.725q.271-.006.546-.006c5.67,0,10.267,2.061,10.267,7.731Zm0,0" transform="translate(-207.344 -105.211)" fill="#c47a4a"/>
    <path id="Path_2484" data-name="Path 2484" d="M96.466,143.338c0-1.149-2.925-2.08-6.532-2.08s-6.532.931-6.532,2.08,2.925,2.08,6.532,2.08S96.466,144.487,96.466,143.338Zm0,0" transform="translate(-79.667 -134.931)" fill="#ffbc8a"/>
    <path id="Path_2485" data-name="Path 2485" d="M96.47,143.341a.8.8,0,0,1-.174.479c-.679-.918-3.268-1.6-6.358-1.6s-5.679.684-6.358,1.6a.8.8,0,0,1-.174-.479c0-1.149,2.925-2.08,6.532-2.08s6.532.931,6.532,2.08Zm0,0" transform="translate(-79.671 -134.935)" fill="#e89a5e"/>
    <path id="Path_2486" data-name="Path 2486" d="M121.77,196.668a16.712,16.712,0,0,1-10.575,0,16.712,16.712,0,0,1,10.575,0Zm0,0" transform="translate(-106.215 -187.039)" fill="#ffe8ca"/>
    <path id="Path_2487" data-name="Path 2487" d="M77.413,51.761c-.456-.032-.895-.079-1.309-.14L76,50.3l-.441-5.568a.189.189,0,0,0-.241-.167l-2.714.779a.647.647,0,1,1-.357-1.244l2.714-.779a1.484,1.484,0,0,1,1.889,1.309l.437,5.524Zm0,0" transform="translate(-68.562 -41.323)" fill="#ff6672"/>
    <path id="Path_2488" data-name="Path 2488" d="M167.464,198.731c-.456-.032-.895-.079-1.309-.14l-.1-1.323c.407-.062.838-.112,1.287-.146Zm0,0" transform="translate(-158.613 -188.292)" fill="#ff4a59"/>
    <path id="Path_2489" data-name="Path 2489" d="M92.828,282.484a.347.347,0,0,1-.347-.347v-1a.347.347,0,0,1,.693,0v1A.347.347,0,0,1,92.828,282.484Zm0,0" transform="translate(-88.339 -268.217)" fill="#ffbc8a"/>
    <path id="Path_2490" data-name="Path 2490" d="M129.749,306.417a.347.347,0,0,1-.347-.347v-1a.347.347,0,0,1,.693,0v1A.347.347,0,0,1,129.749,306.417Zm0,0" transform="translate(-123.607 -291.078)" fill="#ffbc8a"/>
    <path id="Path_2491" data-name="Path 2491" d="M351.112,366.029a.347.347,0,0,1-.347-.347v-1.05a.347.347,0,0,1,.693,0v1.05A.347.347,0,0,1,351.112,366.029Zm0,0" transform="translate(-335.055 -347.969)" fill="#c47a4a"/>
    <path id="Path_2492" data-name="Path 2492" d="M264.89,62.79,263.129,68.5l-.437,1.416c-.242.028-.492.051-.747.07l.484-1.57,1.8-5.828a.347.347,0,0,1,.662.206Zm0,0" transform="translate(-250.213 -59.548)" fill="#83b832"/>
    <path id="Path_2493" data-name="Path 2493" d="M263.129,198l-.437,1.416c-.242.028-.492.051-.747.07l.484-1.57Q262.789,197.954,263.129,198Zm0,0" transform="translate(-250.213 -189.054)" fill="#7aa82d"/>
    <path id="Path_2494" data-name="Path 2494" d="M280.21,4.143c-.657-.144-1.33-.322-2.01-.533s-1.335-.446-1.958-.7L277.7,1.325l1.5-1.091a.439.439,0,0,1,.079.024l.679,1.994Zm0,0" transform="translate(-263.87 -0.224)" fill="#bdeb73"/>
    <path id="Path_2495" data-name="Path 2495" d="M228.092.011,227.88.2l-2.752,2.484a21.355,21.355,0,0,1-2.241-1.059.3.3,0,0,1,.079-.553L227.9.011a.457.457,0,0,1,.195,0Zm0,0" transform="translate(-212.756 0)" fill="#ffe8ca"/>
    <path id="Path_2496" data-name="Path 2496" d="M347.559,5.063a21.4,21.4,0,0,1-2.447-.4l-.773-3.247-.152-.637a.46.46,0,0,1,.16.11l3.459,3.672a.3.3,0,0,1-.248.5Zm0,0" transform="translate(-328.772 -0.746)" fill="#ffe8ca"/>
    <path id="Path_2497" data-name="Path 2497" d="M335.581,4.317l-.193-.02a.3.3,0,0,0,0-.41L331.931.215a.46.46,0,0,0-.16-.11.438.438,0,0,0-.079-.024l-.043-.007.287-.062a.457.457,0,0,1,.195,0,.425.425,0,0,1,.079.024.462.462,0,0,1,.16.11l3.459,3.672a.3.3,0,0,1-.248.5Zm0,0" transform="translate(-316.794)" fill="#ffdbaa"/>
    <path id="Path_2498" data-name="Path 2498" d="M338.119.9l-.431-.457-.012-.013.212-.192a.425.425,0,0,1,.079.024Zm0,0" transform="translate(-322.551 -0.224)" fill="#a4e540"/>
  </g>
</svg>
