<svg xmlns="http://www.w3.org/2000/svg" viewBox="0 0 92.91 93.01"><defs><style>.cls-1{fill:#019ddf;}</style></defs><title>pin-blue-</title><g id="Layer_2" data-name="Layer 2"><g id="Layer_1-2" data-name="Layer 1"><path class="cls-1" d="M92.88,37.37a1.76,1.76,0,0,0-1.07-1.28,41,41,0,0,0-15.22-2.9,44,44,0,0,0-17,3.41L33.49,14.39A19.59,19.59,0,0,0,29.88.65,1.78,1.78,0,0,0,28.61,0a1.82,1.82,0,0,0-1.33.51L.51,27.28a1.75,1.75,0,0,0,.15,2.61A18.89,18.89,0,0,0,12.4,33.57c.73,0,1.34,0,1.81-.07L36.54,59.73c-1.53,3.92-6.18,18-.54,32.18A1.69,1.69,0,0,0,37.27,93a1.47,1.47,0,0,0,.36,0,1.76,1.76,0,0,0,1.24-.51L64.43,66.93,88.24,90.74a1.74,1.74,0,0,0,2.48,0,1.74,1.74,0,0,0,0-2.48L66.91,64.45,92.4,39A1.73,1.73,0,0,0,92.88,37.37Z"/></g></g></svg>