<svg xmlns="http://www.w3.org/2000/svg" xmlns:xlink="http://www.w3.org/1999/xlink" width="23" height="21" viewBox="0 0 23 21">
  <defs>
    <clipPath id="clip-pin_inactive">
      <rect width="23" height="21"/>
    </clipPath>
  </defs>
  <g id="pin_inactive" clip-path="url(#clip-pin_inactive)">
    <path id="pin_1_" data-name="pin (1)" d="M11.646,6.467a5.418,5.418,0,0,1-2.425,4.515v4.685a2.467,2.467,0,0,1,1.554,2.288V19.4H.872V17.955a2.466,2.466,0,0,1,1.554-2.288V10.982A5.419,5.419,0,0,1,0,6.467V5.9H5.255V0H6.391V5.9h5.255ZM2.009,17.955v.31H9.638v-.31a1.328,1.328,0,0,0-1.326-1.326H3.335A1.328,1.328,0,0,0,2.009,17.955Zm1.554-2.463H8.084V11.558a5.4,5.4,0,0,1-1.857.328H5.419a5.394,5.394,0,0,1-1.857-.328Zm1.857-4.743h.809a4.289,4.289,0,0,0,4.244-3.714h-9.3a4.289,4.289,0,0,0,4.244,3.714Zm0,0" transform="matrix(-0.788, -0.616, 0.616, -0.788, 9.677, 22.959)" fill="#828282" stroke="#828282" stroke-width="0.7"/>
  </g>
</svg>
