<svg xmlns="http://www.w3.org/2000/svg" width="16.904" height="16.904" viewBox="0 0 16.904 16.904"><defs><style>.a{fill:#0079c0;}</style></defs><path class="a" d="M14.791,0H2.113A2.113,2.113,0,0,0,0,2.113V14.791A2.113,2.113,0,0,0,2.113,16.9H14.791A2.114,2.114,0,0,0,16.9,14.791V2.113A2.113,2.113,0,0,0,14.791,0ZM7.353,12.805a1.015,1.015,0,0,1-1.014,1.014H3.212A1.015,1.015,0,0,1,2.2,12.805V3.212A1.015,1.015,0,0,1,3.212,2.2H6.339A1.015,1.015,0,0,1,7.353,3.212Zm7.353-4.226a1.015,1.015,0,0,1-1.014,1.014H10.565A1.015,1.015,0,0,1,9.551,8.579V3.212A1.015,1.015,0,0,1,10.565,2.2h3.127a1.015,1.015,0,0,1,1.014,1.014Z"/></svg>