<svg xmlns="http://www.w3.org/2000/svg" width="15.13" height="6.935" viewBox="0 0 15.13 6.935">
  <g id="voice_mail" transform="translate(0 -4.37)">
    <path id="Path_273" data-name="Path 273" d="M11.663,6A3.466,3.466,0,0,0,8.99,11.674H6.14a3.466,3.466,0,1,0-2.673,1.261h8.2a3.467,3.467,0,0,0,0-6.935Zm-8.2,5.674A2.207,2.207,0,1,1,5.674,9.467,2.209,2.209,0,0,1,3.467,11.674Zm8.2,0A2.207,2.207,0,1,1,13.87,9.467,2.209,2.209,0,0,1,11.663,11.674Z" transform="translate(0 -1.63)" fill="#707070"/>
  </g>
</svg>
