<svg xmlns="http://www.w3.org/2000/svg" viewBox="0 0 56.87 31.85"><defs><style>.cls-1{fill:#0c5483;}</style></defs><title>16-</title><g id="Layer_2" data-name="Layer 2"><g id="Layer_1-2" data-name="Layer 1"><path class="cls-1" d="M35.73,31.85a.28.28,0,0,0,.21-.08.3.3,0,0,0,.09-.21V25.31a.31.31,0,0,0-.3-.29H.29a.24.24,0,0,0-.2.09.23.23,0,0,0-.09.2v6.25a.23.23,0,0,0,.09.2.23.23,0,0,0,.2.09Z"/><path class="cls-1" d="M35.73,19.35a.3.3,0,0,0,.21-.09.29.29,0,0,0,.09-.2V12.8a.24.24,0,0,0-.1-.2.23.23,0,0,0-.2-.09H.29a.23.23,0,0,0-.2.09.23.23,0,0,0-.09.2v6.26a.24.24,0,0,0,.09.2.28.28,0,0,0,.2.09Z"/><path class="cls-1" d="M56.58,6.84a.26.26,0,0,0,.2-.09.24.24,0,0,0,.09-.2V.29a.23.23,0,0,0-.09-.2.26.26,0,0,0-.2-.09H.29a.26.26,0,0,0-.2.09A.26.26,0,0,0,0,.29V6.55a.24.24,0,0,0,.09.2.28.28,0,0,0,.2.09Z"/></g></g></svg>