<svg xmlns="http://www.w3.org/2000/svg" viewBox="0 0 54.5 45.14"><defs><style>.cls-1{fill:#0c5483;}</style></defs><title>4-</title><g id="Layer_2" data-name="Layer 2"><g id="Layer_1-2" data-name="Layer 1"><path class="cls-1" d="M13.33,17.17l-.25-.41A10.11,10.11,0,0,1,12,11.94,10.14,10.14,0,0,1,13.12,7.1a10.93,10.93,0,0,1,3.25-3.76A16.16,16.16,0,0,1,21.44.89,23,23,0,0,1,28,0,20.68,20.68,0,0,1,34.6,1a14.81,14.81,0,0,1,5,2.79A12.09,12.09,0,0,1,42.81,8a12.27,12.27,0,0,1,1.09,4.57H36a8.48,8.48,0,0,0-.47-2.16A5.93,5.93,0,0,0,34,8a7,7,0,0,0-2.6-1.51A10.72,10.72,0,0,0,27.83,6a12.35,12.35,0,0,0-3.42.43,7.08,7.08,0,0,0-2.5,1.26,5.43,5.43,0,0,0-1.55,1.95A5.64,5.64,0,0,0,19.84,12a5.15,5.15,0,0,0,2.62,4.39c.41.27.83.54,1.3.81Z"/><path class="cls-1" d="M28.21,45.14a25.07,25.07,0,0,1-4.36-.38A19.73,19.73,0,0,1,19.7,43.6a17.49,17.49,0,0,1-3.64-1.94A13.1,13.1,0,0,1,13.17,39a12.63,12.63,0,0,1-1.9-3.55,14.55,14.55,0,0,1-.68-3.93h7.78a10.38,10.38,0,0,0,.82,3.32,6.79,6.79,0,0,0,2,2.6,8.18,8.18,0,0,0,3.1,1.42,16.78,16.78,0,0,0,3.86.43,12,12,0,0,0,3.37-.42A7.34,7.34,0,0,0,34,37.62a4.89,4.89,0,0,0,1.51-1.92A5.67,5.67,0,0,0,36,33.36,6.93,6.93,0,0,0,35.64,31a5.09,5.09,0,0,0-1.55-2.07,13,13,0,0,0-2.88-1.7c-.29-.12-.65-.25-1-.38l-.72-.27-.14-.05H0V21.78H54.5v4.69H41.88l.67,1.13a8.63,8.63,0,0,1,.49,1,12.05,12.05,0,0,1,.9,4.73,10.85,10.85,0,0,1-1.09,5A10.32,10.32,0,0,1,39.74,42a15.35,15.35,0,0,1-5,2.34A24.11,24.11,0,0,1,28.21,45.14Z"/></g></g></svg>