<svg xmlns="http://www.w3.org/2000/svg" viewBox="0 0 56 30.8"><defs><style>.cls-1{fill:#0c5483;}</style></defs><title>14-</title><g id="Layer_2" data-name="Layer 2"><g id="Layer_1-2" data-name="Layer 1"><g id="attachment"><path class="cls-1" d="M15.4,30.8A15.54,15.54,0,0,1,0,15.4,15.54,15.54,0,0,1,15.4,0H44.8a11.2,11.2,0,1,1,0,22.4H21a7,7,0,0,1,0-14H42v4.2H21a2.65,2.65,0,0,0-2.8,2.8A2.65,2.65,0,0,0,21,18.2H44.8a6.93,6.93,0,0,0,7-7,6.93,6.93,0,0,0-7-7H15.4a11.2,11.2,0,0,0,0,22.4H42v4.2Z"/></g></g></g></svg>