<svg xmlns="http://www.w3.org/2000/svg" viewBox="0 0 54 40.9"><defs><style>.cls-1{fill:#0c5483;}</style></defs><title>12-</title><g id="Layer_2" data-name="Layer 2"><g id="Layer_1-2" data-name="Layer 1"><path class="cls-1" d="M35.31,18,23.38,11.51a2.16,2.16,0,0,0-2.17,0,2.19,2.19,0,0,0-1.07,1.89V26.37a2.19,2.19,0,0,0,3.23,1.93L35.3,21.89a2.2,2.2,0,0,0,0-3.86Zm-12,6.71V15.07L32.22,20Z"/><path class="cls-1" d="M53.6,9.65v0c-.05-.44-.5-4.3-2.38-6.27A8.85,8.85,0,0,0,45.4.63l-.27,0H45C37.9.07,27.12,0,27,0h0C26.88,0,16.1.07,8.9.59H8.8l-.25,0A8.62,8.62,0,0,0,2.76,3.44C1,5.39.46,9.17.4,9.6v.05c0,.18-.4,4.49-.4,8.81v4c0,4.32.38,8.63.4,8.81v0c0,.42.5,4.22,2.37,6.19a9,9,0,0,0,6,2.69,4.62,4.62,0,0,1,.53.07h.13c4.12.4,17,.59,17.59.6h0c.11,0,10.89-.07,18-.59h.09l.31,0a8.36,8.36,0,0,0,5.73-2.74c1.79-2,2.31-5.73,2.36-6.16v-.05c0-.18.4-4.49.4-8.81v-4C54,14.14,53.61,9.83,53.6,9.65ZM50.83,22.5c0,4-.35,8.12-.38,8.5-.14,1-.68,3.44-1.55,4.38a5.24,5.24,0,0,1-3.74,1.74l-.33,0c-6.91.5-17.28.58-17.76.58s-13.27-.2-17.27-.57l-.65-.09A5.87,5.87,0,0,1,5.1,35.38l0,0c-.86-.89-1.39-3.13-1.52-4.34,0-.28-.39-4.45-.39-8.51v-4c0-4,.35-8.11.39-8.5.16-1.22.71-3.47,1.55-4.38A5.48,5.48,0,0,1,8.91,3.77l.26,0c7-.5,17.45-.57,17.83-.58s10.82.08,17.76.58l.28,0a5.64,5.64,0,0,1,3.87,1.75l0,0c.85.89,1.38,3.17,1.52,4.4,0,.27.38,4.45.38,8.51Z"/></g></g></svg>