<svg xmlns="http://www.w3.org/2000/svg" width="23.664" height="23.631" viewBox="0 0 23.664 23.631"><defs><style>.a{fill:#abb6c1;}</style></defs><g transform="translate(-1694 -335.001)"><path class="a" d="M1706.717,358.632l-.112-1.5a10.364,10.364,0,0,0,1.835-.3l.379,1.451A11.822,11.822,0,0,1,1706.717,358.632Zm-2.132-.033a11.807,11.807,0,0,1-2.092-.413l.424-1.439a10.367,10.367,0,0,0,1.824.36Zm6.241-1.037-.635-1.36a10.415,10.415,0,0,0,1.61-.935l.867,1.223A11.842,11.842,0,0,1,1710.826,357.562Zm-10.317-.16a11.85,11.85,0,0,1-1.81-1.129l.905-1.2a10.382,10.382,0,0,0,1.581.986Zm13.779-2.3-1.07-1.05a10.392,10.392,0,0,0,1.178-1.441l1.242.84A11.819,11.819,0,0,1,1714.288,355.107Zm-17.166-.267a11.981,11.981,0,0,1-1.3-1.69l1.268-.8a10.447,10.447,0,0,0,1.133,1.479Zm19.547-3.251-1.373-.6a10.366,10.366,0,0,0,.592-1.765l1.459.345A11.726,11.726,0,0,1,1716.669,351.589Zm-21.815-.337a11.635,11.635,0,0,1-.615-2.042l1.469-.3a10.32,10.32,0,0,0,.536,1.781Zm22.793-3.793-1.5-.083c.01-.181.015-.361.015-.544a10.522,10.522,0,0,0-.083-1.316l1.488-.188a11.982,11.982,0,0,1,.095,1.5C1717.664,347.042,1717.659,347.251,1717.647,347.459ZM1694,347.093l0-.261a11.991,11.991,0,0,1,.146-1.866l1.482.234a10.46,10.46,0,0,0-.128,1.632l0,.225Zm21.679-3.394a10.293,10.293,0,0,0-.723-1.715l1.324-.705a11.672,11.672,0,0,1,.828,1.967Zm-19.6-.3-1.414-.5a11.744,11.744,0,0,1,.889-1.939l1.3.745A10.522,10.522,0,0,0,1696.084,343.4Zm17.856-2.97a10.382,10.382,0,0,0-1.283-1.351l.992-1.126a11.923,11.923,0,0,1,1.467,1.546Zm-16.013-.248-1.147-.967a11.864,11.864,0,0,1,1.515-1.5l.955,1.158A10.294,10.294,0,0,0,1697.927,340.179Zm13.228-2.2a10.27,10.27,0,0,0-1.675-.813l.53-1.4a11.879,11.879,0,0,1,1.919.931Zm-10.37-.161-.734-1.308a11.824,11.824,0,0,1,1.946-.871l.486,1.419A10.423,10.423,0,0,0,1700.785,337.814Zm6.9-1.148a10.578,10.578,0,0,0-3.4-.052l-.223-1.483a12.009,12.009,0,0,1,3.886.059Z"/><rect class="a" width="11.117" height="1.5" transform="translate(1700.284 346.118)"/><rect class="a" width="1.5" height="11.117" transform="translate(1705.093 341.31)"/></g></svg>