<?xml version="1.0" standalone="no"?>
<!DOCTYPE svg PUBLIC "-//W3C//DTD SVG 1.1//EN" "http://www.w3.org/Graphics/SVG/1.1/DTD/svg11.dtd" >
<svg xmlns="http://www.w3.org/2000/svg">
<metadata>
<json>
<![CDATA[
{
	"fontFamily": "Unifiedring-windows-app-font",
	"majorVersion": 1,
	"minorVersion": 0,
	"version": "Version 1.0",
	"fontId": "Unifiedring-windows-app-font",
	"psName": "Unifiedring-windows-app-font",
	"subFamily": "Regular",
	"fullName": "Unifiedring-windows-app-font",
	"description": "Font generated by IcoMoon."
}
]]>
</json>
</metadata>
<defs>
<font id="Unifiedring-windows-app-font" horiz-adv-x="1024">
<font-face units-per-em="1024" ascent="960" descent="-64" />
<missing-glyph horiz-adv-x="1024" />
<glyph unicode="&#x20;" horiz-adv-x="512" d="" />
<glyph unicode="&#xe900;" d="M1024 448c0-282.77-229.23-512-512-512s-512 229.23-512 512c0 282.77 229.23 512 512 512s512-229.23 512-512z" />
<glyph unicode="&#xe901;" d="M753.734 477.784h-197.709v197.709h-73.662v-197.709h-197.709v-73.662h197.709v-197.709h73.662v197.709h197.709z" />
<glyph unicode="&#xe902;" d="M1024 448c0-282.77-229.23-512-512-512s-512 229.23-512 512c0 282.77 229.23 512 512 512s512-229.23 512-512z" />
<glyph unicode="&#xe903;" d="M772.736 483.029h-237.035v237.013h-64v-237.013h-237.035v-64h237.035v-237.035h64v237.035h237.035z" />
<glyph unicode="&#xe904;" d="M1024 448c0-282.77-229.23-512-512-512s-512 229.23-512 512c0 282.77 229.23 512 512 512s512-229.23 512-512z" />
<glyph unicode="&#xe905;" d="M418.85 495.171h-68.927v68.944h-45.962v-68.944h-68.944v-45.962h68.944v-68.944h45.962v68.961h68.944zM648.645 472.19c38.041 0.047 68.861 30.896 68.861 68.944 0 38.077-30.867 68.944-68.944 68.944-7.441 0-14.607-1.179-21.321-3.36l0.488 0.137c12.937-18.176 20.682-40.828 20.682-65.29 0-0.151 0-0.303-0.001-0.454v0.023c-0.060-24.599-7.791-47.38-20.927-66.090l0.246 0.37c6.215-2.044 13.369-3.223 20.798-3.223 0.048 0 0.095 0 0.143 0h-0.007zM533.739 472.19c38.077 0 68.944 30.867 68.944 68.944s-30.867 68.944-68.944 68.944c-38.077 0-68.944-30.867-68.944-68.944v0c0-0.085-0.001-0.186-0.001-0.286 0-37.919 30.739-68.658 68.658-68.658 0.13 0 0.26 0 0.39 0.001h-0.020zM685.862 422.551c19.164-15.514 31.4-38.931 31.71-65.216v-46.065h68.944v46.030c0.017 35.387-54.44 57.226-100.637 65.267zM533.823 426.244c-45.962 0-137.887-22.981-137.887-68.944v-46.030h275.691v46.030c0 45.962-91.908 68.944-137.804 68.944z" />
<glyph unicode="&#xe906;" d="M512 960c282.77 0 512-229.23 512-512s-229.23-512-512-512c-282.77 0-512 229.23-512 512s229.23 512 512 512z" />
<glyph unicode="&#xe907;" d="M587.401 439.467c49.519 1.254 89.182 41.694 89.182 91.399 0 0.766-0.009 1.529-0.028 2.291l0.002-0.113c0.017 0.654 0.026 1.423 0.026 2.195 0 49.704-39.664 90.145-89.067 91.396l-0.116 0.002c-49.519-1.254-89.182-41.694-89.182-91.399 0-0.766 0.009-1.529 0.028-2.291l-0.002 0.113c-0.017-0.654-0.026-1.423-0.026-2.195 0-49.704 39.664-90.145 89.067-91.396l0.116-0.002zM386.782 486.263v70.195h-44.578v-70.178h-66.867v-46.797h66.867v-70.178h44.578v70.161h66.867v46.797zM587.401 392.687c-59.511 0-178.313-31.351-178.313-93.577v-46.797h356.693v46.78c-0.068 62.242-118.869 93.594-178.381 93.594z" />
<glyph unicode="&#xe908;" glyph-name="add" data-tags="add" d="M1024 508.777h-451.101v451.060h-121.798v-451.060h-451.101v-121.798h451.101v-451.101h121.798v451.101h451.101z" />
<glyph unicode="&#xe909;" d="M602.952 721.055l-444.103 235.467c-4.082 2.236-8.943 3.551-14.111 3.551-8.275 0-15.763-3.372-21.164-8.816l-106.133-106.183c-5.477-5.408-8.869-12.916-8.869-21.216s3.392-15.808 8.866-21.213l345.676-345.725c78.177 95.992 156.6 182.114 239.451 263.755l0.388 0.381z" />
<glyph unicode="&#xe90a;" d="M1020.472 94.899c-164.961 311.041-217.629 410.912-235.417 443.705-81.965-83.111-168.038-161.439-258.187-234.957l-5.8-4.584 345.573-345.623c5.408-5.477 12.916-8.869 21.216-8.869s15.808 3.392 21.213 8.866l106.134 106.134c5.457 5.405 8.836 12.9 8.836 21.184 0 5.181-1.322 10.054-3.647 14.299l0.078-0.155z" />
<glyph unicode="&#xe90b;" d="M480.175 0.146l-49.687-49.687c-9.057-9.026-21.553-14.607-35.352-14.607s-26.295 5.581-35.354 14.608l-345.324 345.324c-9.041 9.060-14.632 21.566-14.632 35.377s5.591 26.317 14.632 35.378l49.686 49.686c5.405 5.457 12.9 8.835 21.184 8.835 3.742 0 7.322-0.689 10.622-1.948l-0.205 0.069 188.413-69.562c-27.003-36.087-52.896-76.94-75.586-119.75l-2.472-5.113c-14.906-30.16-31.8-72.841-8.944-95.747s66.382-5.466 95.697 8.944c47.92 25.177 88.772 51.087 127.345 79.88l-2.482-1.772 69.164-188.115c1.182-3.085 1.866-6.653 1.866-10.381 0-8.277-3.373-15.766-8.82-21.168l-0.002-0.002z" />
<glyph unicode="&#xe90c;" d="M480.175 0.146l-49.687-49.687c-9.057-9.026-21.553-14.607-35.352-14.607s-26.295 5.581-35.354 14.608l0.001-0.001-172.464 172.712 9.937 9.937c7.15-6.95 16.922-11.236 27.695-11.236 0.745 0 1.485 0.020 2.22 0.061l-0.102-0.004c51.426 0 149.061 68.22 190.699 98.182l69.562-188.364c1.157-3.055 1.826-6.586 1.826-10.274 0-8.356-3.438-15.909-8.976-21.321l-0.006-0.005z" />
<glyph unicode="&#xe90d;" d="M1002.038 938.038c-93.163 93.163-331.164-134.552-424.178-227.517-154.874-154.874-323.711-360.976-380.801-477.294-16.148-32.893-34.433-79.797-7.006-107.225s72.941-9.937 107.175 7.006c116.168 56.991 322.121 225.678 476.995 380.801 92.964 92.964 320.68 330.965 227.517 424.178z" />
<glyph unicode="&#xe90e;" d="M774.521 513.86c-155.123-155.123-361.076-323.81-477.244-380.801-34.383-16.894-80.245-33.986-107.175-7.006v0l811.936 811.985c93.213-93.213-134.552-331.214-227.467-424.178z" />
<glyph unicode="&#xe90f;" d="M353.175 289.225c-5.408 5.477-12.916 8.869-21.216 8.869s-15.808-3.392-21.213-8.866l-180.019-179.87c-5.43-5.43-8.788-12.931-8.788-21.216 0-16.571 13.433-30.004 30.004-30.004 8.286 0 15.787 3.358 21.216 8.788l180.016 180.016c5.432 5.401 8.793 12.879 8.793 21.142s-3.362 15.741-8.792 21.14l-0.001 0.001z" />
<glyph unicode="&#xe910;" d="M353.175 246.792l-179.966-180.016c-5.408-5.477-12.916-8.869-21.216-8.869s-15.808 3.392-21.213 8.866l-0.003 0.003 222.399 222.449c5.477-5.408 8.869-12.916 8.869-21.216s-3.392-15.808-8.866-21.213l-0.003-0.003z" />
<glyph unicode="&#xe911;" d="M972.178 480.183c-32.914 20.334-139.447 46.299-288.914 46.299l-78.921 92.050c-16.174 18.768-39.966 30.584-66.519 30.61h-236.11c-0.001 0-0.003 0-0.005 0-26.194 0-50.15-9.578-68.558-25.423l0.138 0.116-93.111-79.835-99.328-14.19c-14.203-2.084-25.517-12.44-28.985-25.942l-0.053-0.243-11.995-47.214 262.839-122.661h736.073v99.072c-0.015 19.943-10.53 37.426-26.314 47.223l-0.237 0.137z" />
<glyph unicode="&#xe912;" d="M998.729 421.376c0 35.035-52.553 70.071-297.874 70.071h-683.337c-0.043 0-0.095 0.001-0.146 0.001-9.675 0-17.518-7.843-17.518-17.518 0 0 0 0 0-0.001v0-105.143l332.8-52.553h666.075v105.143z" />
<glyph unicode="&#xe913;" d="M998.729 351.269h-821.577l-155.831 34.633c-1.231 0.309-2.645 0.486-4.099 0.486-9.675 0-17.518-7.843-17.518-17.518 0-8.433 5.959-15.475 13.896-17.143l0.114-0.020 157.696-35.035c1.098-0.252 2.359-0.399 3.655-0.402h823.664c9.675 0 17.518 7.843 17.518 17.518s-7.843 17.518-17.518 17.518v0z" />
<glyph unicode="&#xe914;" d="M928.695 351.269c0-48.394-39.231-87.625-87.625-87.625s-87.625 39.231-87.625 87.625c0 48.394 39.231 87.625 87.625 87.625s87.625-39.231 87.625-87.625z" />
<glyph unicode="&#xe915;" d="M841.070 246.162c-58.069 0-105.143 47.074-105.143 105.143s47.074 105.143 105.143 105.143c58.069 0 105.143-47.074 105.143-105.143v0c-0.062-58.044-47.099-105.080-105.137-105.143h-0.006zM841.070 421.376c-38.699 0-70.071-31.372-70.071-70.071s31.372-70.071 70.071-70.071c38.699 0 70.071 31.372 70.071 70.071v0c-0.042 38.682-31.389 70.029-70.067 70.071h-0.004z" />
<glyph unicode="&#xe916;" d="M876.069 351.305c0-19.35-15.686-35.035-35.035-35.035s-35.035 15.686-35.035 35.035c0 19.35 15.686 35.035 35.035 35.035s35.035-15.686 35.035-35.035z" />
<glyph unicode="&#xe917;" d="M262.875 351.269c0-48.394-39.231-87.625-87.625-87.625s-87.625 39.231-87.625 87.625c0 48.394 39.231 87.625 87.625 87.625s87.625-39.231 87.625-87.625z" />
<glyph unicode="&#xe918;" d="M175.25 246.162c-58.069 0-105.143 47.074-105.143 105.143s47.074 105.143 105.143 105.143c58.069 0 105.143-47.074 105.143-105.143v0c-0.062-58.044-47.099-105.080-105.137-105.143h-0.006zM175.25 421.376c-38.699 0-70.071-31.372-70.071-70.071s31.372-70.071 70.071-70.071c38.699 0 70.071 31.372 70.071 70.071v0c-0.042 38.682-31.389 70.029-70.067 70.071h-0.004z" />
<glyph unicode="&#xe919;" d="M210.249 351.305c0-19.35-15.686-35.035-35.035-35.035s-35.035 15.686-35.035 35.035c0 19.35 15.686 35.035 35.035 35.035s35.035-15.686 35.035-35.035z" />
<glyph unicode="&#xe91a;" d="M700.855 386.341h-367.945c-9.675 0-17.518 7.843-17.518 17.518v0c0 9.675 7.843 17.518 17.518 17.518h367.945c9.675 0 17.518-7.843 17.518-17.518v0 0c0-9.675-7.843-17.518-17.518-17.518v0z" />
<glyph unicode="&#xe91b;" d="M998.729 386.341h-17.408c-9.675 0-17.518 7.843-17.518 17.518v0 0c0 9.675 7.843 17.518 17.518 17.518v0h17.518c9.675 0 17.518-7.843 17.518-17.518v0c0 0 0 0 0 0 0-9.675-7.843-17.518-17.518-17.518-0.039 0-0.077 0-0.116 0h0.006z" />
<glyph unicode="&#xe91c;" d="M140.178 544l93.111 79.835c18.27 15.729 42.227 25.307 68.42 25.307 0.002 0 0.003 0 0.005 0h236.215c26.557-0.026 50.349-11.843 66.427-30.496l0.096-0.114 78.921-92.050h-414.866c-0.277-0.001-0.604-0.002-0.932-0.002-15.943 0-31.576 1.331-46.793 3.887l1.645-0.228z" />
<glyph unicode="&#xe91d;" d="M518.619 619.008c-6.47 7.732-16.123 12.615-26.916 12.617h-161.756c-0.002 0-0.004 0-0.007 0-9.682 0-18.447-3.927-24.788-10.276v0l-52.553-52.553c-4.503-4.477-7.295-10.669-7.314-17.514v-0.004c0-13.694 11.101-24.795 24.795-24.795v0h306.944c4.833 0.019 8.744 3.941 8.744 8.777 0 2.133-0.761 4.089-2.026 5.61l0.012-0.014z" />
<glyph unicode="&#xe91e;" d="M367.945 526.482h-52.48l35.035 105.143h35.035z" />
<glyph unicode="&#xe91f;" d="M979.931 473.929h-16.238c-9.675 0-17.518-7.843-17.518-17.518s7.843-17.518 17.518-17.518h34.267c-1.56 14.009-8.186 26.231-17.977 34.989l-0.053 0.046z" />
<glyph unicode="&#xe920;" d="M604.453 618.569c-4.175 4.842-8.754 9.13-13.748 12.895l-0.222 0.161h-28.526c-4.833-0.019-8.744-3.941-8.744-8.777 0-2.133 0.761-4.089 2.026-5.61l-0.012 0.014 65.134-78.153c6.47-7.732 16.123-12.615 26.916-12.617h36.133z" />
<glyph unicode="&#xe921;" d="M-0.146 473.929v-17.518h35.182c9.675 0 17.518 7.843 17.518 17.518s-7.843 17.518-17.518 17.518h-17.518c-0.043 0-0.095 0.001-0.146 0.001-9.675 0-17.518-7.843-17.518-17.518 0 0 0 0 0-0.001v0z" />
<glyph unicode="&#xe922;" d="M1024 448c0-282.77-229.23-512-512-512s-512 229.23-512 512c0 282.77 229.23 512 512 512s512-229.23 512-512z" />
<glyph unicode="&#xe923;" d="M941.419 448c0-237.162-192.258-429.419-429.419-429.419s-429.419 192.258-429.419 429.419c0 237.162 192.258 429.419 429.419 429.419s429.419-192.258 429.419-429.419z" />
<glyph unicode="&#xe924;" glyph-name="available" data-tags="available" d="M1024.11 447.945c0-282.8-229.255-512.055-512.055-512.055s-512.055 229.255-512.055 512.055c0 282.8 229.255 512.055 512.055 512.055s512.055-229.255 512.055-512.055z" />
<glyph unicode="&#xe925;" d="M1024 448c0-282.77-229.23-512-512-512s-512 229.23-512 512c0 282.77 229.23 512 512 512s512-229.23 512-512z" />
<glyph unicode="&#xe926;" d="M941.419 448c0-237.162-192.258-429.419-429.419-429.419s-429.419 192.258-429.419 429.419c0 237.162 192.258 429.419 429.419 429.419s429.419-192.258 429.419-429.419z" />
<glyph unicode="&#xe927;" glyph-name="busy" data-tags="busy" d="M1024.11 447.945c0-282.8-229.255-512.055-512.055-512.055s-512.055 229.255-512.055 512.055c0 282.8 229.255 512.055 512.055 512.055s512.055-229.255 512.055-512.055z" />
<glyph unicode="&#xe928;" d="M1024 448c0-282.77-229.23-512-512-512s-512 229.23-512 512c0 282.77 229.23 512 512 512s512-229.23 512-512z" />
<glyph unicode="&#xe929;" d="M617.74 517.666c-70.448 21.683-143.916 21.679-212.329 0.695l-2.033-0.707v-71.458c0.561-5.339-1.191-10.83-5.249-14.888-2.261-2.261-4.968-3.806-7.837-4.635l0.1 0.033c-23.072-10.713-46.15-26.642-66.489-46.98-0.607-0.607-1.21-1.216-1.809-1.828l0.091 0.093c-8.98-8.94-23.496-8.94-32.475-0.002l-55.222 55.222c-8.103 9.321-8.103 23.155-0.052 32.418l0.052 0.058c0.071 0.071 0.154 0.154 0.237 0.238 152.341 152.341 399.335 152.341 551.676 0 0.079-0.079 0.159-0.159 0.238-0.238l-0.012 0.013c8.94-8.98 8.94-23.496 0.002-32.475l-56.836-56.836c-8.979-8.952-23.504-8.956-32.487-0.014l-0.002 0.002c-21.018 20.873-44.671 37.401-69.887 49.616l1.682-0.901c-1.697 1.033-3.455 2.409-5.066 4.021-4.392 4.392-7.038 9.869-7.937 15.567l0.018-0.097z" />
<glyph unicode="&#xe92a;" d="M919.324 448.006c0-224.962-182.368-407.33-407.33-407.33s-407.33 182.368-407.33 407.33c0 224.962 182.368 407.33 407.33 407.33s407.33-182.368 407.33-407.33z" />
<glyph unicode="&#xe92b;" d="M593.049 506.492c-56.049 17.256-114.501 17.256-168.932 0.562l-1.617-0.562v-56.855c0.443-4.245-0.951-8.611-4.178-11.838-1.8-1.8-3.954-3.030-6.238-3.689l0.080 0.026c-18.357-8.523-36.719-21.196-52.9-37.377-0.482-0.482-0.961-0.966-1.437-1.452l0.073 0.074c-7.143-7.115-18.694-7.115-25.836-0.001l-43.929 43.929c-6.443 7.417-6.443 18.42-0.042 25.791l0.042 0.046c0.056 0.056 0.123 0.123 0.189 0.189 121.2 121.2 317.705 121.2 438.905 0 0.067-0.067 0.133-0.133 0.199-0.2l-0.010 0.010c7.115-7.143 7.115-18.694 0.001-25.836l-45.229-45.229c-7.144-7.107-18.689-7.104-25.828 0.007l-0.001 0.001c-16.722 16.607-35.541 29.755-55.603 39.473l1.338-0.717c-1.358 0.824-2.764 1.924-4.053 3.213-3.493 3.493-5.598 7.849-6.314 12.382l0.014-0.077z" />
<glyph unicode="&#xe92c;" d="M1024 448c0-282.77-229.23-512-512-512s-512 229.23-512 512c0 282.77 229.23 512 512 512s512-229.23 512-512z" />
<glyph unicode="&#xe92d;" d="M382.677 480.875c34.481-65.152 86.433-117.104 149.648-150.648l1.938-0.938 50.533 50.533c3.382 4.164 8.502 6.804 14.239 6.804 3.198 0 6.204-0.82 8.82-2.262l-0.095 0.048c23.888-8.741 51.469-13.797 80.23-13.797 0.861 0 1.72 0.005 2.578 0.014l-0.131-0.001c12.673-0.025 22.94-10.292 22.964-22.962v-78.090c-0.866-12.319-10.646-22.098-22.886-22.96l-0.078-0.004c-0.1 0-0.218 0-0.336 0-215.33 0-389.911 174.463-390.103 389.748v0.691c0.025 12.673 10.292 22.94 22.962 22.964h80.399c12.667-0.033 22.925-10.297 22.95-22.962v-0.002c0.1-29.623 5.139-58.035 14.336-84.503l-0.552 1.825c0.475-1.94 0.747-4.167 0.747-6.458 0-6.21-2.001-11.952-5.393-16.617l0.056 0.081z" />
<glyph unicode="&#xe92e;" d="M1024 448c0-282.77-229.23-512-512-512s-512 229.23-512 512c0 282.77 229.23 512 512 512s512-229.23 512-512z" />
<glyph unicode="&#xe92f;" d="M387.021 435.254c48.282-52.459 111.675-90.326 183.258-106.702l2.401-0.462 35.721 61.875c2.907 6.492 9.311 10.933 16.753 10.933 1.5 0 2.958-0.18 4.353-0.521l-0.125 0.026c5.63-0.469 12.184-0.737 18.801-0.737 23.008 0 45.261 3.234 66.329 9.271l-1.696-0.416c1.773 0.49 3.809 0.772 5.911 0.772 10.574 0 19.481-7.132 22.176-16.847l0.038-0.162 20.204-75.386c0.295-1.432 0.464-3.077 0.464-4.762 0-10.776-6.903-19.939-16.527-23.31l-0.173-0.053c-30.383-8.499-65.274-13.384-101.305-13.384-179.409 0-330.529 121.117-376.056 286.047l-0.645 2.74-0.162 0.615c-0.492 1.776-0.775 3.814-0.775 5.919 0 10.572 7.134 19.478 16.85 22.168l0.162 0.038 77.648 20.807c1.773 0.49 3.809 0.772 5.911 0.772 10.574 0 19.481-7.132 22.176-16.847l0.038-0.162c8.003-29.011 19.881-54.4 35.287-77.211l-0.586 0.92c2.094-3.848 3.326-8.426 3.326-13.293 0-3.627-0.684-7.095-1.93-10.281l0.066 0.192z" />
<glyph unicode="&#xe930;" d="M1024 448c0-282.77-229.23-512-512-512s-512 229.23-512 512c0 282.77 229.23 512 512 512s512-229.23 512-512z" />
<glyph unicode="&#xe931;" d="M916.621 448.048c0-223.466-181.155-404.621-404.621-404.621s-404.621 181.155-404.621 404.621c0 223.466 181.155 404.621 404.621 404.621s404.621-181.155 404.621-404.621z" />
<glyph unicode="&#xe932;" d="M644.134 423.246h-132.134c-13.274 0.945-23.809 11.48-24.749 24.669l-0.005 0.085v210.625c0 13.685 11.093 24.778 24.778 24.778s24.778-11.093 24.778-24.778v0-185.871h107.332c13.274-0.945 23.809-11.48 24.749-24.669l0.005-0.085c0.014-0.304 0.022-0.661 0.022-1.020 0-13.12-10.636-23.756-23.756-23.756-0.359 0-0.715 0.008-1.070 0.024l0.050-0.002z" />
<glyph unicode="&#xe933;" d="M545.022 774.224c0-18.237-14.784-33.022-33.022-33.022s-33.022 14.784-33.022 33.022c0 18.237 14.784 33.022 33.022 33.022s33.022-14.784 33.022-33.022z" />
<glyph unicode="&#xe934;" d="M313.823 679.246c0-18.237-14.784-33.022-33.022-33.022s-33.022 14.784-33.022 33.022c0 18.237 14.784 33.022 33.022 33.022s33.022-14.784 33.022-33.022z" />
<glyph unicode="&#xe935;" d="M218.845 448.048c0-18.237-14.784-33.022-33.022-33.022s-33.022 14.784-33.022 33.022c0 18.237 14.784 33.022 33.022 33.022s33.022-14.784 33.022-33.022z" />
<glyph unicode="&#xe936;" d="M313.823 216.802c0-18.237-14.784-33.022-33.022-33.022s-33.022 14.784-33.022 33.022c0 18.237 14.784 33.022 33.022 33.022s33.022-14.784 33.022-33.022z" />
<glyph unicode="&#xe937;" d="M545.022 121.823c0-18.237-14.784-33.022-33.022-33.022s-33.022 14.784-33.022 33.022c0 18.237 14.784 33.022 33.022 33.022s33.022-14.784 33.022-33.022z" />
<glyph unicode="&#xe938;" d="M776.267 216.802c0-18.237-14.784-33.022-33.022-33.022s-33.022 14.784-33.022 33.022c0 18.237 14.784 33.022 33.022 33.022s33.022-14.784 33.022-33.022z" />
<glyph unicode="&#xe939;" d="M871.246 448.048c0-18.237-14.784-33.022-33.022-33.022s-33.022 14.784-33.022 33.022c0 18.237 14.784 33.022 33.022 33.022s33.022-14.784 33.022-33.022z" />
<glyph unicode="&#xe93a;" d="M776.267 679.246c0-18.237-14.784-33.022-33.022-33.022s-33.022 14.784-33.022 33.022c0 18.237 14.784 33.022 33.022 33.022s33.022-14.784 33.022-33.022z" />
<glyph unicode="&#xe93b;" d="M958.776 396.177c-2.551-250.529-206.237-452.638-457.127-452.638s-454.575 202.109-457.125 452.396l-0.002 0.242c0 252.483 204.8 344.198 457.149 344.198s457.105-91.715 457.105-344.198z" />
<glyph unicode="&#xe93c;" d="M958.776 396.177c0-252.461-204.647-457.124-457.102-457.149h-0.003q-12.243 0-24.309 0.623c241.789 13.271 432.828 212.564 432.84 456.48v0.002c0 244.335-191.443 338.098-432.84 343.93q12.065 0.267 24.309 0.267c252.438 0 457.105-91.759 457.105-344.198z" />
<glyph unicode="&#xe93d;" d="M792.442 585.706c0 51.155-130.226 92.605-290.816 92.605s-290.816-41.45-290.816-92.605 130.226-92.605 290.816-92.605 290.816 41.45 290.816 92.605z" />
<glyph unicode="&#xe93e;" d="M792.442 585.75c-0.203-8.115-3.090-15.518-7.801-21.396l0.054 0.070c-30.23 40.871-145.497 71.235-283.069 71.235s-252.839-30.453-283.069-71.235c-4.657 5.807-7.544 13.211-7.746 21.281l-0.001 0.045c0 51.155 130.226 92.605 290.816 92.605s290.816-41.45 290.816-92.605z" />
<glyph unicode="&#xe93f;" d="M737.057 531.3c-70.245-24.231-151.193-38.222-235.409-38.222s-165.163 13.991-240.646 39.776l5.237-1.554c70.245 24.231 151.193 38.222 235.409 38.222s165.163-13.991 240.646-39.776l-5.237 1.554z" />
<glyph unicode="&#xe940;" d="M438.584 495.282c-20.302 1.425-39.847 3.517-58.279 6.233l-4.63 58.813-19.634 247.897c-0.347 4.36-3.97 7.767-8.39 7.767-0.834 0-1.639-0.121-2.4-0.347l0.060 0.015-120.832-34.682c-2.381-0.709-5.116-1.118-7.947-1.118-15.911 0-28.81 12.899-28.81 28.81 0 13.081 8.717 24.125 20.659 27.641l0.204 0.051 120.832 34.682c5.464 1.629 11.741 2.567 18.238 2.567 34.651 0 63.072-26.675 65.848-60.61l0.016-0.236 19.456-245.938z" />
<glyph unicode="&#xe941;" d="M438.584 495.238c-20.302 1.425-39.847 3.517-58.279 6.233l-4.452 58.902c18.12 2.76 37.309 4.986 57.299 6.5z" />
<glyph unicode="&#xe942;" d="M244.38 324.808c-8.532 0-15.449 6.917-15.449 15.449v0 44.522c0.452 8.168 7.186 14.62 15.427 14.62s14.974-6.452 15.425-14.58l0.002-0.040v-44.522c0 0 0 0 0 0 0-8.517-6.891-15.424-15.402-15.449h-0.002z" />
<glyph unicode="&#xe943;" d="M317.974 277.081c-8.532 0-15.449 6.917-15.449 15.449v0 44.522c0.452 8.168 7.186 14.62 15.427 14.62s14.974-6.452 15.425-14.58l0.002-0.040v-44.522c0 0 0 0 0 0 0-8.517-6.891-15.424-15.402-15.449h-0.002z" />
<glyph unicode="&#xe944;" d="M759.407 155.937c-8.532 0-15.449 6.917-15.449 15.449v0 46.748c0.452 8.168 7.186 14.62 15.427 14.62s14.974-6.452 15.425-14.58l0.002-0.040v-46.748c0 0 0 0 0 0 0-8.517-6.891-15.424-15.402-15.449h-0.002z" />
<glyph unicode="&#xe945;" d="M697.967 815.661l-97.859-317.262c-10.774-1.247-21.905-2.271-33.258-3.117l21.549 69.899 80.139 259.473c2.211 6.003 7.881 10.206 14.532 10.206 8.532 0 15.449-6.917 15.449-15.449 0-1.397-0.185-2.75-0.533-4.037l0.025 0.108z" />
<glyph unicode="&#xe946;" d="M619.565 561.709l-19.456-63.043c-10.774-1.247-21.905-2.271-33.258-3.117l21.549 69.899q16.028-1.692 31.165-3.74z" />
<glyph unicode="&#xe947;" d="M772.007 785.519c-29.251 6.411-59.214 14.336-89.489 23.73s-59.437 19.857-87.174 31.165l64.913 70.567 66.783 48.573c1.346-0.277 2.523-0.646 3.646-1.116l-0.129 0.048 30.23-88.776z" />
<glyph unicode="&#xe948;" d="M727.307 959.51l-9.439-8.415-122.524-110.592c-40.119 16.232-72.936 32.049-104.643 49.625l4.87-2.477c-4.073 2.34-6.772 6.665-6.772 11.621 0 6.289 4.346 11.562 10.198 12.981l0.091 0.019 219.67 47.238c1.305 0.298 2.803 0.468 4.341 0.468s3.036-0.171 4.477-0.494l-0.136 0.026z" />
<glyph unicode="&#xe949;" d="M880.952 767.8c-41.959 4.433-79.053 10.704-115.354 19.049l6.41-1.24-34.415 144.562-6.767 28.36c2.793-1.165 5.166-2.824 7.114-4.887l0.009-0.010 154.001-163.484c2.136-2.359 3.444-5.503 3.444-8.952 0-7.377-5.98-13.357-13.357-13.357-0.397 0-0.791 0.017-1.179 0.051l0.050-0.004z" />
<glyph unicode="&#xe94a;" d="M880.952 767.8l-8.593 0.89c2.233 2.381 3.605 5.594 3.605 9.127s-1.372 6.746-3.612 9.134l0.007-0.007-153.912 163.484c-1.958 2.074-4.331 3.733-6.988 4.847l-0.135 0.050c-0.995 0.423-2.172 0.792-3.39 1.046l-0.127 0.022-1.914 0.312 12.778 2.76c1.305 0.298 2.803 0.468 4.341 0.468s3.036-0.171 4.477-0.494l-0.136 0.026c1.342-0.272 2.52-0.641 3.641-1.115l-0.124 0.047c2.792-1.167 5.164-2.826 7.114-4.888l0.009-0.010 154.001-163.484c2.136-2.359 3.444-5.503 3.444-8.952 0-7.377-5.98-13.357-13.357-13.357-0.397 0-0.791 0.017-1.179 0.051l0.050-0.004z" />
<glyph unicode="&#xe94b;" d="M737.636 929.903l-19.723 20.925 9.439 8.548c1.342-0.272 2.52-0.641 3.641-1.115l-0.124 0.047z" />
<glyph unicode="&#xe94c;" d="M1024 448c0-282.77-229.23-512-512-512s-512 229.23-512 512c0 282.77 229.23 512 512 512s512-229.23 512-512z" />
<glyph unicode="&#xe94d;" d="M454.746 290.25l-149.354 120.517 35.268 43.72 108.078-87.215 210.792 232.61 41.614-37.739z" />
<glyph unicode="&#xe94e;" glyph-name="dark-blue-color" data-tags="dark-blue-color" d="M1024.028 447.986c0-282.778-229.236-512.014-512.014-512.014s-512.014 229.236-512.014 512.014c0 282.778 229.236 512.014 512.014 512.014s512.014-229.236 512.014-512.014z" />
<glyph unicode="&#xe94f;" d="M1024 448c0-282.77-229.23-512-512-512s-512 229.23-512 512c0 282.77 229.23 512 512 512s512-229.23 512-512z" />
<glyph unicode="&#xe950;" d="M941.419 448c0-237.162-192.258-429.419-429.419-429.419s-429.419 192.258-429.419 429.419c0 237.162 192.258 429.419 429.419 429.419s429.419-192.258 429.419-429.419z" />
<glyph unicode="&#xe951;" glyph-name="do-not-disturb" data-tags="do not disturb" d="M1024.11 447.945c0-282.8-229.255-512.055-512.055-512.055s-512.055 229.255-512.055 512.055c0 282.8 229.255 512.055 512.055 512.055s512.055-229.255 512.055-512.055z" />
<glyph unicode="&#xe952;" d="M899.32-64h-773.027c-18.337 0-33.202 14.865-33.202 33.202v0 957.595c0 18.337 14.865 33.202 33.202 33.202v0h529.904c9.126-0.028 17.382-3.734 23.366-9.713v0l243.091-243.091c6-6.006 9.711-14.299 9.712-23.459v0-714.535c0 0 0 0 0 0 0-18.283-14.777-33.114-33.039-33.202h-0.008z" />
<glyph unicode="&#xe953;" d="M922.779 707.165l-243.091 243.091c-6.003 6.008-14.295 9.729-23.456 9.744h-0.003v-243.122c0-18.337 14.865-33.202 33.202-33.202v0h243.091c0 0.002 0 0.004 0 0.006 0 9.158-3.712 17.45-9.713 23.453v0z" />
<glyph unicode="&#xe954;" d="M733.308 156.594h-441.003c-18.337 0-33.202 14.865-33.202 33.202s14.865 33.202 33.202 33.202h441.003c18.337 0 33.202-14.865 33.202-33.202s-14.865-33.202-33.202-33.202v0z" />
<glyph unicode="&#xe955;" d="M733.308 289.404h-441.003c-18.337 0-33.202 14.865-33.202 33.202s14.865 33.202 33.202 33.202h441.003c18.337 0 33.202-14.865 33.202-33.202s-14.865-33.202-33.202-33.202v0z" />
<glyph unicode="&#xe956;" d="M733.308 422.214h-441.003c-18.337 0-33.202 14.865-33.202 33.202s14.865 33.202 33.202 33.202h441.003c18.337 0 33.202-14.865 33.202-33.202s-14.865-33.202-33.202-33.202v0z" />
<glyph unicode="&#xe957;" d="M452.515 555.024h-160.209c-18.337 0-33.202 14.865-33.202 33.202s14.865 33.202 33.202 33.202h160.209c18.337 0 33.202-14.865 33.202-33.202s-14.865-33.202-33.202-33.202v0z" />
<glyph unicode="&#xe958;" d="M166.988 959.924h801.223v-1017.401h-801.223c-60.743 0-109.985 49.242-109.985 109.985v797.431c0 60.743 49.242 109.985 109.985 109.985v0z" />
<glyph unicode="&#xe959;" d="M607.308 244.565l-193.043 187.051 192.664 192.626 26.814-26.814-165.433-165.357 165.243-160.275z" />
<glyph unicode="&#xe95a;" d="M174.153 949.175h772.608v-981.065h-772.608c-58.574 0-106.057 47.483-106.057 106.057v768.951c0 58.574 47.483 106.057 106.057 106.057v0z" />
<glyph unicode="&#xe95b;" d="M926.464-53.76h-761.893c-60.594 0-109.714 49.121-109.714 109.714v0 794.478c0 60.594 49.121 109.714 109.714 109.714v0h761.893c20.198 0 36.571-16.374 36.571-36.571v0-940.617c0-0.043 0-0.095 0-0.146 0-20.198-16.374-36.571-36.571-36.571 0 0 0 0 0 0v0zM164.571 923.575c-40.396 0-73.143-32.747-73.143-73.143v0-794.331c0-40.396 32.747-73.143 73.143-73.143v0h761.893v940.617z" />
<glyph unicode="&#xe95c;" d="M598.747 259.365l-186.149 180.37 185.783 185.746 25.856-25.856-159.525-159.451 159.342-154.551z" />
<glyph unicode="&#xe95d;" d="M1024 448c0-282.77-229.23-512-512-512s-512 229.23-512 512c0 282.77 229.23 512 512 512s512-229.23 512-512z" />
<glyph unicode="&#xe95e;" d="M424.607 561.060c0-34.906-28.297-63.203-63.203-63.203s-63.203 28.297-63.203 63.203c0 34.906 28.297 63.203 63.203 63.203s63.203-28.297 63.203-63.203z" />
<glyph unicode="&#xe95f;" d="M361.405 466.264c-42.236 0-126.388-21.219-126.388-63.186v-31.593h252.794v31.576c0 41.967-84.22 63.203-126.405 63.203z" />
<glyph unicode="&#xe960;" d="M729.289 459.499c0-34.906-28.297-63.203-63.203-63.203s-63.203 28.297-63.203 63.203c0 34.906 28.297 63.203 63.203 63.203s63.203-28.297 63.203-63.203z" />
<glyph unicode="&#xe961;" d="M666.087 364.703c-42.236 0-126.388-21.219-126.388-63.186v-31.593h252.794v31.576c0 41.967-84.22 63.203-126.405 63.203z" />
<glyph unicode="&#xe962;" d="M581.699 518.572l-79.385 45.828v-91.673z" />
<glyph unicode="&#xe963;" d="M899.32-64h-773.027c-18.337 0-33.202 14.865-33.202 33.202v0 957.595c0 18.337 14.865 33.202 33.202 33.202v0h529.904c9.126-0.028 17.382-3.734 23.366-9.713v0l243.091-243.091c6-6.006 9.711-14.299 9.712-23.459v0-714.535c0 0 0 0 0 0 0-18.283-14.777-33.114-33.039-33.202h-0.008z" />
<glyph unicode="&#xe964;" d="M922.779 707.165l-243.091 243.091c-6.003 6.008-14.295 9.729-23.456 9.744h-0.003v-243.122c0-18.337 14.865-33.202 33.202-33.202v0h243.091c0 0.002 0 0.004 0 0.006 0 9.158-3.712 17.45-9.713 23.453v0z" />
<glyph unicode="&#xe965;" d="M487.858 479.030h57.654v-230.338h-57.654zM391.882 479.030h-115.184c-21.178-0.053-38.332-17.207-38.384-38.379v-153.574c0.053-21.178 17.207-38.332 38.379-38.384h115.189c21.178 0.053 38.332 17.207 38.384 38.379v76.774h-57.592v-57.592h-76.769v115.184h134.361v19.208c-0.053 21.178-17.207 38.332-38.379 38.384h-0.005zM775.789 421.438v57.592h-172.777v-230.338h57.592v76.769h76.769v57.592h-76.769v38.384z" />
<glyph unicode="&#xe966;" d="M1024 448c0-282.77-229.23-512-512-512s-512 229.23-512 512c0 282.77 229.23 512 512 512s512-229.23 512-512z" />
<glyph unicode="&#xe967;" d="M454.746 290.25l-149.354 120.517 35.268 43.72 108.078-87.215 210.792 232.61 41.614-37.739z" />
<glyph unicode="&#xe968;" glyph-name="green-color" data-tags="green-color" d="M1024.028 447.986c0-282.778-229.236-512.014-512.014-512.014s-512.014 229.236-512.014 512.014c0 282.778 229.236 512.014 512.014 512.014s512.014-229.236 512.014-512.014z" />
<glyph unicode="&#xe969;" d="M1024 448c0-282.77-229.23-512-512-512s-512 229.23-512 512c0 282.77 229.23 512 512 512s512-229.23 512-512z" />
<glyph unicode="&#xe96a;" d="M900.428 447.959c0-214.523-173.905-388.428-388.428-388.428s-388.428 173.905-388.428 388.428c0 214.523 173.905 388.428 388.428 388.428s388.428-173.905 388.428-388.428z" />
<glyph unicode="&#xe96b;" d="M1024 448c0-282.77-229.23-512-512-512s-512 229.23-512 512c0 282.77 229.23 512 512 512s512-229.23 512-512z" />
<glyph unicode="&#xe96c;" d="M900.428 447.959c0-214.523-173.905-388.428-388.428-388.428s-388.428 173.905-388.428 388.428c0 214.523 173.905 388.428 388.428 388.428s388.428-173.905 388.428-388.428z" />
<glyph unicode="&#xe96d;" d="M1024 448c0-282.77-229.23-512-512-512s-512 229.23-512 512c0 282.77 229.23 512 512 512s512-229.23 512-512z" />
<glyph unicode="&#xe96e;" d="M900.428 447.959c0-214.523-173.905-388.428-388.428-388.428s-388.428 173.905-388.428 388.428c0 214.523 173.905 388.428 388.428 388.428s388.428-173.905 388.428-388.428z" />
<glyph unicode="&#xe96f;" d="M1024 448c0-282.77-229.23-512-512-512s-512 229.23-512 512c0 282.77 229.23 512 512 512s512-229.23 512-512z" />
<glyph unicode="&#xe970;" d="M900.428 447.959c0-214.523-173.905-388.428-388.428-388.428s-388.428 173.905-388.428 388.428c0 214.523 173.905 388.428 388.428 388.428s388.428-173.905 388.428-388.428z" />
<glyph unicode="&#xe971;" d="M182.574 630.574h659.742c100.833 0 182.574-81.741 182.574-182.574v-2.096c0-100.833-81.741-182.574-182.574-182.574h-659.742c-100.833 0-182.574 81.741-182.574 182.574v2.096c0 100.833 81.741 182.574 182.574 182.574z" />
<glyph unicode="&#xe972;" d="M343.427 475.092c-28.323 8.72-57.86 8.72-85.365 0.284l-0.817-0.284v-28.727c0.225-2.146-0.479-4.354-2.111-5.986-0.909-0.909-1.997-1.53-3.15-1.863l0.040 0.013c-9.291-4.309-18.584-10.719-26.772-18.907-0.233-0.233-0.464-0.467-0.694-0.701l0.035 0.036c-3.611-3.592-9.445-3.592-13.055-0.001l-22.2 22.2c-3.256 3.748-3.256 9.308-0.021 13.032l0.021 0.023c0.027 0.027 0.058 0.058 0.090 0.090 61.246 61.246 160.546 61.246 221.792 0 0.037-0.037 0.075-0.075 0.112-0.113l-0.006 0.006c3.592-3.611 3.592-9.445 0.001-13.055l-22.852-22.852c0 0 0 0 0 0-3.609-3.609-9.456-3.615-13.072-0.018l-0.001 0.001c-8.455 8.389-17.967 15.029-28.107 19.934l0.676-0.362c-0.682 0.415-1.388 0.968-2.035 1.616-1.766 1.766-2.83 3.968-3.192 6.259l0.007-0.039z" />
<glyph unicode="&#xe973;" d="M765.865 812.781h117.356v-204.8h-117.356v204.8z" />
<glyph unicode="&#xe974;" d="M721.070 917.351h206.947v-110.915h-206.947v110.915z" />
<glyph unicode="&#xe975;" d="M89.591 407.474v-471.474h836.279v471.474l-418.139 418.139c-162.151-164.25-253.889-255.988-418.139-418.139z" />
<glyph unicode="&#xe976;" d="M927.969 407.474l-418.092 418.139c-83.199-81.099-147.219-145.073-211.193-209.046l-209.094-209.094v-95.984l418.139 418.139 418.139-418.139v-12.785 108.769h2.147z" />
<glyph unicode="&#xe977;" d="M331.601 309.344h328.548v-287.999h-328.548v287.999z" />
<glyph unicode="&#xe978;" d="M1004.775 494.918l-445.856 445.999c-12.473 11.935-29.422 19.282-48.087 19.282s-35.614-7.347-48.113-19.307l0.026 0.024-443.662-445.999c-11.881-12.462-19.191-29.373-19.191-47.992s7.31-35.53 19.218-48.020l-0.026 0.028c12.462-11.881 29.373-19.191 47.992-19.191s35.53 7.31 48.020 19.218l-0.028-0.026 396.815 396.815 396.815-396.815c12.374-12.879 29.742-20.881 48.979-20.881 37.492 0 67.885 30.393 67.885 67.885 0 19.237-8.002 36.605-20.858 48.958l-0.023 0.022z" />
<glyph unicode="&#xe979;" d="M899.32-64h-773.027c-18.337 0-33.202 14.865-33.202 33.202v0 957.595c0 18.337 14.865 33.202 33.202 33.202v0h529.904c9.126-0.028 17.382-3.734 23.366-9.713v0l243.091-243.091c6-6.006 9.711-14.299 9.712-23.459v0-714.535c0 0 0 0 0 0 0-18.283-14.777-33.114-33.039-33.202h-0.008z" />
<glyph unicode="&#xe97a;" d="M922.748 707.165l-243.091 243.091c-6.003 6.008-14.295 9.729-23.456 9.744h-0.003v-243.122c0-18.337 14.865-33.202 33.202-33.202v0h243.091c0 0.002 0 0.004 0 0.006 0 9.158-3.712 17.45-9.713 23.453v0z" />
<glyph unicode="&#xe97b;" d="M408.39 434.471c29.96 0.131 54.196 24.449 54.196 54.427 0 30.059-24.368 54.427-54.427 54.427s-54.427-24.368-54.427-54.427c0-15.025 6.088-28.629 15.933-38.477v0c9.593-9.848 22.984-15.958 37.801-15.958 0.325 0 0.649 0.003 0.973 0.009l-0.049-0.001z" />
<glyph unicode="&#xe97c;" d="M446.433 320.341l-63.395 63.395-126.79-126.79v-76.086h557.894v177.493l-164.833 164.833z" />
<glyph unicode="&#xe97d;" d="M899.32-64h-773.027c-18.337 0-33.202 14.865-33.202 33.202v0 957.595c0 18.337 14.865 33.202 33.202 33.202v0h529.904c9.126-0.028 17.382-3.734 23.366-9.713v0l243.091-243.091c6-6.006 9.711-14.299 9.712-23.459v0-714.535c0 0 0 0 0 0 0-18.283-14.777-33.114-33.039-33.202h-0.008z" />
<glyph unicode="&#xe97e;" d="M922.748 707.165l-243.091 243.091c-6.003 6.008-14.295 9.729-23.456 9.744h-0.003v-243.122c0-18.337 14.865-33.202 33.202-33.202v0h243.091c0 0.002 0 0.004 0 0.006 0 9.158-3.712 17.45-9.713 23.453v0z" />
<glyph unicode="&#xe97f;" d="M408.39 434.471c29.96 0.131 54.196 24.449 54.196 54.427 0 30.059-24.368 54.427-54.427 54.427s-54.427-24.368-54.427-54.427c0-15.025 6.088-28.629 15.933-38.477v0c9.593-9.848 22.984-15.958 37.801-15.958 0.325 0 0.649 0.003 0.973 0.009l-0.049-0.001z" />
<glyph unicode="&#xe980;" d="M446.433 320.341l-63.395 63.395-126.79-126.79v-76.086h557.894v177.493l-164.833 164.833z" />
<glyph unicode="&#xe981;" d="M858.112-57.325h-801.223v1017.401h801.223c60.743 0 109.985-49.242 109.985-109.985v-797.431c0-60.743-49.242-109.985-109.985-109.985v0z" />
<glyph unicode="&#xe982;" d="M417.792 658.034l193.043-187.051-192.664-192.626-26.814 26.814 165.433 165.357-165.243 160.275z" />
<glyph unicode="&#xe983;" d="M843.739-42.935h-772.608v981.065h772.608c58.574 0 106.057-47.483 106.057-106.057v-768.951c0-58.574-47.483-106.057-106.057-106.057v0z" />
<glyph unicode="&#xe984;" d="M91.429 960h761.893c60.594 0 109.714-49.121 109.714-109.714v0-794.478c0-60.594-49.121-109.714-109.714-109.714v0h-761.893c-20.198 0-36.571 16.374-36.571 36.571v0 940.617c0 0.043 0 0.095 0 0.146 0 20.198 16.374 36.571 36.571 36.571 0 0 0 0 0 0v0zM853.321-17.335c40.396 0 73.143 32.747 73.143 73.143v0 794.331c0 40.396-32.747 73.143-73.143 73.143v0h-761.893v-940.617z" />
<glyph unicode="&#xe985;" d="M419.145 646.875l186.149-180.37-185.783-185.746-25.856 25.856 159.525 159.451-159.342 154.551z" />
<glyph unicode="&#xe986;" d="M1024 448c0-282.77-229.23-512-512-512s-512 229.23-512 512c0 282.77 229.23 512 512 512s512-229.23 512-512z" />
<glyph unicode="&#xe987;" d="M941.419 448c0-237.162-192.258-429.419-429.419-429.419s-429.419 192.258-429.419 429.419c0 237.162 192.258 429.419 429.419 429.419s429.419-192.258 429.419-429.419z" />
<glyph unicode="&#xe988;" glyph-name="invisible" data-tags="invisible" d="M1024.11 447.945c0-282.8-229.255-512.055-512.055-512.055s-512.055 229.255-512.055 512.055c0 282.8 229.255 512.055 512.055 512.055s512.055-229.255 512.055-512.055z" />
<glyph unicode="&#xe989;" d="M1024 448c0-282.77-229.23-512-512-512s-512 229.23-512 512c0 282.77 229.23 512 512 512s512-229.23 512-512z" />
<glyph unicode="&#xe98a;" d="M454.746 290.25l-149.354 120.517 35.268 43.72 108.078-87.215 210.792 232.61 41.614-37.739z" />
<glyph unicode="&#xe98b;" glyph-name="light-blue-color" data-tags="light-blue-color" d="M1024.028 447.986c0-282.778-229.236-512.014-512.014-512.014s-512.014 229.236-512.014 512.014c0 282.778 229.236 512.014 512.014 512.014s512.014-229.236 512.014-512.014z" />
<glyph unicode="&#xe98c;" d="M1005.117 403.722c0-0.006 0-0.013 0-0.021 0-62.418-47.995-113.627-109.093-118.734l-0.434-0.029c-3.195-0.287-6.431-0.41-9.708-0.41-0.047 0-0.103 0-0.158 0-8.559 0-16.906 0.91-24.949 2.639l0.776-0.14h-718.193c-7.262-1.589-15.605-2.499-24.159-2.499-0.060 0-0.12 0-0.18 0h0.009c-65.763 0.087-119.041 53.418-119.041 119.193 0 61.866 47.134 112.724 107.451 118.622l0.49 0.039c3.237 0.34 6.994 0.533 10.796 0.533 0.136 0 0.272 0 0.407-0.001h-0.021c0.018 0 0.040 0 0.062 0 5.19 0 10.304-0.327 15.321-0.963l-0.596 0.062h737.28c4.421 0.574 9.535 0.901 14.725 0.901 0.022 0 0.044 0 0.065 0h-0.003c65.829 0 119.194-53.365 119.194-119.194v0z" />
<glyph unicode="&#xe98d;" d="M906.609 521.114v-150.979c0-0.048 0-0.104 0-0.161 0-30.217-4.021-59.496-11.557-87.329l0.538 2.335c-3.195-0.287-6.431-0.41-9.708-0.41-0.047 0-0.103 0-0.158 0-8.559 0-16.906 0.91-24.949 2.639l0.776-0.14h-718.029c-7.262-1.589-15.605-2.499-24.159-2.499-0.060 0-0.12 0-0.18 0h0.009c-7.049 25.618-11.1 55.034-11.1 85.395 0 0.060 0 0.119 0 0.179v-0.009 152.289c3.235 0.34 6.989 0.533 10.788 0.533 0.139 0 0.277 0 0.415-0.001h-0.021c0.018 0 0.040 0 0.062 0 5.19 0 10.304-0.327 15.321-0.963l-0.596 0.062h737.28c4.42 0.574 9.533 0.901 14.722 0.901 0.023 0 0.045 0 0.068 0h-0.003c7.253-0.023 14.335-0.693 21.209-1.954l-0.729 0.111z" />
<glyph unicode="&#xe98e;" d="M940.073 384.758c-0.003 0-0.006 0-0.009 0-6.284 0-11.688 3.763-14.083 9.159l-0.039 0.098c-12.288 28.058-46.817 19.497-50.749 18.432-0.919-0.195-1.974-0.306-3.056-0.306-8.506 0-15.401 6.895-15.401 15.401 0 6.665 4.233 12.341 10.158 14.485l0.107 0.034c6.911 2.441 14.881 3.852 23.18 3.852 27.897 0 52.072-15.937 63.917-39.203l0.188-0.407c0.797-1.799 1.261-3.897 1.261-6.103 0-8.488-6.867-15.373-15.348-15.401h-0.003z" />
<glyph unicode="&#xe98f;" d="M74.547 384.758c-8.484 0.028-15.351 6.913-15.351 15.401 0 2.206 0.464 4.304 1.3 6.202l-0.039-0.099c12.033 23.673 36.208 39.61 64.105 39.61 8.299 0 16.269-1.41 23.683-4.005l-0.503 0.153c6.032-2.179 10.265-7.855 10.265-14.519 0-8.506-6.895-15.401-15.401-15.401-1.082 0-2.137 0.112-3.156 0.324l0.1-0.017c-4.096 1.065-38.543 9.626-50.708-18.432-2.443-5.472-7.837-9.217-14.105-9.217-0.067 0-0.134 0-0.2 0.001h0.010z" />
<glyph unicode="&#xe990;" d="M871.137 575.713v-247.849c-2.182-199.258-164.219-359.947-363.786-359.947s-361.605 160.689-363.784 359.741l-0.002 0.206v247.849c2.182 199.258 164.219 359.947 363.786 359.947s361.605-160.689 363.784-359.741l0.002-0.206z" />
<glyph unicode="&#xe991;" d="M871.137 575.713v-247.726c-0.020-176.481-125.669-323.609-292.388-356.827l-2.319-0.385c-169.038 33.603-294.687 180.731-294.707 357.21v247.729c0.016 176.492 125.664 323.632 292.387 356.867l2.32 0.386c169.035-33.636 294.674-180.767 294.707-357.25v-0.003z" />
<glyph unicode="&#xe992;" d="M871.096 575.713v-53.699c-430.694 0.532-573.85 176.701-573.85 176.701 0-73.155-73.155-150.364-153.723-176.701v53.699c-0.013 1.147-0.020 2.503-0.020 3.86 0 200.925 162.882 363.807 363.807 363.807s363.807-162.882 363.807-363.807c0-1.357-0.007-2.713-0.022-4.066l0.002 0.206z" />
<glyph unicode="&#xe993;" d="M576.389 932.966c-128.999-25.714-231.97-116.688-274.26-236.328l-0.786-2.551c-2.785 2.949-4.096 4.588-4.096 4.588 0-73.155-73.155-150.364-153.723-176.701v53.74c0.163 200.96 163.111 363.807 364.093 363.807 24.326 0 48.095-2.386 71.086-6.936l-2.314 0.382z" />
<glyph unicode="&#xe994;" d="M348.856 373.78c-8.506 0-15.401 6.895-15.401 15.401v68.895c0.434 8.157 7.154 14.607 15.38 14.607s14.946-6.45 15.379-14.568l0.002-0.038v-68.895c0 0 0 0 0 0 0-8.491-6.872-15.378-15.358-15.401h-0.002z" />
<glyph unicode="&#xe995;" d="M665.846 373.78c-8.506 0-15.401 6.895-15.401 15.401v68.895c0.434 8.157 7.154 14.607 15.38 14.607s14.946-6.45 15.379-14.568l0.002-0.038v-68.895c0 0 0 0 0 0 0-8.491-6.872-15.378-15.358-15.401h-0.002z" />
<glyph unicode="&#xe996;" d="M871.137 499.241v-57.057l-110.592-172.401c-2.834-3.853-7.349-6.325-12.442-6.325-8.506 0-15.401 6.895-15.401 15.401 0 2.759 0.726 5.349 1.997 7.589l-0.040-0.076z" />
<glyph unicode="&#xe997;" d="M269.558 274.248c-2.347-1.529-5.219-2.438-8.304-2.438-5.42 0-10.184 2.807-12.918 7.047l-0.037 0.061-104.735 163.267v57.057l130.662-203.94c1.472-2.314 2.346-5.134 2.346-8.158 0-5.381-2.767-10.116-6.956-12.859l-0.059-0.036z" />
<glyph unicode="&#xe998;" d="M780.001 328.397v-153.068l-95.15-169.533c-22.249-39.101-63.636-65.043-111.083-65.044h-132.916c-47.447 0.002-88.835 25.944-110.754 64.417l-0.329 0.628-95.15 169.533v153.068l272.548 33.341z" />
<glyph unicode="&#xe999;" d="M440.852-59.044c-47.447 0.002-88.835 25.944-110.754 64.417l-0.329 0.628-95.15 169.533v152.904l102.4 12.534c0.041-139.51 18.678-356.024 103.834-400.015z" />
<glyph unicode="&#xe99a;" d="M1024 448c0-282.77-229.23-512-512-512s-512 229.23-512 512c0 282.77 229.23 512 512 512s512-229.23 512-512z" />
<glyph unicode="&#xe99b;" d="M722.96 282.237l-275.929 275.929h253.316l0.084 63.245h-362.039v-362.039h63.329l0.084 253.566 275.929-275.929z" />
<glyph unicode="&#xe99c;" d="M1024 448c0-282.77-229.23-512-512-512s-512 229.23-512 512c0 282.77 229.23 512 512 512s512-229.23 512-512z" />
<glyph unicode="&#xe99d;" d="M315.849 598.915l275.929-275.929h-253.316l-0.084-63.245h362.039v362.039h-63.329l-0.084-253.566-275.929 275.929z" />
<glyph unicode="&#xe99e;" d="M1024 448c0-282.77-229.23-512-512-512s-512 229.23-512 512c0 282.77 229.23 512 512 512s512-229.23 512-512z" />
<glyph unicode="&#xe99f;" d="M454.746 290.25l-149.354 120.517 35.268 43.72 108.078-87.215 210.792 232.61 41.614-37.739z" />
<glyph unicode="&#xe9a0;" glyph-name="orange-color" data-tags="orange-color" d="M1024.028 447.986c0-282.778-229.236-512.014-512.014-512.014s-512.014 229.236-512.014 512.014c0 282.778 229.236 512.014 512.014 512.014s512.014-229.236 512.014-512.014z" />
<glyph unicode="&#xe9a1;" d="M909.808-64h-783.081c-0.065 0-0.141-0.001-0.218-0.001-18.381 0-33.296 14.839-33.419 33.191v957.607c0.123 18.364 15.038 33.203 33.419 33.203 0.077 0 0.153 0 0.23-0.001h536.812c0.011 0 0.023 0 0.036 0 9.247 0 17.628-3.707 23.738-9.717l-0.005 0.005 246.256-243.091c6.009-5.968 9.732-14.231 9.744-23.364v-714.63c-0.123-18.364-15.038-33.203-33.419-33.203-0.033 0-0.066 0-0.099 0h0.005z" />
<glyph unicode="&#xe9a2;" d="M933.578 707.165l-246.256 243.091c-6.111 6.022-14.506 9.741-23.769 9.744h-0.001v-243.122c0.21-18.297 15.091-33.048 33.418-33.048 0.088 0 0.176 0 0.264 0.001h246.243c-0.016 9.186-3.789 17.488-9.863 23.454l-0.005 0.005z" />
<glyph unicode="&#xe9a3;" d="M261.368 110.825v0c-0.068 0-0.147-0.001-0.227-0.001-9.193 0-17.72 2.856-24.74 7.728l0.143-0.094c-17.185 9.394-28.646 27.344-28.646 47.971 0 1.606 0.070 3.196 0.206 4.767l-0.014-0.204c4.655 38.136 56.041 78.072 152.824 118.753 35.945 70.933 68.875 154.522 94.105 241.386l2.616 10.518c-25.476 50.89-50.238 116.922-32.209 155.648 4.924 13.415 15.428 23.756 28.623 28.355l0.328 0.1c7.593 2.038 16.46 3.477 25.57 4.016l0.371 0.018c12.878 0 24.173-15.205 32.209-24.576 7.54-8.813 24.607-27.493-9.526-159.372 36.209-67.861 79.449-126.173 129.988-177.248l-0.065 0.065c25.465 4.8 55.050 7.825 85.24 8.371l0.497 0.007c39.998 0 64.202-8.564 74.1-26.159 2.492-5.379 3.945-11.675 3.945-18.31 0-12.712-5.334-24.177-13.885-32.281l-0.020-0.019c-12.848-17.036-33.050-27.933-55.797-27.933-0.315 0-0.629 0.002-0.943 0.006h0.048c-42.618 4.923-79.935 24.486-107.449 53.452l-0.071 0.076c-86.399-17.287-161.887-40.12-234.164-69.244l8.76 3.118c-18.99-38.121-39.222-70.754-62.072-101.315l1.222 1.708c-26.065-33.606-48.624-49.307-70.966-49.307zM329.325 230.943c-54.551-28.144-76.8-51.262-78.414-64.295-0.248-2.141-0.931-7.82 11.016-16.229 3.786 1.086 26.034 10.395 67.398 80.493zM677.516 335.019c20.821-14.677 25.879-22.125 39.502-22.125 1.126-0.111 2.434-0.174 3.757-0.174 10.511 0 20.091 3.99 27.307 10.537l-0.034-0.030c2.358 2.781 4.331 5.99 5.776 9.473l0.088 0.24c-6.741 3.204-14.648 5.076-22.992 5.076-2.473 0-4.907-0.164-7.293-0.483l0.279 0.030c-0.287 0.001-0.628 0.001-0.969 0.001-16.003 0-31.791-0.925-47.311-2.724l1.89 0.178zM486.772 489.239c-22.769-71.46-45.912-130.145-72.335-186.997l4.068 9.752c44.442 16.59 99.939 32.879 156.78 45.613l9.077 1.708c-35.541 38.406-67.762 80.914-95.588 126.403l-2.002 3.521zM471.257 687.523c-9.060-9.456-14.638-22.312-14.638-36.471 0-15.365 6.569-29.196 17.052-38.837l0.038-0.034c24.266 49.586-1.334 75.652-2.42 75.342z" />
<glyph unicode="&#xe9a4;" d="M512 960c282.77 0 512-229.23 512-512s-229.23-512-512-512c-282.77 0-512 229.23-512 512s229.23 512 512 512z" />
<glyph unicode="&#xe9a5;" d="M550.724 457.882c49.485 0 89.6 40.115 89.6 89.6s-40.115 89.6-89.6 89.6v0c-0.052 0-0.114 0-0.175 0-9.725 0-19.093-1.529-27.877-4.361l0.643 0.179c16.948-23.586 27.103-53.044 27.103-84.875 0-0.161 0-0.322-0.001-0.483v0.025c-0.101-31.973-10.234-61.559-27.414-85.798l0.313 0.465c8.182-2.722 17.603-4.311 27.389-4.352h0.020zM400.128 457.882c49.127 0.444 88.781 40.373 88.781 89.562 0 49.466-40.1 89.566-89.566 89.566s-89.564-40.098-89.566-89.562v0c0.008-49.469 40.112-89.569 89.583-89.569 0.27 0 0.54 0.001 0.809 0.004h-0.041zM599.501 393.387c25.070-20.065 41.111-50.508 41.557-84.713l0.001-0.074v-59.733h90.368v59.733c0 46.046-71.373 74.411-131.908 84.855zM400.128 398.148c-60.228 0-180.702-29.781-180.702-89.498v-59.733h361.404v59.733c0 59.716-120.457 89.498-180.702 89.498z" />
<glyph unicode="&#xe9a6;" d="M1024 448c0-282.77-229.23-512-512-512s-512 229.23-512 512c0 282.77 229.23 512 512 512s512-229.23 512-512z" />
<glyph unicode="&#xe9a7;" d="M454.746 290.25l-149.354 120.517 35.268 43.72 108.078-87.215 210.792 232.61 41.614-37.739z" />
<glyph unicode="&#xe9a8;" glyph-name="pink-color" data-tags="pink-color" d="M1024.028 447.986c0-282.778-229.236-512.014-512.014-512.014s-512.014 229.236-512.014 512.014c0 282.778 229.236 512.014 512.014 512.014s512.014-229.236 512.014-512.014z" />
<glyph unicode="&#xe9a9;" d="M1024 448c0-282.77-229.23-512-512-512s-512 229.23-512 512c0 282.77 229.23 512 512 512s512-229.23 512-512z" />
<glyph unicode="&#xe9aa;" d="M470.077 280.984l-149.354 120.545 35.268 43.72 108.078-87.243 210.792 232.61 41.614-37.739z" />
<glyph unicode="&#xe9ab;" glyph-name="purple-color" data-tags="purple-color" d="M1024.028 447.986c0-282.778-229.236-512.014-512.014-512.014s-512.014 229.236-512.014 512.014c0 282.778 229.236 512.014 512.014 512.014s512.014-229.236 512.014-512.014z" />
<glyph unicode="&#xe9ac;" d="M1024 448c0-282.77-229.23-512-512-512s-512 229.23-512 512c0 282.77 229.23 512 512 512s512-229.23 512-512z" />
<glyph unicode="&#xe9ad;" d="M681.447 645.092h-325.806c-22.406-0.079-40.539-18.26-40.539-40.677 0-0.020 0-0.039 0-0.059v0.003l-0.194-366.538 81.465 81.465h285.073c22.471 0.063 40.67 18.262 40.733 40.727v244.346c-0.063 22.471-18.262 40.67-40.727 40.733h-0.006zM457.459 461.809h-40.733v40.733h40.733zM538.924 461.809h-40.733v40.733h40.733zM620.389 461.809h-40.76v40.733h40.733z" />
<glyph unicode="&#xe9ae;" d="M1024 448c0-282.77-229.23-512-512-512s-512 229.23-512 512c0 282.77 229.23 512 512 512s512-229.23 512-512z" />
<glyph unicode="&#xe9af;" d="M653.933 641.049h-297.766c-20.469-0.076-37.032-16.687-37.032-37.166 0-0.018 0-0.036 0-0.053v0.003l-0.185-334.982 74.433 74.433h260.532c20.527 0.067 37.15 16.689 37.217 37.21v223.339c-0.067 20.521-16.68 37.14-37.192 37.217h-0.007zM449.217 473.566h-37.217v37.217h37.217zM523.65 473.566h-37.217v37.217h37.217zM598.083 473.566h-37.2v37.217h37.217z" />
<glyph unicode="&#xe9b0;" d="M512 960c282.77 0 512-229.23 512-512s-229.23-512-512-512c-282.77 0-512 229.23-512 512s229.23 512 512 512z" />
<glyph unicode="&#xe9b1;" d="M684.919 649.421h-332.749c-22.876-0.087-41.387-18.652-41.387-41.54 0-0.018 0-0.036 0-0.054v0.003l-0.205-374.34 83.183 83.132h291.157c22.943 0.068 41.524 18.648 41.591 41.585v249.623c-0.068 22.943-18.648 41.524-41.585 41.591h-0.006zM456.158 462.251h-41.591v41.591h41.591zM539.341 462.251h-41.591v41.591h41.523zM622.524 462.251h-41.591v41.591h41.591z" />
<glyph unicode="&#xe9b2;" d="M909.808-64h-783.081c-0.065 0-0.141-0.001-0.218-0.001-18.381 0-33.296 14.839-33.419 33.191v957.607c0.123 18.364 15.038 33.203 33.419 33.203 0.077 0 0.153 0 0.23-0.001h536.812c0.011 0 0.023 0 0.036 0 9.247 0 17.628-3.707 23.738-9.717l-0.005 0.005 246.256-243.091c6.009-5.968 9.732-14.231 9.744-23.364v-714.63c-0.123-18.364-15.038-33.203-33.419-33.203-0.033 0-0.066 0-0.099 0h0.005z" />
<glyph unicode="&#xe9b3;" d="M933.578 707.196l-246.256 243.091c-6.111 6.022-14.506 9.741-23.769 9.744h-0.001v-243.122c0.21-18.297 15.091-33.048 33.418-33.048 0.088 0 0.176 0 0.264 0.001h246.243c-0.016 9.186-3.789 17.488-9.863 23.454l-0.005 0.005z" />
<glyph unicode="&#xe9b4;" d="M512.31 188.711c0-0.009 0-0.019 0-0.029 0-13.059-10.586-23.645-23.645-23.645-5.764 0-11.046 2.062-15.149 5.49l0.038-0.030-129.396 107.055h-68.856c0 0 0 0 0 0-13.059 0-23.645 10.586-23.645 23.645 0 0.033 0 0.065 0 0.098v-0.005 94.177c0 13.059 10.586 23.645 23.645 23.645v0h68.887l129.303 107.148c4.073 3.407 9.366 5.476 15.143 5.476 13.059 0 23.649-10.573 23.676-23.626v-319.398zM603.198 225.668h-1.707c-0.007 0-0.016 0-0.024 0-6.523 0-12.427 2.644-16.701 6.92l-3.103 3.103c-4.289 4.281-6.943 10.199-6.943 16.737 0 5.301 1.745 10.195 4.691 14.138l-0.044-0.062c16.901 22.585 27.063 51.067 27.063 81.922 0 32.938-11.58 63.172-30.89 86.852l0.197-0.249c-3.299 4.033-5.297 9.24-5.297 14.915 0 6.522 2.641 12.428 6.911 16.705v0l3.103 3.103c4.203 4.279 10.051 6.93 16.517 6.93 0.488 0 0.972-0.015 1.453-0.045l-0.066 0.003c6.917-0.361 13.002-3.639 17.096-8.616l0.033-0.041c26.529-32.326 42.61-74.108 42.61-119.646 0-42.72-14.152-82.135-38.024-113.811l0.348 0.482c-4.057-5.324-10.23-8.856-17.242-9.336l-0.073-0.004zM700.975 152.592c-4.162-4.905-10.232-8.082-17.049-8.376l-0.049-0.002h-0.993c-0.003 0-0.007 0-0.011 0-6.527 0-12.436 2.644-16.714 6.92l-3.103 3.103c-4.281 4.279-6.93 10.192-6.93 16.724 0 5.822 2.104 11.152 5.593 15.272l-0.028-0.035c36.786 43.516 59.147 100.256 59.147 162.22 0 64.218-24.018 122.826-63.561 167.331l0.225-0.257c-3.686 4.151-5.938 9.648-5.938 15.67 0 6.517 2.636 12.418 6.901 16.695l3.102 3.102c4.188 4.301 10.034 6.97 16.504 6.97 0.329 0 0.656-0.007 0.982-0.021l-0.047 0.002c6.772-0.202 12.801-3.221 16.984-7.92l0.021-0.024c47.517-53.351 76.55-124.071 76.55-201.571 0-74.833-27.069-143.343-71.949-196.274l0.364 0.44z" />
<glyph unicode="&#xe9b5;" glyph-name="tick" data-tags="tick" d="M389.047 43.739l-389.047 313.929 91.867 113.883 281.527-227.182 549.083 605.915 108.398-98.304z" />
<glyph unicode="&#xe9b6;" d="M909.808-64h-783.081c-0.065 0-0.141-0.001-0.218-0.001-18.381 0-33.296 14.839-33.419 33.191v957.607c0.123 18.364 15.038 33.203 33.419 33.203 0.077 0 0.153 0 0.23-0.001h536.812c0.011 0 0.023 0 0.036 0 9.247 0 17.628-3.707 23.738-9.717l-0.005 0.005 246.256-243.091c6.009-5.968 9.732-14.231 9.744-23.364v-714.63c-0.123-18.364-15.038-33.203-33.419-33.203-0.033 0-0.066 0-0.099 0h0.005z" />
<glyph unicode="&#xe9b7;" d="M933.578 707.196l-246.256 243.091c-6.111 6.022-14.506 9.741-23.769 9.744h-0.001v-243.122c0.21-18.297 15.091-33.048 33.418-33.048 0.088 0 0.176 0 0.264 0.001h246.243c-0.016 9.186-3.789 17.488-9.863 23.454l-0.005 0.005z" />
<glyph unicode="&#xe9b8;" d="M759.994 497.4c-19.208 22.838-54.706 32.178-122.477 32.178h-246.039c-69.322 0-105.503-9.93-124.556-34.133-18.68-23.831-18.68-58.771-18.68-107.148v-92.191c0-93.712 22.156-141.281 143.236-141.281h246.008c58.771 0 91.353 8.223 112.423 28.393 21.721 20.666 30.813 54.427 30.813 112.888v92.191c0.031 51.014-1.427 86.171-20.728 109.103zM590.103 329.464l-111.709-58.399c-2.305-1.226-5.040-1.945-7.944-1.945-9.491 0-17.185 7.691-17.191 17.181v116.427c0.015 9.483 7.706 17.165 17.191 17.165 2.891 0 5.615-0.714 8.007-1.974l-0.094 0.045 111.709-58.027c5.528-2.933 9.229-8.652 9.229-15.236s-3.701-12.303-9.136-15.191l-0.093-0.045z" />
<glyph unicode="&#xe9b9;" d="M512 960c282.77 0 512-229.23 512-512s-229.23-512-512-512c-282.77 0-512 229.23-512 512s229.23 512 512 512z" />
<glyph unicode="&#xe9ba;" d="M735.454 567.979l-94.737-94.805v82.961c-0.039 13.067-10.621 23.65-23.685 23.689h-146.385l264.806-264.789zM315.511 674.56l-30.071-30.071 64.666-64.666h-17.289c-13.067-0.039-23.65-10.621-23.689-23.685v-236.855c0.087-13.031 10.651-23.565 23.685-23.603h284.215c4.809 0.12 9.226 1.701 12.851 4.313l-0.068-0.047 75.554-75.315 30.071 30.071z" />
<glyph unicode="&#xe9bb;" d="M1024 448c0-282.77-229.23-512-512-512s-512 229.23-512 512c0 282.77 229.23 512 512 512s512-229.23 512-512z" />
<glyph unicode="&#xe9bc;" d="M712.167 564.132l-87.292-87.292v76.33c0 12.052-9.77 21.823-21.823 21.823v0h-134.799l243.913-243.83zM325.414 662.285l-27.698-27.698 59.543-59.593h-15.897c-12.052 0-21.823-9.77-21.823-21.823v0-218.078c0-12.052 9.77-21.823 21.823-21.823v0h261.741c4.421 0.114 8.481 1.569 11.813 3.971l-0.062-0.043 69.582-69.363 27.698 27.698z" />
<glyph unicode="&#xe9bd;" d="M906.212 448c0-217.717-176.495-394.212-394.212-394.212s-394.212 176.495-394.212 394.212c0 217.717 176.495 394.212 394.212 394.212s394.212-176.495 394.212-394.212z" />
<glyph unicode="&#xe9be;" d="M601.127 468.207v58.894c-0.037 9.275-7.553 16.782-16.829 16.804h-201.852c-9.276-0.030-16.788-7.541-16.818-16.815v-168.218c0.030-9.276 7.541-16.788 16.815-16.818h201.853c9.276 0.030 16.788 7.541 16.818 16.815v58.897l67.283-67.283v185.006z" />
<glyph unicode="&#xe9bf;" d="M1024 448c0-282.77-229.23-512-512-512s-512 229.23-512 512c0 282.77 229.23 512 512 512s512-229.23 512-512z" />
<glyph unicode="&#xe9c0;" d="M583.663 562.554v-212.807h-266.005v212.807h266.005zM610.27 615.751h-319.203c-14.679-0.038-26.569-11.928-26.607-26.604v-265.992c0.038-14.679 11.928-26.569 26.604-26.607h319.207c14.679 0.038 26.569 11.928 26.607 26.604v93.104l106.395-106.395v292.595l-106.412-106.395v93.083c-0.038 14.674-11.918 26.56-26.586 26.607h-0.005z" />
<glyph unicode="&#xe9c1;" d="M511.986 960h0.028c282.762 0 511.986-229.224 511.986-511.986v-0.028c0-282.762-229.224-511.986-511.986-511.986h-0.028c-282.762 0-511.986 229.224-511.986 511.986v0.028c0 282.762 229.224 511.986 511.986 511.986z" />
<glyph unicode="&#xe9c2;" d="M518.254 390.548c0.393-0.008 0.857-0.012 1.321-0.012 39.445 0 71.422 31.977 71.422 71.422 0 0.465-0.004 0.928-0.013 1.391l0.001-0.069v145.434c0 40.168-32.563 72.731-72.731 72.731s-72.731-32.563-72.731-72.731v0-145.434c-0.008-0.393-0.012-0.857-0.012-1.321 0-39.445 31.977-71.422 71.422-71.422 0.465 0 0.928 0.004 1.391 0.013l-0.069-0.001zM646.724 463.279c-2.765-68.826-59.231-123.575-128.484-123.575s-125.719 54.749-128.476 123.325l-0.008 0.25h-41.198c2.395-83.012 64.386-150.844 144.56-162.32l0.902-0.106v-80.001h48.497v80.001c81.076 11.582 143.067 79.414 145.456 162.184l0.006 0.242h-41.254z" />
<glyph unicode="&#xe9c3;" d="M511.986 960h0.028c282.762 0 511.986-229.224 511.986-511.986v-0.028c0-282.762-229.224-511.986-511.986-511.986h-0.028c-282.762 0-511.986 229.224-511.986 511.986v0.028c0 282.762 229.224 511.986 511.986 511.986z" />
<glyph unicode="&#xe9c4;" d="M685.944 461.607h-40.697c-0.020-17.476-3.814-34.060-10.61-48.99l0.303 0.744 29.443-28.942c13.342 22.071 21.319 48.69 21.532 77.156v0.060zM589.815 457.596c0 1.421 0.474 2.591 0.474 4.011v141.256c-0.794 39.063-32.647 70.425-71.826 70.425s-71.032-31.362-71.824-70.351l-0.001-0.074v-4.234zM333.543 649.8l-30.641-29.75 143.874-141.562v-16.936c0.172-39.038 31.858-70.617 70.92-70.617 0.235 0 0.47 0.001 0.705 0.003h-0.036c5.543 0.037 10.906 0.726 16.043 1.992l-0.471-0.098 39.75-38.998c-16.219-7.649-35.221-12.148-55.265-12.229h-0.028c-1.092-0.035-2.375-0.054-3.664-0.054-66.954 0-121.442 53.371-123.243 119.89l-0.004 0.166h-40.697c2.935-81.257 64.055-147.383 142.795-158.097l0.856-0.095v-77.216h47.884v77.216c22.799 3.395 43.301 10.845 61.602 21.63l-0.793-0.432 100.28-98.414 30.39 29.889z" />
<glyph unicode="&#xe9c5;" d="M1024 448c0-282.77-229.23-512-512-512s-512 229.23-512 512c0 282.77 229.23 512 512 512s512-229.23 512-512z" />
<glyph unicode="&#xe9c6;" d="M516.308 385.261c0.025 0 0.054 0 0.083 0 48.206 0 87.284 39.078 87.284 87.284 0 0.095 0 0.189 0 0.284v-0.015l0.29 175.313c0 48.411-39.245 87.657-87.657 87.657s-87.657-39.245-87.657-87.657v0-175.313c0-0.006 0-0.013 0-0.021 0-48.343 39.19-87.532 87.532-87.532 0.044 0 0.087 0 0.131 0h-0.007zM671.157 472.814c-1.436-82.619-68.749-149.043-151.576-149.043-1.151 0-2.299 0.013-3.444 0.038l0.17-0.003c-0.962-0.022-2.096-0.034-3.232-0.034-82.827 0-150.139 66.424-151.574 148.908l-0.002 0.134h-49.711c2.879-100.18 77.543-182.081 174.209-196.204l1.105-0.132v-95.714h58.431v95.817c97.823 14.070 172.565 96.023 175.287 195.956l0.006 0.277z" />
<glyph unicode="&#xe9c7;" d="M1024 448c0-282.77-229.23-512-512-512s-512 229.23-512 512c0 282.77 229.23 512 512 512s512-229.23 512-512z" />
<glyph unicode="&#xe9c8;" d="M519.168 393.476c0.020 0 0.044 0 0.067 0 39.069 0 70.74 31.671 70.74 70.74 0 0.077 0 0.153 0 0.23v-0.012l0.235 142.084c0 39.235-31.807 71.042-71.042 71.042s-71.042-31.807-71.042-71.042v0-142.084c0-0.005 0-0.011 0-0.017 0-39.18 31.762-70.941 70.941-70.941 0.035 0 0.071 0 0.106 0h-0.006zM644.667 464.434c-1.164-66.959-55.718-120.793-122.846-120.793-0.933 0-1.863 0.010-2.791 0.031l0.138-0.002c-0.78-0.018-1.698-0.028-2.619-0.028-67.128 0-121.682 53.834-122.844 120.684l-0.001 0.109h-40.289c2.334-81.192 62.846-147.569 141.189-159.016l0.895-0.107v-77.572h47.356v77.656c79.282 11.403 139.857 77.823 142.063 158.815l0.005 0.224z" />
<glyph unicode="&#xe9c9;" d="M512 960c282.77 0 512-229.23 512-512s-229.23-512-512-512c-282.77 0-512 229.23-512 512s229.23 512 512 512z" />
<glyph unicode="&#xe9ca;" d="M685.926 461.602h-40.704c0-0.011 0-0.025 0-0.039 0-17.461-3.771-34.042-10.543-48.971l0.303 0.745 29.44-29.013c13.349 22.067 21.329 48.685 21.538 77.151v0.059zM589.687 457.609c0 1.417 0.478 2.594 0.478 3.994v141.244c-0.877 38.993-32.694 70.268-71.817 70.268s-70.94-31.275-71.815-70.186l-0.001-0.082v-4.233zM333.278 649.933l-30.396-29.901 143.872-141.483v-16.947c0.173-39.042 31.862-70.625 70.928-70.625 0.228 0 0.456 0.001 0.684 0.003h-0.035c5.537 0.032 10.9 0.714 16.035 1.975l-0.471-0.098 39.748-39.083c-16.219-7.651-35.222-12.153-55.267-12.237h-0.029c-1.080-0.034-2.35-0.053-3.625-0.053-66.979 0-121.485 53.403-123.262 119.953l-0.003 0.165h-40.704c2.943-81.248 64.049-147.365 142.776-158.095l0.858-0.096v-77.21h47.872v77.193c22.798 3.389 43.3 10.833 61.603 21.612l-0.794-0.432 100.301-98.406 30.396 29.901z" />
<glyph unicode="&#xe9cb;" d="M1024 448c0-282.77-229.23-512-512-512s-512 229.23-512 512c0 282.77 229.23 512 512 512s512-229.23 512-512z" />
<glyph unicode="&#xe9cc;" d="M624.892 564.501c-0.013 0-0.029 0-0.044 0-55.72 0-100.889-45.17-100.889-100.889 0-24.502 8.734-46.964 23.259-64.442l-0.133 0.165h-82.961c14.347 17.301 23.052 39.73 23.052 64.193 0 55.729-45.177 100.906-100.906 100.906s-100.906-45.177-100.906-100.906c0-55.729 45.177-100.906 100.906-100.906 0.016 0 0.033 0 0.049 0h238.573c55.747 0 100.94 45.192 100.94 100.94s-45.192 100.94-100.94 100.94v0zM386.317 399.335c-35.471 0-64.227 28.755-64.227 64.227s28.755 64.227 64.227 64.227c35.471 0 64.227-28.755 64.227-64.227v0c-0.048-35.452-28.774-64.179-64.222-64.227h-0.005zM624.892 399.335c-35.471 0-64.227 28.755-64.227 64.227s28.755 64.227 64.227 64.227c35.471 0 64.227-28.755 64.227-64.227v0c-0.048-35.452-28.774-64.179-64.222-64.227h-0.005z" />
<glyph unicode="&#xe9cd;" glyph-name="Action" data-tags="Action" d="M421.647 36.473c0 56.554 45.846 102.4 102.4 102.4s102.4-45.846 102.4-102.4c0-56.554-45.846-102.4-102.4-102.4v0c-56.554 0-102.4 45.846-102.4 102.4v0zM421.647 446.916c0 56.554 45.846 102.4 102.4 102.4s102.4-45.846 102.4-102.4c0-56.554-45.846-102.4-102.4-102.4v0c-56.554 0-102.4 45.846-102.4 102.4v0zM421.647 857.6c0 56.554 45.846 102.4 102.4 102.4s102.4-45.846 102.4-102.4c0-56.554-45.846-102.4-102.4-102.4v0c-56.554 0-102.4 45.846-102.4 102.4v0z" />
<glyph unicode="&#xe9ce;" glyph-name="actions" data-tags="actions" d="M758.354 422.569c0 73.282 59.407 132.688 132.688 132.688s132.688-59.407 132.688-132.688c0-73.282-59.407-132.688-132.688-132.688v0c-73.282 0-132.688 59.407-132.688 132.688v0zM379.177 422.569c0.038 73.253 59.43 132.621 132.688 132.621 73.282 0 132.688-59.407 132.688-132.688 0-73.258-59.368-132.65-132.617-132.688h-0.004c-0.020 0-0.044 0-0.067 0-73.282 0-132.688 59.407-132.688 132.688 0 0.024 0 0.048 0 0.071v-0.004zM0 422.569c0.038 73.253 59.43 132.621 132.688 132.621 73.282 0 132.688-59.407 132.688-132.688s-59.407-132.688-132.688-132.688v0c-73.29 0.038-132.688 59.46-132.688 132.756v0z" />
<glyph unicode="&#xe9cf;" glyph-name="add-11" data-tags="add-1" d="M453.518 960h138.278v-1018.69h-138.278v1018.69zM18.963 359.936v138.278h976.327v-138.278h-976.327z" />
<glyph unicode="&#xe9d0;" glyph-name="Add-doted" data-tags="Add-doted" horiz-adv-x="1026" d="M546.327 1.013c29.317 2.167 56.437 6.782 82.618 13.706l-3.128-0.703 16.47-62.889c-26.371-7.191-57.41-12.557-89.263-15.017l-1.755-0.109zM368.104-44.669l18.377 62.369c22.645-6.928 49.453-12.42 77.008-15.426l2.004-0.177-6.761-64.666c-33.882 3.623-64.633 9.925-94.253 18.837l3.625-0.937zM701.838 41.321c26.789 12.61 49.672 26.116 71.154 41.457l-1.373-0.932 37.578-53.007c-23.004-16.536-49.17-32.018-76.684-45.129l-3.109-1.334zM203.708 38.287l39.008 52.010c19.878-15.165 42.304-29.359 65.935-41.543l2.545-1.193-29.299-58.425c-29.864 15.343-55.468 31.665-79.406 50.048l1.217-0.898zM879.324 88.824l-46.376 45.466c18.431 18.838 35.279 39.389 50.231 61.335l0.999 1.554 53.831-36.407c-18.194-26.825-37.439-50.281-58.593-71.857l0.081 0.083zM78.969 173.818l54.958 34.674c15.361-24.090 31.541-45.037 49.395-64.42l-0.288 0.317-47.676-43.862c-20.149 21.816-38.724 45.763-55.144 71.231l-1.244 2.060zM480.837 204.938v208.432h-208.475v65.013h208.475v208.692h65.013v-208.389h208.302v-65.013h-208.345v-208.562zM982.565 241.475l-59.509 26.005c9.77 21.51 18.568 47.010 25.024 73.428l0.634 3.070 63.236-14.953c-8.079-33.804-18.157-63.065-30.678-90.992l1.292 3.224zM10.445 344.672l63.67 13.003c6.152-29.64 14.148-55.469 24.278-80.198l-1.089 3.006-60.245-24.315c-10.489 24.99-19.671 54.611-26.047 85.259l-0.565 3.245zM1024.997 420.564v0zM959.984 424.162c0.433 7.845 0.607 15.646 0.607 23.578-0.007 20.115-1.314 39.917-3.842 59.335l0.244-2.297 64.536 8.148c2.675-19.453 4.248-42.006 4.334-64.91v-0.103c0-9.449 0-18.464-0.65-27.392zM0.087 447.61c0.004 28.554 2.305 56.568 6.728 83.871l-0.4-2.994 64.233-10.142c-3.524-21.258-5.542-45.758-5.548-70.728v-9.758l-65.013-1.56zM908.363 657.689l57.428 30.6c13.195-24.091 25.356-52.299 34.888-81.69l0.999-3.564-61.936-19.634c-9.304 28.696-19.96 53.223-32.631 76.495l1.165-2.337zM90.108 596.057l-61.286 21.671c11.58 32.505 24.576 60.234 39.842 86.481l-1.31-2.44 56.345-32.29c-12.042-20.828-23.302-45.144-32.379-70.5l-0.994-3.182zM808.417 783.294l43.039 48.803c23.132-20.456 43.96-42.37 62.776-65.96l0.807-1.047-50.97-40.351c-17.157 21.629-35.389 40.851-55.175 58.358l-0.476 0.414zM120.274 777.443c20.12 23.78 41.623 45.064 64.86 64.331l0.847 0.682 41.392-50.19c-20.935-17.398-39.643-35.941-56.626-55.992l-0.542-0.656zM670.719 866.121l22.755 60.679c32.182-12.323 59.591-25.904 85.509-41.692l-2.292 1.297-33.373-55.565c-20.636 12.697-44.55 24.546-69.556 34.204l-3.042 1.033zM262.046 894.51c23.853 13.689 51.701 26.436 80.744 36.648l3.6 1.103 21.064-61.502c-28.419-9.804-52.65-20.827-75.629-33.806l2.251 1.169-0.217-0.26zM445.557 889.829l-9.665 64.276c22.971 3.601 49.464 5.657 76.436 5.657 32.515 0 64.333-2.989 95.192-8.707l-3.201 0.493-11.399-63.973c-24.426 4.631-52.524 7.28-81.24 7.28-23.33 0-46.253-1.749-68.642-5.122l2.519 0.312z" />
<glyph unicode="&#xe9d1;" glyph-name="add-team" data-tags="add-team" d="M341.386 482.027h-128.013v128.013h-85.36v-128.013h-128.013v-85.36h128.013v-128.013h85.36v128.013h128.013zM768.132 439.374c70.625 0.1 127.838 57.375 127.838 128.013 0 70.7-57.313 128.013-128.013 128.013-13.811 0-27.112-2.187-39.574-6.234l0.906 0.254c24.032-33.755 38.421-75.828 38.421-121.262 0-0.271-0.001-0.542-0.002-0.813v0.042c-0.116-45.678-14.478-87.978-38.876-122.719l0.456 0.686c11.537-3.793 24.815-5.98 38.604-5.98 0.084 0 0.168 0 0.252 0h-0.013zM554.759 439.374c70.7 0 128.013 57.313 128.013 128.013s-57.313 128.013-128.013 128.013c-70.7 0-128.013-57.313-128.013-128.013v0c-0.001-0.158-0.001-0.344-0.001-0.53 0-70.407 57.077-127.484 127.484-127.484 0.187 0 0.373 0 0.559 0.001h-0.029zM837.246 347.188c35.586-28.805 58.313-72.283 58.899-121.088l0.001-0.098v-85.36h128.013v85.36c0.053 65.674-101.13 106.263-186.913 121.187zM554.759 354.014c-85.36 0-256.026-42.653-256.026-128.013v-85.36h512.106v85.36c0 85.307-170.508 128.013-256.079 128.013z" />
<glyph unicode="&#xe9d2;" glyph-name="Add" data-tags="Add" d="M0 448c0 282.77 229.23 512 512 512s512-229.23 512-512c0-282.77-229.23-512-512-512v0c-282.77 0-512 229.23-512 512v0zM64.909 448c0-246.922 200.17-447.091 447.091-447.091s447.091 200.17 447.091 447.091c0 246.922-200.17 447.091-447.091 447.091v0 0c-246.922 0-447.091-200.17-447.091-447.091v0zM479.978 219.305v208.097h-208.011v64.909h208.097v208.054h64.909v-208.054h207.968v-64.909h-208.011v-208.097z" />
<glyph unicode="&#xe9d3;" glyph-name="arrow-down" data-tags="arrow-down" d="M120.32 789.333l391.68-390.827 391.68 390.827 120.32-120.32-512-512-512 512z" />
<glyph unicode="&#xe9d4;" glyph-name="arrow-left" data-tags="arrow-left" d="M845.653 56.32l-390.827 391.68 390.827 391.68-120.32 120.32-512-512 512-512z" />
<glyph unicode="&#xe9d5;" glyph-name="arrow-right" data-tags="arrow-right" d="M213.333 56.32l390.827 391.68-390.827 391.68 120.32 120.32 512-512-512-512z" />
<glyph unicode="&#xe9d6;" glyph-name="attach" data-tags="attach" d="M826.344 721.86h-550.102c-152.499-0.163-276.079-123.743-276.242-276.226v-0.302c0.163-152.441 123.778-275.956 276.242-275.956 0 0 0 0 0.001 0h485.804v80.967h-485.805c-107.847 0-195.274 87.427-195.274 195.274s87.427 195.274 195.274 195.274v0h550.102c64.445 0 116.688-52.243 116.688-116.688s-52.243-116.688-116.688-116.688h-450.036c-18.943 2.583-33.384 18.656-33.384 38.102s14.441 35.519 33.185 38.080l0.2 0.022h385.786v80.967h-381.023c-65.76 0-119.070-53.309-119.070-119.070s53.309-119.070 119.070-119.070v0h445.321c109.162 0 197.656 88.494 197.656 197.656s-88.494 197.656-197.656 197.656v0z" />
<glyph unicode="&#xe9d7;" glyph-name="Birthday" data-tags="Birthday" d="M505.322 682.496c0.013 0 0.029 0 0.045 0 51.071 0 92.472 41.401 92.472 92.472 0 0.016 0 0.031 0 0.047v-0.002c0.004 0.302 0.006 0.658 0.006 1.015 0 17.276-4.977 33.389-13.576 46.985l0.213-0.361-79.16 137.35-79.115-137.35c-8.385-13.234-13.362-29.347-13.362-46.623 0-0.357 0.002-0.713 0.006-1.069l-0.001 0.054c0.151-51.019 41.456-92.339 92.455-92.516h0.017zM718.091 220.449l-49.508 49.464-49.731-49.508c-29.353-28.023-69.205-45.268-113.085-45.268s-83.732 17.245-113.149 45.328l0.064-0.060-49.864 49.508-50.265-49.508c-28.764-28.852-68.549-46.704-112.503-46.704-0.127 0-0.253 0-0.379 0h0.020c-33.887 0.072-65.296 10.62-91.177 28.575l0.531-0.349v-213.215c0.076-25.517 20.741-46.182 46.251-46.258h740.047c25.517 0.076 46.182 20.741 46.258 46.251v213.222c-25.35-17.607-56.759-28.155-90.628-28.227h-0.018c-0.107 0-0.233 0-0.36 0-43.954 0-83.738 17.851-112.499 46.7l-0.004 0.004zM782.826 543.722h-231.246v92.516h-92.516v-92.516h-231.246c-0.066 0-0.144 0-0.223 0-76.52 0-138.552-62.032-138.552-138.552 0-0.078 0-0.157 0-0.235v0.012-71.235c0.177-49.964 40.671-90.412 90.637-90.513h0.010c0.238-0.002 0.52-0.004 0.802-0.004 24.649 0 46.951 10.045 63.037 26.265l0.006 0.006 98.972 98.393 98.527-98.527c16.623-15.89 39.203-25.67 64.067-25.67s47.444 9.78 64.102 25.703l-0.035-0.033 98.972 98.527 98.527-98.393c16.216-16.282 38.653-26.358 63.443-26.358 0.141 0 0.282 0 0.423 0.001h-0.022c50.022 0.101 90.545 40.624 90.646 90.636v71.245c0.001 0.212 0.002 0.462 0.002 0.713 0 76.225-61.792 138.017-138.017 138.017-0.11 0-0.22 0-0.33 0h0.017z" />
<glyph unicode="&#xe9d8;" glyph-name="Bookmark-1" data-tags="Bookmark-1" d="M795.84 960h-556.8c-61.284-0.326-110.859-49.991-111.040-111.279v-890.449l389.568 166.976 389.568-166.976v890.432c-0.181 61.394-49.902 111.115-111.278 111.296h-0.018zM795.84 125.248l-278.272 121.6-278.272-121.6v723.456h556.8z" />
<glyph unicode="&#xe9d9;" glyph-name="Bookmark" data-tags="Bookmark" d="M788.334 960h-555.349c-61.099-0.222-110.543-49.803-110.543-110.933 0-0.052 0-0.103 0-0.155v0.008l-0.536-888.539 388.73 166.619 388.779-166.619v888.539c-0.193 61.27-49.81 110.886-111.061 111.080h-0.018z" />
<glyph unicode="&#xe9da;" glyph-name="box_view" data-tags="box_view" d="M602.353-33.882v421.647h421.647v-421.647zM0-33.882v421.647h421.647v-421.647zM602.353 508.235v421.647h421.647v-421.647zM0 508.235v421.647h421.647v-421.647z" />
<glyph unicode="&#xe9db;" glyph-name="box" data-tags="box" d="M549.842 588.191c-0.011 0-0.025 0-0.038 0-75.692 0-141.501-42.312-175.065-104.574l-0.52-1.056c-34.096 63.327-99.917 105.644-175.623 105.644-44.975 0-86.461-14.935-119.771-40.115l0.5 0.363v167.47c-0.791 21.353-18.292 38.363-39.765 38.363s-38.974-17.010-39.763-38.291l-0.002-0.072v-329.864c1.915-108.32 90.174-195.395 198.771-195.395 75.651 0 141.432 42.256 175.030 104.452l0.52 1.054c34.106-63.291 99.909-105.579 175.589-105.579 109.795 0 198.801 89.006 198.801 198.801 0 109.746-88.928 198.722-198.656 198.801h-0.007zM198.595 270.274c-65.871 0-119.27 53.399-119.27 119.27s53.399 119.27 119.27 119.27c65.871 0 119.27-53.399 119.27-119.27v0c0-0.046 0-0.1 0-0.154 0-65.799-53.282-119.153-119.054-119.27h-0.011zM549.842 270.274c-65.871 0-119.27 53.399-119.27 119.27s53.399 119.27 119.27 119.27c65.871 0 119.27-53.399 119.27-119.27v0c0-0.046 0-0.1 0-0.154 0-65.871-53.399-119.27-119.27-119.27v0zM1016.36 253.096l-101.836 136.089 101.836 136.089c4.372 6.297 6.985 14.102 6.985 22.518 0 21.976-17.815 39.791-39.791 39.791-12.372 0-23.425-5.646-30.723-14.502l-0.055-0.068-87.889-117.475-87.889 117.475c-7.353 8.924-18.406 14.57-30.777 14.57-21.976 0-39.791-17.815-39.791-39.791 0-8.416 2.613-16.221 7.071-22.65l-0.086 0.132 101.836-136.089-101.836-136.089c-4.372-6.297-6.985-14.102-6.985-22.518 0-21.976 17.815-39.791 39.791-39.791 12.372 0 23.425 5.646 30.723 14.502l0.055 0.068 87.889 117.475 87.889-117.475c7.353-8.924 18.406-14.57 30.777-14.57 21.976 0 39.791 17.815 39.791 39.791 0 8.416-2.613 16.221-7.071 22.65l0.086-0.132z" />
<glyph unicode="&#xe9dc;" glyph-name="building" data-tags="building" d="M975.081 31.279v754.269l-599.040 127.907v-882.176h-42.636v658.060l-269.964-67.77v-590.289h-63.441v-60.137h1038.522v60.137zM153.041 523.217h94.022v-93.836h-94.022zM153.041 360.308h94.022v-93.836h-94.022zM153.041 198.516h94.022v-94.953h-94.022zM791.273 687.151h94.022v-94.022h-94.022zM791.273 524.241h94.022v-94.022h-94.022zM791.273 361.332h94.022v-94.022h-94.022zM791.273 198.423h94.022v-94.022h-94.022zM628.364 687.151h94.022v-94.022h-94.022zM628.364 524.241h94.022v-94.022h-94.022zM628.364 361.332h94.022v-94.022h-94.022zM465.455 687.151h94.022v-94.022h-94.022zM465.455 524.241h94.022v-94.022h-94.022zM465.455 361.332h94.022v-94.022h-94.022zM465.455 198.423h94.022v-94.022h-94.022zM628.364 198.423h94.022v-167.238h-94.022z" />
<glyph unicode="&#xe9dd;" glyph-name="Calendar-date" data-tags="Calendar-date" d="M761.364 393.974h-257.27v-257.27h257.27zM709.919 960v-102.932h-411.689v102.932h-102.892v-102.932h-51.446c0 0-0.001 0-0.001 0-56.554 0-102.4-45.846-102.4-102.4 0-0.187 0.001-0.374 0.002-0.561v0.029l-0.532-720.364c0-0.012 0-0.027 0-0.041 0-56.825 46.066-102.892 102.892-102.892 0.014 0 0.029 0 0.043 0h720.361c56.782 0.163 102.77 46.15 102.932 102.917v720.42c-0.186 56.765-46.164 102.729-102.917 102.891h-51.461v102.932zM864.256 33.772h-720.364v566.026h720.364z" />
<glyph unicode="&#xe9de;" glyph-name="Calendar" data-tags="Calendar" d="M890.734 869.157h-45.422v90.843h-90.843v-90.843h-454.217v90.843h-90.843v-90.843h-45.422c-50.105-0.166-90.678-40.739-90.843-90.827v-726.763c0.166-50.105 40.739-90.678 90.827-90.843h726.763c50.105 0.166 90.678 40.739 90.843 90.827v726.763c-0.166 50.105-40.739 90.678-90.827 90.843h-0.016zM890.734 51.566h-726.747v499.639h726.747zM890.734 642.048h-726.747v136.265h726.747z" />
<glyph unicode="&#xe9df;" glyph-name="Chat" data-tags="Chat" d="M921.68 960h-819.266c-56.323-0.213-101.899-45.92-101.899-102.273 0-0.050 0-0.099 0-0.149v0.008l-0.515-921.586 204.781 204.781h716.898c56.445 0.291 102.124 45.97 102.414 102.386v614.419c-0.291 56.445-45.97 102.124-102.386 102.414h-0.028zM358.379 499.207h-102.367v102.414h102.367zM563.16 499.207h-102.367v102.414h102.414zM767.942 499.207h-102.367v102.414h102.414z" />
<glyph unicode="&#xe9e0;" glyph-name="Checkbox-Inactive" data-tags="Checkbox-Inactive" d="M832-64h-640c-106.039 0-192 85.961-192 192v0 640c0 106.039 85.961 192 192 192v0h640c106.039 0 192-85.961 192-192v0-640c0-106.039-85.961-192-192-192v0zM192 864c-53.019 0-96-42.981-96-96v0-640c0-53.019 42.981-96 96-96v0h640c53.019 0 96 42.981 96 96v0 640c0 53.019-42.981 96-96 96v0z" />
<glyph unicode="&#xe9e1;" glyph-name="Checkbox-Selected" data-tags="Checkbox-Selected" d="M832 960h-640c-106.039 0-192-85.961-192-192v0-640c0-106.039 85.961-192 192-192v0h640c106.039 0 192 85.961 192 192v0 640c0 106.039-85.961 192-192 192v0zM398.208 163.584l-284.416 284.416 80.512 80.512 203.968-203.968 431.488 431.488 80.512-80.512z" />
<glyph unicode="&#xe9e2;" glyph-name="Clear" data-tags="Clear" d="M938.667 832.085h-640c-28.448-0.040-53.423-14.875-67.646-37.221l-0.194-0.325-230.827-346.453 230.827-346.027c14.393-22.772 39.343-37.733 67.804-37.973h640.036c47.070 0.145 85.188 38.264 85.333 85.319v597.347c-0.121 47.080-38.254 85.212-85.322 85.333h-0.012zM810.667 294.912l-60.16-60.16-153.173 153.173-153.173-153.173-60.16 60.16 153.173 153.173-153.173 153.173 60.16 60.16 153.173-153.173 153.173 153.173 60.16-60.16-153.173-153.173z" />
<glyph unicode="&#xe9e3;" glyph-name="Clock" data-tags="Clock" d="M511.538 960c-282.571-0.263-511.538-229.392-511.538-512 0-282.77 229.23-512 512-512s512 229.23 512 512c0 282.607-228.967 511.737-511.513 512h-0.025zM512.077 38.446c-226.19 0-409.554 183.363-409.554 409.554s183.363 409.554 409.554 409.554c226.19 0 409.554-183.363 409.554-409.554v0c0-0.023 0-0.050 0-0.077 0-226.148-183.329-409.477-409.477-409.477-0.027 0-0.054 0-0.081 0h0.004zM537.65 704.039h-77.027v-307.262l268.825-161.295 38.514 63.008-230.311 136.723z" />
<glyph unicode="&#xe9e4;" glyph-name="Close" data-tags="Close" d="M1024 845.755l-114.245 114.245-397.755-397.755-397.755 397.755-114.245-114.245 397.755-397.755-397.755-397.755 114.245-114.245 397.755 397.755 397.755-397.755 114.245 114.245-397.755 397.755z" />
<glyph unicode="&#xe9e5;" glyph-name="Contacts" data-tags="Contacts" d="M512 448c141.385 0 256 114.615 256 256s-114.615 256-256 256c-141.385 0-256-114.615-256-256v0c0-141.385 114.615-256 256-256v0zM512 320c-170.88 0-512-85.76-512-256v-128h1024v128c0 170.24-341.12 256-512 256z" />
<glyph unicode="&#xe9e6;" glyph-name="Dashboard" data-tags="Dashboard" d="M0 391.128h455.128v568.872h-455.128zM0-64h455.128v341.333h-455.128zM568.872-64h455.128v568.872h-455.128zM568.872 960v-341.333h455.128v341.333z" />
<glyph unicode="&#xe9e7;" glyph-name="day-completed" data-tags="day-completed" d="M149.618-36.409c-51.173 0-92.664 41.451-92.729 92.609v0.006l0.512 709.86c0 0.034 0 0.074 0 0.114 0 50.921 41.248 92.209 92.154 92.274h59.569v101.376h84.252v-101.376h422.059v101.376h84.196v-101.376h59.108c51.184-0.129 92.649-41.554 92.843-92.71v-709.537c-0.225-51.173-41.665-92.593-92.824-92.786h-0.018zM141.198 47.787h726.528v523.89h-726.528zM141.198 655.986h726.528v118.5h-726.528zM300.487 277.845l53.646 66.276 99.271-80.384 205.54 226.702 63.204-57.287-259.698-286.663z" />
<glyph unicode="&#xe9e8;" glyph-name="Delete-1" data-tags="Delete-1" d="M184.013 63.539c0.26-61.814 50.271-111.861 112.046-112.179h448.286c61.77 0.318 111.759 50.307 112.077 112.047v672.491h-672.41zM912.435 903.987h-196.147l-55.808 56.013h-280.371l-56.013-56.013h-196.096v-112.077h784.435z" />
<glyph unicode="&#xe9e9;" glyph-name="Delete-2" data-tags="Delete-2" d="M740.16 626.112v-556.8h-445.184v556.8h445.248zM656.704 960h-278.272l-55.68-55.68h-194.752v-111.296h779.136v111.296h-194.816zM851.2 737.408h-667.52v-667.84c0.181-61.394 49.902-111.115 111.278-111.296h445.266c61.256 0.362 110.796 50.014 110.976 111.279v0.017z" />
<glyph unicode="&#xe9ea;" glyph-name="Delete" data-tags="Delete" d="M654.257 237.922h201.295v-100.667h-201.295zM654.257 640.551h352.295v-100.667h-352.295zM654.257 439.257h301.962v-100.667h-301.962zM50.334 137.255c0.156-55.534 45.133-100.511 100.652-100.667h301.937c55.534 0.156 100.511 45.133 100.667 100.652v503.311h-503.257zM603.924 791.513h-151.001l-50.294 50.334h-201.334l-50.294-50.334h-151.001v-100.667h603.924z" />
<glyph unicode="&#xe9eb;" glyph-name="Dialpad" data-tags="Dialpad" d="M519.031 112.64c-49.636-3.023-88.747-44.017-88.747-94.146 0-52.086 42.224-94.31 94.31-94.31s94.31 42.224 94.31 94.31c0 0.002 0 0.005 0 0.007v0c-1.8 52.387-44.702 94.172-97.362 94.172-0.883 0-1.764-0.012-2.641-0.035l0.13 0.003zM219.341 960c-0.738 0.020-1.607 0.032-2.479 0.032-52.667 0-95.576-41.78-97.391-94.005l-0.005-0.166c1.801-52.406 44.717-94.205 97.397-94.205 0.871 0 1.74 0.011 2.605 0.034l-0.128-0.003c0.748-0.021 1.628-0.032 2.512-0.032 52.68 0 95.596 41.8 97.392 94.042l0.004 0.164c-1.819 52.391-44.728 94.172-97.395 94.172-0.884 0-1.764-0.012-2.642-0.035l0.13 0.003zM219.341 677.547c-0.738 0.020-1.607 0.032-2.479 0.032-52.667 0-95.576-41.78-97.391-94.005l-0.005-0.166c1.819-52.391 44.728-94.171 97.395-94.171 0.872 0 1.741 0.011 2.607 0.034l-0.128-0.003c0.738-0.020 1.607-0.032 2.479-0.032 52.667 0 95.576 41.78 97.391 94.005l0.005 0.166c-1.819 52.391-44.728 94.171-97.395 94.171-0.872 0-1.741-0.011-2.607-0.034l0.128 0.003zM219.341 395.093c-1.608 0.098-3.488 0.154-5.38 0.154-52.086 0-94.31-42.224-94.31-94.31s42.224-94.31 94.31-94.31c1.893 0 3.772 0.056 5.638 0.166l-0.257-0.012c1.608-0.098 3.488-0.154 5.38-0.154 52.086 0 94.31 42.224 94.31 94.31s-42.224 94.31-94.31 94.31c-1.893 0-3.772-0.056-5.638-0.166l0.257 0.012zM818.688 771.686c0.748-0.021 1.628-0.032 2.512-0.032 52.661 0 95.562 41.785 97.358 94.008l0.004 0.164c-3.323 52.572-46.775 93.952-99.891 93.952s-96.568-41.38-99.877-93.662l-0.015-0.29c1.819-52.391 44.728-94.172 97.395-94.172 0.884 0 1.764 0.012 2.642 0.035l-0.13-0.003zM519.031 395.093c-49.636-3.023-88.747-44.017-88.747-94.146 0-52.086 42.224-94.31 94.31-94.31s94.31 42.224 94.31 94.31c0 0.002 0 0.005 0 0.007v0c-1.8 52.387-44.702 94.172-97.362 94.172-0.883 0-1.764-0.012-2.641-0.035l0.13 0.003zM818.688 395.093c-49.636-3.023-88.747-44.017-88.747-94.146 0-52.086 42.224-94.31 94.31-94.31s94.31 42.224 94.31 94.31c0 0.002 0 0.005 0 0.007v0c-1.819 52.391-44.728 94.171-97.395 94.171-0.872 0-1.741-0.011-2.607-0.034l0.128 0.003zM818.688 677.547c-0.738 0.020-1.607 0.032-2.479 0.032-52.667 0-95.576-41.78-97.391-94.005l-0.005-0.166c3.323-52.572 46.775-93.952 99.891-93.952s96.568 41.38 99.877 93.662l0.015 0.29c-1.8 52.388-44.701 94.173-97.363 94.173-0.895 0-1.787-0.012-2.677-0.036l0.131 0.003zM519.031 677.547c-0.748 0.021-1.628 0.032-2.512 0.032-52.661 0-95.562-41.785-97.358-94.008l-0.004-0.164c3.323-52.572 46.775-93.952 99.891-93.952s96.568 41.38 99.877 93.662l0.015 0.29c-1.8 52.388-44.701 94.173-97.363 94.173-0.895 0-1.787-0.012-2.677-0.036l0.131 0.003zM519.031 960c-0.748 0.021-1.628 0.032-2.512 0.032-52.661 0-95.562-41.785-97.358-94.008l-0.004-0.164c3.323-52.572 46.775-93.952 99.891-93.952s96.568 41.38 99.877 93.662l0.015 0.29c-1.8 52.388-44.701 94.173-97.363 94.173-0.895 0-1.787-0.012-2.677-0.036l0.131 0.003z" />
<glyph unicode="&#xe9ec;" glyph-name="Directory" data-tags="Directory" d="M853.333 960h-682.667v-85.333h682.667zM170.667-64h682.667v85.333h-682.667zM853.333 789.333h-682.667c-47.070-0.145-85.188-38.264-85.333-85.319v-512.014c0.145-47.070 38.264-85.188 85.319-85.333h682.681c47.070 0.145 85.188 38.264 85.333 85.319v512.014c-0.145 47.070-38.264 85.188-85.319 85.333h-0.014zM512 672c53.019 0 96-42.981 96-96s-42.981-96-96-96c-53.019 0-96 42.981-96 96v0c0.073 52.99 43.010 95.927 95.993 96h0.007zM725.333 234.667h-426.667v64c0 71.253 142.080 106.667 213.333 106.667s213.333-35.413 213.333-106.667z" />
<glyph unicode="&#xe9ed;" glyph-name="down-arrow" data-tags="down-arrow" d="M0 744.194l504.231-651.842 519.769 651.842z" />
<glyph unicode="&#xe9ee;" glyph-name="Download" data-tags="Download" d="M53.895-37.053v134.737h889.263v-134.737zM250.449 421.053h180.709v538.947h134.737v-538.947h180.709l-247.916-247.916z" />
<glyph unicode="&#xe9ef;" glyph-name="dropbox-logo" data-tags="dropbox-logo" d="M704.796 172.544l-199.68 150.187-195.527-150.073-113.778 66.617v-72.704l309.191-204.402 309.931 203.036v72.875zM1010.233 742.912l-298.155 188.644-206.962-170.155 309.476-179.883zM0 415.403l306.802-179.883 198.315 152.064-293.831 187.051zM306.802 931.556l-306.802-197.689 211.285-159.289 293.831 186.823zM505.116 387.698l202.297-152.235 302.763 179.883-195.584 166.116z" />
<glyph unicode="&#xe9f0;" glyph-name="Edit-1" data-tags="Edit-1" d="M629.182 617.497l52.315-52.315-515.353-515.43h-52.393v52.627l515.43 515.119zM834.232 960c-15.551-0.074-29.616-6.374-39.844-16.532l0.003 0.003-104.318-104.084 213.314-213.314 104.084 104.084c10.277 10.261 16.635 24.444 16.635 40.113s-6.358 29.853-16.635 40.113l-133.088 133.088c-10.132 10.21-24.17 16.531-39.685 16.531-0.164 0-0.328-0.001-0.492-0.002h0.025zM629.182 778.496l-629.182-629.338v-213.314h213.314l629.182 629.182-213.314 213.47z" />
<glyph unicode="&#xe9f1;" glyph-name="edit" data-tags="edit" d="M0 149.371v-213.307h213.307l629.094 629.094-213.307 213.307zM1007.345 730.103c10.282 10.253 16.644 24.433 16.644 40.099s-6.362 29.846-16.643 40.098l-133.109 133.109c-10.253 10.282-24.433 16.644-40.099 16.644s-29.846-6.362-40.098-16.643l-104.092-104.092 213.307-213.307 104.091 104.091z" />
<glyph unicode="&#xe9f2;" glyph-name="emojis" data-tags="emojis" d="M254.983 4.669c-77.776 45.522-140.791 108.537-185.011 183.911l-1.303 2.403c-43.167 72.505-68.684 159.877-68.684 253.208 0 1.348 0.005 2.694 0.016 4.039l-0.001-0.206c-0.009 1.136-0.015 2.48-0.015 3.824 0 93.319 25.517 180.677 69.954 255.48l-1.271-2.31c45.507 77.788 108.525 140.807 183.911 185.012l2.402 1.302c72.496 43.167 159.86 68.684 253.183 68.684 1.356 0 2.711-0.005 4.065-0.016l-0.207 0.001c1.136 0.009 2.48 0.015 3.824 0.015 93.319 0 180.677-25.517 255.48-69.954l-2.31 1.271c77.788-45.507 140.807-108.525 185.012-183.911l1.302-2.402c43.167-72.492 68.684-159.851 68.684-253.17 0-1.345-0.005-2.688-0.016-4.030l0.001 0.206c0.009-1.125 0.014-2.455 0.014-3.787 0-93.331-25.517-180.703-69.954-255.519l1.271 2.312c-45.507-77.788-108.525-140.807-183.911-185.012l-2.402-1.302c-72.492-43.167-159.851-68.684-253.17-68.684-1.345 0-2.688 0.005-4.030 0.016l0.206-0.001c-1.169-0.010-2.553-0.015-3.937-0.015-93.291 0-180.626 25.499-255.416 69.909l2.312-1.271zM346.151 840.671c-102.918-43.609-183.187-123.893-225.737-224.068l-1.039-2.754c-21.502-48.846-34.017-105.792-34.017-165.662s12.515-116.816 35.072-168.366l-1.055 2.705c43.486-103.084 123.782-183.502 224.025-226.111l2.751-1.039c48.846-21.502 105.792-34.017 165.662-34.017s116.816 12.515 168.366 35.072l-2.705-1.055c103.043 43.603 183.407 123.967 225.971 224.255l1.039 2.755c21.502 48.846 34.017 105.792 34.017 165.662s-12.515 116.816-35.072 168.366l1.055-2.705c-43.629 103.026-123.983 183.381-224.253 225.97l-2.757 1.040c-48.851 21.469-105.797 33.964-165.662 33.964s-116.81-12.495-168.372-35.019l2.711 1.055zM360.185 198.654c-43.54 31.645-75.954 76.254-91.741 128.107l-0.457 1.746c-1.342 3.882-2.118 8.355-2.118 13.010 0 7.070 1.789 13.723 4.938 19.53l-0.107-0.216c7.4 13.771 21.704 22.976 38.159 22.976 7.102 0 13.804-1.715 19.713-4.753l-0.243 0.113c10.18-5.13 17.776-14.132 20.932-25.020l0.071-0.286c22.294-69.753 86.543-119.376 162.382-119.376 0.109 0 0.217 0 0.326 0h-0.017c0.092 0 0.2 0 0.309 0 75.839 0 140.088 49.623 162.049 118.171l0.333 1.204c3.262 11.234 10.972 20.257 21.046 25.201l0.237 0.105c5.662 3.057 12.393 4.854 19.543 4.854 4.722 0 9.261-0.784 13.495-2.228l-0.294 0.087c17.171-5.709 29.336-21.629 29.336-40.391 0-4.621-0.738-9.070-2.103-13.236l0.085 0.3c-16.129-53.58-48.418-98.201-91.127-129.415l-0.697-0.486c-41.191-30.801-93.126-49.317-149.387-49.317-0.928 0-1.855 0.005-2.78 0.015l0.141-0.001c-0.784-0.009-1.711-0.014-2.639-0.014-56.26 0-108.196 18.516-150.045 49.788l0.658-0.471zM622.137 558.324c-15.444 15.434-24.997 36.761-24.997 60.319s9.553 44.885 24.997 60.319l0.001 0.001c15.46 15.559 36.87 25.19 60.53 25.19 47.122 0 85.322-38.2 85.322-85.322 0-0.107 0-0.214-0.001-0.32v0.016c0-0.021 0-0.045 0-0.070 0-47.122-38.2-85.322-85.322-85.322-23.66 0-45.070 9.63-60.525 25.184l-0.005 0.005zM280.663 558.324c-15.444 15.434-24.997 36.761-24.997 60.319s9.553 44.885 24.997 60.319l0.001 0.001c15.434 15.444 36.761 24.997 60.319 24.997s44.885-9.553 60.319-24.997l0.001-0.001c15.444-15.434 24.997-36.761 24.997-60.319s-9.553-44.885-24.997-60.319l-0.001-0.001c-15.434-15.444-36.761-24.997-60.319-24.997s-44.885 9.553-60.319 24.997l-0.001 0.001z" />
<glyph unicode="&#xe9f3;" glyph-name="employee-since" data-tags="employee-since" d="M404.724 448.78v57.734h231.131v-57.783h404.724v231.278c0 31.913-25.87 57.783-57.783 57.783v0h-289.158v115.663c0 31.913-25.87 57.783-57.783 57.783v0h-231.131c-31.913 0-57.783-25.87-57.783-57.783v0-115.614h-289.158c-31.913 0-57.783-25.87-57.783-57.783 0-0.017 0-0.034 0-0.051v0.003-231.229zM404.724 853.504h231.131v-115.663h-231.131zM1040.579 362.179v-317.928c0-31.913-25.87-57.783-57.783-57.783v0h-925.013c0 0 0 0 0 0-31.878 0-57.727 25.815-57.783 57.68v317.933h404.724v-57.783h231.131v57.783z" />
<glyph unicode="&#xe9f4;" glyph-name="evernote-logo" data-tags="evernote-logo" d="M275.648 735.104h-169.152l211.904 213.44v-171.968zM874.88 819.84c-42.641 39.012-98.797 63.882-160.693 66.858l-0.587 0.022h-126.208c-28.442 44.338-77.479 73.298-133.281 73.298-0.844 0-1.686-0.007-2.526-0.020l0.127 0.002c-95.296 0-88.896-42.496-88.896-78.72v-146.624l-43.2-45.568h-199.424c-34.337-26.548-56.233-67.751-56.233-114.067 0-1.208 0.015-2.413 0.045-3.615l-0.003 0.178c0-80.32 24.96-360.256 192-386.176 198.016-30.656 231.936 61.376 231.936 72.448 0 46.592 1.152 117.248 1.152 117.248s57.984-110.784 145.6-110.784 138.496-50.304 138.496-102.4v-96s-3.264-60.032-54.72-60.032h-109.632c-20.072 16.106-33.529 39.741-36.066 66.555l-0.030 0.389c0 38.848 17.664 49.408 38.4 49.408 13.224-0.002 26.244-0.863 39.011-2.529l-1.507 0.161v82.048s-165.824 1.088-165.824-125.888c-0.519-4.597-0.815-9.925-0.815-15.323 0-79.776 64.672-144.448 144.448-144.448 4.387 0 8.729 0.196 13.017 0.579l-0.554-0.040h113.28s204.8 26.304 204.8 430.464-64.128 441.472-82.112 472.576zM671.424 457.536s9.92 66.624 48.576 66.624 91.776-88.96 91.776-88.96-121.088 22.336-140.352 22.336z" />
<glyph unicode="&#xe9f5;" glyph-name="expand1" data-tags="expand" d="M146.39 301.732h-146.39v-365.976h365.976v146.39h-219.585zM0 594.024h146.39v219.585h219.585v146.39h-365.976zM877.732 82.268h-219.585v-146.39h365.976v365.976h-146.39zM658.268 960v-146.39h219.585v-219.585h146.39v365.976z" />
<glyph unicode="&#xe9f6;" glyph-name="Favourites" data-tags="Favourites" d="M515.482-20.036l-74.752 68.267c-265.489 240.503-440.73 399.292-440.73 594.125-0.009 0.815-0.013 1.779-0.013 2.744 0 155.071 125.71 280.781 280.781 280.781 0.965 0 1.928-0.005 2.891-0.015l-0.147 0.001c92.724-0.688 175.629-42.15 231.768-107.322l0.339-0.402c56.42 65.509 139.21 106.953 231.699 107.724l0.134 0.001c0.775 0.008 1.691 0.012 2.608 0.012 155.071 0 280.781-125.71 280.781-280.781 0-0.964-0.005-1.928-0.015-2.89l0.001 0.147c0-194.833-175.241-353.621-440.73-594.876z" />
<glyph unicode="&#xe9f7;" glyph-name="filter" data-tags="filter" horiz-adv-x="1026" d="M1021.381 931.554c-6.353 16.75-22.267 28.441-40.911 28.441-0.709 0-1.413-0.017-2.114-0.050l0.099 0.004h-931.012c-0.633 0.033-1.374 0.052-2.12 0.052-18.618 0-34.504-11.699-40.706-28.147l-0.099-0.3c-2.854-5.517-4.528-12.042-4.528-18.958 0-12.785 5.719-24.234 14.739-31.929l0.058-0.049 358.5-358.551v-353.314c-0.002-0.155-0.003-0.339-0.003-0.523 0-12.675 5.297-24.112 13.798-32.219l0.018-0.017 186.182-186.439c7.91-8.515 19.169-13.826 31.669-13.826 0.383 0 0.765 0.005 1.146 0.015l-0.056-0.001c6.566 0.059 12.805 1.393 18.503 3.766l-0.326-0.12c16.747 6.302 28.446 22.187 28.446 40.805 0 0.746-0.019 1.487-0.056 2.224l0.004-0.103v539.753l358.603 358.603c9.011 7.758 14.682 19.18 14.682 31.926 0 6.915-1.669 13.44-4.626 19.194l0.11-0.236z" />
<glyph unicode="&#xe9f8;" glyph-name="flip" data-tags="flip" horiz-adv-x="1020" d="M700.877 852.526c140.225-67.18 238.85-201.329 254.826-359.87l0.154-1.883h63.745c-22.551 263.751-242.204 469.291-509.864 469.291-0.034 0-0.068 0-0.102 0h0.005l-28.175-1.211 162.486-162.741zM318.406 43.729c-140.314 67.040-238.997 201.23-254.829 359.823l-0.151 1.867h-63.745c22.519-263.815 242.216-469.418 509.933-469.418 0.009 0 0.019 0 0.028 0h-0.001l28.175 1.275-162.55 162.677zM851.251 346.582c-53.851 0.028-105.65 8.773-154.076 24.899l3.447-0.995c-3.986 1.394-8.58 2.2-13.363 2.2-11.637 0-22.16-4.768-29.723-12.457l-0.006-0.006-66.932-83.825c-127.818 63.609-229.218 164.187-292.166 287.645l-1.698 3.67 82.869 70.629c7.611 7.822 12.305 18.516 12.305 30.307 0 4.704-0.747 9.233-2.129 13.475l0.087-0.307c-15.078 44.352-23.782 95.441-23.782 148.562 0 0.749 0.002 1.498 0.005 2.247v-0.116c-0.251 23.258-19.111 42.029-42.38 42.135h-147.070c-23.076 0-50.996-10.199-50.996-42.135 3.363-399.485 326.363-722.418 725.553-725.671l0.311-0.002c23.749 1.122 42.579 20.649 42.579 44.575 0 0.824-0.022 1.642-0.066 2.455l0.005-0.113c0 1.084 0 2.231 0 3.442v147.124c-0.214 23.219-18.98 41.985-42.179 42.199h-0.020z" />
<glyph unicode="&#xe9f9;" glyph-name="Folder" data-tags="Folder" d="M406.961 861.538h-305.231c-55.949-0.224-101.219-45.631-101.219-101.612 0-0.042 0-0.084 0-0.125v0.006l-0.512-610.462c0.179-56.112 45.618-101.552 101.713-101.73h813.979c56.112 0.179 101.552 45.618 101.73 101.713v508.709c-0.156 56.129-45.604 101.591-101.713 101.77h-406.978z" />
<glyph unicode="&#xe9fa;" glyph-name="format_align_center" data-tags="format_align_center" d="M227.564 277.309v-113.745h568.872v113.745zM0-64h1024v113.745h-1024zM0 391.128h1024v113.745h-1024zM227.564 732.436v-113.745h568.872v113.745zM0 960v-113.745h1024v113.745z" />
<glyph unicode="&#xe9fb;" glyph-name="format_align_justify" data-tags="format_align_justify" d="M0-64h1024v113.745h-1024zM0 163.564h1024v113.745h-1024zM0 391.128h1024v113.745h-1024zM0 618.691h1024v113.745h-1024zM0 960v-113.745h1024v113.745z" />
<glyph unicode="&#xe9fc;" glyph-name="format_align_left" data-tags="format_align_left" d="M682.691 277.309h-682.691v-113.745h682.691zM682.691 732.436h-682.691v-113.745h682.691zM0 391.128h1024v113.745h-1024zM0-64h1024v113.745h-1024zM0 960v-113.745h1024v113.745z" />
<glyph unicode="&#xe9fd;" glyph-name="format_align_right" data-tags="format_align_right" d="M0-64h1024v113.745h-1024zM341.309 163.564h682.691v113.745h-682.691zM0 391.128h1024v113.745h-1024zM341.309 618.691h682.691v113.745h-682.691zM0 960v-113.745h1024v113.745z" />
<glyph unicode="&#xe9fe;" glyph-name="format_bold" data-tags="format_bold" d="M730.99 469.431c67.277 44.285 112.716 117.021 119.167 200.681l0.056 0.901c0.020 1.249 0.031 2.723 0.031 4.2 0 157.301-127.517 284.818-284.818 284.818-1.477 0-2.951-0.011-4.422-0.034l0.222 0.003h-451.511v-1011.419h508.635c148.704 3.379 267.959 124.726 267.959 273.927 0 108.139-62.648 201.647-153.629 246.209l-1.616 0.715zM326.437 779.337h216.722c58.643-1.572 105.582-49.485 105.582-108.361s-46.939-106.79-105.437-108.358l-0.145-0.003h-216.722zM579.291 129.097h-252.855v216.503h252.855c58.643-1.572 105.582-49.485 105.582-108.361s-46.939-106.79-105.437-108.358l-0.145-0.003z" />
<glyph unicode="&#xe9ff;" glyph-name="format_indent_decrease" data-tags="format_indent_decrease" d="M455.128 163.564h568.872v113.745h-568.872zM0 448l227.564-227.564v455.128zM0-64h1024v113.745h-1024zM0 960v-113.745h1024v113.745zM455.128 618.691h568.872v113.745h-568.872zM455.128 391.128h568.872v113.745h-568.872z" />
<glyph unicode="&#xea00;" glyph-name="format_indent_increase" data-tags="format_indent_increase" d="M0-64h1024v113.745h-1024zM0 675.564v-455.128l227.564 227.564zM455.128 163.564h568.872v113.745h-568.872zM0 960v-113.745h1024v113.745zM455.128 618.691h568.872v113.745h-568.872zM455.128 391.128h568.872v113.745h-568.872z" />
<glyph unicode="&#xea01;" glyph-name="format_ital_black" data-tags="format_ital_black" d="M362.13 960v-216.722h160.037l-247.808-577.829h-201.216v-216.722h577.829v216.576h-159.89l247.808 577.829h201.216v216.869z" />
<glyph unicode="&#xea02;" glyph-name="format_list_bulleted" data-tags="format_list_bulleted" d="M83.305 536.486c-46.008 0-83.305-37.297-83.305-83.305s37.297-83.305 83.305-83.305c46.008 0 83.305 37.297 83.305 83.305v0c0 0.036 0 0.078 0 0.121 0 45.942-37.243 83.185-83.185 83.185-0.042 0-0.085 0-0.127 0h0.007zM83.305 869.647c-46.008 0-83.305-37.297-83.305-83.305s37.297-83.305 83.305-83.305c46.008 0 83.305 37.297 83.305 83.305v0c0 0.036 0 0.078 0 0.121 0 45.942-37.243 83.185-83.185 83.185-0.042 0-0.085 0-0.127 0h0.007zM83.305 203.264c-46.008 0-83.305-37.297-83.305-83.305s37.297-83.305 83.305-83.305c46.008 0 83.305 37.297 83.305 83.305v0c0 0.036 0 0.078 0 0.121 0 45.942-37.243 83.185-83.185 83.185-0.042 0-0.085 0-0.127 0h0.007zM249.916 64.723h777.397v110.833h-777.457zM249.916 397.884h777.397v110.833h-777.457zM249.916 842.12v-111.014h777.397v110.773z" />
<glyph unicode="&#xea03;" glyph-name="format_list_numbered" data-tags="format_list_numbered" d="M0 176.96h110.656v-27.648h-55.36v-55.296h55.296v-27.648h-110.592v-55.296h165.952v221.184h-165.952zM55.296 674.752h55.296v221.248h-110.592v-55.296h55.296zM0 508.8h99.584l-99.584-116.16v-49.792h165.952v55.296h-99.584l99.584 116.16v49.792h-165.952zM276.544 840.704v-110.656h774.4v110.656zM276.544 66.304h774.4v110.656h-774.4zM276.544 398.208h774.4v110.592h-774.4z" />
<glyph unicode="&#xea04;" glyph-name="format_strikethrough" data-tags="format_strikethrough" d="M388.698 36.713h222.148v166.551h-222.148zM111.074 869.647v-166.611h277.624v-166.611h222.148v166.611h277.624v166.611zM0 314.338h999.544v111.074h-999.544z" />
<glyph unicode="&#xea05;" glyph-name="format_underline" data-tags="format_underline" d="M503.077 173.349c0.022 0 0.048 0 0.073 0 186.143 0 337.042 150.899 337.042 337.042 0 0.026 0 0.052 0 0.078v-0.004 449.536h-140.507v-449.536c0-108.624-88.057-196.681-196.681-196.681s-196.681 88.057-196.681 196.681v0 449.536h-140.434v-449.536c0-0.022 0-0.048 0-0.073 0-186.143 150.899-337.042 337.042-337.042 0.051 0 0.103 0 0.154 0h-0.008zM109.714 60.928v-112.347h786.651v112.347z" />
<glyph unicode="&#xea06;" glyph-name="girl" data-tags="girl" d="M662.366 377.937c82.621 26.947 152.899 73.997 131.395 140.126-19.35 53.075-39.325 97.277-62.087 139.763l2.802-5.727c1.913 13.464 3.010 29.020 3.018 44.831v0.009c0 145.516-89.411 263.168-234.765 263.168s-234.712-117.814-234.712-263.168c0-0.125 0-0.273 0-0.421 0-15.051 0.979-29.873 2.878-44.407l-0.183 1.712c-20.434-37.66-40.438-82.558-57.1-129.047l-2.185-6.984c-20.588-65.967 49.475-112.856 131.719-140.126-189.278-140.557-315.715 25.384-315.715-323.368 0-96.633 257.886-143.144 474.597-143.144s475.944 46.781 475.944 143.414c0 348.807-126.383 182.865-315.608 323.368zM639.569 202.995l-137.108-186.368-137.108 186.368h-137.755l125.952 180.278 148.911-356.19 148.911 356.19 125.952-180.278z" />
<glyph unicode="&#xea07;" glyph-name="google-drive" data-tags="google-drive" d="M667.712 896h-333.888l300.48-563.2h333.888zM297.152 831.808l-297.152-520 166.912-292.16 291.392 509.888zM382.080 270.016l-143.104-250.368h606.080l156.48 250.368z" />
<glyph unicode="&#xea08;" glyph-name="Group-1597" data-tags="Group 1597" d="M347.794 337.554v-389.047h155.575v855.918h155.648v-855.771h155.575v855.771h155.575v155.575h-622.446c-171.884 0-311.223-139.339-311.223-311.223s139.339-311.223 311.223-311.223v0z" />
<glyph unicode="&#xea09;" glyph-name="Group-4314" data-tags="Group 4314" d="M120.32 157.013l391.68 390.827 391.68-390.827 120.32 120.32-512 512-512-512z" />
<glyph unicode="&#xea0a;" d="M921.597 438.28c-22.688 45.44-45.078 100.379-63.559 157.084l-2.515 8.92-47.909 142.505c-0.208 0.755-0.416 1.509-0.651 2.29-7.225 23.002-28.353 39.397-53.311 39.397-5.826 0-11.443-0.893-16.723-2.551l0.395 0.107-2.264-0.625c-23.020-7.224-39.429-28.366-39.429-53.34 0-5.834 0.896-11.46 2.557-16.746l-0.107 0.395 41.638-207.928c-7.807-5.413-15.276-11.060-22.432-16.811-121.244-97.484-142.583-246-51.344-379.189l-0.963-0.651c-4.3-2.845-9.578-4.538-15.252-4.538-9.739 0-18.312 4.99-23.302 12.553l-0.065 0.105c-31.098 45.027-49.673 100.777-49.673 160.867 0 97.072 48.476 182.822 122.541 234.362l0.935 0.616-1.692 2.446-32.321 47.207-223.62 326.101c-0.442 0.703-0.911 1.353-1.379 2.030-10.242 14.122-26.689 23.2-45.257 23.2-12.211 0-23.506-3.927-32.689-10.586l0.162 0.112-2.108-1.431c-13.994-10.352-22.968-26.798-22.968-45.341 0-12.17 3.866-23.438 10.437-32.641l-0.116 0.171 211.259-308.353c-8.249-4.658-16.473-9.082-24.774-14.183l-226.405 330.056c-0.442 0.703-0.911 1.353-1.379 2.030-10.242 14.122-26.689 23.2-45.257 23.2-12.211 0-23.506-3.927-32.689-10.586l0.162 0.112q-1.015-0.651-1.952-1.353c-14.060-10.332-23.084-26.805-23.084-45.386 0-12.153 3.861-23.405 10.422-32.596l-0.116 0.171 226.405-330.004c-7.807-5.855-15.172-11.763-22.432-17.722l-195.176 284.776c-0.442 0.703-0.911 1.353-1.379 2.030-2.095 2.834-4.307 5.334-6.716 7.628l-0.024 0.022c-9.997 9.655-23.628 15.603-38.648 15.603-12.157 0-23.405-3.897-32.56-10.511l0.163 0.112-2.004-1.353c-14.066-10.326-23.094-26.798-23.094-45.38 0-12.157 3.864-23.411 10.432-32.601l-0.116 0.17 207.434-302.758c-5.536-7.259-11.17-15.547-16.361-24.133l-0.71-1.266-150.858 220.003c-10.425 13.988-26.922 22.95-45.511 22.95-12.085 0-23.286-3.788-32.48-10.241l0.181 0.12c-0.703-0.468-1.431-0.937-2.082-1.431-14.126-10.242-23.207-26.691-23.207-45.262 0-12.232 3.94-23.543 10.619-32.734l-0.111 0.161 241.42-352.333 1.249 0.885c4.58-7.989 9.342-16.030 14.964-24.306 62.39-90.454 165.448-148.982 282.176-148.982 188.724 0 341.715 152.991 341.715 341.715 0 56.028-13.484 108.907-37.384 155.568l0.897-1.928z" />
<glyph unicode="&#xea0b;" d="M342.6 48.916h-0.859c-113.905 0-229.007 115.102-229.007 229.007 0.012 0.308 0.019 0.67 0.019 1.034 0 14.804-11.716 26.871-26.382 27.434l-0.051 0.002h-0.885c-0.059 0-0.129 0.001-0.2 0.001-15.927 0-28.905-12.629-29.466-28.419l-0.001-0.051c0-170.844 115.102-285.921 285.921-285.921 15.842 0.562 28.47 13.54 28.47 29.467 0 0.070 0 0.14-0.001 0.21v-0.011c-0.133 15.076-12.385 27.247-27.48 27.247-0.028 0-0.056 0-0.083 0h0.004z" />
<glyph unicode="&#xea0c;" d="M199.392-6.982v0c-2.413-0.154-5.233-0.242-8.073-0.242-71.479 0-129.939 55.742-134.283 126.127l-0.019 0.382c-0.152 2.408-0.238 5.221-0.238 8.054s0.086 5.647 0.257 8.438l-0.019-0.383c0 15.723-12.746 28.47-28.47 28.47s-28.47-12.746-28.47-28.47v0c-0.037-1.412-0.058-3.074-0.058-4.742 0-105.828 84.463-191.928 189.655-194.568l0.245-0.005c3.149 0 6.324 0 9.499 0 15.723 0 28.47 12.746 28.47 28.47s-12.746 28.47-28.47 28.47v0z" />
<glyph unicode="&#xea0d;" d="M683.404 904.18v0c-15.731 0-28.483-12.752-28.483-28.483s12.752-28.483 28.483-28.483v0c124.004-4.342 223.425-103.736 227.799-227.323l0.011-0.408c0-15.731 12.752-28.483 28.483-28.483s28.483 12.752 28.483 28.483v0c0.078 2.448 0.122 5.328 0.122 8.218 0 152.764-123.84 276.604-276.604 276.604-2.916 0-5.822-0.045-8.717-0.135l0.423 0.010z" />
<glyph unicode="&#xea0e;" d="M1023.922 761.857c0.012 0.795 0.018 1.733 0.018 2.673 0 107.001-85.989 193.918-192.633 195.417l-0.141 0.002h-5.387c-0.3 0.012-0.652 0.018-1.006 0.018-14.836 0-26.926-11.756-27.462-26.461l-0.001-0.049v-0.807c0-0.059-0.001-0.129-0.001-0.2 0-15.927 12.629-28.905 28.419-29.466l0.051-0.001c1.349 0.048 2.934 0.075 4.525 0.075 73.919 0 134.138-58.659 136.646-131.967l0.006-0.23c0-3.019 0-6.037 0-9.056 0.576-15.844 13.56-28.47 29.492-28.47 0.061 0 0.123 0 0.184 0.001h-0.009c15.099 0.103 27.299 12.367 27.299 27.48 0 0.055 0 0.11 0 0.165v-0.008z" />
<glyph unicode="&#xea0f;" glyph-name="hold-voice" data-tags="hold-voice" d="M891.259 480.009h-90.643c0-0.080 0-0.176 0-0.272 0-39.451-8.376-76.947-23.446-110.804l0.69 1.736 65.612-65.612c29.719 50.133 47.422 110.437 47.786 174.848v0.104zM676.864 470.945c0 3.186 1.062 5.879 1.062 9.064v319.981c0 88.371-71.639 160.009-160.009 160.009s-160.009-71.639-160.009-160.009v0-9.595zM105.662 906.676l-67.736-67.736 320.55-320.55v-38.419c-0.001-0.214-0.002-0.467-0.002-0.721 0-87.973 71.316-159.289 159.289-159.289 0.001 0 0.001 0 0.002 0v0c12.343 0.085 24.281 1.643 35.702 4.506l-1.037-0.22 88.519-88.633c-36.082-17.319-78.417-27.521-123.114-27.724h-0.070c-1.728-0.039-3.763-0.061-5.804-0.061-151.26 0-274.188 121.3-276.816 271.933l-0.003 0.247h-90.529c5.258-182.871 141.549-332.374 318.002-358.158l2.017-0.242v-174.952h106.686v174.952c50.847 7.713 96.515 24.584 137.17 48.958l-1.698-0.944 223.46-222.929 67.736 67.736z" />
<glyph unicode="&#xea10;" glyph-name="hold" data-tags="hold" d="M511.971 960c-0.034 0-0.075 0-0.115 0-282.786 0-512.029-229.243-512.029-512.029s229.243-512.029 512.029-512.029c282.786 0 512.029 229.243 512.029 512.029v0c-0.294 282.627-229.296 511.67-511.88 512.029h-0.034zM511.971-6.617c-0.034 0-0.074 0-0.115 0-251.094 0-454.646 203.552-454.646 454.646s203.552 454.646 454.646 454.646c251.094 0 454.646-203.552 454.646-454.646 0-0.020 0-0.040 0-0.060v0.003c-0.294-250.924-203.612-454.262-454.5-454.588h-0.031zM775.672 510.328c34.391-145.676-55.824-291.649-201.5-326.039s-291.649 55.824-326.039 201.5c-34.391 145.676 55.824 291.649 201.5 326.039s291.649-55.824 326.039-201.5z" />
<glyph unicode="&#xea11;" glyph-name="house1" data-tags="house" d="M409.6 12.8v307.2h204.8v-307.2h256v409.6h153.6l-512 460.8-512-460.8h153.6v-409.6z" />
</font>
</defs>
</svg>
