<?xml version="1.0" standalone="no"?>
<!DOCTYPE svg PUBLIC "-//W3C//DTD SVG 1.1//EN" "http://www.w3.org/Graphics/SVG/1.1/DTD/svg11.dtd" >
<svg xmlns="http://www.w3.org/2000/svg">
<metadata>
<json>
<![CDATA[
{
	"fontFamily": "ur_desktop_app",
	"majorVersion": 1,
	"minorVersion": 0,
	"version": "Version 1.0",
	"fontId": "ur_desktop_app",
	"psName": "ur_desktop_app",
	"subFamily": "Regular",
	"fullName": "ur_desktop_app",
	"description": "Font generated by IcoMoon."
}
]]>
</json>
</metadata>
<defs>
<font id="ur_desktop_app" horiz-adv-x="1024">
<font-face units-per-em="1024" ascent="960" descent="-64" />
<missing-glyph horiz-adv-x="1024" />
<glyph unicode="&#x20;" horiz-adv-x="512" d="" />
<glyph unicode="&#xe100;" glyph-name="chat" data-tags="chat" d="M798.624 816h-569.6c-44.943 0-81.376-36.433-81.376-81.376v0-651.040l162.736 162.784h488.304c44.943 0 81.376 36.433 81.376 81.376v0 406.88c0 0.005 0 0.010 0 0.016 0 44.934-36.426 81.36-81.36 81.36-0.028 0-0.056 0-0.084 0h0.004zM518.528 440.416h-199.248v50.736h199.248zM717.808 582.576h-398.528v50.704h398.528z" />
<glyph unicode="&#xe101;" glyph-name="call" data-tags="call" d="M453.648 358.32l-0.208 0.208-0.272 0.288-29.072 32.544c-27.2 31.712-65.312 79.872-79.44 115.408-2.014 4.313-4.078 9.668-5.811 15.17l-0.269 0.99c-1.118 3.749-1.762 8.057-1.762 12.515 0 11.242 4.093 21.529 10.87 29.451l-0.052-0.062 25.36 30.4c19.173 22.226 30.851 51.388 30.851 83.277 0 7.706-0.682 15.253-1.989 22.584l0.114-0.773c-8.25 36.443-24.67 68.215-47.281 94.511l0.241-0.287c-5.080 6.306-11.297 11.469-18.369 15.237l-0.319 0.155c-42.080 20.848-92.096-16.864-116.864-39.712-10.256-9.504-17.199-22.456-18.979-37.004l-0.029-0.292c-15.28-125.84 51.952-265.376 90.992-333.92v0c25.512-37.224 51.669-69.761 80.056-100.191l-0.456 0.495c58.944-57.408 160-139.904 270.304-160.112 3.316-0.643 7.129-1.010 11.028-1.010 11.128 0 21.557 2.994 30.525 8.222l-0.289-0.155c29.184 16.88 80 53.344 72.672 99.792-1.593 8.449-4.761 15.949-9.206 22.513l0.134-0.209c-19.196 30.264-44.742 54.849-74.899 72.372l-1.037 0.556c-16.939 8.865-37.001 14.066-58.279 14.066-18.323 0-35.746-3.857-51.499-10.804l0.818 0.322-36.592-15.168c-5.243-2.294-11.352-3.629-17.774-3.629-9.281 0-17.91 2.788-25.097 7.573l0.166-0.104c-10.577 7.782-19.905 15.988-28.47 24.93l-0.074 0.078-0.176 0.192c-9.974 10.085-19.491 20.702-28.472 31.772l-0.632 0.804-0.128 0.144z" />
<glyph unicode="&#xe102;" glyph-name="contacts" data-tags="contacts" d="M682.208 488.688c68.289 0 123.648 55.359 123.648 123.648s-55.359 123.648-123.648 123.648c-68.289 0-123.648-55.359-123.648-123.648v0c-0.001-0.133-0.001-0.291-0.001-0.449 0-67.845 54.84-122.881 122.611-123.199h1.038zM352.608 488.688c67.786 0.337 122.606 55.366 122.606 123.199 0 68.041-55.159 123.2-123.2 123.2s-123.2-55.159-123.2-123.2c0-0.219 0.001-0.438 0.002-0.656v0.034c0.325-67.592 55.032-122.299 122.593-122.624h0.031zM352.608 406.256c-96.16 0-288.656-48.176-288.656-144.208v-103.040h576.992v103.040c0 96-192.48 144.4-288.512 144.4zM682.208 159.008h288.592v103.040c0 96-156.464 144.4-252.496 144.4-47.171-0.325-92.27-8.765-134.11-23.989l2.782 0.885 44.288-34.816c17.433-13.373 31.404-30.376 40.933-49.941l0.363-0.827c6.139-12.549 9.728-27.307 9.728-42.903 0-0.020 0-0.040 0-0.060v0.003z" />
<glyph unicode="&#xe103;" glyph-name="meeting" data-tags="meeting" d="M899.12 653.68l-189.76-205.776 189.76-205.792zM194.32 736h452.8c45.464 0 82.32-36.856 82.32-82.32v0-411.552c0-45.464-36.856-82.32-82.32-82.32v0h-452.8c-45.464 0-82.32 36.856-82.32 82.32v0 411.552c0 45.464 36.856 82.32 82.32 82.32v0z" />
<glyph unicode="&#xe104;" glyph-name="filter" data-tags="filter" d="M608.496 38.976c-0.018 0-0.040 0-0.062 0-5.227 0-10.162 1.253-14.52 3.476l0.181-0.084-165.408 83.024c-10.523 5.387-17.6 16.155-17.6 28.577 0 0.011 0 0.022 0 0.033v-0.002 258.864l-323.52 382.464c-4.709 5.537-7.573 12.77-7.573 20.672 0 17.673 14.327 32 32 32 0.007 0 0.015 0 0.022 0h827.503c0.006 0 0.014 0 0.021 0 17.673 0 32-14.327 32-32 0-7.902-2.864-15.135-7.611-20.718l0.038 0.046-323.472-382.464v-341.888c0-17.673-14.327-32-32-32v0zM475.040 173.744l101.456-50.912v301.76c0.003 7.896 2.864 15.122 7.606 20.702l-0.038-0.046 286.496 338.752h-689.584l286.512-338.752c4.696-5.533 7.552-12.756 7.552-20.647 0-0.003 0-0.006 0-0.010v0z" />
<glyph unicode="&#xe105;" glyph-name="favourite_active" data-tags="favourite_active" d="M966.736 532.352c0.007 0.417 0.011 0.909 0.011 1.402 0 24.136-9.645 46.019-25.29 62.006l0.015-0.016c-13.305 13.588-30.867 22.959-50.526 25.954l-0.498 0.062-198.4 28.8-88.672 179.744c-14.883 29.681-45.072 49.697-79.936 49.697s-65.053-20.016-79.703-49.184l-0.233-0.513-88.768-179.744-198.24-28.8c-43.481-6.423-76.472-43.482-76.472-88.246 0-4.469 0.329-8.86 0.963-13.152l-0.059 0.486c3.020-20.231 12.417-37.863 26.047-51.183l0.017-0.017 143.488-139.872-33.776-197.232c-0.921-4.767-1.448-10.25-1.448-15.855 0-21.749 7.934-41.644 21.067-56.95l-0.098 0.117c16.469-19.529 40.952-31.849 68.312-31.849 15.169 0 29.453 3.787 41.959 10.467l-0.479-0.234 177.36 93.264 177.248-93.152c12.101-6.589 26.502-10.464 41.807-10.464 27.265 0 51.658 12.294 67.938 31.641l0.11 0.135c13.099 15.199 21.076 35.135 21.076 56.935 0 5.501-0.508 10.883-1.479 16.102l0.084-0.54-33.664 197.6 143.28 139.92c16.418 15.9 26.691 38.061 26.96 62.622v0.050z" />
<glyph unicode="&#xe106;" glyph-name="favourite_inactive" data-tags="favourite_inactive" d="M726.432 27.84c-15.293 0.026-29.678 3.891-42.25 10.682l0.474-0.234-177.296 93.168-177.376-93.264c-12.023-6.444-26.302-10.23-41.466-10.23-27.354 0-51.831 12.319-68.184 31.712l-0.11 0.134c-13.049 15.187-20.993 35.088-20.993 56.844 0 5.59 0.524 11.058 1.527 16.356l-0.086-0.545 33.776 197.264-143.456 139.856c-13.647 13.337-23.044 30.969-26.003 50.708l-0.061 0.492c-0.581 3.824-0.913 8.237-0.913 12.727 0 44.755 32.991 81.805 75.98 88.158l0.486 0.059 198.24 28.8 88.64 179.712c8.873 17.649 22.851 31.632 39.983 40.277l0.513 0.235c11.526 5.825 25.126 9.237 39.522 9.237 34.89 0 65.1-20.039 79.748-49.235l0.234-0.514 88.656-179.728 198.4-28.8c43.366-6.521 76.235-43.521 76.235-88.197 0-25.001-10.293-47.599-26.873-63.785l-0.018-0.017-143.28-139.984 33.728-197.616c0.886-4.675 1.393-10.052 1.393-15.548 0-21.798-7.976-41.733-21.169-57.046l0.096 0.114c-16.446-19.437-40.829-31.716-68.083-31.792h-0.013zM507.504 191.504c9.344-0.003 18.156-2.28 25.913-6.308l-0.313 0.148 179.456-94.4c3.978-2.192 8.716-3.488 13.755-3.504h0.005c9.059 0.069 17.145 4.177 22.555 10.611l0.037 0.045c4.264 4.912 6.862 11.37 6.862 18.435 0 1.798-0.168 3.556-0.49 5.261l0.028-0.175-34.016 199.936c-0.512 2.848-0.805 6.125-0.805 9.471 0 15.72 6.462 29.93 16.875 40.119l0.010 0.010 144.736 141.328c5.489 5.353 8.893 12.821 8.893 21.084 0 14.779-10.891 27.015-25.085 29.12l-0.161 0.020-200.272 28.992c-18.644 2.776-34.076 14.404-42.077 30.396l-0.147 0.324-89.504 181.408c-4.912 9.802-14.879 16.412-26.391 16.412-4.741 0-9.22-1.121-13.187-3.113l0.169 0.077c-5.832-2.932-10.451-7.555-13.299-13.222l-0.077-0.17-89.6-181.44c-8.151-16.285-23.56-27.891-41.868-30.634l-0.308-0.038-200.24-28.992c-14.391-2.099-25.32-14.355-25.32-29.164 0-1.469 0.108-2.913 0.315-4.324l-0.019 0.16c0.996-6.691 4.106-12.522 8.618-16.922l0.006-0.006 144.896-141.248c10.431-10.198 16.9-24.412 16.9-40.137 0-3.343-0.292-6.618-0.853-9.801l0.049 0.337-34.080-199.488c-0.319-1.594-0.501-3.426-0.501-5.301 0-7.019 2.557-13.441 6.789-18.386l-0.032 0.039c5.491-6.565 13.687-10.711 22.85-10.711 5.035 0 9.778 1.252 13.935 3.461l-0.161-0.078 178.992 94.080c7.593 3.963 16.583 6.288 26.116 6.288 0.016 0 0.031 0 0.047 0h-0.002zM337.904 648.72v0z" />
<glyph unicode="&#xe107;" glyph-name="like" data-tags="like" d="M372.048 69.76h364.608c0.088 0 0.193-0.001 0.297-0.001 33.238 0 61.77 20.149 74.047 48.899l0.199 0.525 122.352 285.616c3.584 8.756 5.664 18.918 5.664 29.566 0 0.001 0 0.001 0 0.002v0 81.024c-0.136 44.694-36.331 80.888-81.011 81.024h-255.629l38.48 185.136 1.216 12.96c-0.039 16.771-6.842 31.945-17.825 42.945l0.001-0.001-42.944 42.544-266.96-266.976c-14.524-14.562-23.504-34.659-23.504-56.853 0-0.094 0-0.187 0-0.281v0.014-405.12c0.136-44.688 36.321-80.879 80.994-81.024h0.014zM108.048 555.904h101.968v-486.144h-101.968z" />
<glyph unicode="&#xe108;" glyph-name="pin" data-tags="pin" d="M209.888 499.152c-10.753 6.58-17.82 18.26-17.82 31.591 0 7.057 1.98 13.652 5.416 19.258l-0.092-0.161c5.037 8.248 13.018 14.278 22.45 16.665l0.254 0.055 127.408 31.872 93.696 155.936-22.288 13.392c-15.354 9.214-25.471 25.774-25.471 44.696 0 9.786 2.706 18.939 7.409 26.754l-0.131-0.234c1.030 1.748 2.012 3.216 3.068 4.625l-0.092-0.129c9.89 12.543 25.086 20.522 42.145 20.522 10.578 0 20.44-3.068 28.744-8.363l-0.216 0.129 332.32-199.664c15.326-9.232 25.42-25.784 25.42-44.693 0-9.799-2.71-18.965-7.422-26.789l0.131 0.234c-1.035-1.728-2.012-3.174-3.057-4.566l0.097 0.134c-9.887-12.553-25.086-20.539-42.15-20.539-10.556 0-20.399 3.056-28.691 8.332l0.217-0.129-20.32 12.224-93.824-155.888 31.696-127.44c0.709-2.703 1.116-5.807 1.116-9.006 0-17.222-11.8-31.689-27.757-35.755l-0.255-0.055c-2.691-0.702-5.781-1.105-8.965-1.105-6.985 0-13.518 1.94-19.088 5.309l0.165-0.093zM199.728 80.736c-1.635-3.535-2.589-7.671-2.589-12.031 0-11.792 6.979-21.954 17.031-26.582l0.182-0.075c3.543-1.647 7.691-2.607 12.064-2.607 9.388 0 17.742 4.428 23.087 11.309l0.049 0.066 176 227.776-107.456 64.56z" />
<glyph unicode="&#xe109;" glyph-name="bookmark" data-tags="bookmark" d="M776 57.744l-260 126.544-260-126.544v754.576h520z" />
<glyph unicode="&#xe10a;" glyph-name="attachment" data-tags="attachment" d="M727.232 218.464h-403.056c-134.64 0-244.176 105.312-244.176 234.768s109.536 234.768 244.176 234.768h425.6c0.906 0.017 1.974 0.026 3.045 0.026 96.028 0 174.11-76.836 176.12-172.383l0.003-0.187c-1.995-95.739-80.077-172.587-176.108-172.587-1.087 0-2.172 0.010-3.254 0.029l0.162-0.002h-379.2c-0.471-0.008-1.028-0.012-1.585-0.012-57.956 0-105.064 46.45-106.126 104.152l-0.001 0.099c1.054 57.809 48.165 104.268 106.127 104.268 0.557 0 1.113-0.004 1.668-0.013l-0.084 0.001h356.592v-56h-356.496c-0.482 0.017-1.049 0.026-1.618 0.026-27.036 0-49.073-21.403-50.091-48.189l-0.003-0.093c1.030-26.872 23.063-48.266 50.093-48.266 0.569 0 1.136 0.009 1.701 0.028l-0.082-0.002h379.2c0.93-0.026 2.025-0.041 3.124-0.041 65.104 0 118.112 51.791 120.072 116.42l0.004 0.18c-1.955 64.817-54.967 116.617-120.077 116.617-1.098 0-2.193-0.015-3.284-0.044l0.161 0.003h-425.6c-103.776 0-188.176-80.208-188.176-178.768s84.4-178.768 188.176-178.768h403.056z" />
<glyph unicode="&#xe10b;" glyph-name="record_audio" data-tags="record_audio" d="M494.016 26.352v156.176c-150.835 11.252-269.076 135.941-270.016 288.45v0.094l56 0.16c0.704-128.82 104.953-233.058 233.71-233.744h10.866c128.758 0.758 232.923 104.974 233.6 233.679v0.065l56-0.16c-0.874-150.617-115.998-274.073-263.048-288.133l-1.176-0.091v-156.496zM524.944 312.32v0c-88.468 0.47-160.059 72.060-160.528 160.483v230.589c0 88.701 71.907 160.608 160.608 160.608s160.608-71.907 160.608-160.608v0-230.4c-0.451-88.495-72.041-160.118-160.48-160.624h-0.048zM420.336 703.392v-230.4c0-57.773 46.835-104.608 104.608-104.608s104.608 46.835 104.608 104.608v230.4c0 57.773-46.835 104.608-104.608 104.608s-104.608-46.835-104.608-104.608v0z" />
<glyph unicode="&#xe10c;" glyph-name="more_horizondal" data-tags="more_horizondal" d="M271.632 368.464c-43.991 0.055-79.632 35.729-79.632 79.728 0 44.033 35.695 79.728 79.728 79.728s79.728-35.695 79.728-79.728c0-0.006 0-0.011 0-0.017v0.001-0.176c-0.055-43.982-35.722-79.616-79.712-79.616v0zM670.368 448.176v0.208c0.064 43.984 35.735 79.616 79.728 79.616 44.033 0 79.728-35.695 79.728-79.728 0-43.999-35.641-79.673-79.627-79.728h-0.117c-43.982 0.018-79.634 35.654-79.68 79.628v0.004zM431.184 448.176v0.208c0.064 43.984 35.735 79.616 79.728 79.616 44.033 0 79.728-35.695 79.728-79.728 0-43.999-35.641-79.673-79.627-79.728h-0.117c-43.996 0-79.666 35.643-79.712 79.628v0.004z" />
<glyph unicode="&#xe10d;" glyph-name="smile" data-tags="smile" d="M144 443.2c0 205.892 166.908 372.8 372.8 372.8s372.8-166.908 372.8-372.8c0-205.892-166.908-372.8-372.8-372.8v0c-205.804 0.218-372.581 166.996-372.8 372.779v0.021zM201.984 443.2c0.009-173.843 140.939-314.768 314.784-314.768 173.85 0 314.784 140.934 314.784 314.784 0 173.839-140.915 314.766-314.75 314.784h-0.002c-173.768-0.228-314.573-141.033-314.8-314.779v-0.021zM326.64 380.64c-0.054 0.661-0.084 1.432-0.084 2.21 0 16.012 12.98 28.992 28.992 28.992 14.902 0 27.178-11.243 28.808-25.709l0.012-0.132c6.589-67.933 63.394-120.606 132.501-120.606 68.508 0 124.926 51.763 132.277 118.312l0.054 0.598c2.195 14.025 14.19 24.628 28.662 24.628 16.012 0 28.992-12.98 28.992-28.992 0-0.621-0.020-1.237-0.058-1.848l0.004 0.084c-10.614-96.417-91.621-170.751-189.988-170.751-99.238 0-180.807 75.655-190.175 172.436l-0.061 0.779zM607.888 569.44c0 25.573 20.731 46.304 46.304 46.304s46.304-20.731 46.304-46.304c0-25.573-20.731-46.304-46.304-46.304v0c-25.568 0.018-46.288 20.749-46.288 46.32 0 0.011 0 0.023 0 0.034v-0.002zM333.040 569.44c0 25.573 20.731 46.304 46.304 46.304s46.304-20.731 46.304-46.304c0-25.573-20.731-46.304-46.304-46.304v0c-25.568 0.018-46.288 20.749-46.288 46.32 0 0.011 0 0.023 0 0.034v-0.002z" />
<glyph unicode="&#xe10e;" glyph-name="search" data-tags="search" d="M890.896 108.704l-189.712 189.696c47.498 55.904 76.384 128.91 76.384 208.663 0 0.054 0 0.108 0 0.162v-0.009c-0.2 179.302-145.498 324.6-324.781 324.8h-0.019c-179.298-0.209-324.591-145.502-324.8-324.78v-0.020c0.209-179.298 145.502-324.591 324.78-324.8h0.020c0.045 0 0.099 0 0.153 0 79.753 0 152.759 28.887 209.126 76.768l-0.463-0.384 189.728-189.632zM452.784 238.432c-148.385 0.173-268.627 120.415-268.8 268.783v0.017c0.173 148.385 120.415 268.627 268.783 268.8h0.017c148.388-0.164 268.636-120.412 268.8-268.784v-0.016c-0.164-148.388-120.412-268.636-268.784-268.8h-0.016z" />
<glyph unicode="&#xe10f;" glyph-name="add_new" data-tags="add_new" d="M861.408 479.040h-305.024v304.96h-75.472v-304.96h-304.912v-75.472h304.928v-304.976h75.472v304.992h305.024z" />
<glyph unicode="&#xe110;" glyph-name="call1" data-tags="call" d="M673.312 102.16c-0.033 0-0.072 0-0.112 0-5.172 0-10.227 0.501-15.12 1.457l0.495-0.081-1.6 0.352c-104.728 28.189-194.284 82.804-264.159 156.306l-0.225 0.238c-27.038 29.027-52.385 60.576-75.335 93.904l-1.801 2.768c-0.32 0.496-0.656 0.992-0.928 1.504-39.424 69.2-103.312 203.776-88.288 327.568 2.388 19.403 11.471 36.335 24.829 48.721l0.051 0.047c50.208 45.648 96.832 59.776 135.024 40.96 9.867-5.181 18.162-12.041 24.812-20.283l0.116-0.149c23.051-26.949 39.994-59.815 48.268-95.985l0.292-1.519c1.484-7.718 2.333-16.594 2.333-25.668 0-35.506-12.995-67.977-34.488-92.917l0.156 0.185-23.6-28.368c-3.174-3.566-5.112-8.292-5.112-13.471 0-1.96 0.278-3.855 0.796-5.648l-0.035 0.143c1.547-4.916 3.105-8.933 4.879-12.832l-0.287 0.704c20.007-39.050 43.603-72.679 71.156-102.609l-0.292 0.321c0.256-0.256 0.48-0.528 0.72-0.8l27.456-31.008c6.936-7.147 14.41-13.683 22.388-19.573l0.492-0.347c2.906-1.748 6.413-2.782 10.162-2.782 2.912 0 5.678 0.624 8.172 1.745l-0.126-0.051 34.576 14.4c16.562 7.336 35.878 11.607 56.193 11.607 23.724 0 46.088-5.825 65.739-16.123l-0.78 0.372c32.904-18.931 59.861-44.736 79.58-75.611l0.548-0.917c5.584-8.17 9.698-17.813 11.714-28.205l0.078-0.483c6.72-42.48-21.392-83.872-79.072-117.28-11.384-6.659-25.065-10.591-39.664-10.592v0zM667.584 147.344c1.721-0.302 3.703-0.475 5.725-0.475 6.373 0 12.345 1.715 17.481 4.708l-0.165-0.089c18.848 10.912 62.288 39.744 57.36 70.88-0.964 4.51-2.731 8.492-5.159 11.979l0.071-0.107c-16.164 25.585-37.697 46.376-63.13 61.211l-0.87 0.469c-12.698 6.528-27.708 10.354-43.611 10.354-14.036 0-27.376-2.981-39.422-8.343l0.617 0.245-34.688-14.4c-7.469-3.259-16.171-5.155-25.316-5.155-13.299 0-25.661 4.010-35.943 10.887l0.235-0.148c-11.384 8.294-21.409 17.070-30.596 26.656l-0.076 0.080c-9.792 10-19.328 20.8-28.224 32-30.003 32.655-55.946 69.766-76.578 110.048l-1.31 2.816c-2.376 5.006-4.797 11.191-6.827 17.55l-0.309 1.122c-1.649 5.448-2.598 11.709-2.598 18.191 0 16.212 5.938 31.038 15.757 42.421l-0.071-0.084 23.584 28.352c14.761 17.019 23.756 39.386 23.756 63.854 0 5.994-0.54 11.862-1.573 17.558l0.090-0.596c-7.023 30.054-20.672 56.229-39.367 77.933l0.199-0.237c-2.918 3.752-6.52 6.822-10.638 9.063l-0.178 0.089c-27.424 13.472-68.256-19.36-84.48-34.128-5.783-5.397-9.692-12.735-10.688-20.972l-0.016-0.164c-13.424-110.656 45.584-234.704 82.304-299.344 23.189-33.773 46.926-63.296 72.666-90.927l-0.426 0.463c64.305-67.627 146.4-117.761 238.792-142.919l3.624-0.841z" />
<glyph unicode="&#xe111;" glyph-name="team_call" data-tags="team_call" d="M626.592 103.536c-0.528 0.096-1.040 0.208-1.6 0.352-104.751 28.179-194.33 82.796-264.223 156.306l-0.225 0.238c-27.043 29.025-52.385 60.575-75.322 93.908l-1.798 2.764c-0.32 0.496-0.656 0.992-0.944 1.504-39.424 69.2-103.328 203.776-88.288 327.568 2.398 19.401 11.479 36.33 24.83 48.722l0.050 0.046c50.208 45.648 96.832 59.776 135.024 40.96 9.869-5.178 18.165-12.038 24.812-20.283l0.116-0.149c23.053-26.948 39.997-59.814 48.268-95.985l0.292-1.519c1.484-7.718 2.333-16.594 2.333-25.668 0-35.506-12.995-67.977-34.488-92.917l0.156 0.185-23.6-28.384c-3.175-3.56-5.114-8.281-5.114-13.455 0-1.96 0.278-3.855 0.798-5.648l-0.035 0.143c1.541-4.908 3.099-8.925 4.875-12.822l-0.283 0.694c20.008-39.050 43.604-72.679 71.156-102.61l-0.292 0.322 0.72-0.8 27.456-31.008c6.931-7.148 14.4-13.684 22.374-19.574l0.49-0.346c2.905-1.749 6.413-2.784 10.161-2.784 2.912 0 5.679 0.624 8.173 1.747l-0.126-0.051 34.592 14.4c16.562 7.335 35.878 11.606 56.192 11.606 23.724 0 46.088-5.825 65.74-16.122l-0.78 0.372c32.903-18.932 59.859-44.737 79.58-75.611l0.548-0.917c5.559-8.168 9.648-17.807 11.636-28.193l0.076-0.479c6.72-42.464-21.392-83.872-79.072-117.28-11.389-6.657-25.076-10.588-39.68-10.588-5.205 0-10.294 0.499-15.221 1.453l0.501-0.081zM249.344 701.936c-5.784-5.39-9.694-12.724-10.688-20.956l-0.016-0.164c-13.424-110.656 45.584-234.704 82.304-299.344 23.202-33.773 46.938-63.296 72.672-90.933l-0.432 0.469c64.307-67.599 146.397-117.711 238.776-142.856l3.624-0.84c1.722-0.302 3.705-0.475 5.728-0.475 6.372 0 12.343 1.715 17.478 4.708l-0.165-0.089c18.848 10.896 62.288 39.728 57.376 70.88-0.961 4.51-2.728 8.493-5.158 11.978l0.070-0.106c-16.161 25.593-37.694 46.39-63.13 61.227l-0.87 0.469c-12.702 6.526-27.714 10.351-43.621 10.351-14.038 0-27.381-2.979-39.429-8.34l0.618 0.246-34.688-14.4c-7.467-3.259-16.166-5.155-25.309-5.155-13.296 0-25.655 4.010-35.933 10.887l0.235-0.148c-11.386 8.288-21.41 17.059-30.597 26.641l-0.075 0.079c-9.792 10-19.328 20.8-28.24 32-29.996 32.651-55.934 69.756-76.562 110.031l-1.31 2.817c-2.375 5.002-4.79 11.177-6.814 17.526l-0.306 1.114c-1.654 5.455-2.606 11.725-2.606 18.217 0 16.208 5.934 31.030 15.749 42.411l-0.071-0.084 23.584 28.352c14.759 17.020 23.752 39.388 23.752 63.856 0 5.988-0.539 11.85-1.57 17.54l0.090-0.596c-7.023 30.054-20.672 56.229-39.367 77.933l0.199-0.237c-2.924 3.752-6.53 6.822-10.654 9.063l-0.178 0.089c-4.1 2.020-8.925 3.202-14.026 3.202-0.131 0-0.263-0.001-0.394-0.002h0.020c-25.76 0-56.496-24.96-70.080-37.328zM662.144 494.272v118.24h-118.144v37.248h118.192v118.24h37.232v-118.192h118.24v-37.248h-118.24v-118.24z" />
<glyph unicode="&#xe112;" glyph-name="video_call" data-tags="video_call" d="M922.272 683.728c-2.407 0.964-5.198 1.523-8.118 1.523-6.491 0-12.337-2.761-16.428-7.173l-0.013-0.014-152-164.88v149.728c-0.073 58.045-47.107 105.079-105.145 105.152h-455.367c-58.045-0.073-105.079-47.107-105.152-105.145v-413.911c0.073-58.041 47.109-105.072 105.146-105.136h455.366c58.043 0.064 105.079 47.095 105.152 105.129v149.751l152-164.88c4.1-4.429 9.943-7.194 16.431-7.2h0.001c2.939 0.021 5.735 0.607 8.293 1.654l-0.149-0.054c8.382 3.351 14.2 11.393 14.224 20.797v413.907c-0.047 9.391-5.866 17.411-14.089 20.699l-0.151 0.053zM700.96 249.008c-0.036-33.367-27.080-60.405-60.445-60.432h-455.315c-33.368 0.027-60.412 27.065-60.448 60.428v413.908c0.036 33.37 27.078 60.412 60.445 60.448h455.363c33.37-0.036 60.412-27.078 60.448-60.445v-0.003zM891.776 306.128l-138.064 149.728 138.064 149.744z" />
<glyph unicode="&#xe113;" glyph-name="more_vertical" data-tags="more_vertical" d="M448 213.312c0 37.034 30.022 67.056 67.056 67.056s67.056-30.022 67.056-67.056c0-37.034-30.022-67.056-67.056-67.056v0c-37.034 0-67.056 30.022-67.056 67.056v0zM448 449.12c0 37.034 30.022 67.056 67.056 67.056s67.056-30.022 67.056-67.056c0-37.034-30.022-67.056-67.056-67.056v0c-37.034 0-67.056 30.022-67.056 67.056v0zM448 684.928c0 37.034 30.022 67.056 67.056 67.056s67.056-30.022 67.056-67.056c0-37.034-30.022-67.056-67.056-67.056v0c-37.034 0-67.056 30.022-67.056 67.056 0 0.006 0 0.011 0 0.017v-0.001z" />
<glyph unicode="&#xe114;" glyph-name="double_tick" data-tags="double_tick" d="M495.776 210.4l-67.2 60.144c-6.683 5.894-10.877 14.476-10.877 24.038 0 17.673 14.327 32 32 32 8.32 0 15.898-3.175 21.59-8.38l-0.024 0.022 45.072-40.368 418.064 401.232c5.697 5.313 13.368 8.575 21.801 8.575 17.673 0 32-14.327 32-32 0-8.89-3.625-16.934-9.478-22.733l-0.002-0.002-439.44-421.728c-5.74-5.516-13.552-8.912-22.158-8.912-8.216 0-15.71 3.097-21.376 8.186l0.030-0.026zM176 211.872l-134.896 138.080c-5.938 5.814-9.619 13.913-9.619 22.872 0 17.673 14.327 32 32 32 9.225 0 17.539-3.904 23.379-10.149l0.017-0.018 112.72-115.376 416.48 399.792c5.697 5.313 13.368 8.575 21.801 8.575 17.673 0 32-14.327 32-32 0-8.89-3.625-16.934-9.478-22.733l-0.002-0.002-439.36-421.712c-5.739-5.51-13.548-8.904-22.148-8.904-8.961 0-17.061 3.683-22.87 9.618l-0.006 0.006z" />
<glyph unicode="&#xe115;" glyph-name="single_tick" data-tags="single_tick" d="M368.64 202.24c-0.032 0-0.070 0-0.108 0-8.118 0-15.528 3.034-21.157 8.029l0.033-0.029-144.64 128.352c-6.389 5.87-10.379 14.265-10.379 23.591 0 17.673 14.327 32 32 32 7.981 0 15.28-2.922 20.885-7.754l-0.041 0.035 122.56-108.8 418.032 401.312c5.741 5.517 13.554 8.914 22.16 8.914 17.674 0 32.002-14.328 32.002-32.002 0-9.068-3.771-17.255-9.831-23.078l-0.011-0.010-439.344-421.76c-5.71-5.448-13.462-8.8-21.996-8.8-0.058 0-0.116 0-0.173 0h0.009z" />
<glyph unicode="&#xe116;" glyph-name="task_inactive" data-tags="task_inactive" d="M262.4 8.256c-65.365 0.064-118.336 53.035-118.4 118.394v516.342c0.064 65.365 53.035 118.336 118.394 118.4h118.87c6.627 66.754 62.429 118.479 130.339 118.608h0.013c2.192 0 4.4 0 6.688-0.176 1.845 0.093 4.006 0.145 6.179 0.145 68.070 0 124.064-51.707 130.847-117.986l0.046-0.559h123.36c65.365-0.064 118.336-53.035 118.4-118.394v-516.358c-0.064-65.365-53.035-118.336-118.394-118.4h-0.006zM200 642.992v-516.352c0-34.463 27.937-62.4 62.4-62.4v0h516.352c34.463 0 62.4 27.937 62.4 62.4v0 516.352c0 34.463-27.937 62.4-62.4 62.4v0h-516.352c-34.463 0-62.4-27.937-62.4-62.4v0zM437.84 761.392h160.8c-6.135 35.712-36.869 62.544-73.87 62.544-1.633 0-3.254-0.052-4.861-0.155l0.219 0.011-1.76-0.096-1.744 0.080c-1.6 0.096-3.344 0.16-4.928 0.16-36.977-0.071-67.673-26.876-73.792-62.112l-0.064-0.448zM323.856 379.424l39.6 39.6 99.376-99.392 244.144 244.144 39.6-39.6-283.744-283.728z" />
<glyph unicode="&#xe117;" glyph-name="task_active" data-tags="task_active" d="M778.736 761.392h-123.376c-6.748 66.827-62.708 118.552-130.749 118.552-2.224 0-4.435-0.055-6.632-0.165l0.309 0.012c-1.712 0.080-3.408 0.144-5.040 0.16-0.353 0.003-0.77 0.005-1.187 0.005-68.075 0-124.063-51.752-130.767-118.059l-0.045-0.554h-118.864c-65.365-0.064-118.336-53.035-118.4-118.394v-516.358c0.064-65.365 53.035-118.336 118.394-118.4h516.358c65.365 0.064 118.336 53.035 118.4 118.394v516.422c-0.073 65.358-53.041 118.32-118.394 118.384h-0.006zM511.712 824c1.6 0 3.2 0 4.928-0.16l1.744-0.096 1.744 0.112c1.548 0.115 3.353 0.18 5.173 0.18 36.901 0 67.52-26.893 73.328-62.149l0.059-0.431h-160.848c6.191 35.683 36.893 62.483 73.865 62.544h0.007zM462.784 240.448l-138.928 138.912 39.584 39.6 99.376-99.392 244.144 244.144 39.6-39.6z" />
<glyph unicode="&#xe118;" glyph-name="event_inactive" data-tags="event_inactive" d="M770.448 777.904v86.096h-56v-85.712h-399.248v85.792h-56v-85.952c-63.953-1.783-115.126-54.016-115.2-118.217v-524.983c0.073-65.361 53.039-118.327 118.393-118.4h502.119c65.365 0.064 118.336 53.035 118.4 118.394v524.966c-0.13 63.203-49.76 114.771-112.175 118.004l-0.289 0.012zM826.896 134.928c0-34.463-27.937-62.4-62.4-62.4h-502.096c-34.463 0-62.4 27.937-62.4 62.4v0 394.256h626.896zM826.896 585.184h-626.896v74.704c0 34.463 27.937 62.4 62.4 62.4v0h502.112c34.463 0 62.4-27.937 62.4-62.4v0z" />
<glyph unicode="&#xe119;" glyph-name="event_active" data-tags="event_active" d="M859.040 643.888v-74.72h-683.040v74.72c0.009 49.923 40.477 90.391 90.399 90.4h502.241c49.923-0.009 90.391-40.477 90.4-90.399v-0.001zM176 513.12h683.040v-394.24c-0.009-49.923-40.477-90.391-90.399-90.4h-502.241c-49.923 0.009-90.391 40.477-90.4 90.399v0.001zM263.28 848h56v-113.792h-56v113.792zM718.528 848h56v-113.792h-56v113.792z" />
<glyph unicode="&#xe11a;" glyph-name="bookmark_inactive" data-tags="bookmark_inactive" d="M795.6 56.4c-3.989 0.004-7.783 0.833-11.223 2.327l0.183-0.071-268.8 115.2-268.8-115.088c-3.246-1.425-7.030-2.255-11.008-2.255-15.464 0-28 12.536-28 28 0 0.005 0 0.010 0 0.015v-0.001l0.512 639.552c0.053 59.362 47.984 107.512 107.257 107.92h400.039c59.419-0.352 107.49-48.435 107.824-107.824v-639.776c-0.018-15.457-12.543-27.982-27.998-28h-0.002zM515.792 232.304c0.004 0 0.009 0 0.015 0 3.985 0 7.775-0.836 11.204-2.342l-0.179 0.070 240.768-103.168v597.2c-0.189 28.613-23.338 51.756-51.935 51.936h-399.633c-28.462-0.245-51.44-23.374-51.44-51.87 0-0.006 0-0.013 0-0.019v0.001l-0.48-597.136 240.72 103.056c3.23 1.433 6.997 2.269 10.959 2.272h0.001z" />
<glyph unicode="&#xe11b;" glyph-name="bookmark_active" data-tags="bookmark_active" d="M715.776 832h-400c-59.312-0.408-107.243-48.558-107.296-107.915v-0.005l-0.512-639.552c0-0.004 0-0.009 0-0.015 0-15.464 12.536-28 28-28 3.978 0 7.762 0.829 11.188 2.325l-0.18-0.070 268.8 115.088 268.8-115.2c3.252-1.423 7.040-2.252 11.023-2.256h0.001c15.464 0 28 12.536 28 28v0 639.744c-0.325 59.425-48.402 107.513-107.791 107.856h-0.033z" />
<glyph unicode="&#xe11c;" glyph-name="files_inactive" data-tags="files_inactive" d="M835.968 58.544h-656.288c-63.749 0.289-115.354 51.872-115.68 115.585v0.031l0.432 526.176c0.008 63.713 51.524 115.391 115.174 115.664h227.002c0.001 0 0.003 0 0.005 0 7.732 0 14.732-3.13 19.804-8.192v0l79.472-79.488h330.048c63.75-0.28 115.361-51.857 115.696-115.568v-438.432c-0.244-63.804-51.869-115.468-115.635-115.776h-0.029zM179.68 760c-32.744-0.227-59.2-26.823-59.2-59.599 0-0.012 0-0.023 0-0.035v0.002l-0.432-526.144c0.199-32.908 26.845-59.527 59.745-59.68h656.143c32.921 0.19 59.552 26.849 59.696 59.762v438.334c-0.199 32.908-26.845 59.527-59.745 59.68h-341.631c-7.717 0.033-14.69 3.19-19.726 8.27l-79.49 79.474z" />
<glyph unicode="&#xe11d;" glyph-name="files_active" data-tags="files_active" d="M835.92 728.32h-330.048l-79.488 79.488c-5.067 5.061-12.064 8.191-19.792 8.192h-226.992c-63.676-0.273-115.191-51.951-115.2-115.663v-0.001l-0.432-526.176c0.343-63.742 51.947-115.318 115.667-115.616h656.317c63.742 0.343 115.318 51.947 115.616 115.667v438.429c-0.298 63.757-51.894 115.364-115.618 115.68h-0.030z" />
<glyph unicode="&#xe11e;" glyph-name="pin_inactive" data-tags="pin_inactive" d="M214.304 10.512c-19.835 9.253-33.334 29.026-33.334 51.953 0 8.535 1.871 16.633 5.225 23.906l-0.147-0.355 130.624 289.104 160.72-96.576-194.192-250.944c-10.457-13.603-26.735-22.285-45.039-22.288h-0.001c-0.007 0-0.015 0-0.023 0-8.643 0-16.838 1.916-24.184 5.347l0.352-0.147zM237.040 62.848c-0.060-0.128-0.094-0.278-0.094-0.436 0-0.42 0.245-0.783 0.6-0.953l0.006-0.003 156.912 201.6-52.656 31.664zM608.736 224.592l-401.392 241.2c-14.514 8.794-25.125 22.792-29.313 39.348l-0.095 0.444c-1.224 4.69-1.927 10.075-1.927 15.624 0 12.302 3.455 23.797 9.447 33.569l-0.16-0.28c8.874 14.471 22.876 25.062 39.421 29.31l0.451 0.098 115.2 28.8 72.656 120.896c-22.38 14.367-36.997 39.127-36.997 67.301 0 15.018 4.153 29.066 11.374 41.058l-0.201-0.359c1.36 2.272 2.832 4.48 4.384 6.624 14.989 19.425 38.276 31.816 64.457 31.816 16.012 0 30.942-4.635 43.521-12.636l-0.33 0.196 329.424-197.936c23.4-14.18 38.798-39.506 38.798-68.429 0-14.994-4.138-29.022-11.335-41.004l0.201 0.361c-1.456-2.384-2.896-4.56-4.4-6.64-14.989-19.411-38.268-31.791-64.438-31.791-14.259 0-27.66 3.675-39.307 10.131l0.416-0.212-72.672-120.944 28.8-115.312c1.224-4.706 1.927-10.108 1.927-15.675 0-30.094-20.545-55.389-48.374-62.626l-0.45-0.099c-4.77-1.26-10.247-1.984-15.892-1.984-0.004 0-0.008 0-0.013 0h0.001c-0.032 0-0.069 0-0.106 0-12.215 0-23.635 3.403-33.363 9.313l0.285-0.161zM637.536 272.592c1.257-0.769 2.778-1.224 4.406-1.224 0.748 0 1.474 0.096 2.166 0.277l-0.059-0.013c3.785 0.98 6.536 4.365 6.536 8.392 0 0.753-0.096 1.483-0.277 2.18l0.013-0.060-34.368 137.872 113.392 188.8 44.256-26.56c3.889-2.564 8.66-4.091 13.787-4.091 8.005 0 15.141 3.721 19.773 9.528l0.039 0.051s0.512 0.784 0.976 1.6c2.017 3.407 3.21 7.51 3.21 11.891 0 8.597-4.591 16.123-11.455 20.257l-0.106 0.059-330.016 198.304c-3.899 2.579-8.684 4.114-13.828 4.114-8.025 0-15.178-3.737-19.812-9.566l-0.040-0.052s-0.448-0.672-0.88-1.376c-2.092-3.447-3.331-7.614-3.331-12.070 0-2.079 0.269-4.094 0.775-6.014l-0.037 0.164c1.614-6.167 5.51-11.231 10.709-14.341l0.107-0.059 46.272-27.792-113.424-188.8-137.744-34.416c-2.296-0.587-4.189-2.016-5.37-3.93l-0.022-0.038c-0.779-1.256-1.241-2.78-1.241-4.412 0-0.746 0.097-1.47 0.278-2.159l-0.013 0.059c0.561-2.276 1.986-4.15 3.897-5.291l0.039-0.021z" />
<glyph unicode="&#xe11f;" glyph-name="pin_active" data-tags="pin_active" d="M225.872 19.984c-10.107 4.686-16.991 14.745-16.991 26.412 0 4.345 0.955 8.467 2.666 12.168l-0.075-0.18 117.68 260.464 106.736-64.128-174.944-225.92c-5.361-6.936-13.683-11.36-23.038-11.36-0.006 0-0.013 0-0.019 0h0.001c-0.042 0-0.092 0-0.143 0-4.301 0-8.384 0.937-12.054 2.619l0.181-0.074zM608.704 208.608l-401.424 241.184c-18.862 11.539-31.258 32.025-31.258 55.407 0 12.29 3.425 23.78 9.372 33.568l-0.162-0.287c8.812 14.532 22.84 25.151 39.428 29.329l0.444 0.095 115.2 28.8 72.64 120.912c-22.346 14.369-36.938 39.108-36.938 67.255 0 15.031 4.161 29.090 11.394 41.088l-0.2-0.358c1.573 2.63 3.063 4.833 4.657 6.953l-0.145-0.201c14.977 19.332 38.196 31.656 64.294 31.656 16.015 0 30.946-4.641 43.522-12.651l-0.328 0.195 329.44-197.936c23.4-14.168 38.799-39.487 38.799-68.403 0-15.013-4.151-29.056-11.368-41.045l0.201 0.359c-1.575-2.638-3.064-4.847-4.659-6.972l0.147 0.204c-14.98-19.33-38.201-31.653-64.3-31.653-14.258 0-27.657 3.678-39.3 10.136l0.415-0.211-72.672-120.944 28.8-115.312c1.223-4.704 1.926-10.104 1.926-15.667 0-30.105-20.56-55.408-48.404-62.633l-0.45-0.099c-4.685-1.23-10.065-1.936-15.609-1.936-0.008 0-0.017 0-0.025 0h0.001c-0.046 0-0.1 0-0.154 0-12.286 0-23.777 3.408-33.577 9.331l0.291-0.163z" />
<glyph unicode="&#xe120;" glyph-name="notes_inactive" data-tags="notes_inactive" d="M176 26.96v637.536l215.52 215.504h448.704l0.080-853.024zM232 82.96h552.32v355.744l-166.72-288.88-107.6-44.8-15.024 115.568 228.512 395.952 60.8-35.104v242.56h-346.208v-199.072h-206.080zM552.896 209.024l3.2-24.144 22.4 9.36 191.056 331.024-25.6 14.784zM271.632 680.944h110.4v110.4zM314.72 288.672v56h117.632v-56zM314.72 399.28v56h222.976v-56zM314.72 509.856v56h293.28v-56z" />
<glyph unicode="&#xe121;" glyph-name="notes_active" data-tags="notes_active" d="M856.16 880h-430.176v-255.040h-233.92v-598.080h664.32zM330.72 565.92h293.12v-56h-293.12zM330.72 455.2h222.88v-56h-222.88zM448.32 288.64h-117.6v56h117.6zM613.92 172l-64.96-27.040-9.12 69.92 209.76 363.36 74.24-42.72zM369.92 842.4l-161.44-161.44h161.504z" />
<glyph unicode="&#xe122;" glyph-name="link_inactive" data-tags="link_inactive" d="M623.536 119.856l-113.968 113.968c-5.071 5.065-8.209 12.066-8.209 19.8s3.137 14.735 8.208 19.8v0c5.066 5.063 12.063 8.194 19.792 8.194s14.726-3.131 19.792-8.194l113.984-113.968c16.476-16.44 39.219-26.606 64.336-26.606s47.86 10.166 64.338 26.608l8.702 8.702c16.418 16.489 26.568 39.231 26.568 64.344s-10.15 47.855-26.571 64.347l-175.773 175.773c-16.476 16.44-39.219 26.606-64.336 26.606s-47.86-10.166-64.338-26.608l-8.75-8.734c-4.787-4.794-9.044-10.119-12.674-15.879l-0.222-0.377c-5.027-7.973-13.786-13.192-23.764-13.192-5.494 0-10.619 1.582-14.943 4.316l0.115-0.068c-7.966 5.032-13.179 13.79-13.179 23.765 0 5.487 1.577 10.605 4.303 14.927l-0.068-0.116c6.206 9.909 13.073 18.505 20.801 26.241l8.735 8.735c26.622 26.544 63.358 42.956 103.928 42.956s77.306-16.412 103.932-42.96l175.772-175.772c26.544-26.622 42.956-63.358 42.956-103.928s-16.412-77.306-42.96-103.932l0.004 0.004-8.704-8.72c-26.519-26.561-63.177-42.992-103.673-42.992-0.115 0-0.23 0-0.345 0h0.018c-0.050 0-0.109 0-0.167 0-40.48 0-77.125 16.418-103.64 42.959l-0.001 0.001zM382.784 360.624l-194.56 194.56c-27.324 27.372-44.221 65.161-44.221 106.896s16.897 79.524 44.223 106.898l-0.002-0.002 2.784 2.8c27.375 27.325 65.166 44.222 106.904 44.222s79.529-16.897 106.906-44.224l130.942-130.958c5.063-5.066 8.194-12.063 8.194-19.792s-3.131-14.726-8.194-19.792v0c-5.062-5.079-12.064-8.222-19.8-8.222s-14.738 3.143-19.799 8.221l-130.945 130.961c-17.241 17.194-41.035 27.826-67.312 27.826s-50.071-10.632-67.314-27.828l0.002 0.002-2.768-2.784c-17.202-17.238-27.839-41.033-27.839-67.312s10.637-50.074 27.841-67.314l194.558-194.558c17.234-17.21 41.030-27.852 67.312-27.852s50.078 10.643 67.313 27.854l-0.001-0.001 2.784 2.768c4.445 4.443 8.454 9.32 11.958 14.565l0.218 0.347c5.082 7.642 13.656 12.61 23.391 12.61 5.73 0 11.058-1.721 15.495-4.675l-0.103 0.064c7.642-5.082 12.61-13.656 12.61-23.391 0-5.73-1.721-11.058-4.675-15.495l0.064 0.103c-5.915-8.9-12.296-16.662-19.374-23.726l-2.786-2.786c-27.272-27.331-64.98-44.24-106.637-44.24-0.097 0-0.193 0-0.29 0h0.015c-0.072 0-0.157 0-0.243 0-41.665 0-79.379 16.915-106.65 44.253l-0.003 0.003z" />
<glyph unicode="&#xe123;" glyph-name="at_mention" data-tags="at_mention" d="M854.032 443.52q-5.024-101.2-50.176-159.728c-26.684-35.729-68.86-58.613-116.381-58.613-1.571 0-3.136 0.025-4.695 0.075l0.228-0.006q-78.224 0-100.368 70.24c-13.072-21.61-30.426-39.358-51.008-52.498l-0.64-0.382c-17.051-10.743-37.756-17.184-59.953-17.36h-0.047c-1.311-0.062-2.848-0.097-4.392-0.097-36.169 0-67.832 19.292-85.261 48.147l-0.25 0.446q-30.56 48.496-22.576 134.224c3.575 45.325 14.836 87.181 32.495 125.48l-0.943-2.28c15.222 34.033 37.364 62.539 64.807 84.755l0.425 0.333c22.624 18.819 51.835 30.422 83.74 30.958l0.116 0.002c0.833 0.013 1.816 0.021 2.801 0.021 20.665 0 40.558-3.303 59.181-9.409l-1.342 0.381c23.108-8.916 43.038-20.848 60.523-35.587l-0.315 0.259-21.744-231.664q-8-96.592 53.536-96.592c33.071 0.389 61.695 19.052 76.282 46.346l0.23 0.47c19.989 34.547 31.783 75.998 31.783 120.205 0 0.67-0.003 1.34-0.008 2.009l0.001-0.102q8 162.672-60.416 248t-208 85.312c-1.412 0.026-3.077 0.041-4.745 0.041-53.59 0-103.557-15.514-145.653-42.297l1.102 0.655c-44.77-29.633-79.981-70.42-102.137-118.466l-0.727-1.758c-25.031-53.188-40.407-115.322-42.226-180.846l-0.014-0.642c-0.745-9.506-1.17-20.585-1.17-31.762 0-53.214 9.627-104.18 27.235-151.25l-0.977 2.98c18.181-48.551 50.075-88.466 90.945-116.116l0.847-0.54c40.056-25.396 88.834-40.47 141.132-40.47 2.792 0 5.574 0.043 8.346 0.128l-0.406-0.010c26.815 0.048 52.824 3.4 77.672 9.67l-2.2-0.47c23.791 5.388 44.803 13.595 64.136 24.438l-1.192-0.614 15.472-48.080c-19.818-11.799-42.811-21.041-67.238-26.476l-1.562-0.292c-26.052-6.638-55.959-10.448-86.757-10.448-0.004 0-0.008 0-0.011 0v0c-2.727-0.080-5.936-0.126-9.155-0.126-63.013 0-121.929 17.544-172.128 48.014l1.475-0.832c-50.525 32.3-89.552 78.664-112.013 133.563l-0.691 1.909c-21.204 51.894-33.511 112.112-33.511 175.206 0 11.088 0.38 22.088 1.128 32.987l-0.081-1.472c2.312 75.699 21.053 146.499 52.753 209.672l-1.313-2.888c28.876 58.748 71.785 106.758 124.496 140.934l1.36 0.826c51.924 31.417 114.654 50.007 181.727 50.007 64.84 0 125.622-17.373 177.945-47.719l-1.703 0.912c49.951-32.195 88.39-78.46 110.134-133.173l0.666-1.899c20.561-51.722 32.484-111.654 32.484-174.371 0-11.354-0.391-22.617-1.16-33.776l0.083 1.507zM424.992 407.968c-1.406-8.043-2.211-17.304-2.211-26.753 0-23.296 4.887-45.45 13.692-65.493l-0.41 1.046c9.425-19.007 28.695-31.844 50.964-31.844 0.978 0 1.95 0.025 2.916 0.074l-0.136-0.005c18.976 0.684 35.952 8.715 48.275 21.315l0.013 0.013c16.877 16.656 29.98 37.094 37.939 59.941l0.333 1.099 0.416 3.776 19.2 210.336c-14.401 7.642-31.486 12.129-49.618 12.129-0.191 0-0.381 0-0.571-0.001h0.029c-34.928-0.807-65.073-20.516-80.682-49.264l-0.246-0.496c-22.855-39.048-37.347-85.518-39.875-135.146l-0.029-0.726z" />
<glyph unicode="&#xe124;" glyph-name="me_conversation_inactive" data-tags="me_conversation_inactive" d="M170.080 93.808c-12.402 6.781-20.672 19.735-20.672 34.621 0 0.007 0 0.013 0 0.020v-0.001 62.512h-36.496c-35.926 0.397-64.897 29.614-64.897 65.596 0 0.125 0 0.25 0.001 0.375v-0.019 361.968c0 0.063 0 0.138 0 0.213 0 35.839 28.832 64.945 64.567 65.387h181.674v-51.472h-181.344c-7.47-0.222-13.441-6.331-13.441-13.834 0-0.058 0-0.116 0.001-0.175v0.009-362.4c-0.002-0.077-0.002-0.167-0.002-0.258 0-7.652 6.131-13.871 13.749-14.014h42.333c12.663-0.038 24.1-5.254 32.312-13.64l0.008-0.008c8.035-8.164 12.996-19.374 12.996-31.742 0-0.203-0.001-0.406-0.004-0.608v0.031-45.44l127.44 84.016c6.97 4.662 15.544 7.44 24.767 7.44 0.023 0 0.046 0 0.068 0h207.597c7.463 0.231 13.425 6.336 13.425 13.834 0 0.064 0 0.128-0.001 0.192v-0.010 38.208h51.472v-37.952c0.001-0.101 0.001-0.221 0.001-0.341 0-35.828-28.814-64.927-64.533-65.386h-206.043l-144.704-95.392c-6.088-4.071-13.577-6.496-21.631-6.496-0.006 0-0.012 0-0.017 0h0.001c-6.83 0.035-13.241 1.797-18.828 4.871l0.204-0.103zM825.232 206.528l-153.472 128h-274.176c-35.919 0.406-64.881 29.619-64.881 65.596 0 0.131 0 0.261 0.001 0.392v-0.020 349.76c-0.001 0.101-0.001 0.221-0.001 0.341 0 35.832 28.812 64.934 64.533 65.402h502.908c35.823-0.451 64.69-29.596 64.69-65.483 0-0.17-0.001-0.341-0.002-0.511v0.026-349.792c0-0.040 0-0.088 0-0.136 0-35.87-28.789-65.016-64.522-65.591l-0.054-0.001h-32.784v-108.224c0-10.25-5.999-19.1-14.676-23.229l-0.156-0.067c-3.193-1.528-6.939-2.424-10.893-2.432h-0.003c0 0-0.001 0-0.001 0-6.298 0-12.070 2.255-16.552 6.001l0.041-0.033zM384.144 750.528v-350.272c-0.002-0.077-0.002-0.167-0.002-0.258 0-7.657 6.14-13.88 13.766-14.014h276.413c11.017-0.026 21.092-4.040 28.862-10.675l112.802-94.045v59.024c0 0.077-0.001 0.167-0.001 0.258 0 24.947 20.097 45.201 44.985 45.454h38.936c7.479 0.266 13.441 6.393 13.441 13.912 0 0.048 0 0.096-0.001 0.144v-0.007 350.24c0.002 0.082 0.003 0.179 0.003 0.276 0 7.615-6.079 13.81-13.649 13.996h-502.129c-7.465-0.239-13.426-6.348-13.426-13.849 0-0.075 0.001-0.151 0.002-0.226v0.011z" />
<glyph unicode="&#xe125;" glyph-name="me_conversation_active" data-tags="me_conversation_active" d="M163.44 80.976c-6.723 3.72-11.2 10.77-11.2 18.865 0 0.005 0 0.010 0 0.016v-0.001 94.112l-42.592-1.344c-34.019 0.136-61.56 27.677-61.696 61.683v364.685c0.082 34.041 27.655 61.614 61.688 61.696h186.52c11.85 0 21.456-9.606 21.456-21.456v-274.704c0.006-40.396 32.755-73.142 73.152-73.142 0.326 0 0.652 0.002 0.977 0.006l-0.049-0.001 218.656 2.704c0.664 0.094 1.432 0.147 2.212 0.147 5.311 0 10.043-2.476 13.106-6.336l0.026-0.035c3.951-3.869 6.4-9.258 6.4-15.219 0-0.004 0-0.009 0-0.013v0.001-38.224c-0.1-34.046-27.668-61.619-61.702-61.728h-213.594l-171.504-110.832c-3.237-2.146-7.212-3.424-11.486-3.424-0.034 0-0.069 0-0.103 0h0.005c-3.758 0-7.295 0.942-10.39 2.602l0.118-0.058zM845.696 207.184l-159.616 130.272-276.64-0.672c-34.027 0.145-61.574 27.686-61.728 61.697v352.367c0.091 34.055 27.673 61.637 61.719 61.728l509.705 0.368c0.029 0 0.064 0 0.099 0 16.981 0 32.35-6.906 43.451-18.062l0.002-0.003c11.205-11.082 18.144-26.457 18.144-43.453 0-0.074 0-0.148 0-0.222v0.011-352.304c-0.1-34.050-27.653-61.631-61.682-61.776h-39.79l1.344-113.328c0-0.008 0-0.016 0-0.025 0-8.503-4.935-15.853-12.097-19.342l-0.127-0.056c-2.679-1.273-5.821-2.016-9.137-2.016-0.033 0-0.067 0-0.1 0h0.005c-0.005 0-0.010 0-0.015 0-5.149 0-9.875 1.811-13.576 4.831l0.039-0.031z" />
<glyph unicode="&#xe126;" glyph-name="close" data-tags="close" d="M903.616 776.416l-39.616 39.584-340.192-340.144-340.224 340.144-39.584-39.584 340.208-340.208-340.208-340.208 39.6-39.6 340.208 340.208 340.192-340.192 39.6 39.6-340.208 340.192z" />
<glyph unicode="&#xe127;" glyph-name="arrow_right" data-tags="arrow_right" d="M327.632 2.464l-39.6 39.6 391.2 391.168-391.232 391.168 39.6 39.6 430.816-430.768z" />
<glyph unicode="&#xe128;" glyph-name="arrow_left" data-tags="arrow_left" d="M718.784 2.464l39.6 39.6-391.184 391.168 391.216 391.168-39.6 39.6-430.816-430.768z" />
<glyph unicode="&#xe129;" glyph-name="arrow_down" data-tags="arrow_down" d="M92.432 628.8l39.6 39.6 391.168-391.2 391.168 391.232 39.6-39.6-430.768-430.816z" />
<glyph unicode="&#xe12a;" glyph-name="arrow_up" data-tags="arrow_up" d="M953.968 237.648l-39.6-39.6-391.168 391.2-391.168-391.232-39.6 39.6 430.768 430.816z" />
<glyph unicode="&#xe12b;" glyph-name="email" data-tags="email" d="M191.152 155.472c-25.947 0.233-46.919 21.205-47.152 47.13v420.038l377.168-201.824 362.352 184.304v-402.496c-0.082-26.003-21.134-47.061-47.127-47.152h-0.009zM144 688.88v16c0.091 26.005 21.147 47.061 47.143 47.152h645.241c0.024 0 0.052 0 0.080 0 25.988 0 47.056-21.068 47.056-47.056 0-0.034 0-0.068 0-0.101v0.005-34.288l-361.952-183.904z" />
<glyph unicode="&#xe12c;" glyph-name="edit" data-tags="edit" d="M144 243.536v-150.624h150.624l444.224 444.24-150.624 150.624zM855.328 653.616c7.26 7.242 11.752 17.257 11.752 28.32s-4.492 21.078-11.751 28.319l-93.985 93.985c-7.242 7.26-17.257 11.752-28.32 11.752s-21.078-4.492-28.319-11.751l-73.505-73.489 150.624-150.624z" />
<glyph unicode="&#xe12d;" glyph-name="circle_unselected" data-tags="circle_unselected" d="M520 0c-243.005 0-440 196.995-440 440s196.995 440 440 440c243.005 0 440-196.995 440-440v0c-0.3-242.884-197.115-439.699-439.971-440h-0.029zM520 833.2c-217.158 0-393.2-176.042-393.2-393.2s176.042-393.2 393.2-393.2c217.158 0 393.2 176.042 393.2 393.2 0 0.017 0 0.034 0 0.051v-0.003c-0.255 217.046-176.15 392.924-393.178 393.152h-0.022z" />
<glyph unicode="&#xe12e;" glyph-name="circle_selected" data-tags="circle_selected" d="M520 880c-243.005 0-440-196.995-440-440s196.995-440 440-440c243.005 0 440 196.995 440 440v0c0 243.005-196.995 440-440 440v0zM451.952 237.952l-183.184 148 44.128 54.576 131.568-106.336 257.28 283.952 52-47.184z" />
<glyph unicode="&#xe12f;" glyph-name="logout" data-tags="logout" d="M64 453.36c0.255 217.851 176.789 394.385 394.615 394.64h0.025c145.795-0.233 273.081-79.256 341.578-196.757l1.014-1.883c2.664-4.569 4.237-10.058 4.237-15.913 0-11.82-6.409-22.143-15.941-27.684l-0.153-0.082c-4.566-2.66-10.050-4.231-15.901-4.231-11.817 0-22.138 6.405-27.681 15.934l-0.082 0.153c-58.267 100.008-164.917 166.202-287.044 166.4h-0.028c-182.497-0.218-330.385-148.084-330.64-330.552v-0.024c0.218-182.516 148.122-330.415 330.62-330.624h0.020c0.022 0 0.048 0 0.074 0 124.853 0 233.542 69.205 289.8 171.347l0.863 1.709c5.536 10.026 16.042 16.704 28.107 16.704 5.616 0 10.893-1.446 15.481-3.987l-0.164 0.083c10.015-5.539 16.684-16.039 16.684-28.096 0-5.601-1.439-10.865-3.967-15.444l0.083 0.165c-68.19-123.94-197.916-206.528-346.931-206.528-0.021 0-0.043 0-0.064 0h0.003c-217.849 0.273-394.371 176.818-394.608 394.649v0.023zM554.608 423.152c-16.775 0.527-30.173 14.252-30.173 31.106 0 0.315 0.005 0.628 0.014 0.94l-0.001-0.046c-0.008 0.266-0.013 0.58-0.013 0.894 0 16.854 13.398 30.579 30.125 31.104l0.048 0.001h383.52c16.775-0.527 30.173-14.252 30.173-31.106 0-0.315-0.005-0.628-0.014-0.94l0.001 0.046c0.008-0.266 0.013-0.58 0.013-0.894 0-16.854-13.398-30.579-30.125-31.104l-0.048-0.001z" />
<glyph unicode="&#xe130;" glyph-name="archive_team" data-tags="archive_team" d="M632.64 896h-373.616c-54.649-0.1-98.924-44.375-99.024-99.015v-700.185c0.1-54.649 44.375-98.924 99.015-99.024h509.753c54.622 0.136 98.86 44.397 98.96 99.014v564.906zM768.768 58.432h-509.744c-21.145 0.045-38.275 17.175-38.32 38.316v700.244c0.045 21.145 17.175 38.275 38.316 38.32h47.716v-43.872c0-8.563 6.941-15.504 15.504-15.504h58.48v-64.816h-58.48c-8.557 0-15.495-6.932-15.504-15.487v-33.857c0-8.563 6.941-15.504 15.504-15.504h58.48v-64.8h-58.48c-8.559-0.009-15.495-6.945-15.504-15.503v-33.857c0.009-8.559 6.945-15.495 15.503-15.504h58.481v-49.344c0-8.557 6.932-15.495 15.487-15.504h85.505c8.535 0.036 15.44 6.964 15.44 15.504 0 0 0 0 0 0v0 33.84c0 0 0 0 0 0 0 8.54-6.905 15.468-15.437 15.504h-58.451v64.784h58.464c8.563 0 15.504 6.941 15.504 15.504v0 33.6c0 8.563-6.941 15.504-15.504 15.504v0h-58.464v65.104h58.464c8.563 0 15.504 6.941 15.504 15.504v0 33.856c0 8.563-6.941 15.504-15.504 15.504v0h-58.464v59.68h187.056v-129.6c0-37.926 30.746-68.672 68.672-68.672v0l127.072 0.368 1.456-540.8c0-21.208-17.192-38.4-38.4-38.4v0zM438.832 313.76v79.296c-0.036 8.513-6.927 15.404-15.437 15.44h-43.203c-0.005 0-0.010 0-0.016 0-8.537 0-15.461-6.907-15.488-15.437v-79.235l-24.144-70.24c-2.171-6.177-3.426-13.298-3.426-20.713 0-28.091 18.004-51.978 43.102-60.75l0.451-0.137c6.175-2.17 13.295-3.424 20.708-3.424 28.097 0 51.987 18.011 60.755 43.117l0.137 0.451c2.177 6.186 3.434 13.318 3.434 20.744s-1.258 14.558-3.571 21.196l0.137-0.452zM428.816 203.456c-6.366-7.965-16.079-13.023-26.974-13.023-8.137 0-15.616 2.821-21.51 7.539l0.068-0.053c-2.069 1.65-3.886 3.467-5.483 5.467l-0.053 0.069c-3.906 5.388-6.248 12.131-6.248 19.422 0 3.85 0.653 7.548 1.855 10.988l-0.071-0.234 8 23.6h46.832l8-23.6c1.141-3.22 1.801-6.934 1.801-10.802 0-7.27-2.33-13.996-6.284-19.472l0.067 0.098z" />
<glyph unicode="&#xe131;" glyph-name="leave_team" data-tags="leave_team" d="M299.504 44.288c-85.929 0.091-155.564 69.721-155.664 155.638v100.666h64v-100.592c0.064-50.596 41.067-91.593 91.659-91.648h468.005c50.594 0.055 91.593 41.054 91.648 91.643v476.357c-0.045 50.597-41.050 91.602-91.644 91.648h-468.004c-50.601-0.045-91.609-41.048-91.664-91.643v-99.717h-64v99.712c0.1 85.924 69.737 155.55 155.656 155.632h468.008c85.92-0.091 155.548-69.713 155.648-155.622v-476.362c-0.1-85.922-69.726-155.548-155.638-155.648h-0.010zM455.424 272.96l146.832 137.984h-474.256v64h472l-147.952 133.76 42.928 47.472 235.36-212.8-231.040-217.072z" />
<glyph unicode="&#xe132;" glyph-name="delete_team" data-tags="delete_team" d="M348.8 23.232c-68.589 0.082-124.167 55.666-124.24 124.249v519.015h584.224v-519.008c-0.073-68.595-55.661-124.183-124.249-124.256h-0.007zM288.544 147.488c0.045-33.26 26.996-60.211 60.252-60.256h335.716c33.26 0.045 60.211 26.996 60.256 60.252v455.012h-456.224zM160 713.488v62.24h158.128l31.488 104.272h326.288l41.984-104.272h160.176v-62.24zM384.976 775.728h263.904l-16.208 40.272h-235.536z" />
<glyph unicode="&#xe133;" glyph-name="profile" data-tags="profile" d="M899.92 30.88h-772.624c-17.284 0-31.296 14.012-31.296 31.296v0 137.888c0 70.656 56.944 130.768 164.656 173.856 73.607 29.559 158.837 47.884 248 50.55l1.104 0.026c1.12 0.132 2.418 0.208 3.734 0.208 0.026 0 0.052 0 0.078 0h-0.004c91.563-2.082 178.241-20.486 258.058-52.399l-4.986 1.759c107.696-43.2 164.592-103.296 164.592-173.952v-137.952c-0.009-17.277-14.017-31.28-31.296-31.28-0.006 0-0.011 0-0.017 0h0.001zM158.64 93.472h710.032v106.592c0 97.936-228.448 160.768-351.312 162.032-1.001-0.112-2.16-0.176-3.335-0.176-0.042 0-0.085 0-0.127 0h0.007c-121.984 0-355.2-63.040-355.2-161.856zM513.84 472.336h-1.6c-107.595 0.791-194.616 87.761-195.487 195.261l-0.001 0.083c-0.004 0.439-0.006 0.957-0.006 1.476 0 53.703 21.708 102.336 56.828 137.603l-0.007-0.007c35.344 35.83 84.404 58.052 138.655 58.144h0.017c0.201 0.001 0.44 0.001 0.678 0.001 53.95 0 102.829-21.709 138.38-56.867l-0.018 0.018c35.813-35.295 58.033-84.298 58.144-138.491v-0.021c0.004-0.437 0.006-0.953 0.006-1.47 0-53.703-21.715-102.334-56.843-137.591l0.006 0.006c-35.295-35.813-84.298-58.033-138.491-58.144h-0.021zM513.072 802.304h-0.64c-36.949-0.063-70.349-15.205-94.384-39.6l-0.016-0.016c-23.92-24.013-38.708-57.137-38.708-93.715 0-0.348 0.001-0.695 0.004-1.042v0.053c0.557-73.257 59.785-132.497 132.985-133.072h1.319c36.947 0.058 70.347 15.195 94.385 39.584l0.015 0.016c23.92 24.013 38.708 57.137 38.708 93.715 0 0.353-0.001 0.706-0.004 1.059v-0.054c-0.058 36.947-15.195 70.347-39.584 94.385l-0.016 0.015c-24.010 23.899-57.119 38.673-93.68 38.673-0.13 0-0.259 0-0.389-0.001h0.020z" />
<glyph unicode="&#xe134;" glyph-name="settings" data-tags="settings" d="M902.16 355.008l-42.8 24.432c-19.028 11.158-31.603 31.51-31.603 54.799 0 11.633 3.138 22.534 8.612 31.901l-0.162-0.3c5.649 9.651 13.469 17.471 22.822 22.958l0.298 0.162 42.768 24.432c8.709 5.118 14.463 14.441 14.463 25.107 0 5.297-1.419 10.262-3.897 14.536l0.075-0.139-92.192 160.096c-5.115 8.74-14.457 14.517-25.148 14.517-5.28 0-10.231-1.409-14.497-3.872l0.14 0.075-42.784-24.432c-9.023-5.336-19.885-8.489-31.483-8.489-5.877 0-11.564 0.809-16.958 2.323l0.441-0.106c-16.531 4.474-30.052 15.090-38.239 29.188l-0.161 0.3c-5.313 9.041-8.455 19.913-8.464 31.517v49.091c-0.009 15.99-12.969 28.951-28.959 28.96h-184.273c-15.98-0.027-28.926-12.979-28.944-28.958v-49.378c0-0.050 0-0.11 0-0.17 0-17.399-7.077-33.144-18.509-44.515l-0.003-0.003c-11.387-11.426-27.139-18.497-44.542-18.497-0.091 0-0.181 0-0.272 0.001h0.014c-11.611 0.003-22.489 3.139-31.834 8.609l0.298-0.161-42.656 24.368c-4.204 2.505-9.271 3.986-14.684 3.986-10.586 0-19.848-5.664-24.923-14.126l-0.073-0.132-92.24-159.632c-2.396-4.133-3.81-9.093-3.81-14.383 0-10.679 5.761-20.013 14.346-25.062l0.136-0.074 42.704-24.4c19.014-11.161 31.579-31.506 31.579-54.785 0-11.639-3.141-22.544-8.62-31.915l0.162 0.3c-5.63-9.662-13.428-17.496-22.761-23.007l-0.295-0.161-42.768-24.416c-8.703-5.127-14.451-14.452-14.451-25.119 0-5.291 1.414-10.252 3.886-14.525l-0.075 0.14 92.16-160.336c5.112-8.719 14.437-14.48 25.108-14.48 5.296 0 10.261 1.419 14.535 3.899l-0.139-0.074 42.768 24.432c9.025 5.335 19.888 8.487 31.488 8.487 5.875 0 11.561-0.809 16.953-2.321l-0.441 0.106c16.531-4.476 30.051-15.091 38.239-29.188l0.161-0.3c5.297-9.045 8.427-19.916 8.432-31.518v-49.394c0.018-15.987 12.973-28.942 28.958-28.96h184.322c0.016 0 0.035 0 0.055 0 7.967 0 15.179 3.235 20.393 8.463l0.001 0.001c5.248 5.218 8.496 12.442 8.496 20.425 0 0.025 0 0.050 0 0.075v-0.004 49.392c0.036 34.939 28.368 63.248 63.312 63.248 0.006 0 0.011 0 0.017 0h-0.001c11.618-0.021 22.498-3.161 31.853-8.626l-0.301 0.162 42.72-24.4c4.135-2.402 9.1-3.819 14.395-3.819 10.641 0 19.946 5.724 25.003 14.26l0.074 0.135 92.192 159.68c2.465 4.178 3.921 9.205 3.921 14.573 0 10.618-5.698 19.905-14.204 24.969l-0.133 0.074zM423.648 200.832c-21.779 21.911-51.938 35.472-85.263 35.472-0.118 0-0.237 0-0.355-0.001h0.018c-22.295-0.013-43.182-6.029-61.136-16.519l0.576 0.311-17.6-10.24-63.28 109.52 17.6 10.224c36.446 21.363 60.533 60.339 60.533 104.942 0 22.219-5.977 43.041-16.411 60.947l0.311-0.577c-10.845 18.547-25.876 33.567-43.859 44.090l-0.573 0.31-17.6 10.24 63.168 109.6 17.696-10.24c17.375-10.198 38.267-16.221 60.566-16.221 44.533 0 83.455 24.021 104.517 59.813l0.309 0.568c10.228 17.382 16.275 38.287 16.288 60.604v20.42h126.4v-20.416c-0.001-0.131-0.001-0.287-0.001-0.443 0-33.287 13.515-63.417 35.358-85.203l0.003-0.003c21.823-21.941 52.034-35.52 85.417-35.52 0.053 0 0.106 0 0.159 0h0.152c22.27 0.015 43.13 6.037 61.052 16.533l-0.572-0.309 17.872 10.32 63.232-109.504-17.696-10.24c-36.451-21.361-60.541-60.341-60.541-104.947 0-22.236 5.986-43.074 16.436-60.989l-0.31 0.576c10.849-18.549 25.872-33.577 43.844-44.122l0.572-0.31 17.696-10.24-63.184-109.472-17.696 10.24c-17.368 10.187-38.249 16.203-60.536 16.203-44.565 0-83.511-24.056-104.563-59.89l-0.309-0.569c-10.2-17.376-16.224-38.271-16.224-60.572 0-0.007 0-0.014 0-0.021v0.001-20.416h-126.576v20.416c0 0.101 0 0.22 0 0.339 0 33.338-13.568 63.507-35.482 85.287l-0.006 0.006zM688.864 434.384c-0.254 91.918-74.705 166.363-166.601 166.608h-0.023c-91.975-0.1-166.508-74.633-166.608-166.598v-0.010c0-0.148-0.001-0.322-0.001-0.497 0-45.848 18.65-87.34 48.777-117.304l0.007-0.007c29.978-30.145 71.48-48.801 117.34-48.801 0.17 0 0.34 0 0.51 0.001h-0.027c91.974 0.109 166.506 74.635 166.624 166.597v0.011zM630.944 434.384c-0.172-59.969-48.736-108.539-108.687-108.72h-0.017c-60.055 0-108.745 48.657-108.8 108.699v0.005c0.046 60.054 48.739 108.72 108.8 108.72v0c60.036-0.055 108.686-48.727 108.704-108.766v-0.002z" />
<glyph unicode="&#xe135;" glyph-name="help" data-tags="help" d="M112 444.096c0 0.005 0 0.010 0 0.016 0 223.061 180.827 403.888 403.888 403.888 0.005 0 0.011 0 0.016 0v0c0.005 0 0.010 0 0.016 0 223.061 0 403.888-180.827 403.888-403.888v0c-0.246-222.971-180.933-403.658-403.88-403.904h-0.024c-0.005 0-0.010 0-0.016 0-223.061 0-403.888 180.827-403.888 403.888v0zM162.48 443.776c0-195.194 158.231-353.431 353.423-353.44h0.001c0.005 0 0.010 0 0.016 0 195.191 0 353.424 158.233 353.424 353.424 0 0.006 0 0.011 0 0.017v-0.001 0.32c-0.4 194.971-158.443 352.895-353.42 353.104h-0.020c-195.181-0.009-353.406-158.228-353.424-353.406v-0.002zM475.904 242.016c0 22.091 17.909 40 40 40v0c22.091 0 40-17.909 40-40v0c0-22.091-17.909-40-40-40v0c-22.091 0-40 17.909-40 40 0 0.006 0 0.011 0 0.017v-0.001zM516.016 329.152v0c-17.531 0.009-31.742 14.214-31.76 31.742v33.602c0.252 35.548 22.866 65.75 54.464 77.257l0.576 0.183c34.535 13.406 59.316 44.763 63.023 82.312l0.033 0.408c-0.787 23.517-10.938 44.519-26.822 59.513l-0.042 0.039c-15.221 14.663-35.955 23.696-58.799 23.696-1.002 0-2-0.017-2.993-0.052l0.144 0.004c-45.864-1.232-82.722-38.101-83.934-83.854l-0.002-0.114c-0.1-17.459-14.272-31.575-31.743-31.584h-0.001c-17.533 0.018-31.742 14.227-31.76 31.758v0.002c1.8 81.167 67.962 146.292 149.364 146.416h3.212c80.154-1.539 144.725-66.117 146.254-146.127l0.002-0.145c-3.963-65.145-46.012-119.544-104.010-141.487l-1.11-0.369c-7.474-2.663-12.74-9.653-12.8-17.881v-33.959c-0.098-17.237-13.981-31.199-31.179-31.424h-0.021z" />
<glyph unicode="&#xe136;" glyph-name="info" data-tags="info" d="M128 441.6c0 215.612 174.788 390.4 390.4 390.4v0c215.612 0 390.4-174.788 390.4-390.4v0c-0.282-215.499-174.902-390.118-390.373-390.4h-0.027c-215.612 0-390.4 174.788-390.4 390.4v0zM176.8 441.296c0-188.69 152.959-341.655 341.647-341.664h0.001c188.696 0 341.664 152.968 341.664 341.664v0 0.304c-0.427 188.463-153.214 341.098-341.694 341.28h-0.018c-188.668-0.036-341.6-152.991-341.6-341.664v0zM459.696 221.36c-12.147 10.394-19.798 25.74-19.798 42.873 0 0.548 0.008 1.095 0.023 1.639l-0.002-0.080c0.017 7.554 0.551 14.968 1.57 22.226l-0.098-0.85c1.392 9.722 3.119 18.077 5.298 26.248l-0.354-1.56 24.848 87.472c2.176 8.384 4.048 16.368 5.504 23.728 1.309 6.041 2.097 13.010 2.175 20.148l0.001 0.060c0.101 0.949 0.159 2.051 0.159 3.166 0 7.641-2.719 14.646-7.241 20.103l0.042-0.052c-6.128 4.172-13.694 6.661-21.84 6.661-1.59 0-3.158-0.095-4.698-0.279l0.186 0.018c-7.059-0.034-13.853-1.114-20.253-3.091l0.493 0.131c-6.4-2.048-12.48-3.904-17.216-5.696l6.4 26.8q24.464 9.952 46.688 17.008c12.464 4.331 26.835 6.917 41.784 7.103l0.088 0.001c1.51 0.101 3.273 0.159 5.049 0.159 18.908 0 36.286-6.548 49.991-17.499l-0.16 0.124c11.818-10.513 19.226-25.761 19.226-42.74 0-0.601-0.009-1.199-0.028-1.795l0.002 0.087c0-3.776-0.464-10.448-1.36-20-0.836-9.709-2.58-18.651-5.171-27.225l0.243 0.937-24.608-86.976c-1.903-6.249-3.797-14.282-5.253-22.466l-0.203-1.374c-1.237-5.944-2.086-12.913-2.361-20.029l-0.007-0.243c-0.135-1.059-0.213-2.283-0.213-3.526 0-7.773 3.022-14.839 7.955-20.089l-0.014 0.015c6.522-4.123 14.461-6.57 22.971-6.57 1.354 0 2.693 0.062 4.015 0.183l-0.17-0.013c7.397 0.161 14.461 1.319 21.148 3.345l-0.556-0.145c6.434 1.643 11.906 3.531 17.172 5.804l-0.74-0.284-6.768-27.072q-29.632-11.68-47.2-17.76c-11.737-4.064-25.264-6.41-39.34-6.41-0.558 0-1.116 0.004-1.673 0.011l0.084-0.001q-2.448-0.144-4.896-0.144c-19.323 0.006-37.073 6.737-51.037 17.979l0.157-0.123zM558.048 564.784c-0.332-0.007-0.724-0.011-1.117-0.011-15.635 0-29.854 6.061-40.436 15.961l0.033-0.031c-10.602 9.424-17.249 23.098-17.249 38.325 0 0.128 0 0.255 0.001 0.383v-0.020c-0.001 0.146-0.002 0.318-0.002 0.49 0 15.227 6.647 28.902 17.198 38.28l0.052 0.046c10.516 9.982 24.764 16.121 40.446 16.121 0.355 0 0.709-0.003 1.063-0.009l-0.053 0.001c0.36 0.008 0.785 0.013 1.21 0.013 15.589 0 29.742-6.145 40.17-16.144l-0.020 0.019c10.578-9.604 17.192-23.41 17.192-38.76 0-13.528-5.137-25.856-13.567-35.139l0.039 0.043c-1.164-1.304-2.36-2.501-3.62-3.626l-0.044-0.038h0.080c-10.457-9.895-24.604-15.984-40.173-16h-0.003z" />
<glyph unicode="&#xe137;" glyph-name="camera" data-tags="camera" d="M199.728 60.8c-57.17 0.244-103.455 46.501-103.744 103.636v475.564c0.307 57.128 46.536 103.357 103.634 103.664h136.030v9.824c0.163 43.253 35.155 78.279 78.379 78.496h201.909c43.25-0.163 78.272-35.157 78.48-78.38v-9.892h136c57.17-0.235 103.457-46.499 103.728-103.638v-475.498c-0.226-57.171-46.484-103.463-103.621-103.744h-0.027zM152 640v-475.312c0.145-26.327 21.461-47.627 47.781-47.744h630.763c26.32 0.154 47.611 21.467 47.728 47.781v475.275c-0.145 26.321-21.452 47.618-47.764 47.744h-192.012v65.824c-0.081 12.411-10.13 22.449-22.538 22.512h-201.766c-12.369-0.144-22.347-10.178-22.4-22.555v-65.765h-192c-26.336-0.117-47.656-21.426-47.792-47.747v-0.013zM297.872 412.976c0.146 119.912 97.319 217.079 217.219 217.216h0.013c119.907-0.137 217.073-97.308 217.2-217.204v-0.012c-0.127-119.908-97.293-217.079-217.187-217.216h-0.013c-119.885 0.136-217.041 97.258-217.232 217.118v0.018zM353.872 412.976c0.118-88.995 72.236-161.107 161.222-161.216h0.010c88.986 0.118 161.091 72.228 161.2 161.206v0.010c-0.109 88.988-72.214 161.098-161.189 161.216h-0.011c-89.024-0.109-161.159-72.266-161.232-161.289v-0.007zM213.216 593.488c0 16.878 13.682 30.56 30.56 30.56 0.006 0 0.011 0 0.017 0h-0.001c16.878 0 30.56-13.682 30.56-30.56v0c0-16.878-13.682-30.56-30.56-30.56v0c-0.005 0-0.010 0-0.016 0-16.85 0-30.514 13.637-30.56 30.476v0.004z" />
<glyph unicode="&#xe138;" glyph-name="delete" data-tags="delete" d="M868.464 710.304h-205.904v82.384c-0.154 12.668-10.265 22.924-22.86 23.311l-0.036 0.001h-243.728c-0.115 0.002-0.251 0.003-0.387 0.003-12.914 0-23.408-10.366-23.613-23.232v-82.707h-211.936v-47.36h53.12l57.088-580.4c1.164-12.029 11.207-21.362 23.437-21.392h448.115c0.027 0 0.059 0 0.091 0 12.228 0 22.27 9.357 23.358 21.301l0.007 0.091 57.072 580.4h46.112zM419.552 768.048h196.432v-57.6h-196.432zM720.128 108.512h-404.896l-54.928 554.48h514.672zM490.608 564.608h47.36v-355.728h-47.36v355.728zM603.872 564.608h47.36v-355.728h-47.36v355.728zM384.416 564.608h47.36v-355.728h-47.36v355.728z" />
<glyph unicode="&#xe139;" glyph-name="user_details" data-tags="user_details" d="M160 697.36v-538.384c0-0.005 0-0.010 0-0.016 0-42.468 34.428-76.896 76.896-76.896 0.006 0 0.011 0 0.017 0h538.383c42.426 0.127 76.785 34.486 76.912 76.9v538.396c-0.127 42.426-34.486 76.785-76.9 76.912h-538.396c-0.005 0-0.010 0-0.016 0-42.468 0-76.896-34.428-76.896-76.896 0-0.006 0-0.011 0-0.017v0.001zM621.472 543.536c0-63.712-51.648-115.36-115.36-115.36s-115.36 51.648-115.36 115.36c0 63.712 51.648 115.36 115.36 115.36v0c0.048 0 0.104 0 0.16 0 63.623 0 115.2-51.577 115.2-115.2 0-0.056 0-0.113 0-0.169v0.009zM275.36 235.888c0 76.912 153.824 119.216 230.736 119.216s230.736-42.304 230.736-119.216v-38.4h-461.472z" />
<glyph unicode="&#xe13a;" glyph-name="change_password" data-tags="change_password" d="M734.48 608.752h-36.464v72.928c0.005 0.508 0.008 1.107 0.008 1.708 0 100.693-81.627 182.32-182.32 182.32s-182.32-81.627-182.32-182.32c0-0.601 0.003-1.2 0.009-1.8l-0.001 0.092v-72.928h-36.464c-40.224-0.118-72.801-32.689-72.928-72.9v-364.652c0.118-40.23 32.698-72.81 72.917-72.928h437.563c40.23 0.118 72.81 32.698 72.928 72.917v364.651c-0.127 40.223-32.704 72.794-72.917 72.912h-0.011zM515.712 280.592c-40.277 0-72.928 32.651-72.928 72.928s32.651 72.928 72.928 72.928c40.277 0 72.928-32.651 72.928-72.928v0c-0.118-40.23-32.698-72.81-72.917-72.928h-0.011zM628.8 608.752h-226.128v72.928c-0.005 0.4-0.008 0.872-0.008 1.345 0 62.43 50.61 113.040 113.040 113.040s113.040-50.61 113.040-113.040c0-0.473-0.003-0.945-0.009-1.416l0.001 0.072z" />
<glyph unicode="&#xe13b;" glyph-name="preferences" data-tags="preferences" d="M870.336 654.336c-3.081 9.473-11.832 16.2-22.154 16.2-6.411 0-12.217-2.595-16.422-6.793v0l-98.064-98.016-75.056 21.488-21.472 75.040 98.128 98.048c4.193 4.205 6.785 10.007 6.785 16.415 0 10.349-6.762 19.118-16.109 22.131l-0.165 0.046c-18.543 5.969-39.876 9.409-62.012 9.409-0.243 0-0.486 0-0.729-0.001h0.037c-119.61-0.137-216.536-97.062-216.672-216.659v-0.013c-0.001-0.193-0.001-0.421-0.001-0.65 0-25.884 4.634-50.685 13.117-73.62l-0.476 1.47-294.976-294.928c-16.83-16.8-27.241-40.024-27.241-65.68 0-51.252 41.548-92.8 92.8-92.8 0.014 0 0.029 0 0.043 0h-0.002c0.073 0 0.16 0 0.246 0 25.546 0 48.663 10.399 65.349 27.195l295.013 294.965c21.465-8.007 46.266-12.641 72.15-12.641 0.228 0 0.457 0 0.685 0.001h-0.035c119.615 0.137 216.545 97.072 216.672 216.676v0.012c0.001 0.222 0.001 0.485 0.001 0.749 0 22.119-3.453 43.432-9.848 63.428l0.407-1.473z" />
<glyph unicode="&#xe13c;" glyph-name="back" data-tags="back" d="M933.2 487.664h-668.112l303.776 303.744-56.56 56.576-400.304-400.24 400.304-400.272 56.56 56.576-303.632 303.616h667.968z" />
<glyph unicode="&#xe13d;" glyph-name="email1" data-tags="email" d="M831.84 736.080h-631.040c-40.181-0.064-72.736-32.619-72.8-72.794v-437.030c0.046-40.188 32.612-72.755 72.796-72.8h631.044c40.181 0.064 72.736 32.619 72.8 72.794v437.030c-0.073 40.177-32.623 72.727-72.793 72.8h-0.007zM831.84 687.536c3.36-0.004 6.561-0.686 9.472-1.916l-0.16 0.060-324.8-281.6-324.8 281.6c2.751 1.172 5.952 1.855 9.311 1.856h0.001zM831.84 202.144h-631.040c-13.393 0.009-24.247 10.863-24.256 24.255v408.001l323.872-280.672c4.232-3.694 9.805-5.947 15.904-5.947s11.672 2.253 15.933 5.971l-0.029-0.025 323.872 280.672v-408c0-0.014 0-0.031 0-0.048 0-13.403-10.856-24.27-24.254-24.288h-0.002z" />
<glyph unicode="&#xe13e;" glyph-name="location" data-tags="location" d="M513.456 848c-155.974-0.164-282.376-126.543-282.576-282.493v-0.019c0-193.328 252.8-477.168 263.6-489.152 4.667-5.211 11.417-8.475 18.928-8.475 6.5 0 12.43 2.444 16.92 6.464l-0.024-0.021c0.719 0.65 1.382 1.313 2.011 2.008l0.021 0.024c10.768 11.984 263.6 295.904 263.6 489.152-0.2 155.935-126.547 282.293-282.459 282.512h-0.021zM513.456 132.192c-85.088 101.088-231.664 300.496-231.664 433.184 0 127.936 103.712 231.648 231.648 231.648 0.006 0 0.011 0 0.017 0h-0.001c127.936 0 231.648-103.712 231.648-231.648v0c-0.048-132.592-146.576-331.984-231.648-433.184zM513.392 707.632c-78.504 0-142.144-63.64-142.144-142.144v0c0-78.504 63.64-142.144 142.144-142.144v0c0.005 0 0.010 0 0.016 0 78.504 0 142.144 63.64 142.144 142.144v0c-0.145 78.451-63.708 142.008-142.147 142.144h-0.013zM513.392 474.208c-50.368 0-91.2 40.832-91.2 91.2v0c0 0.024 0 0.052 0 0.080 0 50.368 40.832 91.2 91.2 91.2v0c0.024 0 0.052 0 0.080 0 50.368 0 91.2-40.832 91.2-91.2 0-0.028 0-0.056 0-0.084v0.004c-0.1-50.356-40.917-91.145-91.275-91.2h-0.005z" />
<glyph unicode="&#xe13f;" glyph-name="audio" data-tags="audio" d="M539.664 813.984c-2.869 1.28-6.218 2.025-9.74 2.025-6.507 0-12.421-2.544-16.799-6.692l0.011 0.010-205.568-194.176h-139.2c-0.013 0-0.029 0-0.045 0-6.728 0-12.818-2.734-17.218-7.151l-0.001-0.001c-4.427-4.391-7.168-10.476-7.168-17.202 0-0.028 0-0.055 0-0.083v0.004-281.2c0-0.033 0-0.071 0-0.11 0-6.71 2.728-12.782 7.135-17.169l0.001-0.001c4.392-4.437 10.484-7.184 17.218-7.184 0.039 0 0.078 0 0.116 0h139.194l205.616-194.144c4.361-4.141 10.271-6.688 16.776-6.688 0.008 0 0.017 0 0.025 0h0.703c6.753 0.187 12.792 3.090 17.093 7.652l0.011 0.012c4.148 4.368 6.701 10.285 6.704 16.799v682.865c-0.012 10.020-6.062 18.625-14.706 22.371l-0.158 0.061zM505.504 734.832v-569.392l-171.44 161.856c-4.364 4.141-10.276 6.688-16.782 6.688-0.012 0-0.024 0-0.036 0h-124.318v232.224h124.384c0.018 0 0.038 0 0.059 0 6.499 0 12.402 2.547 16.767 6.698l-0.010-0.010zM832.368 601.328c-23.104 36.537-53.124 66.618-88.449 89.107l-1.151 0.685-0.8 0.544c-3.702 2.388-8.224 3.806-13.078 3.806-1.915 0-3.779-0.221-5.567-0.639l0.165 0.032c-6.481-1.492-11.858-5.407-15.237-10.717l-0.059-0.099c-2.388-3.698-3.807-8.215-3.807-13.064 0-1.914 0.221-3.777 0.639-5.564l-0.032 0.165c1.475-6.497 5.401-11.886 10.732-15.253l0.1-0.059c67.012-42.489 110.849-116.268 110.849-200.287 0-46.333-13.331-89.552-36.367-126.031l0.574 0.973c-19.357-30.552-44.504-55.699-74.089-74.482l-0.967-0.574c-6.92-4.415-11.443-12.052-11.443-20.746 0-4.83 1.396-9.333 3.806-13.13l-0.059 0.1c4.417-6.928 12.062-11.456 20.763-11.456 0.013 0 0.026 0 0.039 0h-0.002c4.821 0.005 9.312 1.412 13.089 3.834l-0.097-0.058c63.216 39.779 109.026 102.282 126.199 175.797l0.377 1.915c4.705 19.326 7.404 41.514 7.404 64.332 0 55.941-16.22 108.094-44.213 152.013l0.682-1.144zM690.928 523.648c-7.086 9.578-15.198 17.832-24.316 24.841l-0.292 0.215-1.776 1.392c-4.026 3.013-9.102 4.824-14.602 4.824-8.018 0-15.136-3.849-19.609-9.801l-0.045-0.063c-3.031-4.017-4.854-9.093-4.854-14.595 0-1.258 0.095-2.494 0.279-3.7l-0.017 0.135c0.981-6.633 4.508-12.297 9.537-16.067l0.063-0.045c15.775-11.502 26.775-28.736 29.944-48.583l0.056-0.425c0.593-3.532 0.932-7.602 0.932-11.75 0-16.595-5.424-31.922-14.595-44.307l0.143 0.202c-4.66-6.361-10.097-11.794-16.255-16.302l-0.209-0.146c-5.087-3.812-8.613-9.47-9.584-15.962l-0.016-0.134c-0.166-1.070-0.261-2.305-0.261-3.561 0-5.508 1.823-10.591 4.898-14.677l-0.045 0.063c4.515-6.010 11.628-9.856 19.64-9.856 0.008 0 0.017 0 0.025 0h-0.001c0.018 0 0.038 0 0.059 0 5.468 0 10.516 1.802 14.58 4.846l-0.063-0.045c30.765 22.88 50.479 59.125 50.479 99.975 0 27.665-9.042 53.219-24.333 73.866l0.238-0.336z" />
<glyph unicode="&#xe140;" glyph-name="show_password" data-tags="show_password" d="M985.12 467.728c-156.16 197.12-321.12 292.8-489.44 283.68-263.68-12.32-435.52-275.040-442.56-286.24l-5.12-8.8v-18.72l5.12-8c7.040-11.040 178.88-273.92 442.56-287.040h20.32c161.6 0 320 96 469.12 284.96l6.88 9.6v21.76zM499.2 206.608c-194.88 9.44-339.2 184.96-380.32 240.8 41.12 55.84 185.44 231.36 380.32 240.96 141.44 6.56 282.56-74.24 420.8-240.96-138.24-166.72-278.88-248.16-420.8-240.8zM520 611.408c-90.575 0-164-73.425-164-164s73.425-164 164-164c90.575 0 164 73.425 164 164v0c0 90.575-73.425 164-164 164v0zM520 347.408c-55.228 0-100 44.772-100 100s44.772 100 100 100c55.228 0 100-44.772 100-100v0c0-55.228-44.772-100-100-100v0z" />
<glyph unicode="&#xe141;" glyph-name="hide_password" data-tags="hide_password" d="M985.12 474.944c-156.16 197.12-321.12 292.8-489.44 283.68-52.831-2.545-102.292-14.066-147.853-33.070l2.893 1.070 49.92-49.92c29.071 10.352 62.688 17.227 97.624 19.159l0.936 0.041c141.44 6.24 282.56-74.56 420.8-241.28-44.507-55.009-93.659-103.299-147.764-145.54l-1.996-1.5 44.64-44.96c63.998 50.719 119.936 107.114 168.584 169.475l1.656 2.205 6.88 9.6v22.24zM619.84 457.184l55.36-55.36c5.577 15.654 8.8 33.71 8.8 52.52 0 0.098 0 0.197 0 0.295v-0.015c-0.091 90.538-73.462 163.909-163.991 164h-0.009c-0.083 0-0.182 0-0.28 0-18.809 0-36.866-3.223-53.648-9.147l1.128 0.347 55.36-55.36c53.158-1.389 95.891-44.122 97.277-97.15l0.003-0.13zM175.36 822.624c-5.794 5.794-13.799 9.378-22.64 9.378-17.683 0-32.018-14.335-32.018-32.018 0-8.841 3.584-16.846 9.378-22.64l112-112c-74.278-53.348-136.943-117.286-187.276-190.373l-1.684-2.587-5.12-8.8v-18.72l5.12-8c7.040-11.040 178.88-273.92 442.56-287.040h20.32c71.207 0.713 138.128 18.38 197.132 49.145l-2.412-1.145 128-128c5.794-5.794 13.799-9.378 22.64-9.378 17.683 0 32.018 14.335 32.018 32.018 0 8.841-3.584 16.846-9.378 22.64v0zM424 483.424l124.8-124.8c-8.788-2.805-18.896-4.421-29.381-4.421-55.14 0-99.84 44.7-99.84 99.84 0 10.486 1.616 20.593 4.614 30.088l-0.193-0.707zM499.2 213.824c-194.88 9.44-339.2 184.96-380.32 240.8 47.709 64.072 103.7 118.588 167.127 163.255l2.313 1.545 87.68-87.36c-12.12-22.293-19.246-48.817-19.246-77.006 0-90.398 73.282-163.68 163.68-163.68 28.189 0 54.713 7.126 77.87 19.674l-0.864-0.428 65.44-65.44c-43.587-20.017-94.564-31.688-148.268-31.688-5.42 0-10.813 0.119-16.175 0.354l0.763-0.027z" />
<glyph unicode="&#xe142;" glyph-name="time" data-tags="time" d="M96 448c0.264 229.644 186.356 415.736 415.975 416h0.025c229.644-0.264 415.736-186.356 416-415.975v-0.025c-0.273-229.641-186.359-415.727-415.974-416h-0.026c-229.644 0.264-415.736 186.356-416 415.975v0.025zM152.496 448c0.273-198.442 161.063-359.238 359.477-359.52h0.027c198.462 0.227 359.286 161.056 359.504 359.499v0.021c-0.282 198.435-161.069 359.222-359.477 359.504h-0.027c-198.435-0.282-359.222-161.069-359.504-359.477v-0.027zM646.368 302.032l-155.104 77.552c-9.332 4.739-15.616 14.266-15.616 25.261 0 0.007 0 0.013 0 0.020v-0.001 232.64c0 15.6 12.642 28.247 28.239 28.256h0.001c0.005 0 0.010 0 0.016 0 15.597 0 28.24-12.643 28.24-28.24 0-0.006 0-0.011 0-0.017v0.001-215.2l139.488-69.744c9.334-4.752 15.616-14.288 15.616-25.291 0-4.603-1.099-8.949-3.050-12.79l0.074 0.161c-4.752-9.334-14.288-15.616-25.291-15.616-0.002 0-0.004 0-0.005 0v0c-4.587 0.008-8.914 1.113-12.735 3.066l0.159-0.074z" />
<glyph unicode="&#xe143;" glyph-name="task_unchecked" data-tags="task_unchecked" d="M805.344 0h-602.688c-76.919 1.56-138.676 64.282-138.676 141.429 0 0.831 0.007 1.66 0.021 2.488l-0.002-0.125v592.416c-0.013 0.708-0.020 1.542-0.020 2.379 0 77.143 61.759 139.862 138.531 141.411l0.145 0.002h602.688c76.919-1.56 138.676-64.282 138.676-141.429 0-0.831-0.007-1.66-0.021-2.488l0.002 0.125v-592.416c0.012-0.698 0.019-1.522 0.019-2.348 0-77.15-61.755-139.875-138.529-141.442l-0.146-0.002zM202.656 794.432c-31.146-0.633-56.152-26.031-56.152-57.269 0-0.336 0.003-0.671 0.009-1.005l-0.001 0.050v-592.416c-0.005-0.284-0.008-0.619-0.008-0.955 0-31.238 25.006-56.636 56.093-57.268l0.059-0.001h602.688c31.146 0.633 56.152 26.031 56.152 57.269 0 0.336-0.003 0.671-0.009 1.005l0.001-0.050v592.416c0.005 0.284 0.008 0.619 0.008 0.955 0 31.238-25.006 56.636-56.093 57.268l-0.059 0.001z" />
<glyph unicode="&#xe144;" glyph-name="task_checked" data-tags="task_checked" d="M852.464 0h-664.912c-59.37 0.073-107.479 48.182-107.552 107.545v664.903c0.073 59.367 48.184 107.472 107.546 107.536h664.902c59.37-0.073 107.479-48.182 107.552-107.545v-664.903c-0.073-59.361-48.175-107.463-107.529-107.536h-0.007zM307.84 470.4l-51.84-66.576 201.6-168.784 330.24 377.952-61.12 57.44-277.904-318.032-140.928 118z" />
<glyph unicode="&#xe145;" glyph-name="event_checked" data-tags="event_checked" d="M96 448c0 229.75 186.25 416 416 416v0c229.75 0 416-186.25 416-416v0c0-229.75-186.25-416-416-416v0c-229.75 0-416 186.25-416 416v0zM257.408 702.592c-65.113-64.779-105.41-154.449-105.41-253.531 0-0.373 0.001-0.746 0.002-1.119v0.058c-0.001-0.315-0.002-0.688-0.002-1.061 0-99.082 40.296-188.752 105.394-253.515l0.015-0.015c64.779-65.113 154.449-105.41 253.531-105.41 0.373 0 0.746 0.001 1.119 0.002h-0.058c0.319-0.001 0.697-0.002 1.075-0.002 99.078 0 188.743 40.297 253.502 105.394l0.015 0.015c65.113 64.779 105.41 154.449 105.41 253.531 0 0.373-0.001 0.746-0.002 1.119v-0.058c0.001 0.315 0.002 0.688 0.002 1.061 0 99.082-40.296 188.752-105.394 253.515l-0.015 0.015c-64.774 65.113-154.44 105.41-253.517 105.41-0.378 0-0.756-0.001-1.133-0.002h0.058c-0.315 0.001-0.688 0.002-1.061 0.002-99.082 0-188.752-40.296-253.515-105.394l-0.015-0.015zM411.2 294.384l-112 112c-1.476 1.452-2.391 3.471-2.391 5.704s0.915 4.252 2.39 5.703l35.601 35.601c1.421 1.466 3.402 2.381 5.596 2.4h0.004c2.193-0.024 4.167-0.938 5.582-2.398l88.802-88.802 244 245.808c1.34 1.478 3.268 2.402 5.412 2.402 0.066 0 0.132-0.001 0.198-0.003h-0.010c0.023 0 0.051 0 0.078 0 2.178 0 4.14-0.922 5.518-2.396l0.004-0.004 35.2-36.208c1.409-1.519 2.273-3.56 2.273-5.803 0-2.142-0.788-4.1-2.090-5.599l0.009 0.011-267.6-268.8c-5.978-6.111-14.042-10.161-23.037-10.997l-0.147-0.011c-9.306 0.743-17.499 4.979-23.368 11.382l-0.024 0.026z" />
<glyph unicode="&#xe146;" glyph-name="assignees" data-tags="assignees" d="M860.208 140.88v69.456c-0.024 48.658-33.124 89.579-78.035 101.499l-0.733 0.165c-14.729 3.845-25.424 17.031-25.424 32.715 0 3.022 0.397 5.95 1.142 8.737l-0.054-0.236c3.873 14.719 17.062 25.398 32.745 25.398 3.010 0 5.929-0.393 8.707-1.132l-0.236 0.053c75.099-19.825 129.586-87.105 129.68-167.125v-69.515c0-0.010 0-0.021 0-0.032 0-18.716-15.172-33.888-33.888-33.888-0.011 0-0.023 0-0.034 0h0.002c-18.707 0-33.872 15.165-33.872 33.872 0 0.011 0 0.023 0 0.034v-0.002zM651.792 140.88v69.456c-0.082 58.001-47.097 104.995-105.1 105.040h-277.892c-57.997-0.046-105.001-47.044-105.056-105.035v-69.461c0-0.010 0-0.021 0-0.032 0-18.716-15.172-33.888-33.888-33.888-0.006 0-0.011 0-0.017 0h0.001c-18.716 0-33.888 15.172-33.888 33.888 0 0.011 0 0.022 0 0.034v-0.002 69.456c0.136 95.38 77.42 172.664 172.787 172.8h277.885c95.414-0.1 172.741-77.394 172.896-172.785v-69.471c0-0.005 0-0.010 0-0.016 0-18.725-15.179-33.904-33.904-33.904-0.006 0-0.011 0-0.017 0h0.001c-18.673 0.046-33.792 15.193-33.792 33.872 0 0.017 0 0.034 0 0.051v-0.003zM234.912 627.168c0.127 95.383 77.416 172.673 172.788 172.8h0.012c95.42-0.1 172.755-77.39 172.928-172.783v-0.017c-0.182-95.39-77.484-172.664-172.867-172.8h-0.013c-95.408 0.118-172.721 77.425-172.848 172.82v0.012zM302.704 627.168c0.027-58.011 47.033-105.033 105.035-105.088h0.005c58.013 0.064 105.024 47.075 105.088 105.082v0.006c0.001 0.131 0.001 0.287 0.001 0.442 0 28.856-11.752 54.967-30.731 73.808l-0.006 0.006c-18.853 19.023-44.99 30.801-73.878 30.801-0.15 0-0.3 0-0.45-0.001h0.023c-57.994-0.055-104.997-47.035-105.088-105.015v-0.009zM618.080 483.728c-0.667 2.512-1.050 5.397-1.050 8.371 0 15.738 10.723 28.971 25.261 32.793l0.236 0.053c37.224 9.748 65.955 38.485 75.533 74.981l0.163 0.731c2.072 7.802 3.262 16.759 3.262 25.994 0 48.772-33.195 89.792-78.225 101.697l-0.734 0.165c-14.776 3.859-25.505 17.088-25.505 32.822 0 2.982 0.385 5.875 1.109 8.63l-0.053-0.236c3.852 14.777 17.078 25.508 32.811 25.508 2.987 0 5.883-0.387 8.641-1.113l-0.236 0.053c75.311-19.893 129.931-87.41 129.931-167.683 0-15.158-1.948-29.862-5.606-43.873l0.267 1.205c-16.093-61.219-63.361-108.466-123.387-124.259l-1.205-0.269c-2.474-0.661-5.313-1.040-8.242-1.040-0.050 0-0.1 0-0.15 0h0.008c-15.724 0.009-28.944 10.716-32.779 25.235l-0.053 0.237z" />
<glyph unicode="&#xe147;" glyph-name="edit_thin" data-tags="edit_thin" d="M149.056 54.832c-10.883 0.053-20.672 4.688-27.547 12.073l-0.021 0.023c-5.888 6.631-9.484 15.411-9.484 25.032 0 3.591 0.501 7.064 1.437 10.355l-0.065-0.266 48.144 187.872c1.809 6.818 5.227 12.683 9.83 17.383l-0.006-0.007 513.6 513.776c15.991 16.263 38.115 26.453 62.62 26.815l0.068 0.001c1.304 0.072 2.83 0.113 4.366 0.113 23.512 0 44.769-9.656 60.020-25.219l70.254-70.254c18.401-18.844 29.752-44.642 29.752-73.091 0-0.466-0.003-0.931-0.009-1.395l0.001 0.070c-0.397-28.886-12.436-54.884-31.625-73.578l-0.023-0.022-502.624-500.928c-5.198-5.303-12.001-9.016-19.622-10.352l-0.218-0.032-202.032-37.76c-1.76-0.375-3.782-0.591-5.855-0.592h-0.001zM231.2 261.232l-30.784-119.904 130.704 24.272-97.28 98.272zM385.168 218.384l358.4 358-97.968 98.96-358.32-358.064zM797.008 629.76l28.976 28.944c5.756 5.356 9.345 12.975 9.345 21.431 0 7.609-2.906 14.54-7.668 19.743l0.020-0.022-70.048 69.504c-2.039 2.105-4.891 3.411-8.048 3.411-0.231 0-0.46-0.007-0.687-0.021l0.031 0.002c-4.23-0.265-7.989-2.087-10.75-4.894l-39.154-39.122z" />
<glyph unicode="&#xe148;" glyph-name="download" data-tags="download" d="M160 0v86.096h679.568v-86.096zM209.328 470.496l61.648 60.096 210.128-215.296v564.704h86.112v-574.256l219.44 224.832 61.648-60.096-319.488-327.264z" />
<glyph unicode="&#xe149;" glyph-name="current_location" data-tags="current_location" d="M520 600c-88.366 0-160-71.634-160-160s71.634-160 160-160c88.366 0 160 71.634 160 160v0c0 88.366-71.634 160-160 160v0zM877.6 480c-19.212 167.106-150.494 298.388-315.934 317.444l-1.666 0.156v82.4h-80v-82.4c-167.106-19.212-298.388-150.494-317.444-315.934l-0.156-1.666h-82.4v-80h82.4c19.212-167.106 150.494-298.388 315.934-317.444l1.666-0.156v-82.4h80v82.4c167.106 19.212 298.388 150.494 317.444 315.934l0.156 1.666h82.4v80zM520 160c-154.64 0-280 125.36-280 280s125.36 280 280 280c154.64 0 280-125.36 280-280v0c0-0.062 0-0.135 0-0.208 0-154.525-125.267-279.792-279.792-279.792-0.073 0-0.146 0-0.219 0h0.011z" />
<glyph unicode="&#xe14a;" glyph-name="calendar" data-tags="calendar" d="M209.504 32c-0.019 0-0.042 0-0.064 0-53.815 0-97.44 43.625-97.44 97.44 0 0.017 0 0.034 0 0.051v-0.003 571.936c0 0.033 0 0.073 0 0.112 0 53.841 43.647 97.488 97.488 97.488 0.006 0 0.011 0 0.017 0h38.943v64.976h64.976v-64.96h390.208v64.96h64.944v-64.96h39.152c53.733-0.155 97.232-43.749 97.232-97.504 0-0.085 0-0.169 0-0.254v0.013-571.808c-0.009-53.843-43.66-97.488-97.504-97.488v0zM176.976 129.744c0.1-17.902 14.617-32.38 32.525-32.416h598.003c17.917 0.036 32.442 14.51 32.56 32.405v428.907h-663.088zM176.976 701.312v-77.712h663.088v77.952c-0.081 17.946-14.612 32.472-32.553 32.544h-38.951v-64.944h-64.992v64.944h-390.144v-64.944h-64.976v64.64h-38.944c-17.928-0.063-32.446-14.571-32.528-32.488v-0.008zM508.56 266.992v191.152h191.216v-191.152z" />
<glyph unicode="&#xe14b;" glyph-name="repeat_event" data-tags="repeat_event" d="M310.4 656h416v-124.8l166.4 166.4-166.4 166.4v-124.8h-499.2v-249.6h83.2zM726.4 240h-416v124.8l-166.4-166.4 166.4-166.4v124.8h499.2v249.6h-83.2z" />
<glyph unicode="&#xe14c;" glyph-name="location1" data-tags="location" d="M494.224 60.048c-11.024 12.192-270.224 301.584-270.224 508.416-0.001 0.248-0.001 0.542-0.001 0.836 0 81.438 33.135 155.137 86.659 208.35l0.014 0.014c53.191 53.375 126.772 86.401 208.066 86.401 0.23 0 0.46 0 0.69-0.001h0.604c163.051-0.291 295.123-132.515 295.168-295.596v-0.004c0-206.768-259.2-496.176-270.272-508.352l-25.312-28.048zM358.928 729.392c-41.162-40.893-66.64-97.53-66.64-160.118 0-0.155 0-0.31 0-0.466v0.024c0-146.24 163.2-356.576 227.312-433.472 64 76.896 227.312 287.136 227.312 433.088-0.063 125.389-101.585 227.046-226.917 227.328h-0.619c-0.183 0.001-0.4 0.001-0.617 0.001-62.451 0-118.975-25.375-159.824-66.378l-0.007-0.007zM392.080 568.448c0.091 70.381 57.135 127.408 127.514 127.472h0.006c70.378-0.082 127.411-57.098 127.52-127.462v-0.010c-0.1-70.384-57.135-127.413-127.511-127.504h-0.009c-70.43 0.018-127.527 57.081-127.6 127.497v0.007zM460.4 568.448c0-32.695 26.505-59.2 59.2-59.2v0c32.695 0 59.2 26.505 59.2 59.2v0c0 32.695-26.505 59.2-59.2 59.2v0c-32.695 0-59.2-26.505-59.2-59.2v0z" />
<glyph unicode="&#xe14d;" glyph-name="play" data-tags="play" d="M64 440c0.309 242.881 197.119 439.691 439.97 440h0.030c242.892-0.282 439.718-197.108 440-439.973v-0.027c-0.273-242.895-197.105-439.727-439.974-440h-0.026c-242.884 0.3-439.699 197.115-440 439.971v0.029zM107.536 440c0.255-218.881 177.629-396.25 396.488-396.496h0.024c218.862 0.264 396.211 177.629 396.448 396.473v0.023c-0.237 218.87-177.583 396.239-396.421 396.512h-0.027c-218.885-0.255-396.257-177.627-396.512-396.487v-0.025zM382.736 304.896v270.256c0 0.013 0 0.028 0 0.043 0 13.202 10.702 23.904 23.904 23.904 4.362 0 8.451-1.168 11.971-3.209l-0.115 0.061 236.496-135.136c7.239-4.223 12.027-11.953 12.027-20.8s-4.787-16.577-11.913-20.739l-0.114-0.061-236.496-135.12c-3.386-1.996-7.457-3.182-11.803-3.2h-0.005c-13.213 0.055-23.904 10.779-23.904 24 0 0 0 0 0 0v0z" />
<glyph unicode="&#xe14e;" glyph-name="pause" data-tags="pause" d="M64 440c0.282 242.892 197.108 439.718 439.973 440h0.027c242.884-0.3 439.699-197.115 440-439.971v-0.029c-0.3-242.884-197.115-439.699-439.971-440h-0.029c-242.892 0.282-439.718 197.108-440 439.973v0.027zM107.536 440c0.237-218.881 177.602-396.257 396.456-396.512h0.024c218.885 0.246 396.259 177.625 396.496 396.489v0.023c-0.246 218.88-177.616 396.25-396.473 396.496h-0.023c-218.873-0.255-396.234-177.621-396.48-396.472v-0.024zM550.4 272v336h78.144v-336zM379.328 272v336h78.112v-336z" />
<glyph unicode="&#xe14f;" glyph-name="like_thin" data-tags="like_thin" d="M336.288 0c-50.787 0.082-91.939 41.217-92.048 91.99v434.266c0 25.868 10.1 49.376 26.571 66.798l-0.043-0.046 270.88 286.992 24.96-25.168c12.508-13.907 23.984-29.277 33.992-45.643l0.776-1.365 7.808-12.8-63.344-225.088h305.44c43.145-0.243 78.126-34.849 78.975-77.824l0.001-0.080 1.392-100.8-123.2-332.8c-13.729-34.494-46.832-58.432-85.526-58.432-0.015 0-0.029 0-0.044 0h0.002zM320.832 545.84c-4.795-5.058-7.744-11.908-7.744-19.447 0-0.054 0-0.108 0-0.162v0.008-434.24c0-0.019 0-0.042 0-0.064 0-12.786 10.366-23.152 23.152-23.152 0.017 0 0.034 0 0.051 0h386.589c0.040 0 0.087 0 0.135 0 9.605 0 17.836 5.886 21.281 14.247l0.056 0.153 118.4 319.824-1.232 88c-0.108 5.537-4.622 9.984-10.174 9.984-0.006 0-0.013 0-0.019 0h-396.143l74.928 266.608zM96 3.44v532h68.8v-532z" />
<glyph unicode="&#xe150;" glyph-name="pin_thin" data-tags="pin_thin" d="M922.864 625.552l-227.888 227.968c-16.659 16.486-39.582 26.671-64.883 26.671-50.952 0-92.256-41.304-92.256-92.256 0-24.171 9.296-46.172 24.507-62.621l-0.056 0.061-239.728-174.512c-17.237 8.688-37.568 13.775-59.088 13.775-36.809 0-70.142-14.884-94.308-38.963l-89.148-89.148 199.824-197.84-188.048-192.848 47.152-45.824 187.648 192.384 193.968-192 23.216 23.6s72 73.504 75.68 77.92c18.553 21.564 29.851 49.835 29.851 80.744 0 25.158-7.484 48.568-20.348 68.125l0.289-0.468 170.224 239.472c15.735-13.829 36.502-22.267 59.24-22.267 25.194 0 47.968 10.359 64.296 27.051l0.144 0.144c16.636 16.736 26.92 39.803 26.92 65.272 0 25.612-10.399 48.796-27.206 65.558l-0.002 0.002zM376.016 508.512l232.768 169.376 142.576-142.48-167.2-235.056zM569.616 144.768c-3.68-4.144-29.792-30.896-49.776-51.2l-346.576 343.216 42.416 42.416c12.542 11.981 29.574 19.354 48.328 19.354s35.786-7.373 48.355-19.379l-0.027 0.025 244.272-244.128c25.872-21.968 38.56-60.176 12.976-90.272zM876.48 540.992c-4.861-4.814-11.551-7.789-18.936-7.789s-14.075 2.975-18.938 7.791l-227.502 227.438c-4.678 4.824-7.562 11.411-7.562 18.671 0 7.523 3.096 14.324 8.084 19.196l0.005 0.005c4.85 4.794 11.504 7.772 18.854 7.824h0.010c7.118-0.016 13.567-2.871 18.276-7.492l227.692-227.692c4.872-4.858 7.886-11.577 7.886-19s-3.014-14.142-7.885-18.999l-0.001-0.001z" />
<glyph unicode="&#xe151;" glyph-name="bookmark_thin" data-tags="bookmark_thin" d="M854.864 0l-339.36 147.984-339.504-147.984v771.488c0.082 59.897 48.615 108.43 108.504 108.512h461.912c59.884-0.082 108.403-48.623 108.448-108.508v-0.004zM284.512 814.272c-23.598-0.046-42.711-19.181-42.72-42.783v-671.201l273.712 119.36 273.6-119.36v671.2c-0.009 23.603-19.122 42.738-42.716 42.784h-0.004z" />
<glyph unicode="&#xe152;" glyph-name="message_thin" data-tags="message_thin" d="M94.496 3.76c-18.055 7.633-30.495 25.196-30.496 45.664v0 703.232c0.073 70.275 57.009 127.228 127.27 127.328h645.946c70.284-0.1 127.235-57.045 127.344-127.318v-461.242c-0.109-70.283-57.060-127.228-127.334-127.328h-539.066l-149.728-149.6c-8.882-8.963-21.195-14.512-34.804-14.512-0.015 0-0.031 0-0.046 0h0.002c-6.886 0.009-13.445 1.396-19.421 3.9l0.333-0.124zM134.048 752.672v-653.472l134.928 135.008h568.144c31.616 0.036 57.232 25.675 57.232 57.296v0 461.232c0 31.621-25.616 57.26-57.229 57.296h-645.939c-31.581-0.118-57.136-25.747-57.136-57.344 0-0.011 0-0.023 0-0.034v0.002zM293.712 412.896c-19.352 0-35.040 15.688-35.040 35.040 0 0.006 0 0.011 0 0.017v-0.001c0.009 19.328 15.679 34.992 35.008 34.992 0.011 0 0.023 0 0.034 0h225.902c0.009 0 0.021 0 0.032 0 19.332 0 35.006-15.663 35.024-34.99v-0.002c0-19.361-15.695-35.056-35.056-35.056v0zM293.712 574.048c-0.019 0-0.042 0-0.064 0-19.317 0-34.976 15.659-34.976 34.976 0 0.006 0 0.011 0 0.017v-0.001c0 0.009 0 0.021 0 0.032 0 19.343 15.681 35.024 35.024 35.024 0.006 0 0.011 0 0.017 0h451.871c0 0 0 0 0 0 19.326 0 34.992-15.666 34.992-34.992 0-0.023 0-0.045 0-0.067v0.003c0-0.019 0-0.042 0-0.064 0-19.29-15.638-34.928-34.928-34.928-0.023 0-0.045 0-0.068 0h0.004z" />
<glyph unicode="&#xe153;" glyph-name="link_avatar" data-tags="link_avatar" d="M188 440c0.064 68.458 55.542 123.936 123.994 124h160.006v76h-160c-110.457 0-200-89.543-200-200s89.543-200 200-200v0h160v76h-160c-68.458 0.064-123.936 55.542-124 123.994v0.006zM352 400h320v80h-320zM712 640h-160v-76h160c68.483 0 124-55.517 124-124s-55.517-124-124-124v0h-160v-76h160c110.457 0 200 89.543 200 200s-89.543 200-200 200v0z" />
<glyph unicode="&#xe154;" glyph-name="grid_view" data-tags="grid_view" d="M523.728 0v420.256h420.272v-420.256zM602.464 78.752h262.768v262.768h-262.768zM64 0v420.256h420.336v-420.256zM142.736 78.752h262.768v262.768h-262.768zM523.728 459.744v420.256h420.272v-420.288zM602.464 538.512h262.768v262.752h-262.768zM64 459.728v420.272h420.336v-420.288zM142.736 538.496h262.768v262.768h-262.768z" />
<glyph unicode="&#xe155;" glyph-name="list_view" data-tags="list_view" d="M80 174.768c0 0.005 0 0.010 0 0.016 0 44.695 36.233 80.928 80.928 80.928v0c44.695 0 80.928-36.233 80.928-80.928 0-0.006 0-0.011 0-0.017v0.001c0-44.695-36.233-80.928-80.928-80.928v0c-44.695 0-80.928 36.233-80.928 80.928v0zM343.040 126.128v74.672h616.96v-74.672zM80 454.928c0 44.695 36.233 80.928 80.928 80.928v0c44.695 0 80.928-36.233 80.928-80.928v0c0-44.695-36.233-80.928-80.928-80.928v0c-44.69 0-80.919 36.224-80.928 80.911v0.001zM343.040 414v74.672h616.96v-74.672zM80 735.072c0 44.695 36.233 80.928 80.928 80.928v0c44.695 0 80.928-36.233 80.928-80.928v0c0-44.695-36.233-80.928-80.928-80.928v0c-44.695 0-80.928 36.233-80.928 80.928v0zM343.040 701.792v74.672h616.96v-74.672z" />
<glyph unicode="&#xe156;" glyph-name="share" data-tags="share" d="M113.536 54.496c-0.029 0-0.062 0-0.096 0-18.487 0-33.477 14.973-33.504 33.454v112.275c5.306 232.828 195.066 419.6 428.561 420.080h0.047c2.96 0 5.984 0 9.024 0h37.536v178.208c0.138 18.452 15.128 33.357 33.599 33.357 9.512 0 18.102-3.953 24.215-10.306l0.010-0.011 337.888-355.072c5.658-6 9.136-14.11 9.136-23.032s-3.478-17.032-9.151-23.049l0.015 0.017-337.888-354.992c-6.113-6.422-14.726-10.416-24.272-10.416-18.484 0-33.47 14.975-33.488 33.454v178.258c-151.577-3.451-287.596-67.303-385.459-168.334l-0.141-0.146-31.76-33.392c-6.080-6.383-14.645-10.352-24.136-10.352-0.048 0-0.096 0-0.143 0h0.007zM509.248 553.392c-197.142-0.086-357.49-157.496-362.311-353.489l-0.009-0.447v-29.728c109.909 101.416 257.247 163.713 419.131 164.048h22.613c0.029 0 0.062 0 0.096 0 18.487 0 33.477-14.973 33.504-33.454v-128.195l258.144 271.312-258.144 271.392v-128.128c-0.027-18.483-15.017-33.456-33.504-33.456-0.034 0-0.068 0-0.101 0h-71.771c-2.512 0.080-5.056 0.144-7.664 0.144z" />
<glyph unicode="&#xe157;" glyph-name="note" data-tags="note" d="M207.328 0c-0.005 0-0.010 0-0.016 0-17.302 0-31.328 14.026-31.328 31.328 0 0.006 0 0.011 0 0.017v-0.001 613.168c0.037 4.439 1.012 8.642 2.734 12.432l-0.078-0.192v0.208c1.643 3.725 3.841 6.907 6.529 9.601l204.143 204.223c5.681 5.629 13.496 9.114 22.124 9.136h419.556c0.010 0 0.021 0 0.032 0 17.273 0 31.278-13.993 31.296-31.262v-0.002l0.144-817.392c-0.024-8.647-3.542-16.467-9.215-22.127l-0.001-0.001c-5.655-5.684-13.479-9.205-22.126-9.216h-0.002zM238.608 62.608h561.28l-0.128 754.784h-349.904v-172.8c0-0.024 0-0.052 0-0.080 0-17.267-13.997-31.264-31.264-31.264 0 0 0 0 0 0h-180zM282.976 675.904h104.288v104.288zM314.176 207.84c-16.685 0.018-30.206 13.539-30.224 30.222v0.002c0.027 16.681 13.543 30.197 30.221 30.224h211.859c16.685-0.018 30.206-13.539 30.224-30.222v-0.002c-0.018-16.685-13.539-30.206-30.222-30.224h-0.002zM314.176 329.44c-16.676 0.027-30.188 13.534-30.224 30.204v0.004c0.018 16.685 13.539 30.206 30.222 30.224h318.626c16.692-0.009 30.222-13.533 30.24-30.222v-0.002c-0.036-16.68-13.557-30.19-30.238-30.208h-0.002zM314.176 451.040c-16.685 0.018-30.206 13.539-30.224 30.222v0.002c0.018 16.685 13.539 30.206 30.222 30.224h406.93c16.685-0.018 30.206-13.539 30.224-30.222v-0.002c-0.018-16.685-13.539-30.206-30.222-30.224h-0.002z" />
<glyph unicode="&#xe158;" glyph-name="send" data-tags="send" d="M112 68.608l800 381.696-800 381.696v-331.2l571.424-50.448-571.424-84.88z" />
<glyph unicode="&#xe159;" glyph-name="copy" data-tags="copy" d="M185.056 701.888h-73.056v-584.464c0.127-40.297 32.76-72.929 73.044-73.056h584.476v73.056h-584.464zM842.576 848h-511.376c-40.297-0.127-72.929-32.76-73.056-73.044v-511.42c0.127-40.297 32.76-72.929 73.044-73.056h511.388c40.297 0.127 72.929 32.76 73.056 73.044v511.42c-0.127 40.297-32.76 72.929-73.044 73.056h-0.012zM842.576 263.536h-511.376v511.408h511.376z" />
<glyph unicode="&#xe15a;" glyph-name="conference" data-tags="conference" d="M242.192 149.776c16.149 12.944 26.4 32.668 26.4 54.787 0 0.016 0 0.032 0 0.048v-0.002c0 39.252-31.82 71.072-71.072 71.072s-71.072-31.82-71.072-71.072v0c0-0.013 0-0.029 0-0.045 0-22.118 10.251-41.842 26.262-54.68l0.138-0.107c-33.129-10.654-56.708-41.139-56.848-77.151v-20.321c0-11.214 9.090-20.304 20.304-20.304v0h162.448c11.214 0 20.304 9.090 20.304 20.304v0 20.304c-0.14 36.029-23.719 66.514-56.273 77.008l-0.575 0.16zM871.136 149.776c16.149 12.944 26.4 32.668 26.4 54.787 0 0.016 0 0.032 0 0.048v-0.002c0 39.252-31.82 71.072-71.072 71.072s-71.072-31.82-71.072-71.072v0c0-0.013 0-0.029 0-0.045 0-22.118 10.251-41.842 26.262-54.68l0.138-0.107c-33.129-10.654-56.708-41.139-56.848-77.151v-20.321c0-11.214 9.090-20.304 20.304-20.304v0h162.448c11.214 0 20.304 9.090 20.304 20.304v0 20.304c-0.143 36.033-23.728 66.519-56.289 77.008l-0.575 0.16zM430.784 620.336h162.448c11.214 0 20.304 9.090 20.304 20.304v0 20.304c-0.14 36.029-23.719 66.514-56.273 77.008l-0.575 0.16c16.149 12.944 26.4 32.668 26.4 54.787 0 0.016 0 0.032 0 0.048v-0.002c0 39.252-31.82 71.072-71.072 71.072s-71.072-31.82-71.072-71.072v0c0-0.013 0-0.029 0-0.045 0-22.118 10.251-41.842 26.262-54.68l0.138-0.107c-33.136-10.649-56.721-41.135-56.864-77.151v-20.321c0-11.214 9.090-20.304 20.304-20.304v0zM162.592 336.048h3.648c9.588 1.744 16.762 10.031 16.762 19.993 0 1.258-0.114 2.489-0.333 3.684l0.019-0.124c-3.417 17.281-5.411 37.183-5.488 57.537v0.063c0 0.033 0 0.071 0 0.11 0 123.487 68.889 230.883 170.332 285.856l1.716 0.85c6.964 3.318 11.691 10.3 11.691 18.387 0 11.214-9.090 20.304-20.304 20.304-3.916 0-7.573-1.108-10.674-3.029l0.087 0.050c-115.983-62.81-193.431-183.583-193.44-322.447v-0.001c0.098-22.895 2.313-45.208 6.456-66.836l-0.36 2.26c1.783-9.508 10-16.613 19.883-16.656h0.005zM674.784 698.032c103.123-55.825 171.984-163.197 171.984-286.653 0-0.040 0-0.081 0-0.121v0.006c-0.099-20.312-2.092-40.095-5.811-59.262l0.323 1.998c-0.252-1.2-0.396-2.58-0.396-3.993 0-9.991 7.217-18.297 16.722-19.989l0.123-0.018h3.648c0.098-0.002 0.214-0.003 0.33-0.003 9.925 0 18.187 7.121 19.954 16.533l0.020 0.126c3.614 19.18 5.681 41.244 5.681 63.792 0 0.276 0 0.551-0.001 0.827v-0.042c0 0.018 0 0.039 0 0.061 0 138.868-77.451 259.646-191.512 321.495l-1.928 0.956c-2.523 1.21-5.486 1.917-8.613 1.917-11.214 0-20.304-9.090-20.304-20.304 0-7.298 3.85-13.696 9.63-17.275l0.087-0.050zM645.792 101.648c-39.312-18.215-85.323-28.839-133.816-28.839s-94.504 10.624-135.833 29.673l2.017-0.834c-2.153 0.848-4.646 1.34-7.255 1.34-11.214 0-20.304-9.090-20.304-20.304 0-7.777 4.372-14.533 10.793-17.943l0.11-0.053c44.174-20.642 95.913-32.686 150.464-32.686s106.29 12.045 152.701 33.62l-2.237-0.933c6.53 3.464 10.903 10.219 10.903 17.996 0 11.214-9.090 20.304-20.304 20.304-2.608 0-5.102-0.492-7.393-1.388l0.138 0.048z" />
<glyph unicode="&#xe15b;" glyph-name="msg_deleted" data-tags="msg_deleted" d="M940.368 514.832c-33.943 208.023-212.339 364.863-427.366 364.863-238.985 0-432.72-193.735-432.72-432.72 0-238.633 193.165-432.149 431.664-432.719h0.054c24.229 0.010 47.991 1.976 71.147 5.749l-2.539-0.341c208.137 33.89 365.085 212.358 365.085 427.484 0 23.896-1.936 47.339-5.661 70.182l0.336-2.498zM570.608 82.832c-17.359-2.895-37.36-4.549-57.748-4.549-203.683 0-368.8 165.117-368.8 368.8 0 81.493 26.432 156.813 71.19 217.854l-0.722-1.033c8.137 11.108 16.037 20.795 24.392 30.062l-0.296-0.334 525.584-516.416c-51.781-48.526-117.991-82.238-191.523-94.043l-2.093-0.277zM811.264 230.304c-1.36-1.872-2.944-3.536-4.336-5.392l-521.472 512.416c47.112 37.354 104.688 63.58 167.639 73.767l2.105 0.281c17.577 2.94 37.832 4.622 58.478 4.624h0.002c203.347-0.478 368.007-165.434 368.007-368.847 0-81.462-26.408-156.755-71.13-217.787l0.723 1.035z" />
<glyph unicode="&#xe15c;" glyph-name="empty_img" data-tags="empty_img" d="M80 227.504l218.64 277.088 155.952-185.92 218.64 277.808 281.312-368.976zM430 607.264c0.812 35.68 29.929 64.294 65.728 64.294s64.916-28.614 65.727-64.218l0.001-0.075c-0.812-35.68-29.929-64.294-65.728-64.294s-64.916 28.614-65.727 64.218l-0.001 0.075z" />
<glyph unicode="&#xe15d;" glyph-name="empty_video" data-tags="empty_video" d="M862.736 620.32l-156.048-169.216 156.048-169.216zM243.68 688h372.32c37.379 0 67.68-30.301 67.68-67.68v0-338.448c0-37.379-30.301-67.68-67.68-67.68h-372.32c-37.379 0-67.68 30.301-67.68 67.68v0 338.448c0 37.379 30.301 67.68 67.68 67.68v0z" />
<glyph unicode="&#xe15e;" glyph-name="share_filled" data-tags="share_filled" d="M793.024 462.496l-229.824 241.504v-144.080h-48.864c-151.52 0-274.336-117.712-274.336-262.896v-76.352l21.696 22.8c72.381 75.018 173.8 121.603 286.1 121.603 0.55 0 1.099-0.001 1.649-0.003h13.755v-144.080z" />
<glyph unicode="&#xe15f;" glyph-name="delete_filled" data-tags="delete_filled" d="M348.16 235.136c0.091-31.068 25.252-56.229 56.311-56.32h225.257c31.068 0.091 56.229 25.252 56.32 56.311v337.897h-337.888zM714.192 674.608h-98.544l-28.16 28.16h-140.8l-28.16-28.16h-98.528v-56.32h394.192z" />
<glyph unicode="&#xe160;" glyph-name="attach_doc" data-tags="attach_doc" d="M791.408 47.392h-566.992c-26.722 0.036-48.373 21.693-48.4 48.413v703.763c0.036 26.716 21.684 48.364 48.397 48.4h389.491c2.060-0.088 3.989-0.288 5.881-0.598l-0.281 0.038c1.232-0.144 2.512-0.128 3.744-0.368 2.674-0.602 4.957-1.311 7.161-2.178l-0.329 0.114c0.704-0.24 1.44-0.368 2.112-0.64 6.225-2.552 11.542-6.119 16.003-10.547l178.733-178.733c8.757-8.717 14.176-20.781 14.176-34.111 0-0.040 0-0.079 0-0.119v0.006-524.832c0-0.061 0-0.132 0-0.204 0-26.151-20.74-47.458-46.669-48.37l-0.083-0.002-1.472-0.16zM224 96l568.672-0.608 0.384 501.456h-154.88c-26.723 0.027-48.38 21.678-48.416 48.397v154.643l-365.36 0.112zM637.776 645.248l131.2-0.304-131.2 131.2zM320.976 257.040c-0.015 0.318-0.023 0.69-0.023 1.065 0 13.108 10.322 23.804 23.281 24.405l0.054 0.002c0.704 0 1.424 0 2.144 0h323.968c13.011-0.595 23.334-11.288 23.334-24.392s-10.323-23.797-23.28-24.39l-0.053-0.002h-325.12c-13.081 0.012-23.753 10.31-24.366 23.241l-0.002 0.055zM320.976 354.64c-0.015 0.318-0.023 0.69-0.023 1.065 0 13.108 10.322 23.804 23.281 24.405l0.054 0.002c0.704 0 1.424 0 2.144 0h323.968c0.275 0.011 0.598 0.017 0.923 0.017 13.485 0 24.416-10.931 24.416-24.416 0-13.055-10.246-23.717-23.136-24.383l-0.059-0.002c-0.72 0-1.44 0-2.144 0h-325.12c-13.081 0.012-23.753 10.31-24.366 23.241l-0.002 0.055zM320.976 452.24c-0.015 0.322-0.024 0.7-0.024 1.080 0 13.105 10.324 23.798 23.283 24.39l0.053 0.002c0.704 0 1.424 0 2.144 0h323.968c13.011-0.595 23.334-11.288 23.334-24.392s-10.323-23.797-23.28-24.39l-0.053-0.002h-325.12c-13.065 0.011-23.728 10.282-24.366 23.191l-0.002 0.057zM464 526.4h-117.584c-0.128-0.002-0.279-0.004-0.43-0.004-13.485 0-24.416 10.931-24.416 24.416 0 12.882 9.976 23.433 22.623 24.351l0.079 0.005c0.32 0.021 0.695 0.033 1.072 0.033s0.752-0.012 1.123-0.035l-0.051 0.003h117.584c0.513 0.038 1.111 0.060 1.714 0.060 13.485 0 24.416-10.931 24.416-24.416 0-13.333-10.687-24.17-23.963-24.412h-1.095z" />
<glyph unicode="&#xe161;" glyph-name="attach_pdf" data-tags="attach_pdf" d="M807.44 47.392h-567.024c-26.725 0.036-48.38 21.691-48.416 48.412v703.764c0.036 26.722 21.693 48.373 48.413 48.4h389.475c2.067-0.089 4.001-0.289 5.899-0.598l-0.283 0.038c1.232-0.144 2.528-0.128 3.744-0.368 2.677-0.605 4.96-1.314 7.165-2.179l-0.333 0.115c0.688-0.24 1.424-0.368 2.096-0.64 6.228-2.544 11.546-6.112 16.002-10.546l178.734-178.734c8.757-8.72 14.176-20.786 14.176-34.118 0-0.037 0-0.075 0-0.112v0.006-524.832c0-0.050 0-0.11 0-0.169 0-26.206-20.806-47.552-46.801-48.421l-0.080-0.002-1.456-0.128zM240 96l568.688-0.608 0.384 501.456h-154.88c-26.72 0.027-48.373 21.68-48.4 48.397v154.643l-365.376 0.112zM653.792 645.248l131.2-0.304-131.2 131.2zM373.072 195.952c-6.626 0.001-12.743 2.175-17.679 5.848l0.079-0.056c-11.814 7.504-19.54 20.52-19.54 35.34 0 1.365 0.066 2.714 0.194 4.045l-0.013-0.169c3.040 27.2 35.408 55.168 96.192 83.2 21.654 46.654 41.785 102.336 57.224 159.937l1.704 7.471c-13.709 23.221-21.808 51.167-21.808 81.004 0 9.154 0.762 18.131 2.227 26.869l-0.131-0.945c3.094 10.319 10.613 18.451 20.296 22.318l0.232 0.082c5.084 1.531 11 2.608 17.1 3.011l0.244 0.013c9.408 0 16.592-9.296 21.824-16.128l1.6-2.080c5.76-7.312 16.256-20.672-4.8-110.208 21.83-44.449 47.909-82.718 78.577-116.773l-0.401 0.453c15.395 3.039 33.284 4.972 51.554 5.354l0.334 0.006c26.736 0 42.992-6.512 49.808-19.936 1.821-4.182 2.88-9.054 2.88-14.174 0-9.568-3.7-18.273-9.748-24.76l0.020 0.022c-8.325-12.269-22.207-20.224-37.947-20.224-0.013 0-0.026 0-0.039 0h0.002c-27.402 3.479-51.227 16.614-68.386 35.829l-0.094 0.107c-52.133-11.66-97.514-26.707-140.791-45.669l4.887 1.909c-11.872-25.774-24.413-47.695-38.61-68.39l1.010 1.558c-17.76-24.224-32.48-34.976-47.808-34.976zM370.784 237.408c0-0.832 0-2.688 3.456-5.856 12.715 10.517 23.015 23.467 30.274 38.187l0.302 0.677c-23.824-15.104-33.328-26.96-34.016-33.024zM661.040 349.92c-6.096 0-12.256-0.256-18.368-0.752 0.224-0.224 0.448-0.384 0.672-0.576 6.832-5.68 9.184-7.472 13.856-7.472 0.622-0.068 1.344-0.106 2.075-0.106 5.599 0 10.668 2.266 14.341 5.931v0c0.352 0.528 0.752 1.12 1.136 1.792-3.29 0.788-7.068 1.239-10.951 1.239-0.69 0-1.376-0.014-2.059-0.042l0.098 0.003zM478.48 343.52c23.332 9.171 52.987 18.584 83.327 26.276l5.569 1.196c-18.458 22.217-35.792 46.938-51.040 73.025l-1.408 2.607c-10.464-34.736-22.688-69.328-36.528-103.040zM504.448 548.128c2.399 5.279 3.798 11.448 3.798 17.943 0 6.768-1.518 13.181-4.232 18.918l0.115-0.269c-3.237-5.114-5.158-11.339-5.158-18.012 0-6.883 2.044-13.29 5.557-18.645l-0.080 0.129z" />
<glyph unicode="&#xe162;" glyph-name="attach_audio" data-tags="attach_audio" d="M807.424 47.392h-566.992c-26.725 0.036-48.38 21.691-48.416 48.412v703.764c0.036 26.722 21.693 48.373 48.413 48.4h389.475c2.067-0.089 4.001-0.289 5.899-0.598l-0.283 0.038c1.232-0.144 2.512-0.128 3.744-0.368 2.681-0.608 4.963-1.317 7.169-2.18l-0.337 0.116c0.688-0.24 1.424-0.368 2.096-0.64 6.229-2.543 11.547-6.111 16.002-10.546l178.75-178.734c8.757-8.72 14.176-20.786 14.176-34.118 0-0.037 0-0.075 0-0.112v0.006-524.832c0-0.047 0-0.103 0-0.158 0-26.155-20.726-47.469-46.65-48.415l-0.086-0.002-1.488-0.16zM240 96l568.688-0.608 0.368 501.456h-154.864c-26.723 0.027-48.38 21.678-48.416 48.397v154.643l-365.36 0.112zM653.776 645.248l131.2-0.304-131.2 131.2zM340.4 254.512c-6.816 25.088 16.496 53.072 51.872 62.848 6.743 1.948 14.489 3.068 22.496 3.068s15.753-1.12 23.088-3.213l-0.592 0.145v194.24l176.352 61.328v-224c0.015-0.533 0.023-1.16 0.023-1.79 0-31.401-20.901-57.921-49.549-66.406l-0.49-0.124c-6.902-3.052-14.952-4.828-23.417-4.828-23.223 0-43.323 13.372-53.020 32.837l-0.155 0.344c-6.816 25.2 16.496 53.424 51.952 62.992 6.743 1.948 14.489 3.068 22.496 3.068s15.753-1.12 23.088-3.213l-0.592 0.145v117.008l-116.944-40.688v-153.872c0.015-0.535 0.023-1.165 0.023-1.796 0-31.413-20.916-57.94-49.581-66.416l-0.49-0.124c-6.872-3.022-14.884-4.781-23.306-4.781-23.274 0-43.41 13.43-53.083 32.963l-0.155 0.346z" />
<glyph unicode="&#xe163;" glyph-name="attach_zip" data-tags="attach_zip" d="M807.408 47.392h-566.992c-26.732 0.027-48.396 21.686-48.432 48.413v703.763c0.045 26.723 21.706 48.373 48.429 48.4h389.491c2.054-0.088 3.977-0.288 5.864-0.598l-0.28 0.038c1.248-0.144 2.528-0.128 3.744-0.368 2.679-0.607 4.962-1.316 7.167-2.18l-0.335 0.116c0.688-0.24 1.424-0.368 2.080-0.64 6.231-2.536 11.551-6.105 16.001-10.545l178.751-178.735c8.767-8.721 14.192-20.794 14.192-34.134 0-0.032 0-0.063 0-0.095v0.005-524.832c0-0.051 0-0.112 0-0.173 0-26.163-20.746-47.481-46.684-48.401l-0.084-0.002-1.472-0.16zM240 96l568.672-0.608 0.4 501.456h-154.88c-26.72 0.027-48.373 21.68-48.4 48.397v154.643l-365.376 0.112zM653.776 645.248l131.2-0.304-131.2 131.2zM597.472 279.568v182.56h71.536c1.454 0.108 3.15 0.17 4.86 0.17 17.090 0 32.739-6.168 44.842-16.399l-0.103 0.085c10.57-10.369 17.122-24.802 17.122-40.764 0-0.964-0.024-1.922-0.071-2.873l0.005 0.134c0.006-0.326 0.010-0.711 0.010-1.097 0-10.762-2.828-20.863-7.782-29.601l0.156 0.298c-5.361-9.050-13.063-16.213-22.282-20.773l-0.31-0.139c-9.988-4.828-21.721-7.649-34.112-7.649-0.81 0-1.617 0.012-2.422 0.036l0.118-0.003h-27.44v-64zM641.632 379.008h22.4q26.592 0 26.592 23.504 0 24-26.592 24h-22.4zM496.512 279.584v182.56h44.144v-182.56zM313.424 279.584v33.6l79.28 113.6h-78.256v35.376h128.080v-33.6l-80-113.36h80.576v-35.648zM324.512 585.088v20.608h49.952v-20.608zM274.56 618.208v20.592h49.952v-20.592zM324.512 650.208v20.608h49.952v-20.608zM274.56 683.936v20.608h49.952v-20.608zM324.512 714.8v20.608h49.952v-20.608zM274.56 747.92v15.424h49.952v-15.424z" />
</font>
</defs>
</svg>
