<svg xmlns="http://www.w3.org/2000/svg" xmlns:xlink="http://www.w3.org/1999/xlink" width="88.053" height="88.053" viewBox="0 0 88.053 88.053"><defs><style>.a{fill:#4179f9;}.b{fill:none;}.c{fill:#fff;}.d{filter:url(#a);}</style><filter id="a" x="0" y="0" width="88.053" height="88.053" filterUnits="userSpaceOnUse"><feOffset input="SourceAlpha"/><feGaussianBlur stdDeviation="3" result="b"/><feFlood flood-opacity="0.122"/><feComposite operator="in" in2="b"/><feComposite in="SourceGraphic"/></filter></defs><g transform="translate(8.668 8.586)"><g transform="translate(0.332 0.414)"><g class="d" transform="matrix(1, 0, 0, 1, -9, -9)"><circle class="a" cx="35.026" cy="35.026" r="35.026" transform="translate(9 9)"/></g><circle class="a" cx="35.026" cy="35.026" r="35.026"/></g><g transform="translate(16.142 16.223)"><path class="b" d="M0,0H37.707V37.707H0Z" transform="translate(0)"/><path class="c" d="M5.656,12.255a24.46,24.46,0,0,0,10.37,10.37l3.457-3.457a1.251,1.251,0,0,1,1.571-.314,16.434,16.434,0,0,0,5.656.943,1.574,1.574,0,0,1,1.571,1.571v5.342a1.69,1.69,0,0,1-1.571,1.571A26.687,26.687,0,0,1,0,1.571,1.574,1.574,0,0,1,1.571,0h5.5A1.574,1.574,0,0,1,8.641,1.571a17.793,17.793,0,0,0,.943,5.656A1.935,1.935,0,0,1,9.27,8.8Z" transform="translate(4.713 4.713)"/></g></g></svg>