<svg xmlns="http://www.w3.org/2000/svg" width="10.603" height="10.513" viewBox="0 0 10.603 10.513">
  <path id="call_cancel" d="M5.028,8.742A10.033,10.033,0,0,1,2.082,1.883a.6.6,0,0,1,.174-.425.591.591,0,0,1,.419-.172l2.075,0a.595.595,0,0,1,.595.587,6.782,6.782,0,0,0,.339,1.894.6.6,0,0,1-.142.611l-1.3,1.3A8.811,8.811,0,0,0,5.866,7.9,8.891,8.891,0,0,0,8.09,9.529l1.3-1.3A.6.6,0,0,1,10,8.086a6.877,6.877,0,0,0,1.894.339.6.6,0,0,1,.412.174.594.594,0,0,1,.175.421l0,2.075a.574.574,0,0,1-.172.418.587.587,0,0,1-.42.175A10.034,10.034,0,0,1,5.028,8.742Zm5.063-4.41L8.059,6.363,7.5,5.8,9.528,3.769,7.5,1.738l.562-.562,2.031,2.031,2.031-2.031.563.563L10.653,3.769,12.685,5.8l-.562.563Z" transform="translate(-2.082 -1.175)" fill="#707070"/>
</svg>
