<svg xmlns="http://www.w3.org/2000/svg" width="14.079" height="9.673" viewBox="0 0 14.079 9.673">
  <g id="incoming_video_call" transform="translate(509.432 -945.5)">
    <path id="Path_2528" data-name="Path 2528" d="M13.168,6H3.782A.784.784,0,0,0,3,6.782V14.6a.784.784,0,0,0,.782.782h9.386a.784.784,0,0,0,.782-.782V11.866L17.079,15v-8.6L13.951,9.52V6.782A.784.784,0,0,0,13.168,6Z" transform="translate(-512.432 939.5)" fill="#707070"/>
    <path id="Path_2529" data-name="Path 2529" d="M5.022,4.407,3.315,6.131V0H2.436V6.132L.729,4.407,0,5.007,2.876,7.912,5.752,5.007Z" transform="translate(-509.094 949.578) rotate(-45)" fill="#fff"/>
  </g>
</svg>
