<svg class="ldi-dbwh9z" width="210px"  height="210px"  xmlns="http://www.w3.org/2000/svg" xmlns:xlink="http://www.w3.org/1999/xlink" viewBox="0 0 100 100" preserveAspectRatio="xMidYMid" style="background: none;"><!--?xml version="1.0" encoding="utf-8"?--><!--Generator: Adobe Illustrator 21.0.0, SVG Export Plug-In . SVG Version: 6.00 Build 0)--><svg version="1.1" id="Layer_1" xmlns="http://www.w3.org/2000/svg" xmlns:xlink="http://www.w3.org/1999/xlink" x="0px" y="0px" viewBox="0 0 100 100" style="transform-origin: 50px 50px 0px;" xml:space="preserve"><g style="transform-origin: 50px 50px 0px;"><g style="transform-origin: 50px 50px 0px; transform: scale(1);"><g class="" style="transform-origin: 50px 50px 0px; animation-duration: 1s; animation-delay: -1s; animation-direction: normal;"><g><style type="text/css" style="transform-origin: 50px 50px 0px; animation-duration: 1s; animation-delay: -1s; animation-direction: normal;" class="ld ld-breath">.st0{fill:#F4E6C8;} .st1{fill:#333333;} .st2{fill:#E0E0E0;} .st3{fill:#E15C64;} .st4{fill:#C33837;} .st5{fill:#D65A62;} .st6{fill:none;} .st7{fill:#F7B26A;} .st8{fill:#F47E5F;} .st9{opacity:0.2;fill:#353035;} .st10{fill:#666766;} .st11{fill:#A0C8D7;} .st12{fill:#77A4BD;} .st13{fill:#ACBD81;} .st14{fill:#FFFFFF;} .st15{fill:#849B87;} .st16{fill:none;stroke:#E0E0E0;stroke-width:4;stroke-miterlimit:10;} .st17{fill:none;stroke:#333333;stroke-width:4;stroke-miterlimit:10;} .st18{fill:#FFFFFF;stroke:#333333;stroke-width:4;stroke-miterlimit:10;} .st19{fill:none;stroke:#000000;stroke-width:4;stroke-miterlimit:10;} .st20{fill:#FFFFFF;stroke:#000000;stroke-width:4;stroke-miterlimit:10;} .st21{fill:#010101;} .st22{fill:#A5A6A6;} .st23{fill:#666666;} .st24{fill:#F3E4C7;} .st25{fill:none;stroke:#FFFFFF;stroke-linecap:round;stroke-miterlimit:10;} .st26{fill:#353035;} .st27{fill:#B93A38;} .st28{fill:#EA7C60;} .st29{fill:#E0E0E0;stroke:#F7B26A;stroke-width:8;stroke-miterlimit:10;} .st30{fill:none;stroke:#F7B26A;stroke-width:10;stroke-linecap:round;stroke-miterlimit:10;} .st31{fill:none;stroke:#010101;stroke-width:8;stroke-miterlimit:10;} .st32{fill:#F0AF6B;stroke:#010101;stroke-width:8;stroke-miterlimit:10;} .st33{fill:#829985;} .st34{fill:#A8B980;} .st35{fill:#F0AF6B;} .st36{fill:#4A3827;} .st37{fill:#332518;} .st38{fill:#E6E6E6;}</style><g style="transform-origin: 50px 50px 0px; animation-duration: 1s; animation-delay: -0.9375s; animation-direction: normal;" class="ld ld-breath"><path class="st5" d="M26.4,23.3l-4.8-2.7c-0.8-0.5-1.9-0.2-2.4,0.6l0,0c-0.5,0.8-0.2,1.9,0.6,2.4l4.7,2.7c0.5,0.3,1.1,0.1,1.4-0.4 c0.2-0.4,0.4-0.8,0.7-1.1C27,24.2,26.9,23.6,26.4,23.3z" fill="#f47909" style="fill: rgb(244, 121, 9);"></path></g><g style="transform-origin: 50px 50px 0px; animation-duration: 1s; animation-delay: -0.875s; animation-direction: normal;" class="ld ld-breath"><path class="st5" d="M31.1,19.7c0.3-0.3,0.7-0.6,1-0.8c0.5-0.4,0.6-1,0.2-1.5l-3.5-4.2c-0.6-0.7-1.7-0.8-2.4-0.2l0,0 c-0.7,0.6-0.8,1.7-0.2,2.4l3.5,4.2C30,20,30.6,20.1,31.1,19.7z" fill="#f47909" style="fill: rgb(244, 121, 9);"></path></g><g style="transform-origin: 50px 50px 0px; animation-duration: 1s; animation-delay: -0.8125s; animation-direction: normal;" class="ld ld-breath"><path class="st5" d="M37.9,15.6c0.4-0.2,0.8-0.3,1.2-0.4c0.6-0.2,0.9-0.8,0.7-1.3L38,8.6c-0.3-0.9-1.3-1.4-2.2-1l0,0 c-0.9,0.3-1.4,1.3-1,2.2l1.9,5.1C36.8,15.5,37.4,15.8,37.9,15.6z" fill="#f47909" style="fill: rgb(244, 121, 9);"></path></g><g style="transform-origin: 50px 50px 0px; animation-duration: 1s; animation-delay: -0.75s; animation-direction: normal;" class="ld ld-breath"><path class="st2" d="M53.3,22.3h-0.8v7.4c-0.8-0.2-1.6-0.4-2.4-0.4h-0.1c-0.8,0-1.7,0.1-2.4,0.4v-7.4h-0.8 c-8.2,0-14.9,6.7-14.9,14.9v7h10.2v5H31.8v20.2c0,9.8,8,18,17.8,18.2l0.3,0h0c4.8,0,9.4-2,12.8-5.5c3.5-3.6,5.4-8.2,5.4-13.1V49.2 H57.9v-5h10.2v-7C68.2,29,61.5,22.3,53.3,22.3z M55,51.6c0,2.7-2.2,5-5,5h-0.1c-2.7,0-5-2.2-5-5V37.3c0-2.7,2.2-5,5-5H50 c2.7,0,5,2.2,5,5V51.6z" fill="#ffffff" style="fill: rgb(255, 255, 255);"></path></g><g style="transform-origin: 50px 50px 0px; animation-duration: 1s; animation-delay: -0.6875s; animation-direction: normal;" class="ld ld-breath"><path class="st26" d="M50,32.3h-0.1c-2.7,0-5,2.2-5,5v14.4c0,2.7,2.2,5,5,5H50c2.7,0,5-2.2,5-5V37.3C55,34.5,52.8,32.3,50,32.3z" fill="#10a4e3" style="fill: rgb(16, 164, 227);"></path></g><g style="transform-origin: 50px 50px 0px; animation-duration: 1s; animation-delay: -0.625s; animation-direction: normal;" class="ld ld-breath"><path class="st21" d="M53.3,17.4h-0.8h-5h-0.8c-10.9,0-19.8,8.9-19.8,19.8v12v20.2c0,12.5,10.2,22.9,22.7,23.1l0.4,0c0,0,0,0,0,0 c6.2,0,12-2.5,16.4-7c4.4-4.5,6.8-10.4,6.8-16.6V49.2v-12C73.1,26.3,64.2,17.4,53.3,17.4z M68.2,44.2H57.9v5h10.2v19.8 c0,4.9-1.9,9.6-5.4,13.1c-3.5,3.6-8,5.5-12.8,5.5h0l-0.3,0c-9.8-0.2-17.8-8.3-17.8-18.2V49.2h10.2v-5H31.8v-7 c0-8.2,6.7-14.9,14.9-14.9h0.8v7.4c0.8-0.2,1.6-0.4,2.4-0.4H50c0.8,0,1.7,0.1,2.4,0.4v-7.4h0.8c8.2,0,14.9,6.7,14.9,14.9V44.2z" fill="#f47909" style="fill: rgb(244, 121, 9);"></path></g><metadata xmlns:d="https://loading.io/stock/" style="transform-origin: 50px 50px 0px; animation-duration: 1s; animation-delay: -0.5625s; animation-direction: normal;" class="ld ld-breath">
<d:name style="transform-origin: 50px 50px 0px; animation-duration: 1s; animation-delay: -0.5s; animation-direction: normal;" class="ld ld-breath">left click</d:name>
<d:tags style="transform-origin: 50px 50px 0px; animation-duration: 1s; animation-delay: -0.4375s; animation-direction: normal;" class="ld ld-breath">control,move,input,wheel,scroll,left click,web application</d:tags>
<d:license style="transform-origin: 50px 50px 0px; animation-duration: 1s; animation-delay: -0.375s; animation-direction: normal;" class="ld ld-breath">rf</d:license>
<d:slug style="transform-origin: 50px 50px 0px; animation-duration: 1s; animation-delay: -0.3125s; animation-direction: normal;" class="ld ld-breath">dbwh9z</d:slug>
</metadata></g></g></g></g><style type="text/css" style="transform-origin: 50px 50px 0px; animation-duration: 1s; animation-delay: -0.25s; animation-direction: normal;" class="ld ld-breath">@keyframes ld-breath {
  0% {
    -webkit-transform: scale(0.86);
    transform: scale(0.86);
  }
  50% {
    -webkit-transform: scale(1.06);
    transform: scale(1.06);
  }
  100% {
    -webkit-transform: scale(0.86);
    transform: scale(0.86);
  }
}
@-webkit-keyframes ld-breath {
  0% {
    -webkit-transform: scale(0.86);
    transform: scale(0.86);
  }
  50% {
    -webkit-transform: scale(1.06);
    transform: scale(1.06);
  }
  100% {
    -webkit-transform: scale(0.86);
    transform: scale(0.86);
  }
}
.ld.ld-breath {
  -webkit-animation: ld-breath 1s infinite;
  animation: ld-breath 1s infinite;
}
</style></svg></svg>