<svg xmlns="http://www.w3.org/2000/svg" width="20.668" height="21.936" viewBox="0 0 20.668 21.936"><g transform="translate(-297.97 -301.804)"><g transform="translate(297.545 301)"><g transform="translate(0 0)"><path d="M455.739,377.274a1.764,1.764,0,0,1,.454,0,1.554,1.554,0,0,0,.022-.861c-.109-.522-.257-.838-.562-.789s-.316.427-.207.949A1.763,1.763,0,0,0,455.739,377.274Z" transform="translate(-440.192 -366.908)"/><path d="M421.233,388.381c.218.1.352.159.4.1.034-.035.024-.1-.028-.186a1.283,1.283,0,0,0-.564-.454,1.539,1.539,0,0,0-1.5.18c-.146.107-.284.255-.265.345.006.029.028.051.08.058a9.314,9.314,0,0,1,1.026-.229A1.786,1.786,0,0,1,421.233,388.381Z" transform="translate(-408.305 -377.602)"/><path d="M427.086,395.42a1.03,1.03,0,0,0-.542.226.348.348,0,0,0-.139.216.066.066,0,0,0,.022.052.068.068,0,0,0,.047.018.867.867,0,0,0,.208-.058,1.81,1.81,0,0,1,.915-.095c.143.016.21.025.242-.024a.081.081,0,0,0-.008-.091A.828.828,0,0,0,427.086,395.42Z" transform="translate(-414.597 -384.391)"/><path d="M448.989,399.1a.3.3,0,1,0-.224-.427A.349.349,0,0,0,448.989,399.1Z" transform="translate(-434.327 -387.152)"/><path d="M459.283,394.066c-.157,0-.287.17-.29.385s.12.392.277.394.287-.169.291-.384S459.44,394.068,459.283,394.066Z" transform="translate(-443.379 -383.201)"/><path d="M352.3,408.473c-.039-.049-.1-.034-.165-.019a.59.59,0,0,1-.146.021.317.317,0,0,1-.268-.136.5.5,0,0,1,.012-.461c.011-.025.023-.053.037-.084a1.361,1.361,0,0,0,.1-1.2,1.067,1.067,0,0,0-.817-.594,1.05,1.05,0,0,0-.9.324,1.293,1.293,0,0,0-.334,1.087c.025.067.063.086.091.09.059.008.146-.035.2-.182,0-.01.009-.027.016-.048a1.448,1.448,0,0,1,.144-.339.617.617,0,0,1,.393-.271.63.63,0,0,1,.48.09.615.615,0,0,1,.233.741,1.728,1.728,0,0,0-.122.659.654.654,0,0,0,.585.675.5.5,0,0,0,.471-.235A.1.1,0,0,0,352.3,408.473Z" transform="translate(-346.929 -393.731)"/><path d="M345.113,314.887c-.01-.034-.072-.261-.157-.536a4.321,4.321,0,0,0-.174-.467,1.693,1.693,0,0,0,.3-1.233,1.561,1.561,0,0,0-.454-.881,3.688,3.688,0,0,0-1.6-.793l-.408-.113c0-.017-.021-.962-.039-1.368a4.686,4.686,0,0,0-.18-1.2,3.221,3.221,0,0,0-.833-1.487,5.05,5.05,0,0,0,1.649-3.21c0-1.915-2.354-2.494-5.252-1.294l-.614.261s-1.11-1.089-1.127-1.1c-3.3-2.882-13.633,8.6-10.331,11.388l.722.611a3.547,3.547,0,0,0-.2,1.638,3.228,3.228,0,0,0,1.115,2.072,3.391,3.391,0,0,0,2.187.881,8.374,8.374,0,0,0,7.665,4.881c3.693.11,6.793-1.623,8.092-4.736a6.528,6.528,0,0,0,.446-2.072C345.921,315.249,345.428,314.887,345.113,314.887ZM330,317.218a1.773,1.773,0,0,1-.342.024,2.664,2.664,0,0,1-2.44-2.225,2.2,2.2,0,0,1,1.731-2.57,2.026,2.026,0,0,1,.5-.036,2.124,2.124,0,0,1,1.875,2C331.526,315.7,331.21,317.012,330,317.218Zm-1.246-5.558a2.84,2.84,0,0,0-1.794,1.145,4.881,4.881,0,0,1-.762-.735c-.638-1.211.7-3.566,1.628-4.9,2.3-3.287,5.91-5.775,7.58-5.323a6.559,6.559,0,0,1,1.171,1.119,23.521,23.521,0,0,0-3.217,2.217A14.607,14.607,0,0,0,328.757,311.66Zm11.709,5.066a.066.066,0,0,0,.038-.065.061.061,0,0,0-.067-.055,7.811,7.811,0,0,1-3.4-.346c.18-.584.658-.373,1.38-.315a10.091,10.091,0,0,0,3.333-.36,7.636,7.636,0,0,0,2.492-1.239,5.017,5.017,0,0,1,.348,1.187.579.579,0,0,1,.366.067c.157.1.273.3.194.818a4.529,4.529,0,0,1-1.268,2.486,5.222,5.222,0,0,1-1.522,1.138,6.439,6.439,0,0,1-.994.42c-2.617.855-5.3-.085-6.159-2.1a3.237,3.237,0,0,1-.173-.477,4.184,4.184,0,0,1,.921-3.929h0a.355.355,0,0,0,.122-.234.412.412,0,0,0-.094-.222c-.342-.5-1.525-1.34-1.287-2.974a2.227,2.227,0,0,1,2.154-1.952l.242.014c.415.025.777.078,1.118.092a2.236,2.236,0,0,0,1.694-.566,1.311,1.311,0,0,1,.648-.367.792.792,0,0,1,.248-.024.819.819,0,0,1,.417.133c.488.325.557,1.111.583,1.686.014.328.054,1.123.068,1.351.031.522.168.6.445.686.156.051.3.09.514.15a2.9,2.9,0,0,1,1.27.6.8.8,0,0,1,.232.454c.076.556-.431,1.242-1.775,1.866a9.019,9.019,0,0,1-4.482.717l-.431-.049c-.985-.133-1.546,1.14-.956,2.012a3.136,3.136,0,0,0,2.456.928,6.474,6.474,0,0,0,4.89-1.894.912.912,0,0,0,.054-.078c.034-.05.006-.078-.036-.05a8.428,8.428,0,0,1-5.667,1.436,3.517,3.517,0,0,1-.614-.167,1.1,1.1,0,0,1-.779-.815A5.15,5.15,0,0,0,340.465,316.726Zm-3.377-.4h0Zm-4.078-9.167a9.731,9.731,0,0,1,2.73-2.231.036.036,0,0,1,.047.049,2.633,2.633,0,0,0-.253.619.037.037,0,0,0,.057.039,5.318,5.318,0,0,1,2.4-.846.038.038,0,0,1,.025.068,2.037,2.037,0,0,0-.377.378.037.037,0,0,0,.029.058,4.7,4.7,0,0,1,2,.525c.037.021.011.093-.031.084a8.156,8.156,0,0,0-3.629.01,8.336,8.336,0,0,0-2.947,1.3A.037.037,0,0,1,333.011,307.16Z" transform="translate(-324.828 -300.196)"/></g></g></g></svg>