<svg xmlns="http://www.w3.org/2000/svg" width="15.423" height="11.478" viewBox="0 0 15.423 11.478">
  <g id="missed_call" transform="translate(0 -65.493)">
    <g id="Group_247" data-name="Group 247" transform="translate(0 65.493)">
      <g id="Group_246" data-name="Group 246">
        <path id="Path_268" data-name="Path 268" d="M107.631,67.1l3.534,3.534,4.5-4.5-.642-.643-3.855,3.855-2.891-2.891h2.249v-.964h-3.855v3.855h.964Z" transform="translate(-103.455 -65.493)" fill="#f84b4b"/>
        <path id="Path_269" data-name="Path 269" d="M15.23,260.493h0a10.925,10.925,0,0,0-15.041,0,.641.641,0,0,0-.19.456.628.628,0,0,0,.19.453L1.78,263a.644.644,0,0,0,.906.006A7.5,7.5,0,0,1,4.4,261.811a.647.647,0,0,0,.36-.578v-1.995a9.694,9.694,0,0,1,5.908,0v1.995a.647.647,0,0,0,.36.578,7.3,7.3,0,0,1,1.712,1.192.644.644,0,0,0,.906-.006l1.59-1.593a.641.641,0,0,0,.19-.453A.651.651,0,0,0,15.23,260.493Z" transform="translate(0 -251.711)" fill="#f84b4b"/>
      </g>
    </g>
  </g>
</svg>
