<svg xmlns="http://www.w3.org/2000/svg" width="24.539" height="24.382" viewBox="0 0 24.539 24.382">
  <g id="out-sick" transform="translate(0 -1.564)">
    <path id="Path_2512" data-name="Path 2512" d="M24.539,207.58a2.909,2.909,0,0,1-2.674,2.9c-.078.007-.157.01-.237.01a2.885,2.885,0,0,1-.594-.061H3.5a2.882,2.882,0,0,1-.594.061h0a2.91,2.91,0,0,1-.271-5.807,2.675,2.675,0,0,1,.273-.013,2.948,2.948,0,0,1,.361.022h18a2.948,2.948,0,0,1,.361-.022,2.91,2.91,0,0,1,2.91,2.91Z" transform="translate(0 -192.935)" fill="#ffd0a6"/>
    <path id="Path_2513" data-name="Path 2513" d="M72.156,204.714V208.4a8.138,8.138,0,0,1-.269,2.079c-.078.007-.157.01-.237.01a2.885,2.885,0,0,1-.594-.061H53.526a2.882,2.882,0,0,1-.594.061h0a8.155,8.155,0,0,1-.271-2.089v-3.718a2.671,2.671,0,0,1,.273-.013,2.948,2.948,0,0,1,.361.022h18a2.947,2.947,0,0,1,.361-.022A2.9,2.9,0,0,1,72.156,204.714Z" transform="translate(-50.022 -192.935)" fill="#e8b182"/>
    <path id="Path_2514" data-name="Path 2514" d="M419.25,244.053a.376.376,0,0,1-.345-.226c-.3-.685-1.143-.476-1.239-.45a.376.376,0,0,1-.2-.723,1.75,1.75,0,0,1,2.131.873.376.376,0,0,1-.344.525Z" transform="translate(-396.299 -228.945)" fill="#d6996b"/>
    <path id="Path_2515" data-name="Path 2515" d="M29.22,244.053a.376.376,0,0,1-.344-.525,1.75,1.75,0,0,1,2.131-.873.376.376,0,0,1-.2.723c-.1-.026-.941-.235-1.238.45A.376.376,0,0,1,29.22,244.053Z" transform="translate(-27.4 -228.945)" fill="#d6996b"/>
    <path id="Path_2516" data-name="Path 2516" d="M87.743,10.449V16.5a8.882,8.882,0,0,1-17.763,0V10.449a8.882,8.882,0,0,1,17.763,0Z" transform="translate(-66.475 -0.003)" fill="#e8b182"/>
    <path id="Path_2517" data-name="Path 2517" d="M151.728,13.483v6.048a8.884,8.884,0,0,1-7.195,8.721,8.884,8.884,0,0,1-7.195-8.721V13.483a8.885,8.885,0,0,1,7.195-8.722,8.886,8.886,0,0,1,7.195,8.722Z" transform="translate(-130.46 -3.037)" fill="#ffd0a6"/>
    <path id="Path_2518" data-name="Path 2518" d="M87.74,10.446v1.311c-10.515-.013-14.01-4.314-14.01-4.314,0,1.786-1.786,3.671-3.753,4.314V10.446a8.882,8.882,0,1,1,17.763,0Z" transform="translate(-66.473)" fill="#5b5b68"/>
    <path id="Path_2519" data-name="Path 2519" d="M80.539,1.724a8.9,8.9,0,0,0-6.715,5.832c-.068-.072-.1-.112-.1-.112,0,1.786-1.786,3.671-3.753,4.314V10.446A8.889,8.889,0,0,1,80.539,1.724Z" transform="translate(-66.467)" fill="#40404c"/>
    <g id="Group_979" data-name="Group 979" transform="translate(8.141 12.943)">
      <g id="Group_978" data-name="Group 978">
        <path id="Path_2520" data-name="Path 2520" d="M162.94,231.209a.376.376,0,0,1-.376-.376v-1.682a.376.376,0,0,1,.751,0v1.682A.376.376,0,0,1,162.94,231.209Z" transform="translate(-162.564 -228.776)" fill="#40404c"/>
        <path id="Path_2521" data-name="Path 2521" d="M317.466,231.209a.376.376,0,0,1-.376-.376v-1.682a.376.376,0,0,1,.751,0v1.682A.376.376,0,0,1,317.466,231.209Z" transform="translate(-309.351 -228.776)" fill="#40404c"/>
      </g>
    </g>
    <path id="Path_2522" data-name="Path 2522" d="M360.407,216.207V217.6l-2.7,4.209a.376.376,0,0,1-.632-.405Z" transform="translate(-339.139 -203.894)" fill="#e4e4ef"/>
    <path id="Path_2523" data-name="Path 2523" d="M73.056,221.7a.375.375,0,0,1-.519-.114L69.98,217.6v-1.393l3.19,4.979A.375.375,0,0,1,73.056,221.7Z" transform="translate(-66.475 -203.894)" fill="#cacadb"/>
    <path id="Path_2524" data-name="Path 2524" d="M127.714,284v3.737l-2.323,4.139a3.11,3.11,0,0,1-2.712,1.588h-3.245a3.11,3.11,0,0,1-2.712-1.588l-2.323-4.139V284l2.5-.306,4.154-.508Z" transform="translate(-108.671 -267.516)" fill="#e4e4ef"/>
    <path id="Path_2525" data-name="Path 2525" d="M119.434,303.1a3.11,3.11,0,0,1-2.712-1.588l-2.323-4.139V293.64l2.5-.306C116.9,296.74,117.355,302.026,119.434,303.1Z" transform="translate(-108.671 -277.157)" fill="#cacadb"/>
  </g>
</svg>
