<svg xmlns="http://www.w3.org/2000/svg" width="16.335" height="18.117" viewBox="0 0 16.335 18.117"><defs><style>.a{fill:#707070;stroke:#f1f5f9;stroke-width:0.3px;}</style></defs><g transform="translate(0.15 0.15)"><path class="a" d="M17.253,3.782h-.891V2H14.581V3.782H7.454V2H5.673V3.782H4.782A1.774,1.774,0,0,0,3.009,5.563L3,18.035a1.781,1.781,0,0,0,1.782,1.782H17.253a1.787,1.787,0,0,0,1.782-1.782V5.563A1.787,1.787,0,0,0,17.253,3.782Zm0,14.253H4.782V9.127H17.253Zm0-10.69H4.782V5.563H17.253ZM11.018,11.8h4.454v4.454H11.018Z" transform="translate(-3 -2)"/></g></svg>