<svg xmlns="http://www.w3.org/2000/svg" viewBox="0 0 42.14 42.14"><defs><style>.cls-1{fill:#fff;}</style></defs><title>plus-</title><g id="Layer_2" data-name="Layer 2"><g id="Layer_1-2" data-name="Layer 1"><path class="cls-1" d="M39.85,18.13H24V2.29A2.84,2.84,0,0,0,21.07,0a2.85,2.85,0,0,0-2.94,2.29V18.13H2.29A2.85,2.85,0,0,0,0,21.07,2.85,2.85,0,0,0,2.29,24H18.13V39.85a2.85,2.85,0,0,0,2.94,2.29A2.85,2.85,0,0,0,24,39.85V24H39.85a2.85,2.85,0,0,0,2.29-2.94A2.85,2.85,0,0,0,39.85,18.13Z"/></g></g></svg>