<svg xmlns="http://www.w3.org/2000/svg" viewBox="0 0 47.24 47.24"><defs><style>.cls-1{fill:#019ddf;fill-rule:evenodd;}</style></defs><title>settings-</title><g id="Layer_2" data-name="Layer 2"><g id="Layer_1-2" data-name="Layer 1"><g id="Settings"><path class="cls-1" d="M47.09,21a1.54,1.54,0,0,0-1.52-1.17A5.21,5.21,0,0,1,42,10.76,1.3,1.3,0,0,0,42.14,9,22.68,22.68,0,0,0,38.4,5.2a1.3,1.3,0,0,0-1.79.14,5.43,5.43,0,0,1-5.89,1.32,5.22,5.22,0,0,1-3.19-5.12A1.31,1.31,0,0,0,26.37.16a23.66,23.66,0,0,0-5.32,0,1.33,1.33,0,0,0-1.17,1.35,5.25,5.25,0,0,1-3.23,5A5.45,5.45,0,0,1,10.8,5.2,1.31,1.31,0,0,0,9,5.05,24,24,0,0,0,5.2,8.83a1.32,1.32,0,0,0,.14,1.8,5.22,5.22,0,0,1,1.32,5.89,5.45,5.45,0,0,1-5.14,3.19A1.28,1.28,0,0,0,.16,20.87a23.52,23.52,0,0,0,0,5.37A1.55,1.55,0,0,0,1.7,27.4a5.19,5.19,0,0,1,4.86,3.24,5.27,5.27,0,0,1-1.32,5.84,1.31,1.31,0,0,0-.15,1.78A23.46,23.46,0,0,0,8.83,42a1.32,1.32,0,0,0,1.8-.14,5.44,5.44,0,0,1,5.88-1.33,5.25,5.25,0,0,1,3.2,5.13,1.32,1.32,0,0,0,1.16,1.38,24.66,24.66,0,0,0,2.72.16,22.49,22.49,0,0,0,2.59-.15,1.31,1.31,0,0,0,1.17-1.35,5.26,5.26,0,0,1,3.23-5A5.45,5.45,0,0,1,36.43,42a1.34,1.34,0,0,0,1.79.14A23.48,23.48,0,0,0,42,38.41a1.32,1.32,0,0,0-.15-1.8,5.21,5.21,0,0,1,3.51-9.09h.3a1.32,1.32,0,0,0,1.38-1.16A23.52,23.52,0,0,0,47.09,21ZM23.66,31.55a7.88,7.88,0,1,1,7.87-7.88A7.89,7.89,0,0,1,23.66,31.55Z"/></g></g></g></svg>