<svg xmlns="http://www.w3.org/2000/svg" width="17.956" height="17.956" viewBox="0 0 17.956 17.956"><defs><style>.a{fill:#e91e63;}.b{fill:#00bcd4;}.c{fill:#4caf50;}.d{fill:#ff9800;}</style></defs><g transform="translate(-0.002 0.001)"><path class="a" d="M8.208,12.651a1.886,1.886,0,0,0-1.886,1.886v4.718a1.886,1.886,0,0,0,3.772,0V14.537a1.887,1.887,0,0,0-1.886-1.886Z" transform="translate(-1.592 -3.186)"/><path class="a" d="M.019,14.537a1.888,1.888,0,1,0,3.775,0V12.649H1.907A1.888,1.888,0,0,0,.019,14.537Z" transform="translate(-0.004 -3.186)"/><path class="b" d="M8.21,0h0a1.888,1.888,0,0,0,0,3.775h1.886V1.883A1.885,1.885,0,0,0,8.21,0Z" transform="translate(-1.591)"/><path class="b" d="M1.89,10.1H6.617a1.888,1.888,0,1,0,0-3.775H1.89a1.888,1.888,0,1,0,0,3.775Z" transform="translate(0 -1.593)"/><path class="c" d="M20.823,6.323a1.884,1.884,0,0,0-1.884,1.884V10.1h1.886a1.888,1.888,0,1,0,0-3.775Z" transform="translate(-4.769 -1.593)"/><path class="c" d="M12.641,1.887V6.619a1.886,1.886,0,1,0,3.772,0V1.887a1.886,1.886,0,1,0-3.772,0Z" transform="translate(-3.183 -0.001)"/><g transform="translate(9.456 9.463)"><path class="d" d="M16.412,20.841a1.886,1.886,0,0,0-1.886-1.886H12.64v1.888a1.886,1.886,0,0,0,3.772,0Z" transform="translate(-12.639 -14.237)"/><path class="d" d="M19.253,12.649H14.526a1.888,1.888,0,0,0,0,3.775h4.727a1.888,1.888,0,1,0,0-3.775Z" transform="translate(-12.638 -12.649)"/></g></g></svg>