<svg xmlns="http://www.w3.org/2000/svg" width="22" height="22" viewBox="0 0 22 22">
  <g id="travelling" transform="translate(1608 323)">
    <rect id="Rectangle_1872" data-name="Rectangle 1872" width="22" height="22" transform="translate(-1608 -323)" fill="#fff" opacity="0"/>
    <g id="airplane_1_" data-name="airplane (1)" transform="translate(-1604.999 -320)">
      <path id="Path_2463" data-name="Path 2463" d="M13.732,4.278,6.714.555a.474.474,0,0,0-.558.084L4.478,2.317a.474.474,0,0,0,0,.671L9.944,8.454a50.62,50.62,0,0,1,3.788-4.176Zm0,0" transform="translate(-4.202 -0.5)" fill="#435888"/>
      <path id="Path_2464" data-name="Path 2464" d="M268.4,218.212c-2.609-4.918-3.441-6.5-3.722-7.016a50.66,50.66,0,0,1-4.174,3.787l5.464,5.464a.475.475,0,0,0,.671,0l1.678-1.678A.475.475,0,0,0,268.4,218.212Zm0,0" transform="translate(-252.266 -204.533)" fill="#435888"/>
      <path id="Path_2465" data-name="Path 2465" d="M7.593,274.706l-.783.783a.792.792,0,0,1-1.118,0l-5.46-5.46a.792.792,0,0,1,0-1.118l.783-.783a.474.474,0,0,1,.5-.11l2.979,1.1a14.9,14.9,0,0,0-1.234,1.974c-.234.477-.5,1.152-.141,1.514s1.05.086,1.513-.141a14.9,14.9,0,0,0,1.975-1.235l1.1,2.978a.474.474,0,0,1-.11.5Zm0,0" transform="translate(-0.001 -259.531)" fill="#435888"/>
      <path id="Path_2466" data-name="Path 2466" d="M98.272,373.927l-.783.783a.792.792,0,0,1-1.118,0l-2.729-2.729h0l.156-.156a.631.631,0,0,0,.473.177c.813,0,2.355-1.079,3.015-1.552l1.1,2.978A.474.474,0,0,1,98.272,373.927Zm0,0" transform="translate(-90.68 -358.751)" fill="#435888"/>
      <path id="Path_2467" data-name="Path 2467" d="M101.073.869C99.6-.6,95.837,3,94.367,4.466a37.164,37.164,0,0,0-6.021,7.546c-.255.52-.544,1.262-.111,1.695s1.153.155,1.695-.111a37.155,37.155,0,0,0,7.546-6.021c1.47-1.47,5.07-5.233,3.6-6.706Zm0,0" transform="translate(-85.23 -0.521)" fill="#f2f2fc"/>
      <path id="Path_2468" data-name="Path 2468" d="M104.268,18.188a37.166,37.166,0,0,1-7.546,6.021c-.544.267-1.269.537-1.695.111h0l12.837-12.838h0c1.474,1.474-2.127,5.237-3.6,6.706Zm0,0" transform="translate(-92.022 -11.133)" fill="#d8d8fb"/>
      <path id="Path_2469" data-name="Path 2469" d="M64.644,331.642a.474.474,0,0,0-.671,0l-2.846,2.846a.474.474,0,1,0,.671.671l2.846-2.846A.475.475,0,0,0,64.644,331.642Zm0,0" transform="translate(-59.06 -321.037)" fill="#536ca5"/>
      <path id="Path_2470" data-name="Path 2470" d="M68.9,336.565l-2.846,2.846a.475.475,0,0,1-.671,0l3.517-3.517A.475.475,0,0,1,68.9,336.565Zm0,0" transform="translate(-63.312 -325.288)" fill="#435888"/>
    </g>
  </g>
</svg>
