<svg xmlns="http://www.w3.org/2000/svg" xmlns:xlink="http://www.w3.org/1999/xlink" width="139.704" height="37.311" viewBox="0 0 139.704 37.311">
  <defs>
    <clipPath id="clip-path">
      <path id="Path_256" data-name="Path 256" d="M-228.291,541.7l.01-3.509,1.752,1.011a3.124,3.124,0,0,1,1.562,2.714l0,1.7Z" transform="translate(228.291 -538.194)" fill="#ff7c09"/>
    </clipPath>
  </defs>
  <g id="ur_logo" transform="translate(6493 1225)">
    <g id="Group_16558" data-name="Group 16558" transform="translate(-6517 -1276)">
      <rect id="Rectangle_2" data-name="Rectangle 2" width="37.311" height="37.311" rx="5" transform="translate(24 51)" fill="#fff"/>
      <g id="Group_1" data-name="Group 1" transform="translate(34.32 58.939)">
        <g id="Group_236" data-name="Group 236" transform="translate(6.38 8.205)">
          <g id="Group_235" data-name="Group 235" transform="translate(0 0)">
            <g id="Group_234" data-name="Group 234" clip-path="url(#clip-path)">
              <g id="Group_233" data-name="Group 233" transform="translate(0.005 0.095)">
                <path id="Path_255" data-name="Path 255" d="M-224.936,540.634l-3.125-1.8a.13.13,0,0,0-.2.112l0,1.662a2.8,2.8,0,0,0,1.4,2.432l1.72.993a.13.13,0,0,0,.2-.112l.009-3.284" transform="translate(228.261 -538.813)" fill="#ff7c09"/>
              </g>
            </g>
          </g>
        </g>
        <path id="Path_257" data-name="Path 257" d="M-269.978,508.481v9.966a3.013,3.013,0,0,0,1.463,2.584l8.632,5.179a.13.13,0,0,0,.2-.112v-3.082a2.733,2.733,0,0,0-1.208-2.268l-2.1-1.415a.13.13,0,0,0-.2.106l-.025,2.061a.13.13,0,0,1-.2.11l-3.109-1.886a2.986,2.986,0,0,1-1.4-2.611l.071-2.771a.13.13,0,0,1,.193-.111l1.83,1a.13.13,0,0,0,.193-.114v-2.666a2.961,2.961,0,0,0-1.488-2.569l-2.646-1.517A.13.13,0,0,0-269.978,508.481Z" transform="translate(269.978 -504.713)" fill="#1d76f2"/>
        <path id="Path_258" data-name="Path 258" d="M-228.1,511.97l5.018,2.785a3.234,3.234,0,0,1,1.664,2.884l-.1,6.008a.13.13,0,0,1-.2.11l-.509-.3a3.167,3.167,0,0,1-1.552-2.772l.032-2.121a2.438,2.438,0,0,0-1.245-2.162l-2.057-1.154a2.438,2.438,0,0,1-1.245-2.126v-1.035A.13.13,0,0,1-228.1,511.97Z" transform="translate(234.671 -507.765)" fill="#ff7c09"/>
        <path id="Path_259" data-name="Path 259" d="M-227.725,484.711a.13.13,0,0,1,.195-.113l8.483,4.876a3.011,3.011,0,0,1,1.55,2.685l-.1,9.861a.13.13,0,0,1-.2.111l-.459-.272a2.949,2.949,0,0,1-1.445-2.581l.03-6.26a2.27,2.27,0,0,0-1.159-2.013l-5.741-3.37a2.269,2.269,0,0,1-1.159-1.979Z" transform="translate(234.191 -484.581)" fill="#ff7c09"/>
      </g>
    </g>
    <path id="Path_50239" data-name="Path 50239" d="M11.475-4.59v-7.548H8.806V-4.59a3.037,3.037,0,0,1-.544,2,2.5,2.5,0,0,1-1.972.637,3.075,3.075,0,0,1-1.3-.229,1.97,1.97,0,0,1-.757-.6,1.967,1.967,0,0,1-.357-.842,5.5,5.5,0,0,1-.085-.969v-7.548H1.122V-4.59A4.642,4.642,0,0,0,2.474-.918,5.589,5.589,0,0,0,6.29.272,5.608,5.608,0,0,0,10.1-.926,4.6,4.6,0,0,0,11.475-4.59Zm2.04-4.2V0h2.414V-4.607a3.26,3.26,0,0,1,.442-1.93A1.672,1.672,0,0,1,17.8-7.123a1.317,1.317,0,0,1,1.207.536,3.08,3.08,0,0,1,.34,1.623V0H21.76V-5.406a7.084,7.084,0,0,0-.144-1.488,2.829,2.829,0,0,0-.5-1.139,2.357,2.357,0,0,0-.977-.731,4.1,4.1,0,0,0-1.59-.264,3.441,3.441,0,0,0-1.5.349,2.77,2.77,0,0,0-1.19,1.114H15.81V-8.789Zm12.563-1.36v-1.989H23.664v1.989Zm-2.414,1.36V0h2.414V-8.789Zm4.845,1.615V0h2.414V-7.174h1.666V-8.789H30.923v-.527a1.128,1.128,0,0,1,.212-.774.926.926,0,0,1,.706-.229,7.419,7.419,0,0,1,.884.051v-1.8q-.306-.017-.629-.042t-.646-.026a2.962,2.962,0,0,0-2.21.748,2.633,2.633,0,0,0-.731,1.921v.68H27.064v1.615Zm5.542-1.615V0h2.414V-8.789Zm2.414-1.36v-1.989H34.051v1.989Zm7.82,4.811H40.358a2.771,2.771,0,0,1,.11-.578,1.775,1.775,0,0,1,.323-.612,1.829,1.829,0,0,1,.612-.484,2.1,2.1,0,0,1,.96-.2,1.7,1.7,0,0,1,1.318.476A2.79,2.79,0,0,1,44.285-5.338Zm-3.927,1.53H46.7a6.2,6.2,0,0,0-.17-1.955,4.785,4.785,0,0,0-.773-1.666,3.9,3.9,0,0,0-1.368-1.165,4.179,4.179,0,0,0-1.955-.434A4.552,4.552,0,0,0,40.6-8.67a4.321,4.321,0,0,0-1.419.978,4.309,4.309,0,0,0-.918,1.47,5.126,5.126,0,0,0-.323,1.836,5.351,5.351,0,0,0,.314,1.87,4.247,4.247,0,0,0,.893,1.462,3.888,3.888,0,0,0,1.411.944,5.02,5.02,0,0,0,1.87.332,4.6,4.6,0,0,0,2.55-.68A4.034,4.034,0,0,0,46.546-2.72H44.421a1.516,1.516,0,0,1-.646.773,2.152,2.152,0,0,1-1.258.365,2.158,2.158,0,0,1-1.564-.527A2.44,2.44,0,0,1,40.358-3.808ZM54.366-4.42a5.362,5.362,0,0,1-.1,1.054,2.857,2.857,0,0,1-.34.909,1.808,1.808,0,0,1-.638.638,1.914,1.914,0,0,1-.994.238,1.794,1.794,0,0,1-.96-.246,2.121,2.121,0,0,1-.663-.646,2.786,2.786,0,0,1-.382-.909,4.476,4.476,0,0,1-.119-1.02,4.846,4.846,0,0,1,.111-1.045,2.78,2.78,0,0,1,.357-.893,1.882,1.882,0,0,1,.655-.629,1.961,1.961,0,0,1,1-.238,1.868,1.868,0,0,1,.986.238,1.962,1.962,0,0,1,.638.621,2.555,2.555,0,0,1,.348.884A5.234,5.234,0,0,1,54.366-4.42Zm.034,3.3V0h2.295V-12.138H54.281v4.42h-.034A2.591,2.591,0,0,0,53.133-8.7a3.456,3.456,0,0,0-1.487-.332,3.616,3.616,0,0,0-1.7.383A3.645,3.645,0,0,0,48.73-7.633,4.441,4.441,0,0,0,48-6.18a5.932,5.932,0,0,0-.247,1.708A6.316,6.316,0,0,0,48-2.7a4.706,4.706,0,0,0,.731,1.5A3.481,3.481,0,0,0,49.963-.161,3.758,3.758,0,0,0,51.7.221a3.7,3.7,0,0,0,1.556-.315,2.49,2.49,0,0,0,1.114-1.028Zm7.038-5.525v-3.417h2.924a2.048,2.048,0,0,1,1.377.4A1.618,1.618,0,0,1,66.2-8.381a1.693,1.693,0,0,1-.459,1.326,2.019,2.019,0,0,1-1.377.408Zm-2.669-5.491V0h2.669V-4.743h2.669a1.986,1.986,0,0,1,1.445.442,2.411,2.411,0,0,1,.578,1.394q.1.731.153,1.53A4.706,4.706,0,0,0,66.555,0h2.669a1.787,1.787,0,0,1-.281-.62,5.359,5.359,0,0,1-.136-.774q-.043-.408-.06-.8t-.034-.68a7.3,7.3,0,0,0-.128-.918,3.087,3.087,0,0,0-.3-.842,2.309,2.309,0,0,0-.527-.663,2.059,2.059,0,0,0-.816-.416v-.034a2.83,2.83,0,0,0,1.471-1.19,3.649,3.649,0,0,0,.451-1.853,3.406,3.406,0,0,0-.247-1.3,3.136,3.136,0,0,0-.714-1.062,3.384,3.384,0,0,0-1.122-.722,3.907,3.907,0,0,0-1.47-.264Zm14.5,1.989v-1.989H70.856v1.989Zm-2.414,1.36V0H73.27V-8.789Zm4.318,0V0h2.414V-4.607a3.26,3.26,0,0,1,.442-1.93,1.672,1.672,0,0,1,1.428-.587,1.317,1.317,0,0,1,1.207.536A3.08,3.08,0,0,1,81-4.964V0h2.414V-5.406a7.084,7.084,0,0,0-.145-1.488,2.829,2.829,0,0,0-.5-1.139,2.357,2.357,0,0,0-.978-.731,4.1,4.1,0,0,0-1.59-.264,3.441,3.441,0,0,0-1.5.349,2.77,2.77,0,0,0-1.19,1.114h-.051V-8.789ZM89.352-2.074a1.71,1.71,0,0,1-.935-.238,1.887,1.887,0,0,1-.6-.612,2.55,2.55,0,0,1-.323-.841,4.8,4.8,0,0,1-.094-.944,3.947,3.947,0,0,1,.111-.944,2.329,2.329,0,0,1,.357-.8A1.841,1.841,0,0,1,88.477-7a1.77,1.77,0,0,1,.875-.2,1.984,1.984,0,0,1,.986.221,1.76,1.76,0,0,1,.629.6,2.57,2.57,0,0,1,.34.858,4.985,4.985,0,0,1,.1,1.029,3.207,3.207,0,0,1-.128.909,2.41,2.41,0,0,1-.382.774,1.885,1.885,0,0,1-.646.544A1.92,1.92,0,0,1,89.352-2.074ZM93.7-.561V-8.789H91.409v1.173h-.034a2.626,2.626,0,0,0-1.1-1.088,3.4,3.4,0,0,0-1.521-.323,3.548,3.548,0,0,0-1.623.357,3.492,3.492,0,0,0-1.182.961,4.288,4.288,0,0,0-.722,1.394,5.479,5.479,0,0,0-.246,1.64A6.689,6.689,0,0,0,85.2-2.967a3.972,3.972,0,0,0,.672,1.411A3.226,3.226,0,0,0,87.04-.6a3.84,3.84,0,0,0,1.7.349,3.607,3.607,0,0,0,1.521-.331,2.39,2.39,0,0,0,1.114-1.029h.034V-.459a2.4,2.4,0,0,1-.451,1.547,1.753,1.753,0,0,1-1.487.612,2.38,2.38,0,0,1-1.139-.264,1.377,1.377,0,0,1-.663-.943h-2.4a2.538,2.538,0,0,0,.417,1.284,3.008,3.008,0,0,0,.918.875,4.185,4.185,0,0,0,1.224.5,5.622,5.622,0,0,0,1.317.161,5.936,5.936,0,0,0,2.414-.408,3.7,3.7,0,0,0,1.377-.995,2.976,2.976,0,0,0,.62-1.266A5.884,5.884,0,0,0,93.7-.561Z" transform="translate(-6447 -1200)" fill="#fff"/>
  </g>
</svg>
