<svg id="ur_logo" xmlns="http://www.w3.org/2000/svg" width="205.473" height="62.034" viewBox="0 0 205.473 62.034">
  <path id="Path_60066" data-name="Path 60066" d="M16.2-6.48V-17.136H12.432V-6.48a4.288,4.288,0,0,1-.768,2.82,3.53,3.53,0,0,1-2.784.9,4.341,4.341,0,0,1-1.836-.324,2.781,2.781,0,0,1-1.068-.84,2.777,2.777,0,0,1-.5-1.188,7.767,7.767,0,0,1-.12-1.368V-17.136H1.584V-6.48q0,3.5,1.908,5.184A7.89,7.89,0,0,0,8.88.384a7.918,7.918,0,0,0,5.376-1.692A6.494,6.494,0,0,0,16.2-6.48Zm3.744-5.928V0h3.408V-6.5a4.6,4.6,0,0,1,.624-2.724,2.361,2.361,0,0,1,2.016-.828,1.859,1.859,0,0,1,1.7.756,4.348,4.348,0,0,1,.48,2.292V0h3.408V-7.632a10,10,0,0,0-.2-2.1,3.994,3.994,0,0,0-.708-1.608,3.327,3.327,0,0,0-1.38-1.032,5.788,5.788,0,0,0-2.244-.372,4.858,4.858,0,0,0-2.112.492,3.91,3.91,0,0,0-1.68,1.572h-.072v-1.728Zm18.6-1.92v-2.808H35.136v2.808Zm-3.408,1.92V0h3.408V-12.408Zm7.7,2.28V0h3.408V-10.128H48.6v-2.28H46.248v-.744a1.592,1.592,0,0,1,.3-1.092,1.307,1.307,0,0,1,1-.324,10.473,10.473,0,0,1,1.248.072V-17.04q-.432-.024-.888-.06t-.912-.036a4.182,4.182,0,0,0-3.12,1.056,3.718,3.718,0,0,0-1.032,2.712v.96H40.8v2.28Zm11.616-4.2v-2.808H51.048v2.808Zm-3.408,1.92V0h3.408V-12.408ZM66.36-7.536H60.816a3.912,3.912,0,0,1,.156-.816,2.505,2.505,0,0,1,.456-.864,2.582,2.582,0,0,1,.864-.684,2.965,2.965,0,0,1,1.356-.276,2.393,2.393,0,0,1,1.86.672A3.939,3.939,0,0,1,66.36-7.536Zm-5.544,2.16h8.952a8.76,8.76,0,0,0-.24-2.76,6.756,6.756,0,0,0-1.092-2.352A5.508,5.508,0,0,0,66.5-12.132a5.9,5.9,0,0,0-2.76-.612,6.426,6.426,0,0,0-2.58.5,6.1,6.1,0,0,0-2,1.38,6.083,6.083,0,0,0-1.3,2.076,7.237,7.237,0,0,0-.456,2.592,7.555,7.555,0,0,0,.444,2.64,6,6,0,0,0,1.26,2.064A5.489,5.489,0,0,0,61.1-.156a7.087,7.087,0,0,0,2.64.468,6.5,6.5,0,0,0,3.6-.96A5.7,5.7,0,0,0,69.552-3.84h-3a2.141,2.141,0,0,1-.912,1.092,3.038,3.038,0,0,1-1.776.516,3.047,3.047,0,0,1-2.208-.744A3.445,3.445,0,0,1,60.816-5.376Zm20.64-.864a7.57,7.57,0,0,1-.144,1.488,4.033,4.033,0,0,1-.48,1.284,2.552,2.552,0,0,1-.9.9,2.7,2.7,0,0,1-1.4.336,2.532,2.532,0,0,1-1.356-.348,2.994,2.994,0,0,1-.936-.912,3.933,3.933,0,0,1-.54-1.284,6.318,6.318,0,0,1-.168-1.44,6.842,6.842,0,0,1,.156-1.476,3.925,3.925,0,0,1,.5-1.26,2.657,2.657,0,0,1,.924-.888,2.769,2.769,0,0,1,1.416-.336,2.638,2.638,0,0,1,1.392.336,2.77,2.77,0,0,1,.9.876,3.607,3.607,0,0,1,.492,1.248A7.39,7.39,0,0,1,81.456-6.24ZM81.5-1.584V0h3.24V-17.136H81.336v6.24h-.048a3.658,3.658,0,0,0-1.572-1.38,4.879,4.879,0,0,0-2.1-.468,5.1,5.1,0,0,0-2.4.54A5.145,5.145,0,0,0,73.5-10.776a6.269,6.269,0,0,0-1.032,2.052,8.375,8.375,0,0,0-.348,2.412,8.916,8.916,0,0,0,.348,2.5A6.644,6.644,0,0,0,73.5-1.692,4.914,4.914,0,0,0,75.24-.228a5.305,5.305,0,0,0,2.448.54,5.228,5.228,0,0,0,2.2-.444,3.516,3.516,0,0,0,1.572-1.452Zm10.8-7.8v-4.824h4.128a2.892,2.892,0,0,1,1.944.564,2.284,2.284,0,0,1,.648,1.812,2.391,2.391,0,0,1-.648,1.872,2.85,2.85,0,0,1-1.944.576Zm-3.768-7.752V0H92.3V-6.7h3.768a2.8,2.8,0,0,1,2.04.624A3.4,3.4,0,0,1,98.928-4.1q.144,1.032.216,2.16A6.643,6.643,0,0,0,99.528,0H103.3a2.522,2.522,0,0,1-.4-.876,7.568,7.568,0,0,1-.192-1.092q-.06-.576-.084-1.128t-.048-.96a10.3,10.3,0,0,0-.18-1.3,4.358,4.358,0,0,0-.42-1.188,3.26,3.26,0,0,0-.744-.936,2.906,2.906,0,0,0-1.152-.588v-.048a4,4,0,0,0,2.076-1.68,5.152,5.152,0,0,0,.636-2.616,4.808,4.808,0,0,0-.348-1.836,4.428,4.428,0,0,0-1.008-1.5,4.778,4.778,0,0,0-1.584-1.02,5.516,5.516,0,0,0-2.076-.372Zm21.336,2.808v-2.808h-3.408v2.808Zm-3.408,1.92V0h3.408V-12.408Zm6.96,0V0h3.408V-6.5a4.6,4.6,0,0,1,.624-2.724,2.361,2.361,0,0,1,2.016-.828,1.859,1.859,0,0,1,1.7.756,4.348,4.348,0,0,1,.48,2.292V0h3.408V-7.632a10,10,0,0,0-.2-2.1,3.994,3.994,0,0,0-.708-1.608,3.327,3.327,0,0,0-1.38-1.032,5.788,5.788,0,0,0-2.244-.372,4.858,4.858,0,0,0-2.112.492,3.91,3.91,0,0,0-1.68,1.572h-.072v-1.728Zm20.88,9.48a2.414,2.414,0,0,1-1.32-.336,2.663,2.663,0,0,1-.852-.864,3.6,3.6,0,0,1-.456-1.188,6.776,6.776,0,0,1-.132-1.332A5.573,5.573,0,0,1,131.7-7.98a3.289,3.289,0,0,1,.5-1.128,2.6,2.6,0,0,1,.864-.78,2.5,2.5,0,0,1,1.236-.288,2.8,2.8,0,0,1,1.392.312,2.485,2.485,0,0,1,.888.84,3.628,3.628,0,0,1,.48,1.212,7.038,7.038,0,0,1,.144,1.452,4.527,4.527,0,0,1-.18,1.284,3.4,3.4,0,0,1-.54,1.092,2.661,2.661,0,0,1-.912.768A2.71,2.71,0,0,1,134.3-2.928Zm6.144,2.136V-12.408h-3.24v1.656h-.048a3.707,3.707,0,0,0-1.548-1.536,4.8,4.8,0,0,0-2.148-.456,5.009,5.009,0,0,0-2.292.5,4.929,4.929,0,0,0-1.668,1.356,6.054,6.054,0,0,0-1.02,1.968,7.735,7.735,0,0,0-.348,2.316,9.443,9.443,0,0,0,.3,2.412,5.607,5.607,0,0,0,.948,1.992A4.554,4.554,0,0,0,131.04-.852a5.421,5.421,0,0,0,2.4.492,5.092,5.092,0,0,0,2.148-.468A3.374,3.374,0,0,0,137.16-2.28h.048V-.648a3.388,3.388,0,0,1-.636,2.184,2.474,2.474,0,0,1-2.1.864,3.36,3.36,0,0,1-1.608-.372A1.945,1.945,0,0,1,131.928.7h-3.384a3.583,3.583,0,0,0,.588,1.812,4.246,4.246,0,0,0,1.3,1.236,5.909,5.909,0,0,0,1.728.708,7.937,7.937,0,0,0,1.86.228,8.381,8.381,0,0,0,3.408-.576,5.219,5.219,0,0,0,1.944-1.4,4.2,4.2,0,0,0,.876-1.788A8.308,8.308,0,0,0,140.448-.792Z" transform="translate(65.025 37.139)" fill="#1d76f2"/>
  <path id="Path_255" data-name="Path 255" d="M-218.676,544.064l-9.009-5.2a.375.375,0,0,0-.563.324l-.014,4.792a8.072,8.072,0,0,0,4.036,7.014l4.96,2.864a.375.375,0,0,0,.563-.324l.027-9.469" transform="translate(246.668 -514.883)" fill="#ff7c09"/>
  <path id="Path_256" data-name="Path 256" d="M-228.291,548.31l.029-10.116,5.052,2.916a9.007,9.007,0,0,1,4.5,7.826l-.014,4.9Z" transform="translate(246.685 -514.538)" fill="#ff7c09"/>
  <path id="Path_257" data-name="Path 257" d="M-269.978,508.726V537.46a8.687,8.687,0,0,0,4.218,7.449l24.888,14.933a.375.375,0,0,0,.568-.322v-8.887a7.879,7.879,0,0,0-3.483-6.538l-6.065-4.078a.375.375,0,0,0-.585.307l-.071,5.941a.376.376,0,0,1-.57.317l-8.962-5.437a8.61,8.61,0,0,1-4.051-7.528l.206-7.99a.375.375,0,0,1,.556-.32l5.276,2.891a.375.375,0,0,0,.556-.329v-7.687a8.538,8.538,0,0,0-4.291-7.406l-7.629-4.374A.375.375,0,0,0-269.978,508.726Z" transform="translate(269.978 -497.862)" fill="#1d76f2"/>
  <path id="Path_258" data-name="Path 258" d="M-227.734,512l14.468,8.029a9.326,9.326,0,0,1,4.8,8.315l-.3,17.321a.375.375,0,0,1-.567.316l-1.467-.87a9.133,9.133,0,0,1-4.474-7.992l.091-6.116a7.028,7.028,0,0,0-3.589-6.234l-5.931-3.327a7.029,7.029,0,0,1-3.589-6.13v-2.986A.375.375,0,0,1-227.734,512Z" transform="translate(246.685 -499.876)" fill="#ff7c09"/>
  <path id="Path_259" data-name="Path 259" d="M-227.725,484.956a.375.375,0,0,1,.562-.325l24.457,14.059a8.681,8.681,0,0,1,4.468,7.741l-.283,28.43a.375.375,0,0,1-.567.319l-1.322-.784a8.5,8.5,0,0,1-4.165-7.441l.085-18.048a6.544,6.544,0,0,0-3.341-5.8l-16.553-9.717a6.543,6.543,0,0,1-3.342-5.706Z" transform="translate(246.369 -484.581)" fill="#ff7c09"/>
</svg>
