<svg id="working_remotely" xmlns="http://www.w3.org/2000/svg" width="21.465" height="21.465" viewBox="0 0 21.465 21.465">
  <rect id="Rectangle_659" data-name="Rectangle 659" width="2.46" height="4.293" transform="translate(16.054 3.086)" fill="#f05540"/>
  <rect id="Rectangle_660" data-name="Rectangle 660" width="4.338" height="2.325" transform="translate(15.115 0.894)" fill="#f3705a"/>
  <path id="Path_2455" data-name="Path 2455" d="M44.8,75.965v9.883H62.33V75.965L53.565,67.2h0C50.166,70.643,48.243,72.566,44.8,75.965Z" transform="translate(-42.922 -64.383)" fill="#ffd15c"/>
  <path id="Path_2456" data-name="Path 2456" d="M62.374,75.965,53.61,67.2c-1.744,1.7-3.086,3.041-4.427,4.382L44.8,75.965v2.012l8.765-8.765,8.765,8.765v.268h0V75.965h.045Z" transform="translate(-42.922 -64.383)" fill="#f7b64c"/>
  <rect id="Rectangle_661" data-name="Rectangle 661" width="6.887" height="6.037" transform="translate(6.951 13.639)" fill="#944851"/>
  <path id="Path_2458" data-name="Path 2458" d="M21.062,9.749,11.716.4A1.459,1.459,0,0,0,9.7.4L.4,9.749a1.459,1.459,0,0,0,0,2.012,1.459,1.459,0,0,0,2.012,0l8.318-8.318,8.318,8.318a1.423,1.423,0,1,0,2.012-2.012Z" transform="translate(0 0)" fill="#f3705a"/>
</svg>
