<svg xmlns="http://www.w3.org/2000/svg" width="27.404" height="33" viewBox="0 0 27.404 33"><defs><style>.a{fill:#f26a6b;}.b{fill:#cc4b4c;}.c{fill:#fff;}</style></defs><g transform="translate(-568 -664.57)"><g transform="translate(568 664.57)"><path class="a" d="M26.32,33H1.084A1.077,1.077,0,0,1,0,31.93V1.07A1.077,1.077,0,0,1,1.084,0h17.3a1.091,1.091,0,0,1,.766.313l7.936,7.834A1.063,1.063,0,0,1,27.4,8.9V31.93A1.077,1.077,0,0,1,26.32,33Zm0,0"/><path class="b" d="M263.117,8.148,255.181.314A1.092,1.092,0,0,0,254.415,0V7.835A1.077,1.077,0,0,0,255.5,8.9h7.936a1.062,1.062,0,0,0-.318-.756Zm0,0" transform="translate(-236.031 0)"/><path class="c" d="M19.143,26.855h0a1.4,1.4,0,0,1-.8-.246,1.756,1.756,0,0,1-.917-1.693c.15-1.229,1.806-2.516,4.925-3.827a47.979,47.979,0,0,0,3.117-8.118c-.821-1.64-1.619-3.768-1.038-5.016a1.508,1.508,0,0,1,.933-.917,4.371,4.371,0,0,1,.836-.13c.415,0,.779.49,1.038.792.243.284.793.886-.307,5.136a24.128,24.128,0,0,0,4.187,5.71,17.394,17.394,0,0,1,2.763-.27c1.289,0,2.069.276,2.388.843a1.433,1.433,0,0,1-.321,1.631,2.246,2.246,0,0,1-1.827.9,5.645,5.645,0,0,1-3.465-1.725,42.009,42.009,0,0,0-7.264,2.131,21.016,21.016,0,0,1-1.961,3.21C20.59,26.349,19.863,26.855,19.143,26.855Zm2.19-3.871c-1.758.907-2.475,1.652-2.527,2.072-.008.069-.03.252.355.523C19.283,25.544,20,25.244,21.333,22.985ZM32.554,19.63c.671.473.834.713,1.273.713a1.31,1.31,0,0,0,1-.333,1.167,1.167,0,0,0,.189-.313,1.76,1.76,0,0,0-.967-.149A13.1,13.1,0,0,0,32.554,19.63Zm-6.147-4.97a50.959,50.959,0,0,1-2.2,5.712,43.861,43.861,0,0,1,5.345-1.525A25.91,25.91,0,0,1,26.407,14.66Zm-.5-6.39a1.7,1.7,0,0,0,.079,2.428C26.768,9.1,25.943,8.26,25.908,8.27Z" transform="translate(-13.72 0.511)"/></g></g></svg>