<svg xmlns="http://www.w3.org/2000/svg" width="27.052" height="33" viewBox="0 0 27.052 33"><defs><style>.a{fill:#8aadff;}.b{fill:#5d88eb;}.c{fill:#fff;}</style></defs><g transform="translate(-568 -579)"><g transform="translate(568 579)"><path class="a" d="M25.982,33H1.07A1.07,1.07,0,0,1,0,31.93V1.07A1.07,1.07,0,0,1,1.07,0H18.147A1.07,1.07,0,0,1,18.9.313l7.834,7.834a1.07,1.07,0,0,1,.313.756V31.93A1.07,1.07,0,0,1,25.982,33Zm0,0"/><path class="b" d="M263.005,8.148,255.171.314A1.071,1.071,0,0,0,254.415,0V7.835a1.07,1.07,0,0,0,1.07,1.07h7.834a1.069,1.069,0,0,0-.313-.756Zm0,0" transform="translate(-236.267 0)"/><g transform="translate(5.35 15.191)"><path class="c" d="M90.282,384.468H76.07a1.07,1.07,0,0,1,0-2.14H90.282a1.07,1.07,0,0,1,0,2.14Zm0,0" transform="translate(-75 -373.768)"/><path class="c" d="M90.282,324.468H76.07a1.07,1.07,0,0,1,0-2.14H90.282a1.07,1.07,0,0,1,0,2.14Zm0,0" transform="translate(-75 -318.048)"/><path class="c" d="M90.282,264.468H76.07a1.07,1.07,0,1,1,0-2.14H90.282a1.07,1.07,0,1,1,0,2.14Zm0,0" transform="translate(-75 -262.328)"/></g><path class="c" d="M81.233,204.468H76.07a1.07,1.07,0,0,1,0-2.14h5.163a1.07,1.07,0,0,1,0,2.14Zm0,0" transform="translate(-69.65 -191.417)"/></g></g></svg>