<svg xmlns="http://www.w3.org/2000/svg" width="27.052" height="33" viewBox="0 0 27.052 33"><defs><style>.a{fill:#ea83ee;}.b{fill:#d05fd4;}.c{fill:#fff;}</style></defs><g transform="translate(-568 -489.077)"><path class="a" d="M25.982,33H1.07A1.07,1.07,0,0,1,0,31.93V1.07A1.07,1.07,0,0,1,1.07,0H18.147A1.07,1.07,0,0,1,18.9.313l7.834,7.834a1.07,1.07,0,0,1,.313.756V31.93A1.07,1.07,0,0,1,25.982,33Zm0,0" transform="translate(568 489.077)"/><path class="b" d="M263.005,8.148,255.171.314A1.071,1.071,0,0,0,254.415,0V7.835a1.07,1.07,0,0,0,1.07,1.07h7.834a1.069,1.069,0,0,0-.313-.756Zm0,0" transform="translate(331.733 489.077)"/><g transform="translate(567.68 495.577)"><path class="c" d="M13.042,9H14.9v7.423H13.042ZM9.949,9H6.237A1.24,1.24,0,0,0,5,10.237v4.949a1.24,1.24,0,0,0,1.237,1.237H9.949a1.24,1.24,0,0,0,1.237-1.237V12.712H9.33v1.856H6.856V10.856h4.33v-.619A1.24,1.24,0,0,0,9.949,9Zm12.372,1.856V9H16.753v7.423h1.856V13.949h2.474V12.093H18.609V10.856Z"/></g></g></svg>