<svg xmlns="http://www.w3.org/2000/svg" width="27.052" height="33" viewBox="0 0 27.052 33"><defs><style>.a{fill:#fa5;}.b{fill:#db8b13;}.c{fill:#fff;}</style></defs><g transform="translate(-568 -314.077)"><g transform="translate(484.604 -310)"><path class="a" d="M25.982,33H1.07A1.07,1.07,0,0,1,0,31.93V1.07A1.07,1.07,0,0,1,1.07,0H18.147A1.07,1.07,0,0,1,18.9.313l7.834,7.834a1.07,1.07,0,0,1,.313.756V31.93A1.07,1.07,0,0,1,25.982,33Zm0,0" transform="translate(83.396 624.077)"/><path class="b" d="M263.005,8.148,255.171.314A1.071,1.071,0,0,0,254.415,0V7.835a1.07,1.07,0,0,0,1.07,1.07h7.834a1.069,1.069,0,0,0-.313-.756Zm0,0" transform="translate(-152.872 624.077)"/><path class="c" d="M74.858,131.433a1.754,1.754,0,1,0-1.248-.514A1.7,1.7,0,0,0,74.858,131.433Z" transform="translate(18.699 509.58)"/><path class="c" d="M79.221,180.125l-2.043-2.043-4.086,4.086v2.452H91.071V178.9l-5.312-5.312Z" transform="translate(15.562 464.566)"/></g></g></svg>