<?xml version="1.0" encoding="utf-8"?>
<!-- Generator: Adobe Illustrator 16.0.0, SVG Export Plug-In . SVG Version: 6.00 Build 0)  -->
<!DOCTYPE svg PUBLIC "-//W3C//DTD SVG 1.1//EN" "http://www.w3.org/Graphics/SVG/1.1/DTD/svg11.dtd">
<svg version="1.1" id="Layer_1" xmlns="http://www.w3.org/2000/svg" xmlns:xlink="http://www.w3.org/1999/xlink" x="0px" y="0px"
	 width="48.121px" height="44px" viewBox="0 0 48.121 44" enable-background="new 0 0 48.121 44" xml:space="preserve">
<g>
	<path fill="#1A9CD8" d="M45.121,0h-38c-2,0-3,1-3,3v14.303c-0.195,0.114-0.391,0.259-0.586,0.455l-2.828,2.829
		c-0.942,0.943-0.942,1.885,0,2.828l2.828,2.829c0.195,0.195,0.391,0.34,0.586,0.455V41c0,2,1,3,3,3h38c2,0,3-1,3-3V3
		C48.121,1,47.121,0,45.121,0z"/>
	<path fill="#FFFFFF" d="M26.121,38c-4.397,0-8.204-1.577-11.313-4.687c-3.11-3.109-4.688-6.916-4.688-11.313
		s1.577-8.204,4.688-11.313C17.917,7.577,21.724,6,26.121,6c4.398,0,8.204,1.577,11.313,4.687c3.11,3.109,4.687,6.916,4.687,11.313
		s-1.576,8.204-4.687,11.313C34.325,36.423,30.52,38,26.121,38z M26.121,7c-4.123,0-7.691,1.478-10.605,4.394
		C12.6,14.309,11.121,17.877,11.121,22s1.479,7.691,4.395,10.606C18.43,35.522,21.998,37,26.121,37s7.691-1.478,10.606-4.394
		c2.916-2.915,4.394-6.483,4.394-10.606s-1.478-7.691-4.394-10.606C33.813,8.478,30.244,7,26.121,7z"/>
	<rect x="21.605" y="27" fill="#FFFFFF" width="9.031" height="1"/>
	<polygon fill="#FFFFFF" points="29.289,21.594 26.621,24.262 26.621,16 25.621,16 25.621,24.262 22.953,21.594 22.246,22.301 
		26.135,26.189 26.147,26.149 29.996,22.301 	"/>
</g>
</svg>
