<?xml version="1.0" encoding="utf-8"?>
<!-- Generator: Adobe Illustrator 16.0.0, SVG Export Plug-In . SVG Version: 6.00 Build 0)  -->
<!DOCTYPE svg PUBLIC "-//W3C//DTD SVG 1.1//EN" "http://www.w3.org/Graphics/SVG/1.1/DTD/svg11.dtd">
<svg version="1.1" id="Layer_1" xmlns="http://www.w3.org/2000/svg" xmlns:xlink="http://www.w3.org/1999/xlink" x="0px" y="0px"
	 width="28px" height="28px" viewBox="0 0 28 28" enable-background="new 0 0 28 28" xml:space="preserve">
<g>
	<path fill="#1A9CD8" d="M28,14c0,3.866-1.366,7.166-4.101,9.899C21.166,26.633,17.866,28,14,28S6.834,26.633,4.101,23.9
		S0,17.867,0,14s1.367-7.166,4.101-9.899S10.134,0,14,0s7.166,1.367,9.899,4.101C26.634,6.834,28,10.134,28,14z"/>
	<path fill="#FFFFFF" d="M20.257,13.963L9.244,9.307l0.91,4.691l-0.911,4.695L20.257,13.963z M11.098,14.389h5.636l-6.148,2.641
		L11.098,14.389z M16.692,13.542h-5.607l-0.501-2.582L16.692,13.542z"/>
</g>
</svg>
