<?xml version="1.0" encoding="utf-8"?>
<!-- Generator: Adobe Illustrator 16.0.0, SVG Export Plug-In . SVG Version: 6.00 Build 0)  -->
<!DOCTYPE svg PUBLIC "-//W3C//DTD SVG 1.1//EN" "http://www.w3.org/Graphics/SVG/1.1/DTD/svg11.dtd">
<svg version="1.1" id="Layer_1" xmlns="http://www.w3.org/2000/svg" xmlns:xlink="http://www.w3.org/1999/xlink" x="0px" y="0px"
	 width="22px" height="18px" viewBox="0 0 22 18" enable-background="new 0 0 22 18" xml:space="preserve">
<g>
	<path fill="#FFFFFF" d="M16.502,0.79V0h-1.57v0.79H7.1V0H5.53v0.79H2.369V18h17.263V0.79H16.502z M5.53,2.298V3.14H7.1V2.298h7.832
		V3.14h1.57V2.298h1.622v1.667H3.876V2.298H5.53z M3.876,16.492V5.535h14.248v10.957H3.876z"/>
	<rect x="8.631" y="7.052" fill="#FFFFFF" width="1.61" height="1.61"/>
	<rect x="11.811" y="7.052" fill="#FFFFFF" width="1.609" height="1.61"/>
	<rect x="14.991" y="7.052" fill="#FFFFFF" width="1.609" height="1.61"/>
	<rect x="8.631" y="10.193" fill="#FFFFFF" width="1.61" height="1.609"/>
	<rect x="11.811" y="10.193" fill="#FFFFFF" width="1.609" height="1.609"/>
	<rect x="14.991" y="10.193" fill="#FFFFFF" width="1.609" height="1.609"/>
	<rect x="5.452" y="13.373" fill="#FFFFFF" width="1.609" height="1.61"/>
	<rect x="5.452" y="10.193" fill="#FFFFFF" width="1.609" height="1.609"/>
	<rect x="8.631" y="13.373" fill="#FFFFFF" width="1.61" height="1.61"/>
	<rect x="11.811" y="13.373" fill="#FFFFFF" width="1.609" height="1.61"/>
</g>
</svg>
