<?xml version="1.0" encoding="utf-8"?>
<!-- Generator: Adobe Illustrator 16.0.0, SVG Export Plug-In . SVG Version: 6.00 Build 0)  -->
<!DOCTYPE svg PUBLIC "-//W3C//DTD SVG 1.1//EN" "http://www.w3.org/Graphics/SVG/1.1/DTD/svg11.dtd">
<svg version="1.1" id="Layer_1" xmlns="http://www.w3.org/2000/svg" xmlns:xlink="http://www.w3.org/1999/xlink" x="0px" y="0px"
	 width="16px" height="16px" viewBox="0 0 16 16" enable-background="new 0 0 16 16" xml:space="preserve">
<path fill="#CDCCCC" d="M1.428,15.764l3.958-4.359c1.166,0.979,2.63,1.514,4.155,1.514c3.561,0,6.459-2.896,6.459-6.459
	C16,2.897,13.102,0,9.541,0C5.978,0,3.08,2.897,3.08,6.459c0,1.338,0.403,2.613,1.17,3.701l-3.991,4.389
	C0.092,14.711,0,14.924,0,15.158c0,0.217,0.084,0.424,0.236,0.582C0.559,16.078,1.091,16.086,1.428,15.764L1.428,15.764z
	 M14.314,6.459c0,2.633-2.142,4.775-4.773,4.775c-2.634,0-4.775-2.143-4.775-4.775c0-2.631,2.141-4.773,4.775-4.773
	C12.172,1.686,14.314,3.828,14.314,6.459L14.314,6.459z M14.314,6.459"/>
</svg>
