<?xml version="1.0" encoding="utf-8"?>
<!-- Generator: Adobe Illustrator 16.0.0, SVG Export Plug-In . SVG Version: 6.00 Build 0)  -->
<!DOCTYPE svg PUBLIC "-//W3C//DTD SVG 1.1//EN" "http://www.w3.org/Graphics/SVG/1.1/DTD/svg11.dtd">
<svg version="1.1" id="Layer_1" xmlns="http://www.w3.org/2000/svg" xmlns:xlink="http://www.w3.org/1999/xlink" x="0px" y="0px"
	 width="22px" height="18px" viewBox="0 0 22 18" enable-background="new 0 0 22 18" xml:space="preserve">
<g>
	<path fill="#B4E2F5" d="M7.471,13.378c0.947-0.705,1.569-1.822,1.569-3.089c0-2.127-1.731-3.859-3.859-3.859
		c-2.129,0-3.861,1.732-3.861,3.859c0,1.267,0.623,2.384,1.569,3.089C1.185,14.227,0,15.97,0,18h1.329
		c0-2.123,1.729-3.851,3.853-3.851c2.122,0,3.851,1.729,3.851,3.851h1.33C10.361,15.97,9.176,14.227,7.471,13.378z M2.65,10.29
		c0-1.395,1.135-2.531,2.531-2.531c1.394,0,2.529,1.136,2.529,2.531c0,1.395-1.135,2.53-2.529,2.53
		C3.785,12.82,2.65,11.685,2.65,10.29z"/>
	<path fill="#B4E2F5" d="M17.424,5.196H9.791V11.1h1.149v1.704l2.452-1.704h4.031V5.196z M16.21,9.886h-5.204V6.41h5.204V9.886z"/>
	<circle fill="#F26768" cx="18.264" cy="3.736" r="3.736"/>
</g>
</svg>
