<?xml version="1.0" encoding="utf-8"?>
<!-- Generator: Adobe Illustrator 16.0.0, SVG Export Plug-In . SVG Version: 6.00 Build 0)  -->
<!DOCTYPE svg PUBLIC "-//W3C//DTD SVG 1.1//EN" "http://www.w3.org/Graphics/SVG/1.1/DTD/svg11.dtd">
<svg version="1.1" id="Layer_1" xmlns="http://www.w3.org/2000/svg" xmlns:xlink="http://www.w3.org/1999/xlink" x="0px" y="0px"
	 width="28px" height="28px" viewBox="0 0 28 28" enable-background="new 0 0 28 28" xml:space="preserve">
<g>
	<path fill="#1A9CD8" d="M28.003,14c0,3.866-1.367,7.166-4.102,9.899C21.169,26.633,17.869,28,14.003,28
		c-3.867,0-7.167-1.367-9.902-4.101C1.368,21.166,0.001,17.866,0.001,14s1.367-7.166,4.101-9.899C6.837,1.367,10.136,0,14.003,0
		c3.865,0,7.166,1.367,9.898,4.101C26.636,6.834,28.003,10.134,28.003,14z"/>
	<path fill="#FFFFFF" d="M20.699,10.25l-2.871,1.529v-1.654H7.308v7.75h10.52v-1.709l2.871,1.575V10.25z M16.871,16.771H8.308
		v-5.646h8.563V16.771z M19.699,16.051l-1.871-1.026v-2.112l1.871-0.996V16.051z"/>
</g>
</svg>
