<?xml version="1.0" encoding="utf-8"?>
<!-- Generator: Adobe Illustrator 16.0.0, SVG Export Plug-In . SVG Version: 6.00 Build 0)  -->
<!DOCTYPE svg PUBLIC "-//W3C//DTD SVG 1.1//EN" "http://www.w3.org/Graphics/SVG/1.1/DTD/svg11.dtd">
<svg version="1.1" id="Layer_1" xmlns="http://www.w3.org/2000/svg" xmlns:xlink="http://www.w3.org/1999/xlink" x="0px" y="0px"
	 width="20px" height="15px" viewBox="0 0 20 15" enable-background="new 0 0 20 15" xml:space="preserve">
<g>
	<path fill="#939598" d="M7.059,12.056C7.59,11.587,7.89,10.93,7.89,10.222c0-1.357-1.104-2.462-2.462-2.462
		c-1.357,0-2.461,1.104-2.461,2.462c0,0.707,0.301,1.364,0.831,1.833c-1.007,0.585-1.625,1.641-1.625,2.804V15h1.081v-0.141
		c0-1.199,0.976-2.175,2.175-2.175c1.2,0,2.176,0.976,2.176,2.175V15h1.081v-0.141C8.685,13.696,8.068,12.641,7.059,12.056z
		 M5.428,8.841c0.762,0,1.381,0.62,1.381,1.381s-0.62,1.381-1.381,1.381c-0.761,0-1.381-0.62-1.381-1.381S4.667,8.841,5.428,8.841z"
		/>
	<path fill="#939598" d="M16.202,12.056c0.531-0.469,0.831-1.126,0.831-1.833c0-1.357-1.104-2.462-2.462-2.462
		c-1.357,0-2.462,1.104-2.462,2.462c0,0.707,0.301,1.364,0.831,1.833c-1.007,0.585-1.625,1.641-1.625,2.804V15h1.081v-0.141
		c0-1.199,0.976-2.175,2.175-2.175s2.176,0.976,2.176,2.175V15h1.081v-0.141C17.828,13.696,17.211,12.641,16.202,12.056z
		 M14.571,8.841c0.761,0,1.381,0.62,1.381,1.381s-0.62,1.381-1.381,1.381s-1.381-0.62-1.381-1.381S13.81,8.841,14.571,8.841z"/>
	<path fill="#939598" d="M11.983,1.277V0H2.29v5.225h1.264v1.875L6.25,5.225h2.504v1.849h5.054l2.697,1.875V7.074h1.264V1.277
		H11.983z M6.087,3.889L4.889,4.722V3.889H3.625V1.335h7.022v2.554H6.087z M16.434,5.738h-1.264v0.833l-1.198-0.833H10.09V5.225
		h1.893V2.612h4.451V5.738z"/>
</g>
</svg>
