<?xml version="1.0" encoding="utf-8"?>
<!-- Generator: Adobe Illustrator 16.0.0, SVG Export Plug-In . SVG Version: 6.00 Build 0)  -->
<!DOCTYPE svg PUBLIC "-//W3C//DTD SVG 1.1//EN" "http://www.w3.org/Graphics/SVG/1.1/DTD/svg11.dtd">
<svg version="1.1" id="Layer_1" xmlns="http://www.w3.org/2000/svg" xmlns:xlink="http://www.w3.org/1999/xlink" x="0px" y="0px"
	 width="22px" height="18px" viewBox="0 0 22 18" enable-background="new 0 0 22 18" xml:space="preserve">
<g>
	<path fill="#FFFFFF" d="M15.019,6.11c-0.142-0.672-0.821-1.223-1.507-1.223H8.563c-0.687,0-1.365,0.55-1.506,1.223L4.85,16.376
		H3.211V18h15.642v-1.624h-1.669L15.019,6.11z M6.522,16.376l1.696-7.905L8.302,8.08l0.073-0.346V7.733l0.258-1.222h1.249h2.313
		h1.283l0.223,1.222c0.001,0,0.001,0.001,0.001,0.001l1.857,8.642H6.522z"/>
	<rect x="10.241" fill="#FFFFFF" width="1.581" height="3.104"/>
	
		<rect x="3.339" y="3.279" transform="matrix(0.7069 0.7073 -0.7073 0.7069 4.3112 -2.2657)" fill="#FFFFFF" width="3.102" height="1.582"/>
	
		<rect x="16.28" y="2.616" transform="matrix(0.7073 0.707 -0.707 0.7073 7.9433 -10.8483)" fill="#FFFFFF" width="1.582" height="3.103"/>
	<rect x="0.841" y="9.369" fill="#FFFFFF" width="3.103" height="1.581"/>
	<rect x="18.056" y="9.369" fill="#FFFFFF" width="3.104" height="1.581"/>
</g>
</svg>
