<?xml version="1.0" encoding="utf-8"?>
<!-- Generator: Adobe Illustrator 16.0.0, SVG Export Plug-In . SVG Version: 6.00 Build 0)  -->
<!DOCTYPE svg PUBLIC "-//W3C//DTD SVG 1.1//EN" "http://www.w3.org/Graphics/SVG/1.1/DTD/svg11.dtd">
<svg version="1.1" id="Layer_1" xmlns="http://www.w3.org/2000/svg" xmlns:xlink="http://www.w3.org/1999/xlink" x="0px" y="0px"
	 width="14px" height="13.999px" viewBox="0 0 14 13.999" enable-background="new 0 0 14 13.999" xml:space="preserve">
<g>
	<path fill="#F26768" d="M11.899,6.999c0,1.354-0.479,2.507-1.435,3.465C9.507,11.42,8.353,11.898,7,11.898
		c-1.353,0-2.507-0.478-3.464-1.435C2.58,9.506,2.101,8.353,2.101,6.999c0-1.353,0.479-2.507,1.435-3.464
		C4.492,2.579,5.647,2.101,7,2.101c1.354,0,2.507,0.478,3.465,1.435C11.42,4.492,11.899,5.646,11.899,6.999z"/>
	<path fill="#FFFFFF" d="M7,14c-1.924,0-3.589-0.69-4.95-2.05C0.689,10.588,0,8.923,0,6.999s0.689-3.589,2.05-4.95
		C3.411,0.689,5.076,0,7,0c1.925,0,3.59,0.689,4.951,2.05S14,5.075,14,6.999s-0.689,3.589-2.05,4.951C10.589,13.311,8.924,14,7,14z
		 M7,2.1c-1.366,0-2.499,0.47-3.465,1.435C2.57,4.5,2.1,5.633,2.1,6.999s0.47,2.499,1.436,3.466C4.5,11.43,5.634,11.899,7,11.899
		s2.5-0.47,3.466-1.435c0.965-0.967,1.435-2.1,1.435-3.466S11.43,4.5,10.465,3.534C9.5,2.569,8.365,2.1,7,2.1z"/>
</g>
</svg>
