<?xml version="1.0" encoding="utf-8"?>
<!-- Generator: Adobe Illustrator 16.0.0, SVG Export Plug-In . SVG Version: 6.00 Build 0)  -->
<!DOCTYPE svg PUBLIC "-//W3C//DTD SVG 1.1//EN" "http://www.w3.org/Graphics/SVG/1.1/DTD/svg11.dtd">
<svg version="1.1" id="Layer_1" xmlns="http://www.w3.org/2000/svg" xmlns:xlink="http://www.w3.org/1999/xlink" x="0px" y="0px"
	 width="22px" height="18px" viewBox="0 0 22 18" enable-background="new 0 0 22 18" xml:space="preserve">
<g>
	<path fill="#B4E2F5" d="M19.079,7.11l-1.264-0.215c-0.132-0.425-0.301-0.835-0.508-1.226l0.745-1.041
		c0.315-0.443,0.267-1.049-0.121-1.434l-1.121-1.12c-0.211-0.211-0.489-0.327-0.786-0.327c-0.233,0-0.455,0.072-0.643,0.207
		l-1.045,0.744c-0.406-0.214-0.831-0.391-1.271-0.522l-0.211-1.248C12.766,0.392,12.303,0,11.758,0h-1.583
		C9.629,0,9.167,0.392,9.077,0.929L8.858,2.208c-0.42,0.131-0.831,0.304-1.222,0.514L6.602,1.978
		C6.415,1.842,6.189,1.771,5.956,1.771c-0.297,0-0.579,0.116-0.786,0.326L4.046,3.219C3.662,3.603,3.609,4.208,3.925,4.651
		l0.752,1.057c-0.207,0.395-0.372,0.805-0.5,1.229L2.929,7.148C2.391,7.239,2,7.701,2,8.246v1.583c0,0.545,0.391,1.008,0.929,1.098
		l1.278,0.219c0.132,0.421,0.304,0.832,0.515,1.222l-0.741,1.03c-0.316,0.444-0.267,1.049,0.12,1.432l1.121,1.121
		c0.21,0.211,0.488,0.327,0.786,0.327c0.232,0,0.455-0.071,0.643-0.206l1.057-0.753c0.379,0.199,0.778,0.361,1.188,0.489
		l0.211,1.264C9.197,17.608,9.66,18,10.205,18h1.586c0.545,0,1.008-0.392,1.098-0.929l0.214-1.264
		c0.425-0.132,0.834-0.301,1.226-0.507l1.041,0.744c0.188,0.135,0.414,0.207,0.647,0.207c0.297,0,0.575-0.116,0.786-0.327
		l1.121-1.12c0.383-0.384,0.436-0.99,0.12-1.434l-0.744-1.046c0.207-0.395,0.379-0.805,0.507-1.225l1.263-0.211
		C19.609,10.799,20,10.336,20,9.792V8.208C20.007,7.664,19.616,7.201,19.079,7.11z M18.996,9.792h-0.004
		c0,0.049-0.034,0.09-0.082,0.097l-1.58,0.264c-0.2,0.033-0.357,0.181-0.407,0.372c-0.143,0.553-0.36,1.084-0.654,1.576
		c-0.102,0.173-0.094,0.388,0.022,0.552l0.928,1.309c0.027,0.038,0.023,0.095-0.011,0.128l-1.12,1.121
		c-0.026,0.026-0.053,0.029-0.072,0.029c-0.022,0-0.042-0.007-0.057-0.019l-1.304-0.929c-0.162-0.116-0.38-0.123-0.553-0.022
		c-0.492,0.294-1.022,0.512-1.575,0.654c-0.196,0.05-0.342,0.211-0.373,0.406l-0.267,1.58c-0.007,0.049-0.049,0.082-0.098,0.082
		h-1.583c-0.049,0-0.09-0.033-0.098-0.082l-0.263-1.58c-0.034-0.199-0.181-0.356-0.372-0.406c-0.538-0.139-1.057-0.354-1.542-0.632
		c-0.079-0.045-0.169-0.067-0.255-0.067c-0.102,0-0.207,0.03-0.294,0.095l-1.315,0.935c-0.019,0.014-0.038,0.02-0.057,0.02
		c-0.015,0-0.045-0.003-0.072-0.03l-1.121-1.12c-0.033-0.034-0.038-0.087-0.011-0.128l0.925-1.297
		c0.117-0.165,0.124-0.385,0.023-0.557c-0.293-0.488-0.52-1.019-0.663-1.572c-0.052-0.191-0.21-0.337-0.406-0.372l-1.59-0.271
		C3.049,9.92,3.015,9.878,3.015,9.829V8.246c0-0.049,0.034-0.091,0.083-0.097l1.568-0.264c0.199-0.033,0.361-0.181,0.41-0.377
		C5.215,6.957,5.43,6.422,5.719,5.93c0.102-0.173,0.09-0.388-0.026-0.549L4.756,4.064C4.73,4.027,4.733,3.97,4.768,3.937l1.12-1.12
		C5.915,2.79,5.94,2.785,5.959,2.785c0.022,0,0.042,0.009,0.057,0.02L7.313,3.73C7.479,3.847,7.696,3.855,7.87,3.753
		c0.489-0.294,1.019-0.52,1.572-0.662C9.633,3.038,9.78,2.88,9.813,2.685l0.271-1.59c0.007-0.049,0.049-0.083,0.097-0.083h1.583
		c0.049,0,0.09,0.034,0.098,0.083l0.263,1.567c0.035,0.199,0.181,0.361,0.376,0.41c0.568,0.143,1.109,0.364,1.613,0.661
		c0.173,0.103,0.387,0.095,0.553-0.022l1.297-0.932c0.019-0.012,0.038-0.02,0.057-0.02c0.015,0,0.045,0.004,0.071,0.03l1.121,1.121
		c0.034,0.033,0.038,0.086,0.011,0.128l-0.929,1.304c-0.116,0.162-0.124,0.381-0.023,0.554c0.294,0.492,0.512,1.021,0.655,1.575
		c0.049,0.195,0.21,0.343,0.406,0.372l1.579,0.268c0.049,0.007,0.083,0.049,0.083,0.097V9.792z"/>
	<path fill="#B4E2F5" d="M11.002,5.114c-2.144,0-3.884,1.74-3.884,3.885c0,2.144,1.741,3.884,3.884,3.884s3.884-1.74,3.884-3.884
		C14.886,6.854,13.146,5.114,11.002,5.114z M11.002,11.867c-1.583,0-2.869-1.285-2.869-2.868c0-1.584,1.286-2.869,2.869-2.869
		c1.583,0,2.869,1.285,2.869,2.869C13.871,10.582,12.585,11.867,11.002,11.867z"/>
</g>
</svg>
