<?xml version="1.0" encoding="utf-8"?>
<!-- Generator: Adobe Illustrator 16.0.0, SVG Export Plug-In . SVG Version: 6.00 Build 0)  -->
<!DOCTYPE svg PUBLIC "-//W3C//DTD SVG 1.1//EN" "http://www.w3.org/Graphics/SVG/1.1/DTD/svg11.dtd">
<svg version="1.1" id="Layer_1" xmlns="http://www.w3.org/2000/svg" xmlns:xlink="http://www.w3.org/1999/xlink" x="0px" y="0px"
	 width="20px" height="15px" viewBox="0 0 20 15" enable-background="new 0 0 20 15" xml:space="preserve">
<g>
	<path d="M7.131,10.836v0.228h1.222v-0.228c0-1.099,0.895-1.993,1.994-1.993c1.099,0,1.993,0.895,1.993,1.993v0.228h1.223v-0.228
		c0-1.107-0.567-2.116-1.5-2.704C12.534,7.671,12.8,7.053,12.8,6.39c0-1.353-1.101-2.454-2.453-2.454S7.894,5.037,7.894,6.39
		c0,0.663,0.265,1.282,0.736,1.743C7.698,8.721,7.131,9.729,7.131,10.836z M10.347,5.157c0.679,0,1.232,0.553,1.232,1.232
		s-0.554,1.231-1.232,1.231c-0.68,0-1.232-0.552-1.232-1.231S9.667,5.157,10.347,5.157z"/>
	<polygon points="4.131,0 4.131,3.095 3.438,3.095 3.438,4.375 4.131,4.375 5.314,4.375 5.314,3.095 5.314,1.183 15.379,1.183 
		15.379,13.817 5.314,13.817 5.314,11.872 4.131,11.872 4.131,15 16.562,15 16.562,0 	"/>
	<polygon points="5.314,7.504 5.314,6.224 5.314,4.987 4.131,4.987 4.131,6.224 3.438,6.224 3.438,7.504 4.131,7.504 	"/>
	<polygon points="5.314,10.62 5.314,9.339 5.314,8.116 4.131,8.116 4.131,9.339 3.438,9.339 3.438,10.62 4.131,10.62 	"/>
</g>
</svg>
