<?xml version="1.0" encoding="utf-8"?>
<!-- Generator: Adobe Illustrator 16.0.0, SVG Export Plug-In . SVG Version: 6.00 Build 0)  -->
<!DOCTYPE svg PUBLIC "-//W3C//DTD SVG 1.1//EN" "http://www.w3.org/Graphics/SVG/1.1/DTD/svg11.dtd">
<svg version="1.1" id="Layer_1" xmlns="http://www.w3.org/2000/svg" xmlns:xlink="http://www.w3.org/1999/xlink" x="0px" y="0px"
	 width="14px" height="14px" viewBox="0 0 14 14" enable-background="new 0 0 14 14" xml:space="preserve">
<g>
	<path fill="#7FBB42" d="M11.897,7c0,1.353-0.479,2.506-1.435,3.462C9.506,11.419,8.353,11.896,7,11.896s-2.507-0.478-3.463-1.434
		C2.583,9.506,2.103,8.353,2.103,7s0.479-2.506,1.435-3.462C4.494,2.582,5.648,2.104,7,2.104s2.506,0.478,3.462,1.434
		S11.897,5.647,11.897,7z"/>
	<path fill="#FFFFFF" d="M7,14c-1.925,0-3.59-0.689-4.949-2.05C0.69,10.589,0,8.924,0,7C0,5.076,0.69,3.411,2.051,2.051
		C3.411,0.69,5.076,0,7,0c1.923,0,3.59,0.689,4.949,2.05C13.31,3.411,14,5.076,14,7c0,1.924-0.69,3.589-2.051,4.949
		C10.589,13.31,8.923,14,7,14z M7,2.101c-1.367,0-2.5,0.469-3.465,1.435C2.57,4.501,2.1,5.634,2.1,7s0.47,2.499,1.436,3.465
		C4.501,11.43,5.634,11.899,7,11.899c1.365,0,2.498-0.469,3.465-1.435C11.431,9.499,11.9,8.366,11.9,7s-0.469-2.499-1.435-3.465
		C9.499,2.57,8.366,2.101,7,2.101z"/>
</g>
</svg>
