<?xml version="1.0" encoding="utf-8"?>
<!-- Generator: Adobe Illustrator 16.0.0, SVG Export Plug-In . SVG Version: 6.00 Build 0)  -->
<!DOCTYPE svg PUBLIC "-//W3C//DTD SVG 1.1//EN" "http://www.w3.org/Graphics/SVG/1.1/DTD/svg11.dtd">
<svg version="1.1" id="Layer_1" xmlns="http://www.w3.org/2000/svg" xmlns:xlink="http://www.w3.org/1999/xlink" x="0px" y="0px"
	 width="28px" height="28px" viewBox="0 0 28 28" enable-background="new 0 0 28 28" xml:space="preserve">
<g>
	<path opacity="0.251" fill="#95C8EC" d="M27.002,14c0,3.59-1.27,6.654-3.809,9.192C20.655,25.731,17.591,27,14,27
		c-3.59,0-6.654-1.269-9.192-3.808C2.27,20.654,1,17.59,1,14s1.27-6.654,3.808-9.192C7.346,2.269,10.41,1,14,1
		c3.591,0,6.655,1.269,9.193,3.808C25.732,7.346,27.002,10.41,27.002,14z"/>
	<path fill="#1A9CD8" d="M14,28c-3.849,0-7.179-1.379-9.899-4.101C1.38,21.179,0,17.848,0,14s1.38-7.179,4.101-9.899
		C6.821,1.379,10.151,0,14,0s7.18,1.379,9.9,4.101c2.721,2.721,4.102,6.052,4.102,9.899s-1.381,7.179-4.102,9.899
		C21.18,26.621,17.849,28,14,28z M14,1c-3.573,0-6.666,1.281-9.192,3.808C2.281,7.334,1,10.427,1,14s1.281,6.666,3.808,9.192
		C7.334,25.719,10.427,27,14,27s6.667-1.281,9.193-3.808c2.527-2.527,3.809-5.619,3.809-9.192s-1.281-6.666-3.809-9.192
		C20.667,2.281,17.573,1,14,1z"/>
	<g>
		<polygon fill="#1A9CD8" points="18.274,15.688 17.228,15.688 17.228,17.234 15.68,17.234 15.68,18.281 17.228,18.281 
			17.228,19.828 18.274,19.828 18.274,18.281 19.821,18.281 19.821,17.234 18.274,17.234 		"/>
		<path fill="#1A9CD8" d="M17.769,13.644c-0.939,0-1.795,0.33-2.487,0.862c-0.172-0.116-0.35-0.225-0.535-0.318
			c0.926-0.689,1.534-1.781,1.534-3.021c0-2.081-1.694-3.774-3.774-3.774c-2.082,0-3.775,1.693-3.775,3.774
			c0,1.24,0.609,2.332,1.534,3.021c-1.667,0.83-2.826,2.535-2.826,4.521h1.3c0-2.077,1.69-3.767,3.768-3.767
			c0.681,0,1.311,0.194,1.859,0.514c-0.442,0.655-0.701,1.444-0.701,2.292c0,2.263,1.84,4.104,4.104,4.104
			c2.264,0,4.106-1.841,4.106-4.104S20.032,13.644,17.769,13.644z M12.506,13.642c-1.365,0-2.476-1.11-2.476-2.475
			c0-1.364,1.11-2.475,2.476-2.475c1.364,0,2.475,1.11,2.475,2.475C14.98,12.532,13.87,13.642,12.506,13.642z M17.769,20.853
			c-1.711,0-3.104-1.393-3.104-3.104c0-1.711,1.394-3.104,3.104-3.104c1.713,0,3.105,1.393,3.105,3.104
			C20.874,19.46,19.481,20.853,17.769,20.853z"/>
	</g>
</g>
</svg>
