<?xml version="1.0" encoding="utf-8"?>
<!-- Generator: Adobe Illustrator 16.0.0, SVG Export Plug-In . SVG Version: 6.00 Build 0)  -->
<!DOCTYPE svg PUBLIC "-//W3C//DTD SVG 1.1//EN" "http://www.w3.org/Graphics/SVG/1.1/DTD/svg11.dtd">
<svg version="1.1" id="Layer_1" xmlns="http://www.w3.org/2000/svg" xmlns:xlink="http://www.w3.org/1999/xlink" x="0px" y="0px"
	 width="28px" height="28px" viewBox="0 0 28 28" enable-background="new 0 0 28 28" xml:space="preserve">
<g>
	<path fill="#1A9CD8" d="M28.001,14c0,3.866-1.367,7.166-4.102,9.899C21.167,26.633,17.866,28,14.001,28
		c-3.867,0-7.166-1.367-9.9-4.101c-2.734-2.733-4.1-6.033-4.1-9.899s1.365-7.166,4.1-9.899C6.835,1.367,10.134,0,14.001,0
		c3.865,0,7.166,1.367,9.898,4.101C26.634,6.834,28.001,10.134,28.001,14z"/>
	<path fill="#FFFFFF" d="M18.714,17.544l-1.041-1.666c-0.201-0.332-0.484-0.547-0.816-0.623s-0.684-0.006-1.014,0.201l-0.887,0.555
		c-0.02-0.017-0.039-0.033-0.059-0.05l-0.051-0.042c-0.074-0.061-0.146-0.12-0.203-0.177c-0.617-0.623-1.135-1.369-1.586-2.282
		c-0.199-0.42-0.324-0.761-0.398-1.098c0.188-0.11,0.369-0.225,0.545-0.337l0.344-0.218c0.336-0.213,0.555-0.5,0.631-0.834
		c0.076-0.333,0.004-0.687-0.207-1.025l-0.559-0.892c-0.047-0.072-0.092-0.145-0.135-0.22c-0.105-0.172-0.23-0.375-0.361-0.566
		c-0.201-0.316-0.48-0.524-0.813-0.6c-0.322-0.074-0.676-0.011-1.01,0.189l-1.029,0.653C9.655,8.771,9.37,9.136,9.22,9.598
		c-0.229,0.725-0.17,1.459-0.105,1.948c0.156,1.185,0.529,2.332,1.178,3.612c0.793,1.55,1.869,2.877,3.201,3.943
		c0.516,0.405,1.215,0.904,2.061,1.157c0.053,0.014,0.109,0.029,0.16,0.041c0.156,0.036,0.311,0.055,0.461,0.059l0,0
		c0.426,0.009,0.826-0.113,1.205-0.376c0.143-0.109,0.303-0.206,0.469-0.307l0.055-0.033c0.131-0.078,0.262-0.161,0.396-0.248
		c0.324-0.211,0.537-0.501,0.613-0.835C18.991,18.221,18.921,17.871,18.714,17.544z M14.573,16.733l-0.063,0.096
		c0.086,0.07,0.176,0.115,0.275,0.139c0.041,0.008,0.08,0.013,0.123,0.014c0.189,0.005,0.33-0.084,0.375-0.113l1.035-0.65
		c0.082-0.051,0.219-0.11,0.332-0.086c0.123,0.029,0.203,0.142,0.242,0.212l1.053,1.675c0.162,0.257,0.119,0.448-0.143,0.622
		c-0.105,0.07-0.209,0.133-0.318,0.2l-0.047,0.027c-0.193,0.117-0.398,0.242-0.592,0.388c-0.289,0.194-0.57,0.245-0.932,0.163
		c-0.033-0.008-0.072-0.017-0.105-0.026c-0.707-0.21-1.309-0.643-1.752-0.997c-1.229-0.985-2.225-2.211-2.957-3.643
		c-0.602-1.191-0.947-2.248-1.088-3.325c-0.086-0.648-0.064-1.127,0.072-1.557c0.084-0.256,0.232-0.452,0.461-0.594l1.029-0.647
		c0.1-0.057,0.191-0.085,0.273-0.085c0.02,0.001,0.041,0.004,0.061,0.008c0.119,0.026,0.203,0.126,0.26,0.218
		c0.117,0.173,0.227,0.35,0.34,0.538l0.699,1.121c0.168,0.27,0.129,0.441-0.141,0.611l-0.084,0.054
		c-0.061,0.036-0.117,0.072-0.178,0.109c-0.27,0.173-0.498,0.319-0.77,0.469c-0.305,0.192-0.322,0.454-0.307,0.636l0.002,0.029
		c0.08,0.469,0.236,0.934,0.512,1.516c0.496,1.006,1.07,1.831,1.752,2.52c0.092,0.09,0.186,0.169,0.275,0.242
		c0.076,0.063,0.148,0.122,0.217,0.19L14.573,16.733L14.573,16.733z"/>
</g>
</svg>
