<svg xmlns="http://www.w3.org/2000/svg" width="21.241" height="21.24" viewBox="0 0 21.241 21.24">
  <path id="link" d="M20.147,12.966,17.44,10.259a3.771,3.771,0,0,0-5.362.052L10.933,9.165a3.66,3.66,0,0,0,1.145-2.72A3.594,3.594,0,0,0,11,3.8L8.316,1.109A3.566,3.566,0,0,0,5.661,0a3.594,3.594,0,0,0-2.642,1.08l-1.913,1.9A3.551,3.551,0,0,0,0,5.626,3.615,3.615,0,0,0,1.093,8.281L3.8,10.988a3.615,3.615,0,0,0,2.655,1.093,3.646,3.646,0,0,0,2.707-1.145l1.145,1.145A3.661,3.661,0,0,0,9.162,14.8a3.594,3.594,0,0,0,1.08,2.642l2.681,2.694a3.755,3.755,0,0,0,5.3.026l1.913-1.9a3.552,3.552,0,0,0,1.106-2.642A3.616,3.616,0,0,0,20.147,12.966ZM9.163,7.4l-.241-.247q-.2-.208-.28-.28a3.147,3.147,0,0,0-.247-.2A1.049,1.049,0,0,0,8.063,6.5,1.326,1.326,0,0,0,7.7,6.459,1.244,1.244,0,0,0,6.456,7.708a1.326,1.326,0,0,0,.045.358A1.045,1.045,0,0,0,6.67,8.4a3.131,3.131,0,0,0,.2.247q.071.078.28.28l.247.241a1.258,1.258,0,0,1-.937.4,1.2,1.2,0,0,1-.885-.351L2.863,6.511A1.205,1.205,0,0,1,2.5,5.626a1.19,1.19,0,0,1,.364-.872l1.913-1.9A1.257,1.257,0,0,1,5.662,2.5a1.205,1.205,0,0,1,.885.364L9.228,5.56a1.2,1.2,0,0,1,.364.885A1.264,1.264,0,0,1,9.163,7.4Zm9.215,9.1-1.913,1.9a1.254,1.254,0,0,1-.885.338,1.2,1.2,0,0,1-.885-.351l-2.681-2.694a1.2,1.2,0,0,1-.364-.885,1.262,1.262,0,0,1,.429-.95c.026.026.106.109.241.247s.228.232.28.28a3.09,3.09,0,0,0,.247.2,1.043,1.043,0,0,0,.332.169,1.324,1.324,0,0,0,.358.046,1.244,1.244,0,0,0,1.25-1.249,1.334,1.334,0,0,0-.046-.358,1.041,1.041,0,0,0-.17-.332,3.142,3.142,0,0,0-.2-.247q-.072-.078-.28-.28l-.247-.241a1.24,1.24,0,0,1,.937-.417,1.2,1.2,0,0,1,.885.364l2.707,2.707a1.205,1.205,0,0,1,.364.885A1.189,1.189,0,0,1,18.378,16.493Z" transform="translate(0 -0.003)" fill="#7a8b93"/>
</svg>
