<svg xmlns="http://www.w3.org/2000/svg" viewBox="0 0 11.56 11.56"><defs><style>.cls-1{fill:#0584bd;}</style></defs><title>logout-</title><g id="Layer_2" data-name="Layer 2"><g id="Layer_1-2" data-name="Layer 1"><path class="cls-1" d="M1.17,11.56A1.17,1.17,0,0,1,0,10.39V7.91H1v2.63h9.52V1H1V3.65H0V1.17A1.17,1.17,0,0,1,1.17,0h9.22a1.17,1.17,0,0,1,1.17,1.17v9.22a1.17,1.17,0,0,1-1.17,1.17Z"/><polygon class="cls-1" points="4.73 8.14 6.58 6.29 0 6.29 0 5.27 6.58 5.27 4.73 3.42 5.45 2.7 8.53 5.78 5.45 8.86 4.73 8.14"/></g></g></svg>