<svg xmlns="http://www.w3.org/2000/svg" viewBox="0 0 13.96 14.8"><defs><style>.cls-1{fill:#0584bd;}</style></defs><title>share-</title><g id="Layer_2" data-name="Layer 2"><g id="Layer_1-2" data-name="Layer 1"><path class="cls-1" d="M11.31,9.51a2.67,2.67,0,0,0-2.1,1L5.14,8.27a2.53,2.53,0,0,0,.15-.87,2.58,2.58,0,0,0-.15-.88L9.2,4.25A2.65,2.65,0,0,0,14,2.65a2.65,2.65,0,1,0-5.29,0,2.53,2.53,0,0,0,.15.87L4.75,5.79a2.65,2.65,0,1,0-2.1,4.26A2.63,2.63,0,0,0,4.75,9l4.07,2.28a2.55,2.55,0,0,0-.16.88,2.65,2.65,0,1,0,2.65-2.65Zm0-8.68A1.82,1.82,0,1,1,9.49,2.65,1.82,1.82,0,0,1,11.31.83ZM2.65,9.22A1.82,1.82,0,1,1,4.47,7.4,1.83,1.83,0,0,1,2.65,9.22ZM11.31,14a1.82,1.82,0,1,1,1.81-1.82A1.81,1.81,0,0,1,11.31,14Z"/></g></g></svg>