<?xml version="1.0" encoding="utf-8"?>
<!-- Generator: Adobe Illustrator 16.0.0, SVG Export Plug-In . SVG Version: 6.00 Build 0)  -->
<!DOCTYPE svg PUBLIC "-//W3C//DTD SVG 1.1//EN" "http://www.w3.org/Graphics/SVG/1.1/DTD/svg11.dtd">
<svg version="1.1" id="Layer_1" xmlns="http://www.w3.org/2000/svg" xmlns:xlink="http://www.w3.org/1999/xlink" x="0px" y="0px"
	 width="14px" height="14px" viewBox="0 0 14 14" enable-background="new 0 0 14 14" xml:space="preserve">
<path fill="#1A9CD8" d="M13.5,10.007L11.82,8.3c-0.326-0.342-0.721-0.526-1.143-0.533C10.256,7.761,9.85,7.93,9.504,8.255
	L8.573,9.13C8.546,9.116,8.518,9.101,8.49,9.086L8.42,9.05C8.312,8.995,8.211,8.944,8.127,8.891C7.225,8.309,6.41,7.557,5.634,6.592
	C5.287,6.147,5.049,5.775,4.873,5.396c0.2-0.176,0.39-0.356,0.573-0.532l0.358-0.342c0.354-0.334,0.545-0.728,0.552-1.14
	C6.364,2.97,6.187,2.57,5.846,2.224L4.943,1.311C4.872,1.238,4.797,1.162,4.725,1.085C4.556,0.908,4.355,0.7,4.147,0.506
	C3.825,0.183,3.433,0.008,3.014,0c-0.412-0.006-0.82,0.154-1.173,0.474L0.764,1.5C0.332,1.905,0.083,2.406,0.02,2.988
	C-0.074,3.9,0.183,4.751,0.386,5.312c0.488,1.359,1.231,2.619,2.338,3.969c1.352,1.632,2.989,2.93,4.869,3.856
	c0.725,0.351,1.695,0.766,2.783,0.854c0.067,0.003,0.138,0.008,0.202,0.008c0.197,0.003,0.39-0.012,0.572-0.045c0,0,0,0,0.001,0
	c0.515-0.095,0.968-0.337,1.36-0.741c0.144-0.164,0.312-0.317,0.487-0.478l0.057-0.052c0.138-0.124,0.277-0.254,0.417-0.39
	c0.338-0.331,0.521-0.725,0.529-1.138C14.007,10.737,13.834,10.34,13.5,10.007z M8.293,10.077l-0.05,0.127
	c0.123,0.062,0.243,0.093,0.368,0.096c0.051,0,0.1-0.004,0.149-0.013c0.232-0.042,0.378-0.182,0.426-0.227l1.086-1.024
	c0.085-0.08,0.235-0.184,0.377-0.183c0.158,0.003,0.283,0.117,0.348,0.19l1.697,1.714c0.261,0.264,0.258,0.5-0.017,0.768
	c-0.106,0.109-0.217,0.209-0.333,0.315l-0.049,0.044c-0.203,0.185-0.419,0.385-0.617,0.605c-0.299,0.3-0.628,0.43-1.083,0.423
	c-0.043-0.001-0.089-0.002-0.132-0.005c-0.908-0.072-1.743-0.434-2.37-0.74C6.359,11.31,4.846,10.11,3.599,8.603
	C2.57,7.347,1.883,6.187,1.442,4.951c-0.27-0.743-0.364-1.313-0.309-1.854c0.035-0.323,0.166-0.59,0.406-0.815l1.08-1.018
	c0.104-0.093,0.207-0.148,0.308-0.168C2.951,1.093,2.977,1.09,3,1.09c0.15,0.002,0.276,0.099,0.369,0.193
	C3.555,1.458,3.73,1.641,3.917,1.833l1.129,1.149C5.318,3.258,5.314,3.47,5.031,3.737L4.943,3.822
	C4.882,3.879,4.822,3.937,4.758,3.995C4.476,4.267,4.234,4.494,3.946,4.739c-0.32,0.302-0.273,0.614-0.209,0.827l0.012,0.034
	C3.963,6.132,4.269,6.643,4.75,7.26c0.854,1.064,1.756,1.895,2.756,2.538C7.638,9.882,7.774,9.952,7.9,10.015
	c0.107,0.055,0.209,0.107,0.311,0.17L8.293,10.077L8.293,10.077z"/>
</svg>
