<?xml version="1.0" encoding="utf-8"?>
<!-- Generator: Adobe Illustrator 16.0.0, SVG Export Plug-In . SVG Version: 6.00 Build 0)  -->
<!DOCTYPE svg PUBLIC "-//W3C//DTD SVG 1.1//EN" "http://www.w3.org/Graphics/SVG/1.1/DTD/svg11.dtd">
<svg version="1.1" id="Layer_1" xmlns="http://www.w3.org/2000/svg" xmlns:xlink="http://www.w3.org/1999/xlink" x="0px" y="0px"
	 width="14px" height="14px" viewBox="0 0 14 14" enable-background="new 0 0 14 14" xml:space="preserve">
<g>
	<path fill="#1A9CD8" d="M5.554,5.75c0.283-0.273,0.441-0.643,0.441-1.04c0-0.806-0.656-1.462-1.462-1.462
		c-0.807,0-1.463,0.656-1.463,1.462c0,0.397,0.159,0.767,0.441,1.04C2.953,6.102,2.614,6.704,2.614,7.365V7.5h0.727V7.365
		c0-0.657,0.534-1.191,1.191-1.191c0.657,0,1.19,0.534,1.19,1.191V7.5H6.45V7.365C6.45,6.704,6.111,6.102,5.554,5.75z M4.533,3.974
		c0.406,0,0.736,0.331,0.736,0.736c0,0.407-0.33,0.737-0.736,0.737c-0.407,0-0.737-0.33-0.737-0.737
		C3.795,4.304,4.126,3.974,4.533,3.974z"/>
	<path fill="#1A9CD8" d="M11.734,4.26l0.173-1.793L9.315,2.216V1.162H0v8.293h1.872L1.836,9.823l1.672,0.162l-0.211,1.108
		l9.15,1.746L14,4.692L11.734,4.26z M1.037,2.184h7.242v6.22H1.037V2.184z M9.315,9.455V3.244l1.462,0.141l-0.601,6.19L8.933,9.455
		H9.315z M11.625,11.612l-7.114-1.357l0.033-0.169l6.563,0.636l0.527-5.439l1.155,0.221L11.625,11.612z"/>
</g>
</svg>
