<?xml version="1.0" encoding="utf-8"?>
<!-- Generator: Adobe Illustrator 16.0.0, SVG Export Plug-In . SVG Version: 6.00 Build 0)  -->
<!DOCTYPE svg PUBLIC "-//W3C//DTD SVG 1.1//EN" "http://www.w3.org/Graphics/SVG/1.1/DTD/svg11.dtd">
<svg version="1.1" id="Layer_1" xmlns="http://www.w3.org/2000/svg" xmlns:xlink="http://www.w3.org/1999/xlink" x="0px" y="0px"
	 width="16.266px" height="14.409px" viewBox="0 0 16.266 14.409" enable-background="new 0 0 16.266 14.409" xml:space="preserve">
<g>
	<path fill="#FFFFFF" d="M11.351,4.891c-0.114-0.538-0.657-0.979-1.207-0.979H6.183c-0.55,0-1.093,0.44-1.206,0.979L3.21,13.109
		H1.897v1.3h12.521v-1.3h-1.336L11.351,4.891z M4.548,13.109l1.358-6.328l0.066-0.313l0.059-0.277c0,0,0,0,0,0l0.206-0.978h1h1.852
		h1.027l0.179,0.978c0.001,0,0.001,0,0.001,0l1.486,6.918H4.548z"/>
	<rect x="7.525" fill="#FFFFFF" width="1.266" height="2.484"/>
	
		<rect x="2" y="2.625" transform="matrix(0.707 0.7072 -0.7072 0.707 3.2537 -1.338)" fill="#FFFFFF" width="2.484" height="1.266"/>
	
		<rect x="12.36" y="2.094" transform="matrix(0.7073 0.7069 -0.7069 0.7073 6.1612 -8.2083)" fill="#FFFFFF" width="1.266" height="2.484"/>
	<rect y="7.5" fill="#FFFFFF" width="2.484" height="1.266"/>
	<rect x="13.781" y="7.5" fill="#FFFFFF" width="2.484" height="1.266"/>
</g>
</svg>
