<?xml version="1.0" encoding="utf-8"?>
<!-- Generator: Adobe Illustrator 16.0.0, SVG Export Plug-In . SVG Version: 6.00 Build 0)  -->
<!DOCTYPE svg PUBLIC "-//W3C//DTD SVG 1.1//EN" "http://www.w3.org/Graphics/SVG/1.1/DTD/svg11.dtd">
<svg version="1.1" id="Layer_1" xmlns="http://www.w3.org/2000/svg" xmlns:xlink="http://www.w3.org/1999/xlink" x="0px" y="0px"
	 width="16.024px" height="15.47px" viewBox="0 0 16.024 15.47" enable-background="new 0 0 16.024 15.47" xml:space="preserve">
<path fill="#CDCCCC" d="M1.43,15.235l3.965-3.813c1.167,0.981,2.633,1.518,4.161,1.518c3.566,0,6.469-2.901,6.469-6.471
	C16.024,2.902,13.122,0,9.555,0c-3.568,0-6.47,2.902-6.47,6.468c0,1.34,0.403,2.617,1.171,3.707L0.26,14.019
	C0.091,14.18,0,14.395,0,14.628c0,0.217,0.084,0.424,0.236,0.582C0.559,15.548,1.093,15.557,1.43,15.235L1.43,15.235z M14.335,6.468
	c0,2.638-2.145,4.783-4.78,4.783c-2.637,0-4.782-2.146-4.782-4.783c0-2.635,2.145-4.78,4.782-4.78
	C12.19,1.688,14.335,3.833,14.335,6.468L14.335,6.468z M14.335,6.468"/>
</svg>
