<?xml version="1.0" encoding="utf-8"?>
<!-- Generator: Adobe Illustrator 16.0.0, SVG Export Plug-In . SVG Version: 6.00 Build 0)  -->
<!DOCTYPE svg PUBLIC "-//W3C//DTD SVG 1.1//EN" "http://www.w3.org/Graphics/SVG/1.1/DTD/svg11.dtd">
<svg version="1.1" id="Layer_1" xmlns="http://www.w3.org/2000/svg" xmlns:xlink="http://www.w3.org/1999/xlink" x="0px" y="0px"
	 width="20px" height="15px" viewBox="0 0 20 15" enable-background="new 0 0 20 15" xml:space="preserve">
<g>
	<path d="M8.278,9.879c1.049-0.78,1.738-2.019,1.738-3.423c0-2.357-1.918-4.275-4.276-4.275c-2.359,0-4.277,1.918-4.277,4.275
		c0,1.404,0.69,2.643,1.738,3.423C1.313,10.818,0,12.751,0,15h1.473c0-2.353,1.915-4.268,4.268-4.268
		c2.352,0,4.267,1.915,4.267,4.268h1.473C11.48,12.751,10.167,10.818,8.278,9.879z M2.937,6.456c0-1.545,1.258-2.803,2.804-2.803
		c1.545,0,2.803,1.258,2.803,2.803c0,1.546-1.258,2.804-2.803,2.804C4.194,9.26,2.937,8.002,2.937,6.456z"/>
	<path d="M20,0h-9.256v7.16h1.393v2.067l2.975-2.067H20V0z M18.527,5.688h-6.311V1.473h6.311V5.688z"/>
</g>
</svg>
