<?xml version="1.0" encoding="utf-8"?>
<!-- Generator: Adobe Illustrator 23.0.2, SVG Export Plug-In . SVG Version: 6.00 Build 0)  -->
<svg version="1.1" id="Layer_1" xmlns="http://www.w3.org/2000/svg" xmlns:xlink="http://www.w3.org/1999/xlink" x="0px" y="0px"
	 viewBox="0 0 22 18" style="enable-background:new 0 0 22 18;" xml:space="preserve">
<g>
	<path d="M19.1,7.1l-1.3-0.2c-0.1-0.4-0.3-0.8-0.5-1.2l0.7-1c0.3-0.4,0.3-1-0.1-1.4l-1.1-1.1c-0.2-0.2-0.5-0.3-0.8-0.3
		c-0.2,0-0.5,0.1-0.6,0.2l-1,0.7c-0.4-0.2-0.8-0.4-1.3-0.5l-0.2-1.2C12.8,0.4,12.3,0,11.8,0h-1.6c-0.5,0-1,0.4-1.1,0.9L8.9,2.2
		C8.4,2.3,8,2.5,7.6,2.7L6.6,2C6.4,1.8,6.2,1.8,6,1.8c-0.3,0-0.6,0.1-0.8,0.3L4,3.2c-0.4,0.4-0.4,1-0.1,1.4l0.8,1.1
		C4.5,6.1,4.3,6.5,4.2,6.9L2.9,7.1C2.4,7.2,2,7.7,2,8.2v1.6c0,0.5,0.4,1,0.9,1.1l1.3,0.2c0.1,0.4,0.3,0.8,0.5,1.2l-0.7,1
		c-0.3,0.4-0.3,1,0.1,1.4L5.2,16c0.2,0.2,0.5,0.3,0.8,0.3c0.2,0,0.5-0.1,0.6-0.2l1.1-0.8c0.4,0.2,0.8,0.4,1.2,0.5l0.2,1.3
		c0.1,0.5,0.6,0.9,1.1,0.9h1.6c0.5,0,1-0.4,1.1-0.9l0.2-1.3c0.4-0.1,0.8-0.3,1.2-0.5l1,0.7c0.2,0.1,0.4,0.2,0.6,0.2
		c0.3,0,0.6-0.1,0.8-0.3l1.1-1.1c0.4-0.4,0.4-1,0.1-1.4l-0.7-1c0.2-0.4,0.4-0.8,0.5-1.2l1.3-0.2c0.5-0.1,0.9-0.6,0.9-1.1V8.2
		C20,7.7,19.6,7.2,19.1,7.1z M19,9.8L19,9.8C19,9.8,19,9.9,19,9.8l-1.7,0.4c-0.2,0-0.4,0.2-0.4,0.4c-0.1,0.6-0.4,1.1-0.7,1.6
		c-0.1,0.2-0.1,0.4,0,0.6l0.9,1.3c0,0,0,0.1,0,0.1l-1.1,1.1c0,0-0.1,0-0.1,0c0,0,0,0-0.1,0l-1.3-0.9c-0.2-0.1-0.4-0.1-0.6,0
		c-0.5,0.3-1,0.5-1.6,0.7c-0.2,0.1-0.3,0.2-0.4,0.4l-0.3,1.6c0,0,0,0.1-0.1,0.1h-1.6c0,0-0.1,0-0.1-0.1l-0.3-1.6
		c0-0.2-0.2-0.4-0.4-0.4c-0.5-0.1-1.1-0.4-1.5-0.6c-0.1,0-0.2-0.1-0.3-0.1c-0.1,0-0.2,0-0.3,0.1l-1.3,0.9c0,0,0,0-0.1,0
		c0,0,0,0-0.1,0l-1.1-1.1c0,0,0-0.1,0-0.1l0.9-1.3c0.1-0.2,0.1-0.4,0-0.6c-0.3-0.5-0.5-1-0.7-1.6c-0.1-0.2-0.2-0.3-0.4-0.4L3.1,9.9
		C3,9.9,3,9.9,3,9.8V8.2c0,0,0-0.1,0.1-0.1l1.6-0.3c0.2,0,0.4-0.2,0.4-0.4C5.2,7,5.4,6.4,5.7,5.9c0.1-0.2,0.1-0.4,0-0.5L4.8,4.1
		c0,0,0-0.1,0-0.1l1.1-1.1c0,0,0.1,0,0.1,0c0,0,0,0,0.1,0l1.3,0.9c0.2,0.1,0.4,0.1,0.6,0c0.5-0.3,1-0.5,1.6-0.7
		C9.6,3,9.8,2.9,9.8,2.7l0.3-1.6c0,0,0-0.1,0.1-0.1h1.6c0,0,0.1,0,0.1,0.1l0.3,1.6c0,0.2,0.2,0.4,0.4,0.4c0.6,0.1,1.1,0.4,1.6,0.7
		c0.2,0.1,0.4,0.1,0.6,0L16,2.8c0,0,0,0,0.1,0c0,0,0,0,0.1,0l1.1,1.1c0,0,0,0.1,0,0.1l-0.9,1.3c-0.1,0.2-0.1,0.4,0,0.6
		c0.3,0.5,0.5,1,0.7,1.6c0,0.2,0.2,0.3,0.4,0.4l1.6,0.3c0,0,0.1,0,0.1,0.1L19,9.8L19,9.8z"/>
	<path d="M11,5.1C8.9,5.1,7.1,6.9,7.1,9c0,2.1,1.7,3.9,3.9,3.9s3.9-1.7,3.9-3.9C14.9,6.9,13.1,5.1,11,5.1z M11,11.9
		c-1.6,0-2.9-1.3-2.9-2.9c0-1.6,1.3-2.9,2.9-2.9s2.9,1.3,2.9,2.9C13.9,10.6,12.6,11.9,11,11.9z"/>
</g>
</svg>
