<?xml version="1.0" encoding="utf-8"?>
<!-- Generator: Adobe Illustrator 16.0.0, SVG Export Plug-In . SVG Version: 6.00 Build 0)  -->
<!DOCTYPE svg PUBLIC "-//W3C//DTD SVG 1.1//EN" "http://www.w3.org/Graphics/SVG/1.1/DTD/svg11.dtd">
<svg version="1.1" id="Layer_1" xmlns="http://www.w3.org/2000/svg" xmlns:xlink="http://www.w3.org/1999/xlink" x="0px" y="0px"
	 width="22px" height="18px" viewBox="0 0 22 18" enable-background="new 0 0 22 18" xml:space="preserve">
<path fill="#FFFFFF" d="M20.733,9.734L11.011,0L1.267,9.733l0.954,0.955l1.011-1.01v7.948C3.232,17.832,3.399,18,3.605,18h5.581
	c0.206,0,0.374-0.168,0.374-0.374v-5.999v-0.326v-0.373h0.374h2.217h0.374v0.373v0.326v5.999c0,0.205,0.168,0.374,0.375,0.374h5.549
	c0.204,0,0.373-0.168,0.373-0.374V9.73l0.957,0.958L20.733,9.734z M17.472,8.422v6.141v1.714v0.374h-0.374h-2.85h-0.374v-0.374
	v-1.714V9.955V9.953V9.579h-0.373H8.585H8.211v0.374v0.002v4.608v1.714v0.374H7.837H4.955H4.581v-0.374v-1.714V8.422
	c0-0.026-0.01-0.051-0.016-0.076l6.445-6.437l6.469,6.478C17.479,8.399,17.472,8.409,17.472,8.422z"/>
</svg>
