<?xml version="1.0" encoding="utf-8"?>
<!-- Generator: Adobe Illustrator 16.0.0, SVG Export Plug-In . SVG Version: 6.00 Build 0)  -->
<!DOCTYPE svg PUBLIC "-//W3C//DTD SVG 1.1//EN" "http://www.w3.org/Graphics/SVG/1.1/DTD/svg11.dtd">
<svg version="1.1" id="Layer_1" xmlns="http://www.w3.org/2000/svg" xmlns:xlink="http://www.w3.org/1999/xlink" x="0px" y="0px"
	 width="12.769px" height="13.075px" viewBox="0 0 12.769 13.075" enable-background="new 0 0 12.769 13.075" xml:space="preserve">
<path fill="#1A9CD8" d="M12.314,9.346l-1.533-1.594c-0.297-0.319-0.658-0.491-1.043-0.497C9.354,7.248,8.984,7.406,8.669,7.71
	L7.82,8.527C7.794,8.514,7.769,8.5,7.744,8.486L7.679,8.452C7.581,8.401,7.49,8.354,7.413,8.304C6.59,7.76,5.847,7.058,5.139,6.157
	C4.822,5.741,4.605,5.393,4.444,5.04C4.627,4.875,4.8,4.707,4.967,4.542l0.328-0.319c0.322-0.312,0.496-0.68,0.503-1.065
	C5.805,2.773,5.644,2.4,5.333,2.077L4.509,1.224c-0.066-0.068-0.133-0.139-0.198-0.21c-0.154-0.166-0.338-0.36-0.527-0.541
	C3.489,0.171,3.131,0.007,2.75,0C2.374-0.006,2.001,0.144,1.68,0.442L0.697,1.4C0.304,1.779,0.076,2.247,0.018,2.791
	c-0.085,0.851,0.15,1.646,0.334,2.17C0.797,6.23,1.475,7.407,2.485,8.667c1.232,1.525,2.726,2.736,4.439,3.602
	c0.662,0.328,1.547,0.715,2.538,0.797c0.062,0.003,0.126,0.007,0.185,0.008c0.18,0.003,0.356-0.011,0.522-0.042c0,0,0,0,0.001,0
	c0.47-0.089,0.882-0.315,1.24-0.693c0.132-0.153,0.284-0.296,0.445-0.446l0.051-0.048c0.126-0.116,0.254-0.238,0.381-0.365
	c0.309-0.309,0.476-0.677,0.482-1.063C12.776,10.027,12.618,9.657,12.314,9.346z M7.565,9.412L7.519,9.53
	C7.631,9.588,7.74,9.617,7.854,9.62c0.047,0,0.092-0.003,0.137-0.012c0.212-0.04,0.345-0.17,0.389-0.212L9.37,8.44
	c0.079-0.075,0.215-0.172,0.345-0.171c0.144,0.003,0.258,0.109,0.318,0.177l1.547,1.601c0.239,0.247,0.235,0.467-0.014,0.718
	c-0.098,0.102-0.198,0.195-0.304,0.295L11.217,11.1c-0.186,0.173-0.383,0.359-0.563,0.565c-0.272,0.281-0.572,0.401-0.987,0.395
	c-0.04-0.001-0.082-0.002-0.122-0.005c-0.828-0.067-1.589-0.405-2.161-0.692C5.8,10.563,4.42,9.442,3.283,8.035
	C2.345,6.862,1.719,5.778,1.315,4.624C1.07,3.93,0.983,3.397,1.034,2.892c0.031-0.302,0.151-0.551,0.37-0.761L2.388,1.18
	c0.096-0.086,0.19-0.138,0.281-0.156C2.692,1.02,2.715,1.018,2.737,1.018C2.874,1.02,2.989,1.11,3.074,1.199
	c0.169,0.163,0.33,0.333,0.5,0.513l1.029,1.073C4.851,3.042,4.848,3.241,4.59,3.49L4.509,3.569C4.453,3.623,4.398,3.677,4.339,3.731
	c-0.257,0.253-0.477,0.466-0.74,0.694C3.308,4.708,3.351,5,3.409,5.198l0.011,0.032C3.615,5.727,3.895,6.204,4.333,6.78
	c0.779,0.994,1.603,1.77,2.515,2.37c0.12,0.079,0.243,0.144,0.358,0.203c0.098,0.052,0.191,0.1,0.284,0.159L7.565,9.412L7.565,9.412
	z"/>
</svg>
