<?xml version="1.0" encoding="utf-8"?>
<!-- Generator: Adobe Illustrator 16.0.0, SVG Export Plug-In . SVG Version: 6.00 Build 0)  -->
<!DOCTYPE svg PUBLIC "-//W3C//DTD SVG 1.1//EN" "http://www.w3.org/Graphics/SVG/1.1/DTD/svg11.dtd">
<svg version="1.1" id="Layer_1" xmlns="http://www.w3.org/2000/svg" xmlns:xlink="http://www.w3.org/1999/xlink" x="0px" y="0px"
	 width="14px" height="13.999px" viewBox="0 0 14 13.999" enable-background="new 0 0 14 13.999" xml:space="preserve">
<g>
	<path fill="#7FBB42" d="M13.043,7c0,1.667-0.59,3.092-1.77,4.272c-1.18,1.181-2.604,1.771-4.273,1.771s-3.093-0.59-4.273-1.771
		c-1.18-1.18-1.77-2.604-1.77-4.272c0-1.669,0.59-3.093,1.77-4.274c1.18-1.18,2.604-1.77,4.273-1.77s3.093,0.59,4.273,1.77
		C12.453,3.907,13.043,5.331,13.043,7z"/>
	<path fill="#FFFFFF" d="M7,14c-1.924,0-3.589-0.69-4.95-2.051C0.69,10.589,0,8.924,0,7s0.69-3.589,2.05-4.951
		C3.411,0.689,5.076,0,7,0c1.923,0,3.588,0.69,4.95,2.05C13.31,3.411,14,5.076,14,7s-0.69,3.588-2.05,4.949
		C10.589,13.31,8.924,14,7,14z M7,0.957c-1.684,0-3.082,0.579-4.273,1.77S0.957,5.315,0.957,7s0.579,3.081,1.77,4.272
		S5.315,13.042,7,13.042c1.684,0,3.082-0.58,4.273-1.771s1.77-2.588,1.77-4.272c0-1.685-0.579-3.082-1.77-4.274
		C10.082,1.535,8.684,0.957,7,0.957z"/>
</g>
</svg>
