<svg xmlns="http://www.w3.org/2000/svg" viewBox="0 0 16.4 15.6">
  <defs>
    <style>
      .cls-1 {
        fill: #58595b;
      }
    </style>
  </defs>
  <path id="Icon_2" class="cls-1" d="M15,9.2V8.8a6.888,6.888,0,0,0-4.2-6.3,2.6,2.6,0,0,0-5.2.1A6.648,6.648,0,0,0,1.4,8.8v.4A2.613,2.613,0,0,0,0,11.5a2.647,2.647,0,0,0,2.6,2.6,4.253,4.253,0,0,0,1.1-.2,6.622,6.622,0,0,0,4.5,1.7,7.142,7.142,0,0,0,4.5-1.7,1.978,1.978,0,0,0,1.1.2,2.647,2.647,0,0,0,2.6-2.6A2.613,2.613,0,0,0,15,9.2ZM8.2,1A1.58,1.58,0,0,1,9.8,2.6a1.6,1.6,0,0,1-3.2,0A1.58,1.58,0,0,1,8.2,1ZM2.6,13.1a1.6,1.6,0,0,1,0-3.2,1.6,1.6,0,0,1,0,3.2Zm2,0a2.271,2.271,0,0,0,.6-1.6A2.647,2.647,0,0,0,2.6,8.9h0V8.8A5.684,5.684,0,0,1,5.8,3.7a2.513,2.513,0,0,0,4.6,0,5.662,5.662,0,0,1,3.3,5.1v.1h0a2.647,2.647,0,0,0-2.6,2.6,2.271,2.271,0,0,0,.6,1.6,5.6,5.6,0,0,1-3.5,1.3A5.662,5.662,0,0,1,4.6,13.1Zm9.2,0a1.6,1.6,0,1,1,1.6-1.6A1.645,1.645,0,0,1,13.8,13.1Z"/>
</svg>
