<?xml version="1.0" encoding="utf-8"?>
<!-- Generator: Adobe Illustrator 16.0.0, SVG Export Plug-In . SVG Version: 6.00 Build 0)  -->
<!DOCTYPE svg PUBLIC "-//W3C//DTD SVG 1.1//EN" "http://www.w3.org/Graphics/SVG/1.1/DTD/svg11.dtd">
<svg version="1.1" id="Layer_1" xmlns="http://www.w3.org/2000/svg" xmlns:xlink="http://www.w3.org/1999/xlink" x="0px" y="0px"
	 width="22px" height="18px" viewBox="0 0 22 18" enable-background="new 0 0 22 18" xml:space="preserve">
<g>
	<g>
		<path fill="#FFFFFF" d="M11.009,0C7.96,0,5.163,1.581,3.519,4.058V1.473H1.991v5.285h5.285V5.23H4.465
			c1.333-2.306,3.827-3.788,6.544-3.788c4.167,0,7.556,3.39,7.556,7.558c0,4.167-3.39,7.558-7.556,7.558
			c-4.167,0-7.557-3.391-7.557-7.558H2.009c0,4.963,4.037,9,9,9c4.962,0,9-4.037,9-9S15.972,0,11.009,0z"/>
		<polygon fill="#FFFFFF" points="10.258,3 10.258,9.764 15.537,9.764 15.537,8.261 11.761,8.261 11.761,3 		"/>
	</g>
</g>
</svg>
