<?xml version="1.0" encoding="utf-8"?>
<!-- Generator: Adobe Illustrator 16.0.0, SVG Export Plug-In . SVG Version: 6.00 Build 0)  -->
<!DOCTYPE svg PUBLIC "-//W3C//DTD SVG 1.1//EN" "http://www.w3.org/Graphics/SVG/1.1/DTD/svg11.dtd">
<svg version="1.1" id="Layer_1" xmlns="http://www.w3.org/2000/svg" xmlns:xlink="http://www.w3.org/1999/xlink" x="0px" y="0px"
	 width="14px" height="14px" viewBox="0 0 14 14" enable-background="new 0 0 14 14" xml:space="preserve">
<g>
	<path fill="#F26768" d="M1.362,13.093l2.02,0.04c0.397,0.014,0.742-0.107,0.995-0.352c0.251-0.243,0.389-0.585,0.396-0.984
		l0.021-1.077c0.025-0.007,0.05-0.015,0.075-0.022l0.064-0.021c0.097-0.031,0.185-0.058,0.268-0.076
		c0.882-0.181,1.816-0.207,2.856-0.081c0.473,0.063,0.838,0.147,1.171,0.271c-0.012,0.224-0.016,0.445-0.017,0.659l-0.005,0.417
		c-0.006,0.411,0.119,0.761,0.363,1.014c0.244,0.252,0.59,0.39,0.999,0.398l1.083,0.018c0.086,0.002,0.175,0.003,0.264,0.008
		c0.207,0.007,0.451,0.013,0.691,0.009c0.384,0.004,0.721-0.121,0.972-0.362c0.248-0.24,0.39-0.579,0.405-0.978L14,10.722
		c0.01-0.498-0.145-0.948-0.459-1.337c-0.495-0.606-1.161-0.967-1.618-1.187C10.814,7.665,9.616,7.343,8.15,7.182
		C6.368,6.993,4.622,7.175,2.954,7.724C2.315,7.938,1.493,8.26,0.799,8.847C0.758,8.885,0.713,8.923,0.676,8.96
		C0.557,9.076,0.452,9.199,0.365,9.326h0C0.119,9.688-0.001,10.1,0.012,10.574c0.013,0.184,0.007,0.376,0.001,0.577L0.01,11.214
		C0.003,11.372,0,11.533,0,11.696c0,0.4,0.13,0.746,0.375,0.999C0.623,12.952,0.964,13.089,1.362,13.093z M4.387,9.982L4.341,9.876
		c-0.11,0.036-0.2,0.087-0.275,0.159c-0.031,0.03-0.058,0.061-0.081,0.095c-0.111,0.164-0.113,0.334-0.114,0.389l-0.021,1.257
		c-0.002,0.099-0.028,0.25-0.112,0.333c-0.095,0.091-0.238,0.097-0.32,0.091l-2.035-0.034c-0.313-0.006-0.454-0.15-0.454-0.473
		c-0.003-0.129,0.002-0.254,0.006-0.387l0.003-0.055c0.007-0.232,0.014-0.479-0.001-0.73c-0.006-0.356,0.11-0.629,0.382-0.892
		C1.345,9.604,1.374,9.577,1.4,9.554c0.578-0.491,1.289-0.765,1.843-0.949c1.541-0.506,3.156-0.673,4.8-0.499
		c1.363,0.151,2.468,0.447,3.474,0.932c0.606,0.29,1.007,0.578,1.3,0.938c0.176,0.215,0.259,0.454,0.253,0.729l-0.021,1.251
		c-0.006,0.116-0.034,0.212-0.081,0.282c-0.013,0.018-0.027,0.034-0.04,0.047c-0.09,0.087-0.223,0.103-0.335,0.102
		c-0.215,0.004-0.428-0.002-0.654-0.008l-1.357-0.029c-0.327-0.005-0.453-0.136-0.448-0.463l0.002-0.103
		c0-0.071,0.002-0.142,0.004-0.215c0.003-0.329,0.007-0.609,0.03-0.927c0.005-0.371-0.21-0.531-0.376-0.621l-0.027-0.013
		C9.32,9.81,8.83,9.685,8.175,9.595C7.028,9.456,5.997,9.486,5.02,9.688c-0.128,0.026-0.25,0.064-0.362,0.1
		C4.56,9.818,4.469,9.848,4.371,9.87L4.387,9.982L4.387,9.982z"/>
	<polygon fill="#F26768" points="11.3,0.684 7.637,0.684 7.637,1.721 9.481,1.721 6.64,4.543 3.423,1.418 2.7,2.163 6.648,5.997 
		10.262,2.407 10.262,4.346 11.3,4.346 	"/>
</g>
</svg>
