<?xml version="1.0" encoding="utf-8"?>
<!-- Generator: Adobe Illustrator 16.0.0, SVG Export Plug-In . SVG Version: 6.00 Build 0)  -->
<!DOCTYPE svg PUBLIC "-//W3C//DTD SVG 1.1//EN" "http://www.w3.org/Graphics/SVG/1.1/DTD/svg11.dtd">
<svg version="1.1" id="Layer_1" xmlns="http://www.w3.org/2000/svg" xmlns:xlink="http://www.w3.org/1999/xlink" x="0px" y="0px"
	 width="14px" height="14px" viewBox="0 0 14 14" enable-background="new 0 0 14 14" xml:space="preserve">
<g>
	<path fill="#FCB316" d="M11.899,7c0,1.354-0.478,2.508-1.435,3.464C9.507,11.421,8.352,11.899,7,11.899
		c-1.352,0-2.507-0.478-3.464-1.436C2.579,9.508,2.101,8.353,2.101,7c0-1.353,0.478-2.506,1.435-3.464
		C4.492,2.579,5.648,2.102,7,2.102c1.353,0,2.507,0.477,3.465,1.434C11.421,4.493,11.899,5.647,11.899,7z"/>
	<path fill="#FFFFFF" d="M7,14c-1.924,0-3.589-0.69-4.95-2.05C0.689,10.589,0,8.924,0,7c0-1.924,0.689-3.589,2.05-4.949
		C3.41,0.69,5.075,0,7,0s3.59,0.689,4.951,2.051C13.311,3.411,14,5.076,14,7c0,1.925-0.689,3.59-2.05,4.951
		C10.588,13.31,8.923,14,7,14z M7,2.1C5.634,2.1,4.5,2.57,3.535,3.536C2.57,4.501,2.1,5.634,2.1,7s0.47,2.5,1.435,3.466
		C4.5,11.43,5.634,11.9,7,11.9s2.5-0.47,3.466-1.435C11.43,9.5,11.9,8.365,11.9,7s-0.47-2.498-1.435-3.464C9.5,2.57,8.365,2.1,7,2.1
		z"/>
</g>
</svg>
