<?xml version="1.0" encoding="utf-8"?>
<!-- Generator: Adobe Illustrator 16.0.0, SVG Export Plug-In . SVG Version: 6.00 Build 0)  -->
<!DOCTYPE svg PUBLIC "-//W3C//DTD SVG 1.1//EN" "http://www.w3.org/Graphics/SVG/1.1/DTD/svg11.dtd">
<svg version="1.1" id="Layer_1" xmlns="http://www.w3.org/2000/svg" xmlns:xlink="http://www.w3.org/1999/xlink" x="0px" y="0px"
	 width="20px" height="15px" viewBox="0 0 20 15" enable-background="new 0 0 20 15" xml:space="preserve">
<path d="M15.677,11.593L14.398,9.64c-0.246-0.389-0.587-0.638-0.986-0.72c-0.396-0.081-0.812,0.01-1.197,0.265l-1.041,0.682
	c-0.023-0.019-0.047-0.038-0.07-0.057l-0.061-0.05c-0.092-0.071-0.178-0.138-0.248-0.205c-0.747-0.724-1.382-1.598-1.94-2.671
	C8.606,6.391,8.45,5.987,8.351,5.589c0.223-0.135,0.435-0.276,0.641-0.414l0.401-0.268c0.396-0.261,0.648-0.608,0.73-1.006
	c0.082-0.398-0.013-0.817-0.272-1.213L9.163,1.643c-0.056-0.084-0.111-0.17-0.164-0.257C8.871,1.184,8.717,0.946,8.557,0.722
	c-0.247-0.371-0.586-0.61-0.98-0.692c-0.389-0.08-0.805,0.004-1.196,0.25L5.173,1.082c-0.481,0.315-0.81,0.756-0.976,1.31
	C3.943,3.259,4.032,4.13,4.121,4.709c0.214,1.403,0.688,2.758,1.49,4.262c0.98,1.822,2.293,3.371,3.903,4.604
	c0.622,0.469,1.466,1.044,2.479,1.321c0.063,0.017,0.129,0.033,0.189,0.045C12.369,14.98,12.553,15,12.732,15c0,0,0,0,0.001,0
	c0.505,0,0.977-0.154,1.422-0.477c0.167-0.134,0.353-0.252,0.549-0.377l0.063-0.04c0.153-0.095,0.311-0.196,0.466-0.304
	c0.381-0.261,0.626-0.609,0.709-1.009C16.023,12.391,15.932,11.975,15.677,11.593z M10.737,10.735l-0.071,0.113
	c0.104,0.082,0.213,0.134,0.331,0.158c0.048,0.01,0.096,0.015,0.144,0.015c0.228,0,0.392-0.109,0.445-0.145l1.214-0.798
	c0.096-0.063,0.256-0.136,0.391-0.11c0.148,0.031,0.246,0.163,0.295,0.245l1.293,1.964c0.2,0.302,0.153,0.53-0.154,0.741
	c-0.121,0.086-0.243,0.164-0.373,0.246l-0.054,0.034c-0.228,0.143-0.469,0.298-0.695,0.476c-0.338,0.239-0.672,0.306-1.102,0.218
	c-0.041-0.008-0.085-0.019-0.125-0.028c-0.846-0.231-1.57-0.731-2.107-1.14c-1.486-1.14-2.7-2.571-3.604-4.255
	c-0.746-1.4-1.184-2.646-1.377-3.923C5.067,3.78,5.081,3.209,5.232,2.695c0.091-0.308,0.266-0.543,0.533-0.718l1.206-0.795
	c0.116-0.07,0.225-0.106,0.322-0.106c0.024,0,0.049,0.002,0.072,0.007c0.141,0.029,0.242,0.146,0.313,0.253
	c0.144,0.203,0.277,0.41,0.418,0.63L8.956,3.28c0.208,0.316,0.166,0.521-0.15,0.729l-0.1,0.066C8.637,4.121,8.57,4.166,8.498,4.211
	C8.182,4.425,7.912,4.602,7.595,4.787C7.237,5.024,7.224,5.334,7.247,5.551l0.005,0.036C7.356,6.14,7.554,6.689,7.896,7.373
	c0.614,1.185,1.317,2.149,2.147,2.95c0.108,0.105,0.224,0.196,0.332,0.28c0.092,0.073,0.178,0.142,0.263,0.221L10.737,10.735
	L10.737,10.735z"/>
</svg>
