<?xml version="1.0" encoding="utf-8"?>
<!-- Generator: Adobe Illustrator 16.0.0, SVG Export Plug-In . SVG Version: 6.00 Build 0)  -->
<!DOCTYPE svg PUBLIC "-//W3C//DTD SVG 1.1//EN" "http://www.w3.org/Graphics/SVG/1.1/DTD/svg11.dtd">
<svg version="1.1" id="Layer_1" xmlns="http://www.w3.org/2000/svg" xmlns:xlink="http://www.w3.org/1999/xlink" x="0px" y="0px"
	 width="22px" height="18px" viewBox="0 0 22 18" enable-background="new 0 0 22 18" xml:space="preserve">
<g>
	<rect x="10.256" fill="#FFFFFF" width="1.488" height="10.382"/>
	<path fill="#FFFFFF" d="M14.811,2.678l-0.044-0.023l-0.646,1.239l0.043,0.022c2.206,1.178,3.576,3.456,3.576,5.947
		c0,3.717-3.023,6.74-6.739,6.74c-3.717,0-6.741-3.023-6.741-6.74c0-2.507,1.385-4.793,3.615-5.966l0.044-0.023L7.25,2.646
		L7.207,2.67C4.527,4.089,2.862,6.845,2.862,9.863c0,4.487,3.651,8.137,8.139,8.137c4.487,0,8.137-3.649,8.137-8.137
		C19.138,6.853,17.48,4.1,14.811,2.678z"/>
</g>
</svg>
