<svg xmlns="http://www.w3.org/2000/svg" width="13.598" height="13.482" viewBox="0 0 13.598 13.482"><defs><style>.a{fill:#1d76f2;}</style></defs><g transform="translate(-16.927 -4.574)"><path class="a" d="M17.557,18.055a.627.627,0,0,1-.607-.8l.818-3.193a.661.661,0,0,1,.167-.3l8.729-8.733a1.524,1.524,0,0,1,1.066-.456A1.428,1.428,0,0,1,28.825,5L30.019,6.2a1.778,1.778,0,0,1-.032,2.516h0l-8.543,8.514a.616.616,0,0,1-.337.177l-3.434.642a.5.5,0,0,1-.116.01Zm1.4-3.508-.523,2.038,2.247-.417,8.386-8.376a.5.5,0,0,0,.029-.7L27.9,5.911a.189.189,0,0,0-.148-.058.279.279,0,0,0-.183.083Z" transform="translate(0 0)"/><rect class="a" width="1.284" height="3.543" transform="translate(25.629 7.137) rotate(-44.71)"/><rect class="a" width="1.284" height="3.543" transform="translate(18.331 13.828) rotate(-44.71)"/></g></svg>