<svg xmlns="http://www.w3.org/2000/svg" width="11.816" height="12.594" viewBox="0 0 11.816 12.594"><defs><style>.a{opacity:0.3;}</style></defs><g class="a" transform="translate(-3.19 -1.5)"><path d="M15.006,3.263H11.572V1.889A.394.394,0,0,0,11.19,1.5H7.125a.394.394,0,0,0-.4.394V3.267H3.19v.79h.886l.952,9.68a.394.394,0,0,0,.391.357h7.474a.391.391,0,0,0,.391-.357l.952-9.68h.769ZM7.519,2.3h3.276v.961H7.519Zm5.013,11H5.779L4.863,4.052h8.584Z" transform="translate(0 0)"/><rect width="0.79" height="5.933" transform="translate(8.704 5.693)"/><rect width="0.79" height="5.933" transform="translate(10.593 5.693)"/><rect width="0.79" height="5.933" transform="translate(6.933 5.693)"/></g></svg>