<svg xmlns="http://www.w3.org/2000/svg" width="13.072" height="13.13" viewBox="0 0 13.072 13.13"><defs><style>.a{stroke:#000;stroke-width:0.3px;}</style></defs><g transform="translate(-0.325 0.15)"><path class="a" d="M13.033,7.8l-.7-.4a1.134,1.134,0,0,1,0-1.964l.7-.4a.376.376,0,0,0,.138-.513L11.661,1.9a.376.376,0,0,0-.514-.138l-.7.4a1.134,1.134,0,0,1-1.7-.982V.376A.376.376,0,0,0,8.37,0H5.351a.376.376,0,0,0-.376.376v.809a1.134,1.134,0,0,1-1.7.982l-.7-.4A.376.376,0,0,0,2.06,1.9L.551,4.515a.376.376,0,0,0,.138.513l.7.4a1.134,1.134,0,0,1,0,1.964l-.7.4a.376.376,0,0,0-.138.513L2.06,10.93a.376.376,0,0,0,.514.138l.7-.4a1.134,1.134,0,0,1,1.7.982v.809a.376.376,0,0,0,.376.376H8.37a.376.376,0,0,0,.376-.376v-.809a1.134,1.134,0,0,1,1.7-.982l.7.4a.376.376,0,0,0,.513-.138l1.51-2.615A.376.376,0,0,0,13.033,7.8ZM11.2,10.229l-.375-.217a1.885,1.885,0,0,0-2.828,1.633v.433H5.727v-.433A1.885,1.885,0,0,0,2.9,10.012l-.375.217L1.39,8.265l.375-.217a1.885,1.885,0,0,0,0-3.266L1.39,4.565,2.523,2.6l.375.217A1.885,1.885,0,0,0,5.727,1.185V.752H7.994v.433a1.885,1.885,0,0,0,2.828,1.633L11.2,2.6l1.134,1.964-.375.217a1.885,1.885,0,0,0,0,3.266l.375.217Zm0,0"/><path class="a" d="M151.955,151a2.631,2.631,0,1,0,2.631,2.631A2.634,2.634,0,0,0,151.955,151Zm0,4.511a1.879,1.879,0,1,1,1.879-1.879A1.881,1.881,0,0,1,151.955,155.511Zm0,0" transform="translate(-145.095 -147.216)"/></g></svg>