<svg xmlns="http://www.w3.org/2000/svg" width="22.925" height="17.194" viewBox="0 0 22.925 17.194"><defs><style>.a{fill:#435669;}</style></defs><path class="a" d="M20.776,59.882H2.149A2.152,2.152,0,0,0,0,62.031v12.9a2.152,2.152,0,0,0,2.149,2.149H20.776a2.152,2.152,0,0,0,2.149-2.149v-12.9A2.152,2.152,0,0,0,20.776,59.882Zm0,1.433a.712.712,0,0,1,.275.055l-9.588,8.31L1.875,61.37a.713.713,0,0,1,.275-.055Zm0,14.328H2.149a.717.717,0,0,1-.716-.716V62.884l9.56,8.285a.717.717,0,0,0,.939,0l9.56-8.285V74.926A.717.717,0,0,1,20.776,75.643Z" transform="translate(0 -59.882)"/></svg>