<svg xmlns="http://www.w3.org/2000/svg" width="15.453" height="15.453" viewBox="0 0 15.453 15.453"><defs><style>.a{fill:#f05540;}.b{fill:#f3705a;}.c{fill:#ffd15c;}.d{fill:#f7b64c;}.e{fill:#944851;}</style></defs><rect class="a" width="1.771" height="3.091" transform="translate(11.557 2.221)"/><rect class="b" width="3.123" height="1.674" transform="translate(10.881 0.644)"/><path class="c" d="M44.8,73.51v7.115H57.42V73.51L51.11,67.2h0C48.663,69.679,47.279,71.063,44.8,73.51Z" transform="translate(-43.448 -65.172)"/><path class="d" d="M57.452,73.51l-6.31-6.31c-1.256,1.223-2.221,2.189-3.187,3.155L44.8,73.51v1.449l6.31-6.31,6.31,6.31v.193h0V73.51h.032Z" transform="translate(-43.448 -65.172)"/><rect class="e" width="4.958" height="4.346" transform="translate(5.004 9.819)"/><path class="b" d="M15.163,7.018,8.435.29a1.05,1.05,0,0,0-1.449,0L.29,7.018a1.05,1.05,0,0,0,0,1.449,1.05,1.05,0,0,0,1.449,0L7.726,2.479l5.988,5.988a1.024,1.024,0,1,0,1.449-1.449Z" transform="translate(0 0)"/></svg>