<svg xmlns="http://www.w3.org/2000/svg" width="20.351" height="27.982" viewBox="0 0 20.351 27.982"><defs><style>.a{fill:#435669;stroke:#fff;stroke-width:0.3px;}</style></defs><g transform="translate(-70.423 0.15)"><g transform="translate(70.573)"><g transform="translate(0)"><path class="a" d="M80.6,0A10.037,10.037,0,0,0,70.573,10.025c0,6.86,8.972,16.932,9.354,17.357a.9.9,0,0,0,1.343,0c.382-.425,9.354-10.5,9.354-17.357A10.037,10.037,0,0,0,80.6,0Zm0,25.4c-3.019-3.587-8.22-10.663-8.22-15.371a8.22,8.22,0,1,1,16.44,0C88.818,14.734,83.619,21.809,80.6,25.4Z" transform="translate(-70.573)"/></g></g><g transform="translate(75.554 4.981)"><g transform="translate(0)"><path class="a" d="M167.752,92.134a5.044,5.044,0,1,0,5.044,5.044A5.05,5.05,0,0,0,167.752,92.134Zm0,8.283a3.239,3.239,0,1,1,3.239-3.239A3.242,3.242,0,0,1,167.752,100.417Z" transform="translate(-162.708 -92.134)"/></g></g></g></svg>