<svg xmlns="http://www.w3.org/2000/svg" width="19.392" height="28.26" viewBox="0 0 19.392 28.26"><defs><style>.a{fill:#435669;}</style></defs><g transform="translate(-80.334)"><g transform="translate(80.334 12.415)"><path class="a" d="M99.726,225.762a.828.828,0,0,0-1.656,0,8.04,8.04,0,1,1-16.08,0,.828.828,0,0,0-1.656,0,9.709,9.709,0,0,0,8.868,9.66v3.7H87.369a.828.828,0,1,0,0,1.656H92.69a.828.828,0,1,0,0-1.656H90.858v-3.7A9.709,9.709,0,0,0,99.726,225.762Z" transform="translate(-80.334 -224.934)"/></g><g transform="translate(85.655)"><path class="a" d="M181.109,0a4.38,4.38,0,0,0-4.375,4.375v8.868a4.375,4.375,0,0,0,8.75,0V4.375A4.38,4.38,0,0,0,181.109,0Zm2.719,13.243a2.719,2.719,0,1,1-5.439,0V4.375a2.719,2.719,0,1,1,5.439,0Z" transform="translate(-176.734)"/></g></g></svg>