<svg xmlns="http://www.w3.org/2000/svg" width="12.92" height="12.92" viewBox="0 0 12.92 12.92"><defs><style>.a{stroke:#000;stroke-width:0.2px;}</style></defs><g transform="translate(0.1 0.1)"><path class="a" d="M235.728,363.2a.53.53,0,1,1-.53-.53A.53.53,0,0,1,235.728,363.2Zm0,0" transform="translate(-228.838 -353.658)"/><path class="a" d="M6.36,12.72a6.36,6.36,0,1,1,6.36-6.36A6.367,6.367,0,0,1,6.36,12.72ZM6.36.8A5.565,5.565,0,1,0,11.925,6.36,5.571,5.571,0,0,0,6.36.8Zm0,0"/><path class="a" d="M167.585,91.03a.4.4,0,0,1-.4-.4V90.1a1.2,1.2,0,0,1,.8-1.125,1.644,1.644,0,0,0,1.059-1.388,1.458,1.458,0,0,0-2.915,0,.4.4,0,1,1-.8,0,2.253,2.253,0,0,1,4.505,0,2.439,2.439,0,0,1-1.59,2.138.4.4,0,0,0-.266.375v.535A.4.4,0,0,1,167.585,91.03Zm0,0" transform="translate(-161.224 -83.212)"/></g></svg>