<svg xmlns="http://www.w3.org/2000/svg" width="22" height="22" viewBox="0 0 22 22">
  <g id="vacation" transform="translate(1583 323)">
    <rect id="Rectangle_1873" data-name="Rectangle 1873" width="22" height="22" transform="translate(-1583 -323)" fill="#fff" opacity="0"/>
    <g id="sun-umbrella" transform="translate(-1581.629 -320)">
      <path id="Path_25573" data-name="Path 25573" d="M255.23,188.749l3.242-8.133a.663.663,0,1,1,1.232.491l-3.1,7.767Z" transform="translate(-245.897 -174.705)" fill="#90a4ae"/>
      <path id="Path_25574" data-name="Path 25574" d="M290.171,220.421v0h0Z" transform="translate(-279.56 -213.455)" fill="#fff9c5"/>
      <path id="Path_25575" data-name="Path 25575" d="M322.373,180.245a.663.663,0,0,0-.862.371l-.849,2.13a3.076,3.076,0,0,1,1.233.49l.848-2.129A.663.663,0,0,0,322.373,180.245Z" transform="translate(-308.936 -174.705)" opacity="0.1"/>
      <path id="Path_25576" data-name="Path 25576" d="M294.17,100.961l-2.446.263-1.553,1.809v2.3h0a4.042,4.042,0,0,1,3.888,1.542l.007.013,1.278-1.265.143-3.157Z" transform="translate(-279.56 -98.366)" fill="#fff9c5"/>
      <path id="Path_25577" data-name="Path 25577" d="M67.136,388.07c-.89-1.423-3.9-2.47-7.487-2.47s-6.6,1.047-7.486,2.47h.5l1.085.7,1.141.124.8-.465,1.277-.466.685.186,1.457.744.961-.155,1.24-.463.9-.281,1.147.281.93.618,1.488-.186Z" transform="translate(-50.255 -372.596)" fill="#ffca28"/>
      <path id="Path_25578" data-name="Path 25578" d="M200.9,388.655l1.252-.585c-.89-1.423-3.9-2.47-7.487-2.47a17.378,17.378,0,0,0-2.362.158C196,386.182,199.093,387.244,200.9,388.655Z" transform="translate(-185.276 -372.596)" opacity="0.1"/>
      <path id="Path_25579" data-name="Path 25579" d="M20.31,445.529a2.567,2.567,0,0,0-2.9,0,2.019,2.019,0,0,1-2.278,0,2.567,2.567,0,0,0-2.9,0,2.019,2.019,0,0,1-2.278,0,2.567,2.567,0,0,0-2.9,0,2.019,2.019,0,0,1-2.278,0,2.567,2.567,0,0,0-2.9,0,.275.275,0,0,0,.309.456,2.019,2.019,0,0,1,2.278,0,2.567,2.567,0,0,0,2.9,0,2.019,2.019,0,0,1,2.278,0,2.567,2.567,0,0,0,2.9,0,2.019,2.019,0,0,1,2.278,0,2.567,2.567,0,0,0,2.9,0,2.019,2.019,0,0,1,2.278,0,.275.275,0,0,0,.309-.456Z" transform="translate(-1.708 -429.902)" fill="#1eb8e8"/>
      <g id="Group_14730" data-name="Group 14730" transform="translate(6.715 2.167)">
        <path id="Path_25580" data-name="Path 25580" d="M187.52,94.042a4.042,4.042,0,0,0-3.9-1.552s3.293-4.65,7.9-2.816c0,0-2.414.646-4,4.371Z" transform="translate(-183.623 -89.245)" fill="#ef495b"/>
        <path id="Path_25581" data-name="Path 25581" d="M396.706,106.881a4.042,4.042,0,0,1,3.9,1.553s.809-5.64-3.794-7.475c0,0,1.308,2.129-.1,5.923Z" transform="translate(-388.912 -100.532)" fill="#ef495b"/>
      </g>
      <ellipse id="Ellipse_262" data-name="Ellipse 262" cx="1.5" cy="1.5" rx="1.5" ry="1.5" transform="translate(1.634 1.634)" fill="#ffca28"/>
      <g id="Group_14731" data-name="Group 14731" transform="translate(0 0)">
        <path id="Path_25582" data-name="Path 25582" d="M78.441,31.09a.275.275,0,0,1-.275-.275V30.26a.275.275,0,0,1,.551,0v.554A.275.275,0,0,1,78.441,31.09Z" transform="translate(-75.308 -29.985)" fill="#ff9800"/>
        <path id="Path_25583" data-name="Path 25583" d="M123,53.821a.275.275,0,0,1-.195-.47l.392-.392a.275.275,0,0,1,.389.389l-.392.392A.275.275,0,0,1,123,53.821Z" transform="translate(-118.237 -52.041)" fill="#ff9800"/>
        <path id="Path_25584" data-name="Path 25584" d="M142.012,108.7h-.554a.275.275,0,0,1,0-.551h.554a.275.275,0,0,1,0,.551Z" transform="translate(-136.02 -105.293)" fill="#ff9800"/>
        <path id="Path_25585" data-name="Path 25585" d="M123.392,153.652a.274.274,0,0,1-.195-.081l-.392-.392a.275.275,0,0,1,.389-.389l.392.392a.275.275,0,0,1-.195.47Z" transform="translate(-118.237 -148.221)" fill="#ff9800"/>
        <path id="Path_25586" data-name="Path 25586" d="M78.441,172.272a.275.275,0,0,1-.275-.275v-.554a.275.275,0,1,1,.551,0V172A.275.275,0,0,1,78.441,172.272Z" transform="translate(-75.308 -166.004)" fill="#ff9800"/>
        <path id="Path_25587" data-name="Path 25587" d="M23.17,153.652a.275.275,0,0,1-.195-.47l.392-.392a.275.275,0,0,1,.389.389l-.392.392A.275.275,0,0,1,23.17,153.652Z" transform="translate(-22.057 -148.221)" fill="#ff9800"/>
        <path id="Path_25588" data-name="Path 25588" d="M.829,108.7H.275a.275.275,0,0,1,0-.551H.829a.275.275,0,0,1,0,.551Z" transform="translate(0 -105.293)" fill="#ff9800"/>
        <path id="Path_25589" data-name="Path 25589" d="M23.561,53.822a.274.274,0,0,1-.195-.081l-.392-.392a.275.275,0,0,1,.389-.389l.392.392a.275.275,0,0,1-.195.47Z" transform="translate(-22.057 -52.042)" fill="#ff9800"/>
      </g>
    </g>
  </g>
</svg>
