<svg xmlns="http://www.w3.org/2000/svg" width="23.694" height="23.704" viewBox="0 0 23.694 23.704"><defs><style>.a{fill:#435669;stroke:#435669;stroke-width:0.3px;}</style></defs><g transform="translate(0.15 0.159)"><g transform="translate(0 0.001)"><g transform="translate(0 0)"><path class="a" d="M12.6.054a.65.65,0,0,0-.7.124L5.207,6.5H.65a.649.649,0,0,0-.65.65v9.1a.649.649,0,0,0,.65.65H5.208L11.9,23.217a.65.65,0,0,0,1.1-.472V.651A.65.65,0,0,0,12.6.054ZM11.7,21.237,5.913,15.775a.649.649,0,0,0-.447-.178H1.3V7.8H5.466a.649.649,0,0,0,.447-.178L11.7,2.159Z" transform="translate(0 -0.001)"/><path class="a" d="M298.663,64.113a.65.65,0,0,0-.693,1.1,7.781,7.781,0,0,1,0,13.2.65.65,0,0,0,.693,1.1,9.082,9.082,0,0,0,0-15.4Z" transform="translate(-279.533 -60.115)"/><path class="a" d="M256.743,138.811a.65.65,0,0,0-.777,1.043,2.572,2.572,0,0,1,0,4.155.65.65,0,0,0,.777,1.043,3.874,3.874,0,0,0,0-6.242Z" transform="translate(-240.127 -130.236)"/></g></g></g></svg>