<svg xmlns="http://www.w3.org/2000/svg" width="32" height="32" viewBox="0 0 32 32"><defs><style>.a{fill:#f7f7f7;stroke:#e3e3e3;stroke-width:0.5px;}.b{fill:#57729a;}.c{stroke:none;}.d{fill:none;}</style></defs><g transform="translate(-10683 -4125)"><g class="a" transform="translate(10683 4125)"><rect class="c" width="32" height="32" rx="4"/><rect class="d" x="0.25" y="0.25" width="31.5" height="31.5" rx="3.75"/></g><path class="b" d="M18.9,24.551h0a1.175,1.175,0,0,1-.682-.218,1.569,1.569,0,0,1-.787-1.5c.128-1.087,1.549-2.225,4.223-3.385a43.263,43.263,0,0,0,2.673-7.18c-.7-1.451-1.389-3.333-.89-4.437a1.313,1.313,0,0,1,.8-.811,3.642,3.642,0,0,1,.717-.115c.356,0,.668.433.89.7.208.251.68.783-.263,4.543a21.317,21.317,0,0,0,3.59,5.051,14.474,14.474,0,0,1,2.369-.239c1.1,0,1.774.244,2.048.746a1.3,1.3,0,0,1-.275,1.443,1.906,1.906,0,0,1-1.566.8,4.782,4.782,0,0,1-2.971-1.526,35.192,35.192,0,0,0-6.229,1.885,18.7,18.7,0,0,1-1.681,2.839C20.138,24.1,19.514,24.551,18.9,24.551Zm1.878-3.424c-1.508.8-2.122,1.461-2.167,1.833-.007.061-.026.223.3.462C19.018,23.391,19.631,23.126,20.775,21.127ZM30.4,18.161c.575.419.715.63,1.091.63a1.1,1.1,0,0,0,.854-.295,1.04,1.04,0,0,0,.162-.277c-.087-.043-.2-.132-.829-.132A10.891,10.891,0,0,0,30.4,18.161Zm-5.27-4.4a45.947,45.947,0,0,1-1.887,5.052,36.727,36.727,0,0,1,4.583-1.349A22.871,22.871,0,0,1,25.126,13.765ZM24.7,8.113a1.54,1.54,0,0,0,.068,2.148C25.435,8.848,24.728,8.1,24.7,8.113Z" transform="translate(10673.582 4125.092)"/></g></svg>