<svg xmlns="http://www.w3.org/2000/svg" width="24.261" height="13.568" viewBox="0 0 24.261 13.568"><defs><style>.a{fill:#828282;stroke:#f1f5f9;stroke-width:0.5px;}</style></defs><g transform="translate(-2.126 -8.066)"><path class="a" d="M2,13.534A6.53,6.53,0,0,1,8.534,7H21.008a4.752,4.752,0,0,1,0,9.5H10.91a2.97,2.97,0,0,1,0-5.94h8.91V12.94H10.8c-.653,0-.653,1.188,0,1.188H21.008a2.376,2.376,0,0,0,0-4.752H8.534a4.158,4.158,0,0,0,0,8.316H19.82v2.376H8.534A6.53,6.53,0,0,1,2,13.534Z" transform="translate(0.376 1.316)"/></g></svg>