<svg xmlns="http://www.w3.org/2000/svg" width="21.697" height="22.41" viewBox="0 0 21.697 22.41"><defs><style>.a{fill:none;}.b,.c{fill:#1d76f2;}.c{stroke-linejoin:bevel;}.d,.e{stroke:none;}.e{fill:#fff;}</style></defs><g transform="translate(-742 -117.262)"><g transform="translate(742 122.448)"><path class="a" d="M0,0H17.224V17.224H0Z"/><path class="b" d="M15.354,2H2.435A1.44,1.44,0,0,0,1,3.435v8.612a1.44,1.44,0,0,0,1.435,1.435H7.459v1.435H6.024v1.435h5.741V14.918H10.33V13.483h5.024a1.44,1.44,0,0,0,1.435-1.435V3.435A1.44,1.44,0,0,0,15.354,2Zm0,10.048H2.435V3.435H15.354Z" transform="translate(-0.282 -0.565)"/></g><g transform="translate(752.775 118.762)"><g class="c" transform="translate(-4 -2.5)"><path class="d" d="M 8.633048057556152 14.54306221008301 C 7.636444568634033 14.54306221008301 6.815828323364258 13.77509689331055 6.731863021850586 12.79988193511963 L 3.999997854232788 12.79988193511963 L 3.249997854232788 12.79988193511963 L 3.249997854232788 12.04988193511963 L 3.249997854232788 11.47075176239014 L 3.249997854232788 11.1600923538208 L 3.469667911529541 10.94042205810547 L 4.408267974853516 10.00182247161865 L 4.408267974853516 7.416831970214844 C 4.408267974853516 6.77813196182251 4.51816987991333 6.159204006195068 4.72892427444458 5.5984206199646 L 3.469667911529541 4.339171886444092 L 2.939337968826294 3.808841943740845 L 3.469667911529541 3.278512001037598 L 4.205167770385742 2.543012142181396 L 4.743688106536865 2.004492044448853 L 5.273888111114502 2.551202058792114 L 6.328204154968262 3.638337135314941 C 6.404782295227051 3.534801483154297 6.507174491882324 3.45140814781189 6.625742435455322 3.397769212722778 C 6.732213973999023 3.344839811325073 6.864723682403564 3.281151533126831 7.004289150238037 3.224052667617798 C 7.010005950927734 3.221230506896973 7.015736103057861 3.218490839004517 7.021517753601074 3.215815544128418 C 7.098771572113037 2.394665241241455 7.792033195495605 1.750002026557922 8.633048057556152 1.750002026557922 C 9.472701072692871 1.750002026557922 10.16508865356445 2.392591953277588 10.24420833587646 3.211840867996216 C 11.85016822814941 3.848609924316406 12.85783767700195 5.44043493270874 12.85783767700195 7.422622203826904 L 12.85783767700195 9.55382251739502 L 12.85783767700195 10.37698268890381 L 13.80473804473877 11.35425186157227 L 14.3833475112915 11.95020198822021 L 14.898118019104 12.4804220199585 L 14.37556743621826 13.00297164916992 L 13.64006805419922 13.73847198486328 L 13.10973834991455 14.26880168914795 L 12.57940769195557 13.73847198486328 L 11.64081764221191 12.79988193511963 L 10.53424263000488 12.79988193511963 C 10.45027637481689 13.77509689331055 9.629651069641113 14.54306221008301 8.633048057556152 14.54306221008301 Z"/><path class="e" d="M 8.633048057556152 13.79306221008301 C 9.275887489318848 13.79306221008301 9.791317939758301 13.27764225006104 9.791317939758301 12.63480186462402 L 7.474787712097168 12.63480186462402 C 7.474787712097168 13.27764225006104 7.990217685699463 13.79306221008301 8.633048057556152 13.79306221008301 M 13.10973834991455 13.20814228057861 L 13.84523773193359 12.47264194488525 L 13.2661075592041 11.87614250183105 L 6.223867893218994 4.608042240142822 L 4.735497951507568 3.073342084884644 L 3.999997854232788 3.808841943740845 L 5.621567726135254 5.430402278900146 L 5.621567726135254 5.436192035675049 C 5.320417881011963 6.009541988372803 5.158267974853516 6.687121868133545 5.158267974853516 7.416831970214844 L 5.158267974853516 10.31248188018799 L 3.999997854232788 11.47075176239014 L 3.999997854232788 12.04988193511963 L 11.95147800445557 12.04988193511963 L 13.10973834991455 13.20814228057861 M 12.10783767700195 9.55382251739502 L 12.10783767700195 7.422622203826904 C 12.10783767700195 5.63889217376709 11.15806770324707 4.156311988830566 9.501748085021973 3.762501955032349 L 9.501748085021973 3.368702173233032 C 9.501748085021973 2.888021945953369 9.113727569580078 2.500002145767212 8.633048057556152 2.500002145767212 C 8.152378082275391 2.500002145767212 7.764358043670654 2.888021945953369 7.764358043670654 3.368702173233032 L 7.764358043670654 3.762501955032349 C 7.677487850189209 3.779881954193115 7.596407890319824 3.808841943740845 7.521117687225342 3.83200216293335 C 7.463207721710205 3.849372148513794 7.405297756195068 3.872542142868042 7.347377777099609 3.895702123641968 L 7.341588020324707 3.895702123641968 C 7.335797786712646 3.895702123641968 7.335797786712646 3.895702123641968 7.330008029937744 3.901502132415771 C 7.196807861328125 3.953622102737427 7.063607692718506 4.017322063446045 6.936197757720947 4.081032276153564 C 6.936197757720947 4.081032276153564 6.930408000946045 4.081032276153564 6.930408000946045 4.086822032928467 L 12.10783767700195 9.55382251739502 M 8.633048057556152 15.29306221008301 C 7.488630771636963 15.29306221008301 6.510844707489014 14.56624698638916 6.137096881866455 13.54988193511963 L 3.999997854232788 13.54988193511963 L 2.499997854232788 12.04988193511963 L 2.499997854232788 11.47075176239014 L 2.939337968826294 10.4100923538208 L 3.658267974853516 9.691162109375 L 3.658267974853516 7.416831970214844 C 3.658267974853516 6.861234188079834 3.731722354888916 6.317302227020264 3.874079942703247 5.804238319396973 L 2.939337968826294 4.869502067565918 L 2.939337968826294 2.748182058334351 L 3.674837827682495 2.01268196105957 L 5.8122878074646 2.029062032699585 L 6.385535717010498 2.620153903961182 C 6.699557781219482 1.679759383201599 7.588422775268555 1.000002026557922 8.633048057556152 1.000002026557922 C 9.700958251953125 1.000002026557922 10.60608291625977 1.71039342880249 10.90070152282715 2.683406114578247 C 11.60266876220703 3.034394264221191 12.20012187957764 3.553571701049805 12.65970802307129 4.218252182006836 C 13.27997779846191 5.115332126617432 13.60783767700195 6.223381996154785 13.60783767700195 7.422622203826904 L 13.60783767700195 9.55382251739502 L 13.24473285675049 9.698472023010254 L 14.3433780670166 10.83235168457031 L 14.92144775390625 11.42777252197266 L 14.90589809417725 13.53330230712891 L 14.17039775848389 14.26880168914795 L 12.0490779876709 14.26880168914795 L 11.33015823364258 13.54988193511963 L 11.12900924682617 13.54988193511963 C 10.7552604675293 14.56624698638916 9.777472496032715 15.29306221008301 8.633048057556152 15.29306221008301 Z"/></g></g></g></svg>