<svg xmlns="http://www.w3.org/2000/svg" width="21.199" height="21.199" viewBox="0 0 21.199 21.199"><defs><style>.a{fill:none;}.b{fill:#1d76f2;}</style></defs><path class="a" d="M0,0H21.2V21.2H0Z"/><path class="b" d="M18.133,16.8,7.392,5.715,5.122,3.374,4,4.5,6.473,6.97v.009A6.485,6.485,0,0,0,5.767,10v4.417L4,16.182v.883H16.128l1.767,1.767,1.122-1.122-.883-.91Zm-7.066,2.924a1.76,1.76,0,0,0,1.767-1.767H9.3A1.76,1.76,0,0,0,11.066,19.724Zm5.3-6.466V10.008c0-2.721-1.449-4.982-3.975-5.582v-.6a1.325,1.325,0,0,0-2.65,0v.6a3.718,3.718,0,0,0-.371.106c-.088.026-.177.062-.265.1H9.1c-.009,0-.009,0-.018.009-.2.079-.406.177-.6.274a.009.009,0,0,0-.009.009Z" transform="translate(-0.467 -0.292)"/></svg>