<svg xmlns="http://www.w3.org/2000/svg" width="30.151" height="30.151" viewBox="0 0 30.151 30.151"><defs><style>.a{fill:#fff;}.b{fill:none;}</style></defs><path class="a" d="M20.588,14.819H14.307V21.1h6.281ZM19.332,1V3.513H9.281V1H6.769V3.513H5.513a2.5,2.5,0,0,0-2.5,2.513L3,23.613a2.512,2.512,0,0,0,2.513,2.513H23.1a2.52,2.52,0,0,0,2.513-2.513V6.025A2.52,2.52,0,0,0,23.1,3.513H21.844V1ZM23.1,23.613H5.513V9.794H23.1Z" transform="translate(0.769 0.256)"/><path class="b" d="M0,0H30.151V30.151H0Z"/></svg>