<svg xmlns="http://www.w3.org/2000/svg" viewBox="0 0 10.74 11.52"><defs><style>.cls-1{fill:#0584bd;}</style></defs><title>delete-</title><g id="Layer_2" data-name="Layer 2"><g id="Layer_1-2" data-name="Layer 1"><polygon class="cls-1" points="7.57 3.97 6.66 3.94 6.47 9.28 7.37 9.31 7.57 3.97"/><rect class="cls-1" x="4.92" y="3.96" width="0.9" height="5.34"/><polygon class="cls-1" points="4.27 9.28 4.08 3.94 3.17 3.97 3.37 9.31 4.27 9.28"/><path class="cls-1" d="M0,1.73v.9H.94l.75,8.48a.45.45,0,0,0,.45.41H8.59A.46.46,0,0,0,9,11.11l.75-8.48h1v-.9Zm8.18,8.89H2.55l-.7-8h7Z"/><path class="cls-1" d="M6.84,0H3.9a.76.76,0,0,0-.76.75V2.18h.91V.9H6.69V2.18H7.6V.75A.76.76,0,0,0,6.84,0Z"/></g></g></svg>