<svg xmlns="http://www.w3.org/2000/svg" viewBox="0 0 13.26 13.26"><defs><style>.cls-1{fill:#0584bd;}</style></defs><title>edit-</title><g id="Layer_2" data-name="Layer 2"><g id="Layer_1-2" data-name="Layer 1"><path class="cls-1" d="M12.4.86a2.92,2.92,0,0,0-4.14,0L.67,8.44a.37.37,0,0,0-.1.22L0,12.83a.42.42,0,0,0,.11.32.39.39,0,0,0,.27.11h0l2.51-.34a.38.38,0,0,0-.1-.76l-2,.27.39-2.9,3.06,3.05a.35.35,0,0,0,.26.12.36.36,0,0,0,.27-.12L12.4,5a2.9,2.9,0,0,0,.86-2.07A2.86,2.86,0,0,0,12.4.86Zm-4,.93L9.68,3.07,2.76,10,1.48,8.72Zm-3.86,10L3.3,10.53,10.23,3.6l1.24,1.25ZM12,4.31l-3-3a2.14,2.14,0,0,1,1.37-.5,2.17,2.17,0,0,1,1.54.64,2.12,2.12,0,0,1,.63,1.53A2.17,2.17,0,0,1,12,4.31Z"/></g></g></svg>