<svg xmlns="http://www.w3.org/2000/svg" viewBox="0 0 16.82 10.72"><defs><style>.cls-1{fill:#0584bd;}</style></defs><title>eye-</title><g id="Layer_2" data-name="Layer 2"><g id="Layer_1-2" data-name="Layer 1"><path class="cls-1" d="M16.71,5c-.15-.2-3.73-5-8.3-5S.26,4.83.11,5a.54.54,0,0,0,0,.66c.15.2,3.73,5,8.3,5s8.15-4.83,8.3-5A.57.57,0,0,0,16.71,5ZM8.41,9.61C5,9.61,2.12,6.41,1.26,5.36,2.12,4.31,5,1.11,8.41,1.11s6.28,3.2,7.15,4.25C14.69,6.41,11.78,9.61,8.41,9.61Z"/><path class="cls-1" d="M8.41,2a3.33,3.33,0,1,0,3.32,3.33A3.33,3.33,0,0,0,8.41,2Zm0,5.55a2.22,2.22,0,1,1,2.22-2.22A2.23,2.23,0,0,1,8.41,7.58Z"/></g></g></svg>