<svg xmlns="http://www.w3.org/2000/svg" viewBox="0 0 12.57 13.62"><defs><style>.cls-1{fill:#0584bd;}</style></defs><title>like-</title><g id="Layer_2" data-name="Layer 2"><g id="Layer_1-2" data-name="Layer 1"><path class="cls-1" d="M12.17,7.61a2.34,2.34,0,0,0,.4-1.33A2,2,0,0,0,12,4.81a2,2,0,0,0-1.48-.62H9a3.48,3.48,0,0,0,.4-1.57A3.37,3.37,0,0,0,9.14,1.1,1.76,1.76,0,0,0,8.31.27,2.79,2.79,0,0,0,7.07,0a1.06,1.06,0,0,0-.74.3,2,2,0,0,0-.5.89,9,9,0,0,0-.25,1,1.44,1.44,0,0,1-.29.7C5,3.21,4.73,3.56,4.41,4A7.23,7.23,0,0,1,3.29,5.24H1.05a1,1,0,0,0-1,1v5.23a1,1,0,0,0,.31.74,1,1,0,0,0,.74.31H3.4a6,6,0,0,1,1.13.33c.67.23,1.27.41,1.78.53a6.21,6.21,0,0,0,1.55.19h1A2.61,2.61,0,0,0,10.77,13a2.3,2.3,0,0,0,.69-1.8A2.28,2.28,0,0,0,12,9.71a2.19,2.19,0,0,0,0-.36,2.28,2.28,0,0,0,.31-1.17A2.12,2.12,0,0,0,12.17,7.61ZM1.94,11.37a.51.51,0,0,1-.37.15A.51.51,0,0,1,1.05,11a.51.51,0,0,1,.15-.37.54.54,0,0,1,.37-.16A.55.55,0,0,1,2.1,11,.54.54,0,0,1,1.94,11.37ZM11.35,7c-.12.25-.27.38-.44.38a1.19,1.19,0,0,1,.2.39,1.35,1.35,0,0,1,.08.46,1.28,1.28,0,0,1-.43,1,1.09,1.09,0,0,1,.15.56,1.47,1.47,0,0,1-.14.61.94.94,0,0,1-.39.42,4.09,4.09,0,0,1,0,.46c0,.91-.53,1.37-1.57,1.37h-1a9,9,0,0,1-2.8-.6l-.24-.08-.29-.11-.29-.09-.31-.09-.27,0-.26,0H3.14V6.29H3.4a.67.67,0,0,0,.29-.08A1.26,1.26,0,0,0,4,6l.32-.29c.1-.1.2-.22.32-.36L5,5c.07-.08.15-.2.25-.33l.19-.25c.3-.37.51-.62.63-.74a2.07,2.07,0,0,0,.49-.9c.1-.36.18-.7.25-1a1.31,1.31,0,0,1,.31-.69,1.22,1.22,0,0,1,1,.38,2.19,2.19,0,0,1,.26,1.19A3.34,3.34,0,0,1,8,3.93a3.44,3.44,0,0,0-.4,1.31h2.88a1.08,1.08,0,0,1,1,1A1.69,1.69,0,0,1,11.35,7Z"/></g></g></svg>