<svg xmlns="http://www.w3.org/2000/svg" width="14.142" height="14.142" viewBox="0 0 14.142 14.142"><defs><style>.a{fill:#1d76f2;}</style></defs><path class="a" d="M8.571,6a2.571,2.571,0,1,0,2.571,2.571A2.57,2.57,0,0,0,8.571,6Zm5.747,1.928a5.782,5.782,0,0,0-5.1-5.1V1.5H7.928V2.824a5.782,5.782,0,0,0-5.1,5.1H1.5V9.214H2.824a5.782,5.782,0,0,0,5.1,5.1v1.324H9.214V14.317a5.782,5.782,0,0,0,5.1-5.1h1.324V7.928ZM8.571,13.07a4.5,4.5,0,1,1,4.5-4.5A4.5,4.5,0,0,1,8.571,13.07Z" transform="translate(-1.5 -1.5)"/></svg>