<svg xmlns="http://www.w3.org/2000/svg" width="27.404" height="33" viewBox="0 0 27.404 33"><defs><style>.a{fill:#2ed8ec;}.b{fill:#11b0c2;}.c{fill:#fff;}</style></defs><g transform="translate(-568 -752.57)"><path class="a" d="M26.32,33H1.084A1.077,1.077,0,0,1,0,31.93V1.07A1.077,1.077,0,0,1,1.084,0h17.3a1.091,1.091,0,0,1,.766.313l7.936,7.834A1.063,1.063,0,0,1,27.4,8.9V31.93A1.077,1.077,0,0,1,26.32,33Zm0,0" transform="translate(568 752.57)"/><path class="b" d="M263.117,8.148,255.181.314A1.092,1.092,0,0,0,254.415,0V7.835A1.077,1.077,0,0,0,255.5,8.9h7.936a1.062,1.062,0,0,0-.318-.756Zm0,0" transform="translate(331.969 752.569)"/><g transform="translate(573.11 755.963)"><path class="c" d="M8.4,21.463a.762.762,0,0,1-1.249.587L2.981,18.6H.762A.762.762,0,0,1,0,17.835V14.8a.762.762,0,0,1,.762-.762H2.982l4.167-3.453A.763.763,0,0,1,8.4,11.17V21.463Zm2.929-1.191-.055,0a.761.761,0,0,1-.539-.223l-.1-.1a.762.762,0,0,1-.074-.993,4.432,4.432,0,0,0-.117-5.431.762.762,0,0,1,.052-1.019l.1-.1a.746.746,0,0,1,.577-.222.763.763,0,0,1,.552.279,6.1,6.1,0,0,1,.159,7.508A.763.763,0,0,1,11.326,20.272Zm3.151,2.355a.763.763,0,0,1-.551.27h-.032a.762.762,0,0,1-.539-.223l-.1-.1a.762.762,0,0,1-.044-1.03,8.122,8.122,0,0,0-.135-10.612.762.762,0,0,1,.031-1.043l.1-.1a.742.742,0,0,1,.562-.224.762.762,0,0,1,.548.256,9.786,9.786,0,0,1,.16,12.807Z" transform="translate(0 0)"/></g></g></svg>