<svg xmlns="http://www.w3.org/2000/svg" width="20.139" height="20.139" viewBox="0 0 20.139 20.139"><defs><style>.a{fill:#fff;}</style></defs><g transform="translate(0 -0.003)"><path class="a" d="M19.1,12.294,16.535,9.727a3.575,3.575,0,0,0-5.084.049L10.366,8.69a3.471,3.471,0,0,0,1.086-2.579,3.407,3.407,0,0,0-1.024-2.505L7.885,1.052A3.381,3.381,0,0,0,5.368,0,3.407,3.407,0,0,0,2.863,1.027l-1.814,1.8A3.367,3.367,0,0,0,0,5.334,3.428,3.428,0,0,0,1.037,7.851L3.6,10.418a3.428,3.428,0,0,0,2.517,1.037,3.457,3.457,0,0,0,2.567-1.086l1.086,1.086a3.471,3.471,0,0,0-1.086,2.579,3.407,3.407,0,0,0,1.024,2.505l2.542,2.554a3.56,3.56,0,0,0,5.022.025l1.814-1.8a3.368,3.368,0,0,0,1.049-2.505A3.429,3.429,0,0,0,19.1,12.294ZM8.687,7.012l-.228-.234q-.191-.2-.265-.265a2.984,2.984,0,0,0-.235-.185.994.994,0,0,0-.315-.16,1.257,1.257,0,0,0-.339-.043A1.179,1.179,0,0,0,6.121,7.308a1.257,1.257,0,0,0,.043.339.991.991,0,0,0,.16.315A2.969,2.969,0,0,0,6.51,8.2q.068.074.265.265l.234.228a1.193,1.193,0,0,1-.888.382,1.138,1.138,0,0,1-.839-.333L2.715,6.173a1.143,1.143,0,0,1-.345-.839,1.128,1.128,0,0,1,.345-.827l1.814-1.8a1.192,1.192,0,0,1,.839-.333,1.143,1.143,0,0,1,.839.345L8.749,5.272a1.142,1.142,0,0,1,.345.839A1.2,1.2,0,0,1,8.687,7.012Zm8.737,8.625-1.814,1.8a1.189,1.189,0,0,1-.839.321,1.137,1.137,0,0,1-.839-.333L11.39,14.873a1.142,1.142,0,0,1-.345-.839,1.2,1.2,0,0,1,.407-.9l.228.234q.191.2.265.265a2.93,2.93,0,0,0,.234.185.989.989,0,0,0,.315.16,1.255,1.255,0,0,0,.339.043,1.18,1.18,0,0,0,1.185-1.184,1.265,1.265,0,0,0-.043-.339.987.987,0,0,0-.161-.315,2.979,2.979,0,0,0-.185-.235q-.068-.074-.265-.265l-.235-.228a1.176,1.176,0,0,1,.888-.395,1.141,1.141,0,0,1,.839.346l2.567,2.567a1.143,1.143,0,0,1,.346.839A1.127,1.127,0,0,1,17.425,15.637Z" transform="translate(0)"/></g></svg>