<svg xmlns="http://www.w3.org/2000/svg" width="26.194" height="26.194" viewBox="0 0 26.194 26.194"><defs><style>.a{fill:#fff;}</style></defs><path class="a" d="M27.753,21.016a16.652,16.652,0,0,1-5.137-.815,1.422,1.422,0,0,0-1.47.349l-2.285,2.867A22.1,22.1,0,0,1,8.835,13.478l2.838-2.416a1.485,1.485,0,0,0,.349-1.484,16.229,16.229,0,0,1-.815-5.137A1.453,1.453,0,0,0,9.767,3H4.732C3.946,3,3,3.349,3,4.441A24.96,24.96,0,0,0,27.753,29.194a1.527,1.527,0,0,0,1.441-1.717v-5.02a1.453,1.453,0,0,0-1.441-1.441Z" transform="translate(-3 -3)"/></svg>