<svg xmlns="http://www.w3.org/2000/svg" width="31" height="31" viewBox="0 0 31 31"><defs><style>.a{fill:none;}.b{fill:#fff;}</style></defs><path class="a" d="M0,0H31V31H0Z"/><path class="b" d="M23.667,3.583h-5.4a3.86,3.86,0,0,0-7.285,0h-5.4A2.591,2.591,0,0,0,3,6.167V24.25a2.591,2.591,0,0,0,2.583,2.583H23.667A2.591,2.591,0,0,0,26.25,24.25V6.167A2.591,2.591,0,0,0,23.667,3.583Zm-9.042,0a1.292,1.292,0,1,1-1.292,1.292A1.3,1.3,0,0,1,14.625,3.583ZM12.042,21.667,6.875,16.5,8.7,14.679l3.345,3.333L20.554,9.5l1.821,1.834Z" transform="translate(0.875 0.292)"/></svg>