<svg xmlns="http://www.w3.org/2000/svg" xmlns:xlink="http://www.w3.org/1999/xlink" width="15" height="12" viewBox="0 0 15 12">
  <defs>
    <clipPath id="clip-missed_call">
      <rect width="15" height="12"/>
    </clipPath>
  </defs>
  <g id="missed_call" clip-path="url(#clip-missed_call)">
    <g id="missed_call-2" data-name="missed_call" transform="translate(1 1)">
      <path id="Path_268" data-name="Path 268" d="M107.5,66.873l3.036,3.036,3.865-3.865-.552-.552-3.312,3.312-2.484-2.484h1.932v-.828h-3.312v3.312h.828Z" transform="translate(-103.907 -65.493)" fill="#f84b4b"/>
      <path id="Path_269" data-name="Path 269" d="M13.087,260.071h0a9.387,9.387,0,0,0-12.924,0,.551.551,0,0,0-.163.392.54.54,0,0,0,.163.389l1.366,1.369a.553.553,0,0,0,.778.006A6.441,6.441,0,0,1,3.779,261.2a.556.556,0,0,0,.309-.5v-1.714a8.329,8.329,0,0,1,5.076,0v1.714a.556.556,0,0,0,.309.5,6.273,6.273,0,0,1,1.471,1.024.553.553,0,0,0,.778-.006l1.366-1.369a.551.551,0,0,0,.163-.389A.56.56,0,0,0,13.087,260.071Z" transform="translate(0 -252.524)" fill="#f84b4b"/>
    </g>
  </g>
</svg>
