<svg xmlns="http://www.w3.org/2000/svg" width="25.511" height="25.511" viewBox="0 0 25.511 25.511"><defs><style>.a{fill:none;}.b{fill:#828282;}</style></defs><path class="a" d="M0,0H25.511V25.511H0Z"/><path class="b" d="M21.081,16.159a12.163,12.163,0,0,1-3.752-.6,1.039,1.039,0,0,0-1.074.255l-1.669,2.094a16.139,16.139,0,0,1-7.324-7.26L9.335,8.889A1.085,1.085,0,0,0,9.59,7.8,11.855,11.855,0,0,1,9,4.052,1.062,1.062,0,0,0,7.943,3H4.265C3.691,3,3,3.255,3,4.052A18.232,18.232,0,0,0,21.081,22.133a1.115,1.115,0,0,0,1.052-1.254V17.212a1.062,1.062,0,0,0-1.052-1.052Z" transform="translate(0.189 0.189)"/></svg>