<svg xmlns="http://www.w3.org/2000/svg" width="23.017" height="24.412" viewBox="0 0 23.017 24.412"><defs><style>.a{fill:#828282;stroke:#828282;stroke-width:0.7px;}</style></defs><path class="a" d="M12.149,6.747a5.652,5.652,0,0,1-2.53,4.71v4.887a2.573,2.573,0,0,1,1.621,2.387V20.24H.909V18.731A2.573,2.573,0,0,1,2.53,16.343V11.456A5.653,5.653,0,0,1,0,6.747V6.154H5.482V0H6.667V6.154h5.482ZM2.1,18.731v.323h7.959v-.323a1.385,1.385,0,0,0-1.384-1.384H3.479A1.385,1.385,0,0,0,2.1,18.731Zm1.621-2.569H8.433v-4.1A5.628,5.628,0,0,1,6.5,12.4H5.653a5.627,5.627,0,0,1-1.937-.342Zm1.937-4.947H6.5A4.474,4.474,0,0,0,10.924,7.34h-9.7a4.474,4.474,0,0,0,4.428,3.874Zm0,0" transform="matrix(-0.788, -0.616, 0.616, -0.788, 10.065, 23.92)"/></svg>