<svg xmlns="http://www.w3.org/2000/svg" width="21.891" height="21.891" viewBox="0 0 21.891 21.891"><defs><style>.a{fill:#828282;}</style></defs><g transform="translate(0 -0.002)"><g transform="translate(0 0.002)"><path class="a" d="M20.423,5.453A10.9,10.9,0,0,0,16.44,1.47,10.707,10.707,0,0,0,10.946,0,10.706,10.706,0,0,0,5.452,1.47,10.9,10.9,0,0,0,1.468,5.453,10.706,10.706,0,0,0,0,10.947a10.709,10.709,0,0,0,1.468,5.494,10.9,10.9,0,0,0,3.983,3.983,10.708,10.708,0,0,0,5.494,1.468,10.709,10.709,0,0,0,5.494-1.468,10.9,10.9,0,0,0,3.983-3.983,10.709,10.709,0,0,0,1.468-5.494A10.708,10.708,0,0,0,20.423,5.453ZM19.34,14.489a8.992,8.992,0,0,1-4.853,4.853,8.99,8.99,0,0,1-7.083,0,8.992,8.992,0,0,1-4.853-4.853,8.991,8.991,0,0,1,0-7.083A8.994,8.994,0,0,1,7.4,2.553a8.993,8.993,0,0,1,7.083,0A8.993,8.993,0,0,1,19.34,7.406a8.99,8.99,0,0,1,0,7.083Z" transform="translate(0 -0.002)"/><path class="a" d="M123.761,246.663a.9.9,0,0,0-.7.057.862.862,0,0,0-.456.542,3.644,3.644,0,0,1-6.955,0,.91.91,0,1,0-1.739.541,5.262,5.262,0,0,0,1.967,2.779,5.535,5.535,0,0,0,6.5,0,5.267,5.267,0,0,0,1.966-2.779.907.907,0,0,0-.584-1.14Z" transform="translate(-108.184 -234.307)"/><path class="a" d="M111.458,113.284a1.825,1.825,0,1,0-1.29-.535A1.759,1.759,0,0,0,111.458,113.284Z" transform="translate(-104.161 -104.162)"/><path class="a" d="M257.631,109.633a1.825,1.825,0,1,0,1.29.535A1.758,1.758,0,0,0,257.631,109.633Z" transform="translate(-243.037 -104.16)"/></g></g></svg>