<svg xmlns="http://www.w3.org/2000/svg" width="23.019" height="23.018" viewBox="0 0 23.019 23.018"><defs><style>.a{fill:none;}.b{fill:#828282;}</style></defs><path class="a" d="M0,0H23.018V23.018H0ZM0,0H23.018V23.018H0Z"/><path class="b" d="M8.673,20.182H17.3a1.905,1.905,0,0,0,1.765-1.17l2.9-6.762a1.9,1.9,0,0,0,.134-.7V9.632a1.924,1.924,0,0,0-1.918-1.918H14.13l.911-4.383.029-.307a1.444,1.444,0,0,0-.422-1.017L13.631,1,7.311,7.32a1.906,1.906,0,0,0-.556,1.352v9.591A1.924,1.924,0,0,0,8.673,20.182Zm0-11.509L12.835,4.51,11.55,9.632h8.632V11.55L17.3,18.264H8.673ZM1,8.673H4.836V20.182H1Z" transform="translate(-0.041 -0.041)"/></svg>